<svg xmlns="http://www.w3.org/2000/svg" viewBox="0 0 838 842"><defs><style>.cls-1,.cls-2{fill:none;stroke:#402457;stroke-miterlimit:10}.cls-1{stroke-linecap:round;stroke-width:9px}.cls-2{stroke-width:10px}.cls-3{fill:#402457}.cls-3,.cls-4,.cls-5,.cls-6{stroke-width:0}.cls-7{display:none}.cls-4{fill:#faa0d6}.cls-5{fill:#ffe2a2}.cls-6{fill:#80adf1}</style></defs><g id="Layer_5" data-name="Layer 5"><path class="cls-4" d="M783.87 386.38c1.14-12.35 1.72-26.3 1.72-41.35 0-35.61-3.22-77.44-9.6-119.57-6.39-42.13-15.96-84.54-28.56-121.3-7.41-21.68-15.9-41.36-25.3-57.83-10.58 5.34-22.24 12.59-34.46 21.28-14.8 10.54-30.41 23.13-46.02 36.84-31.28 27.46-62.61 59.4-88.09 88.42-8.49 9.67-16.34 19.03-23.31 27.76-6.97 8.73-13.06 16.84-18.04 24.05-.11.16-.25.29-.36.42-.18.25-.38.49-.58.71-.2.18-.4.34-.6.51-.2.16-.4.34-.62.49-.24.14-.47.27-.71.4s-.45.25-.69.34c-.24.11-.49.18-.72.25-.27.07-.51.16-.78.22-.25.05-.53.07-.78.11-.27.02-.53.05-.78.05-.31.02-.62-.02-.92-.05-.18-.02-.36 0-.54-.04l-.09-.02-.31-.05c-.27-.04-.69-.11-1.25-.2-1.1-.16-2.75-.42-4.87-.72-4.24-.62-10.34-1.43-17.77-2.23-14.85-1.63-35.03-3.26-56.05-3.26-10 0-20.19.36-30.08 1.27-30.9 2.79-60 9.63-81.53 15.86-21.53 6.23-35.48 11.83-36.15 12.1l-.02.02c-4.17 1.68-8.93-.31-10.61-4.47-1.7-4.18.29-8.93 4.47-10.63.2-.07 14.38-5.85 36.73-12.37 7.57-2.21 16.1-4.49 25.32-6.68-15.39-21.62-35.17-47.41-56.56-73.09-24.78-29.74-51.72-59.35-76.35-82.13-16.41-15.18-31.84-27.33-44.48-34.37-5.23-2.93-9.96-4.94-13.89-6.03-7.37 8.86-14.62 20.88-21.33 35.04-7.66 16.05-14.69 34.79-20.95 54.71-12.53 39.86-21.93 84.43-27.42 121.99-3.66 25.03-5.56 47.03-5.56 62.17 0 6.27.34 11.36.91 14.72 2.57 15.27 8.75 35.37 18.42 55.27 4.84 9.94 10.54 19.87 17.08 29.14 6.52 9.27 13.87 17.93 21.99 25.37.11.11.18.24.29.33.2.22.38.42.56.63.16.22.31.42.45.63.15.24.29.47.42.71.11.24.22.47.31.72.11.24.18.47.25.72s.15.51.18.78c.05.25.09.51.11.76.02.25.04.51.04.78 0 .25-.02.53-.04.78-.04.25-.07.51-.13.78-.05.25-.11.51-.2.76-.07.25-.16.51-.27.76-.09.24-.2.47-.33.69-.13.25-.29.49-.45.72-.07.13-.13.25-.22.38l-45.14 59.43 30.47 103.02 2.77-1.1c.05-.02.11-.02.18-.05.27-.09.56-.16.85-.24.24-.05.47-.13.71-.16.27-.05.53-.05.8-.07.27 0 .53-.04.78-.02.25 0 .51.05.76.09.27.04.54.05.82.13.22.05.45.14.67.22.29.09.58.18.85.31.05.04.11.04.16.07.16.07.31.18.45.27.25.14.53.29.76.47.2.16.4.33.58.49.22.18.42.36.6.56.18.2.34.42.51.63.16.2.31.4.45.63.15.25.27.51.4.78.07.16.18.31.25.49.02.05.02.11.04.16.11.29.18.58.25.87.05.24.13.45.16.69.04.27.05.54.05.81.02.25.05.51.04.78 0 .25-.05.51-.09.76-.04.27-.05.54-.13.8-.05.24-.14.45-.22.69-.09.29-.18.56-.31.83-.04.05-.04.13-.07.18l-3.22 6.57 58.68 88c.13-.06.25-.12.39-.17.25-.11.51-.22.76-.31.25-.07.53-.13.78-.18.25-.05.49-.11.74-.13.27-.04.53-.04.8-.04.25 0 .53-.02.78 0 .25.04.51.07.76.13.25.05.53.09.78.16.27.07.51.18.76.27.24.09.47.18.71.29.27.14.53.33.78.49.16.11.34.18.49.31 6.21 4.75 13.96 9.54 22.58 14.09 8.6 4.55 18.07 8.86 27.76 12.75 19.38 7.77 39.7 13.84 55.76 16.9 37.63 7.21 73.66 9.8 106.33 9.8 38.32 0 72.04-3.57 98.32-7.44 19.65-2.88 54.71-9.74 80.9-18.24 8.6-2.77 16.25-5.74 21.88-8.62l-7.72-7.88a8.13 8.13 0 0 1 .13-11.52 8.13 8.13 0 0 1 11.52.13l9.49 9.69 70.35-65.16-2.81-4.66c-.02-.05-.04-.11-.07-.16-.15-.25-.27-.54-.38-.81-.09-.22-.2-.43-.29-.67-.07-.25-.13-.51-.18-.76-.05-.25-.13-.51-.16-.78-.04-.25-.02-.51-.04-.78 0-.25-.04-.51-.02-.78.02-.25.07-.51.13-.78.04-.25.07-.53.15-.78.05-.22.14-.45.24-.67.11-.29.2-.58.34-.85.02-.05.04-.11.05-.16.09-.14.2-.29.29-.43.16-.25.31-.51.51-.76.16-.2.34-.4.52-.58.18-.2.34-.4.54-.56.24-.2.49-.38.74-.54.14-.11.25-.24.42-.33.05-.02.11-.04.16-.07.25-.14.54-.27.82-.38.22-.09.43-.2.65-.29.25-.07.53-.13.78-.18.25-.05.51-.13.78-.16.25-.04.51-.02.76-.04.27 0 .53-.04.8-.02.25.02.51.07.78.13.25.04.51.07.78.14.22.05.45.14.67.24.29.11.56.2.83.33.05.04.13.05.18.07l1.15.6 32.19-94.18-12.06-15.75c-.11-.14-.16-.29-.25-.43-.18-.25-.34-.49-.47-.76-.13-.22-.22-.45-.31-.69-.11-.25-.2-.51-.29-.76-.07-.25-.13-.51-.18-.78-.04-.25-.09-.51-.11-.76-.04-.25-.04-.51-.04-.78 0-.25.02-.53.04-.78s.07-.51.13-.76c.04-.27.09-.53.16-.78.09-.25.18-.51.29-.74.09-.25.18-.49.31-.71.14-.27.31-.51.47-.76.09-.14.16-.29.25-.43 14.25-18.56 27.42-33.32 38.43-49.64 11.05-16.34 20.14-34.21 26.71-59.84 2.19-8.57 3.91-19.31 5.03-31.64zM132.35 258.86c-.16-.05-.29-.14-.45-.2-.27-.11-.53-.22-.78-.34-.24-.13-.45-.27-.67-.4-.22-.16-.45-.31-.65-.47-.2-.16-.4-.34-.58-.53-.2-.2-.38-.38-.54-.58-.16-.2-.33-.42-.47-.63-.14-.2-.29-.42-.42-.65a4.37 4.37 0 0 1-.33-.69c-.11-.25-.22-.49-.29-.74-.09-.24-.15-.49-.2-.74-.05-.25-.11-.53-.14-.78-.04-.27-.04-.54-.05-.8 0-.27 0-.53.02-.8s.07-.54.13-.83c.02-.16.02-.33.05-.49l10.94-44.73c.04-.2.13-.36.2-.56.07-.27.16-.54.27-.8.11-.24.24-.47.36-.69.15-.24.27-.47.42-.69.16-.22.33-.42.51-.62.16-.2.33-.4.53-.58.18-.18.4-.34.6-.51.2-.16.4-.33.62-.45.22-.14.45-.27.69-.38.24-.13.47-.25.71-.34.24-.09.49-.16.74-.24.25-.07.51-.16.76-.2.27-.05.53-.07.8-.09.27-.04.53-.05.8-.05s.54.04.83.07c.2.02.4.02.6.05l36.26 6.83-32.51-49.42c-2.46-3.77-1.43-8.82 2.34-11.3 3.77-2.46 8.82-1.43 11.28 2.34L237.17 257c.11.16.18.34.27.51.15.27.31.54.42.81.11.24.18.49.25.72.07.27.16.53.22.78.05.27.07.53.11.8.02.25.05.51.05.76.02.27-.02.53-.04.78-.02.27-.04.53-.09.8-.04.24-.13.49-.18.72-.07.27-.14.53-.25.78-.09.25-.22.49-.34.72-.11.24-.22.45-.36.67-.16.25-.36.49-.56.74-.11.14-.2.31-.34.45l-75.76 81.19c-3.08 3.3-8.22 3.48-11.52.4s-3.48-8.22-.4-11.52l18.82-20.16-24.92 6.81c-.16.05-.31.05-.47.09-.15.02-.29.09-.45.11-.11.02-.24 0-.34.02-.29.04-.58.04-.85.04s-.53 0-.78-.02c-.27-.02-.53-.07-.8-.13-.25-.04-.51-.09-.76-.18-.25-.07-.49-.16-.74-.25-.24-.11-.47-.2-.71-.33s-.45-.25-.67-.4c-.22-.14-.43-.29-.63-.45-.2-.16-.4-.33-.6-.53-.18-.18-.36-.36-.53-.54-.18-.2-.33-.42-.47-.63-.16-.22-.31-.45-.43-.69-.13-.22-.24-.45-.34-.69-.11-.25-.22-.53-.31-.8-.04-.11-.09-.22-.13-.33-.04-.16-.04-.31-.07-.47-.04-.14-.09-.29-.13-.45l-5.45-35.82c-.04-.16-.02-.31-.04-.47-.02-.29-.04-.58-.04-.87 0-.27.02-.53.05-.78.04-.25.07-.53.13-.78.05-.27.13-.53.2-.78.07-.24.16-.47.25-.71.11-.25.24-.49.36-.71.11-.24.25-.47.4-.69.14-.2.29-.4.45-.6.18-.22.34-.42.54-.6.18-.2.38-.36.6-.53.2-.16.38-.33.6-.47.25-.16.51-.31.76-.43.14-.07.27-.18.42-.24l18.02-8.17-17.21-5.65zm200.37 355.68a121.179 121.179 0 0 1-38.52 25.97 121.09 121.09 0 0 1-47.18 9.53c-33.43 0-63.79-13.58-85.68-35.5-21.91-21.88-35.5-52.23-35.5-85.63v-.07c-.02-33.43 13.56-63.79 35.5-85.7 21.9-21.91 52.25-35.5 85.68-35.48 33.45-.02 63.8 13.56 85.7 35.48a121.266 121.266 0 0 1 25.97 38.54 120.99 120.99 0 0 1 9.53 47.16c0 33.43-13.58 63.8-35.5 85.7zm271.66 0a121.179 121.179 0 0 1-38.52 25.97 121.09 121.09 0 0 1-47.18 9.53c-33.43 0-63.79-13.58-85.68-35.5-21.91-21.88-35.5-52.23-35.5-85.63v-.07c-.02-33.43 13.56-63.79 35.5-85.7 21.9-21.91 52.25-35.5 85.68-35.48 33.45-.02 63.8 13.56 85.7 35.48a121.266 121.266 0 0 1 25.97 38.54 120.99 120.99 0 0 1 9.53 47.16c0 33.43-13.58 63.8-35.5 85.7zm118.59-331.63c-.04.27-.05.53-.11.8-.05.25-.13.51-.22.78-.07.24-.14.47-.24.71-.09.25-.22.49-.34.71-.13.24-.25.47-.4.69-.13.22-.29.42-.45.62-.16.2-.33.42-.52.6-.18.2-.4.36-.6.54-.2.16-.38.33-.6.47-.25.16-.53.31-.8.45-.16.09-.31.2-.47.27l-38.48 17.26 35.52 21.9c.16.11.29.24.45.36.24.16.45.33.67.51.2.16.36.36.54.56s.38.38.53.6c.16.22.31.43.43.67.15.22.27.43.4.67.11.24.2.49.29.72.09.25.18.49.25.74s.11.51.14.76c.05.25.09.51.11.78.02.25.02.51 0 .78 0 .25 0 .53-.04.78-.04.27-.09.53-.16.8-.05.25-.11.51-.2.76-.07.27-.2.53-.31.78-.09.18-.13.36-.24.53l-19.61 36.44s-.05.07-.07.11c-.16.27-.34.51-.53.76-.13.2-.25.4-.42.58-.18.2-.38.38-.58.58-.2.18-.36.36-.56.53-.22.14-.43.27-.65.42-.22.14-.43.29-.67.42-.24.11-.49.2-.72.29-.24.09-.47.2-.72.27s-.52.11-.8.16c-.25.04-.49.11-.74.13-.25.02-.51 0-.78 0s-.54.02-.82-.02c-.24-.02-.47-.09-.71-.14-.29-.05-.6-.11-.89-.2-.05-.02-.09-.02-.15-.04l-37.36-12.68c-.02 2.37-1.01 4.71-3.01 6.3a8.153 8.153 0 0 1-11.46-1.27l-50.31-62.79c-.09-.13-.16-.25-.25-.38-.16-.25-.33-.49-.47-.74-.13-.24-.24-.45-.34-.69-.09-.25-.2-.49-.29-.74-.07-.25-.15-.51-.2-.78-.05-.25-.11-.49-.14-.74-.02-.27-.04-.53-.05-.8 0-.25 0-.53.02-.78s.05-.51.09-.76c.05-.27.09-.53.16-.78a11.234 11.234 0 0 1 .54-1.47c.13-.27.29-.51.43-.76.09-.13.15-.27.24-.4l94.99-133.22c2.61-3.66 7.7-4.51 11.36-1.9a8.112 8.112 0 0 1 1.9 11.36l-45.53 63.88 56.6-10.02c.29-.05.58-.05.87-.07.25-.02.53-.05.78-.05.27 0 .53.07.78.11.27.02.54.04.81.09.29.07.56.18.85.29.22.07.43.13.63.22.29.11.53.29.78.43.2.11.4.2.6.33.24.18.43.38.67.58.16.14.34.27.51.43.2.22.36.45.54.69.14.18.31.34.43.54.14.22.24.45.36.69.13.25.27.47.38.74.09.25.15.53.22.8.09.27.18.51.24.8l7.84 44.46c.04.2.02.38.04.56.04.31.07.6.07.91 0 .25-.04.51-.05.76z"/><path class="cls-5" d="m54.91 542.36 31.62 79.82 23.54-9.3L79.6 509.86l-24.69 32.5zM102.6 664.91l57.01 67.66 17.45-14.1c.14-.13.33-.2.47-.31.25-.18.51-.36.78-.51.09-.06.2-.09.3-.13l-58.68-88-17.33 35.39zM718.59 660.45l31.81-75.1-24.64-32.18-32.19 94.19 25.02 13.09zM636.93 751.31l62.67-63.29-15.16-25.18L614.09 728l22.84 23.31zM673.14 321.88l-15.05-9.28-.02-.02c-.45-.27-.89-.62-1.29-.98-.2-.18-.34-.4-.53-.62-.18-.2-.36-.36-.53-.58-.31-.45-.58-.92-.8-1.41h-.02c-.02-.07-.04-.14-.07-.22-.16-.43-.33-.85-.42-1.3-.07-.24-.07-.49-.11-.74-.04-.27-.09-.54-.11-.81 0-.27.04-.53.05-.8.02-.25.02-.53.05-.8.05-.25.13-.51.2-.78.07-.25.13-.49.22-.74.15-.42.36-.81.58-1.2.04-.07.05-.16.11-.24.29-.45.62-.89 1-1.29.18-.2.4-.36.6-.54.2-.16.38-.36.6-.51.43-.33.91-.6 1.39-.81h.02l17.09-7.66-9.3-37.52-31.29 5.53-32.36 45.39 32.53 40.6 19.38 6.58 18.07-29.26zM175.25 255.87c.08.04.17.07.25.11.22.11.43.2.63.33.24.13.43.31.67.47.2.14.42.29.6.45.2.18.36.38.53.56.2.2.38.4.54.62.15.18.25.4.38.6.16.25.33.51.45.78.04.05.07.09.09.14.07.16.11.34.18.51.09.29.2.56.27.85.07.25.11.51.15.76.04.27.09.53.11.81 0 .27-.02.53-.02.8-.02.27-.02.53-.05.78-.05.29-.13.58-.2.87-.04.18-.05.34-.11.53-.02.05-.05.11-.07.16-.11.27-.24.54-.36.81-.11.22-.2.43-.33.65-.13.22-.31.43-.47.65-.14.22-.29.43-.45.62-.18.18-.38.36-.56.53-.2.18-.4.38-.62.54-.18.14-.4.25-.6.38-.25.16-.51.33-.78.45-.05.02-.09.05-.15.09l-7 3.17 3.62 24.91 16.65-4.56 31.4-33.65-23.98-36.46-12.32-2.32-8.44 34.05zM287.15 433.87c-12.33-5.22-25.88-8.1-40.13-8.1-28.49 0-54.2 11.52-72.88 30.19-9.35 9.35-16.88 20.43-22.09 32.76-5.22 12.32-8.1 25.88-8.1 40.11 0 28.49 11.52 54.2 30.19 72.9 9.34 9.33 20.43 16.88 32.76 22.09 12.32 5.22 25.88 8.1 40.11 8.1 28.51 0 54.2-11.52 72.9-30.19 18.67-18.69 30.19-44.41 30.19-72.9s-11.52-54.2-30.19-72.88a103.244 103.244 0 0 0-32.76-22.09zm31.32 155.06c-14.43 14.45-34.39 23.38-56.45 23.38s-42.02-8.93-56.45-23.38c-14.45-14.45-23.38-34.41-23.38-56.47 0-44.08 35.73-79.83 79.83-79.83 22.06 0 42.02 8.95 56.45 23.38 14.45 14.45 23.38 34.41 23.38 56.45s-8.93 42.02-23.38 56.47zM558.81 433.87c-12.33-5.22-25.88-8.1-40.13-8.1-28.49 0-54.2 11.52-72.88 30.19-9.35 9.35-16.88 20.43-22.09 32.76-5.22 12.32-8.1 25.88-8.1 40.11 0 28.49 11.52 54.2 30.19 72.9 9.34 9.33 20.43 16.88 32.76 22.09 12.32 5.22 25.88 8.1 40.11 8.1 28.51 0 54.2-11.52 72.9-30.19 18.67-18.69 30.19-44.41 30.19-72.9s-11.52-54.2-30.19-72.88a103.244 103.244 0 0 0-32.76-22.09zm31.32 155.06c-14.43 14.45-34.39 23.38-56.45 23.38s-42.02-8.93-56.45-23.38c-14.45-14.45-23.38-34.41-23.38-56.47 0-44.08 35.73-79.83 79.83-79.83 22.06 0 42.02 8.95 56.45 23.38 14.45 14.45 23.38 34.41 23.38 56.45s-8.93 42.02-23.38 56.47z"/><path class="cls-6" d="m31.41 573.3 33.24 57.52 21.88-8.64-31.62-79.82-23.5 30.94zM748.41 676.06l29.83-54.35-27.84-36.36-31.81 75.1 29.82 15.61zM705.76 277.26l-5.32-30.17-33.62 5.95 9.3 37.52 29.64-13.3zM661.39 776.28l58.97-53.79-20.76-34.47-62.67 63.29 24.46 24.97zM87.14 696.49l53.66 51.29 18.81-15.2-57.01-67.67-15.46 31.58zM687.43 362.13l12.72-23.6-27.01-16.65-18.07 29.26 32.36 10.99zM151.9 215.83l-7.3 29.9 29.92 9.82c.05.02.09.05.15.07.2.08.39.17.58.25l8.44-34.05-31.79-5.99zM143.88 284.98l3.15 20.66 24.92-6.83-3.61-24.91-24.46 11.08z"/><path class="cls-3" d="M262.02 452.63c-44.1 0-79.83 35.75-79.83 79.83 0 22.06 8.93 42.02 23.38 56.47 14.43 14.45 34.39 23.38 56.45 23.38s42.02-8.93 56.45-23.38c14.45-14.45 23.38-34.41 23.38-56.47s-8.93-42-23.38-56.45c-14.43-14.43-34.39-23.38-56.45-23.38z"/><path class="cls-3" d="M332.72 443.14c-21.9-21.91-52.25-35.5-85.7-35.48-33.43-.02-63.79 13.56-85.68 35.48-21.93 21.91-35.51 52.27-35.5 85.7v.07c0 33.4 13.58 63.75 35.5 85.63 21.9 21.91 52.25 35.5 85.68 35.5 16.73 0 32.67-3.4 47.18-9.53a121.179 121.179 0 0 0 38.52-25.97c21.91-21.9 35.5-52.27 35.5-85.7 0-16.72-3.4-32.67-9.53-47.16a121.377 121.377 0 0 0-25.97-38.54zm-12.8 158.59c-18.69 18.67-44.39 30.19-72.9 30.19-14.24 0-27.8-2.88-40.11-8.1-12.33-5.22-23.42-12.77-32.76-22.09-18.67-18.69-30.19-44.41-30.19-72.9 0-14.24 2.88-27.8 8.1-40.11a103.24 103.24 0 0 1 22.09-32.76c18.67-18.67 44.39-30.19 72.88-30.19 14.25 0 27.8 2.88 40.13 8.1a103.351 103.351 0 0 1 32.76 22.09c18.67 18.67 30.19 44.39 30.19 72.88s-11.52 54.2-30.19 72.9zM533.68 452.63c-44.1 0-79.83 35.75-79.83 79.83 0 22.06 8.93 42.02 23.38 56.47 14.43 14.45 34.39 23.38 56.45 23.38s42.02-8.93 56.45-23.38c14.45-14.45 23.38-34.41 23.38-56.47s-8.93-42-23.38-56.45c-14.43-14.43-34.39-23.38-56.45-23.38z"/><path class="cls-3" d="M604.38 443.14c-21.9-21.91-52.25-35.5-85.7-35.48-33.43-.02-63.79 13.56-85.68 35.48-21.93 21.91-35.51 52.27-35.5 85.7v.07c0 33.4 13.58 63.75 35.5 85.63 21.9 21.91 52.25 35.5 85.68 35.5 16.73 0 32.67-3.4 47.18-9.53a121.179 121.179 0 0 0 38.52-25.97c21.91-21.9 35.5-52.27 35.5-85.7 0-16.72-3.4-32.67-9.53-47.16a121.377 121.377 0 0 0-25.97-38.54zm-12.8 158.59c-18.69 18.67-44.39 30.19-72.9 30.19-14.24 0-27.8-2.88-40.11-8.1-12.33-5.22-23.42-12.77-32.76-22.09-18.67-18.69-30.19-44.41-30.19-72.9 0-14.24 2.88-27.8 8.1-40.11a103.24 103.24 0 0 1 22.09-32.76c18.67-18.67 44.39-30.19 72.88-30.19 14.25 0 27.8 2.88 40.13 8.1a103.351 103.351 0 0 1 32.76 22.09c18.67 18.67 30.19 44.39 30.19 72.88s-11.52 54.2-30.19 72.9zM131.11 272.92c-.25.13-.51.27-.76.43-.22.14-.4.31-.6.47-.22.16-.42.33-.6.53-.2.18-.36.38-.54.6-.16.2-.31.4-.45.6-.14.22-.29.45-.4.69-.13.22-.25.45-.36.71-.09.24-.18.47-.25.71-.07.25-.15.51-.2.78-.05.25-.09.53-.13.78-.04.25-.05.51-.05.78 0 .29.02.58.04.87.02.16 0 .31.04.47l5.45 35.82c.04.16.09.31.13.45.04.16.04.31.07.47.04.11.09.22.13.33.09.27.2.54.31.8.11.24.22.47.34.69.13.24.27.47.43.69.15.22.29.43.47.63.16.18.34.36.53.54.2.2.4.36.6.53.2.16.42.31.63.45.22.14.43.27.67.4.24.13.47.22.71.33.25.09.49.18.74.25.25.09.51.14.76.18.27.05.53.11.8.13.25.02.51.02.78.02s.56 0 .85-.04c.11-.02.24 0 .34-.02.16-.02.31-.09.45-.11.16-.04.31-.04.47-.09l24.92-6.81-18.82 20.16c-3.08 3.3-2.9 8.44.4 11.52s8.44 2.9 11.52-.4l75.76-81.19c.14-.14.24-.31.34-.45.2-.25.4-.49.56-.74.14-.22.25-.43.36-.67.13-.24.25-.47.34-.72.11-.25.18-.51.25-.78.05-.24.14-.49.18-.72.05-.27.07-.53.09-.8.02-.25.05-.51.04-.78 0-.25-.04-.51-.05-.76-.04-.27-.05-.53-.11-.8-.05-.25-.14-.51-.22-.78a6.13 6.13 0 0 0-.25-.72c-.11-.27-.27-.54-.42-.81-.09-.16-.16-.34-.27-.51l-72.44-110.17c-2.46-3.77-7.52-4.8-11.28-2.34-3.77 2.48-4.8 7.53-2.34 11.3l32.51 49.42-36.26-6.83c-.2-.04-.4-.04-.6-.05-.29-.04-.56-.07-.83-.07s-.53.02-.8.05c-.27.02-.53.04-.8.09-.25.04-.51.13-.76.2s-.51.14-.74.24c-.24.09-.47.22-.71.34-.24.11-.47.24-.69.38-.22.13-.42.29-.62.45-.2.16-.42.33-.6.51-.2.18-.36.38-.53.58-.18.2-.34.4-.51.62-.14.22-.27.45-.42.69-.13.22-.25.45-.36.69-.11.25-.2.53-.27.8-.07.2-.16.36-.2.56l-10.94 44.73c-.04.16-.04.33-.05.49-.05.29-.11.56-.13.83-.02.27-.02.53-.02.8.02.25.02.53.05.8.04.25.09.53.14.78.05.25.11.51.2.74.07.25.18.49.29.74.09.24.2.47.33.69.13.24.27.45.42.65.15.22.31.43.47.63.16.2.34.38.54.58.18.18.38.36.58.53.2.16.43.31.65.47.22.13.43.27.67.4.25.13.51.24.78.34.16.05.29.14.45.2l17.21 5.65-18.02 8.17c-.15.05-.27.16-.42.24zM220 260.6l-31.4 33.65-16.65 4.56-24.92 6.83-3.15-20.66 24.45-11.08 7-3.17c.05-.04.09-.07.15-.09.27-.13.53-.29.78-.45.2-.13.42-.24.6-.38.22-.16.42-.36.62-.54.18-.16.38-.34.56-.53.16-.18.31-.4.45-.62.16-.22.34-.43.47-.65.13-.22.22-.43.33-.65.13-.27.25-.54.36-.81.02-.05.05-.11.07-.16.05-.18.07-.34.11-.53.07-.29.15-.58.2-.87.04-.25.04-.51.05-.78 0-.27.02-.53.02-.8-.02-.29-.07-.54-.11-.81-.04-.25-.07-.51-.15-.76-.07-.29-.18-.56-.27-.85-.07-.16-.11-.34-.18-.51a.55.55 0 0 0-.09-.14 7.52 7.52 0 0 0-.45-.78c-.13-.2-.24-.42-.38-.6-.16-.22-.34-.42-.54-.62-.16-.18-.33-.38-.53-.56-.18-.16-.4-.31-.6-.45-.24-.16-.43-.34-.67-.47-.2-.13-.42-.22-.63-.33-.08-.04-.17-.07-.25-.11a5.96 5.96 0 0 0-.58-.25c-.05-.02-.09-.05-.15-.07l-29.92-9.82 7.3-29.9 31.79 5.99 12.32 2.32 23.98 36.46zM722.91 280.69l-7.84-44.46c-.05-.29-.15-.53-.24-.8-.07-.27-.13-.54-.22-.8-.11-.27-.25-.49-.38-.74-.13-.24-.22-.47-.36-.69-.13-.2-.29-.36-.43-.54-.18-.24-.34-.47-.54-.69-.16-.16-.34-.29-.51-.43-.24-.2-.43-.4-.67-.58-.2-.13-.4-.22-.6-.33-.25-.14-.49-.33-.78-.43-.2-.09-.42-.14-.63-.22-.29-.11-.56-.22-.85-.29a7.43 7.43 0 0 0-.81-.09c-.25-.04-.51-.11-.78-.11-.25 0-.53.04-.78.05-.29.02-.58.02-.87.07l-56.6 10.02 45.53-63.88c2.63-3.66 1.77-8.75-1.9-11.36-3.66-2.61-8.75-1.76-11.36 1.9L586.3 299.51c-.09.13-.14.27-.24.4-.15.25-.31.49-.43.76a11.234 11.234 0 0 0-.54 1.47c-.07.25-.11.51-.16.78-.04.25-.07.51-.09.76s-.02.53-.02.78c.02.27.04.53.05.8.04.25.09.49.14.74.05.27.13.53.2.78.09.25.2.49.29.74.11.24.22.45.34.69.15.25.31.49.47.74.09.13.16.25.25.38l50.31 62.79c2.82 3.51 7.95 4.07 11.46 1.27 1.99-1.59 2.99-3.93 3.01-6.3l37.36 12.68c.05.02.09.02.15.04.29.09.6.14.89.2.24.05.47.13.71.14.27.04.54.02.82.02s.52.02.78 0c.25-.02.49-.09.74-.13.27-.05.54-.09.8-.16.25-.07.49-.18.72-.27.24-.09.49-.18.72-.29.24-.13.45-.27.67-.42.22-.14.43-.27.65-.42.2-.16.36-.34.56-.53.2-.2.4-.38.58-.58.16-.18.29-.38.42-.58.18-.25.36-.49.53-.76.02-.04.05-.07.07-.11l19.61-36.44c.11-.16.15-.34.24-.53.11-.25.24-.51.31-.78.09-.25.15-.51.2-.76.07-.27.13-.53.16-.8.04-.25.04-.53.04-.78.02-.27.02-.53 0-.78-.02-.27-.05-.53-.11-.78-.04-.25-.07-.51-.14-.76s-.16-.49-.25-.74c-.09-.24-.18-.49-.29-.72-.13-.24-.25-.45-.4-.67-.13-.24-.27-.45-.43-.67-.15-.22-.34-.4-.53-.6s-.34-.4-.54-.56c-.22-.18-.43-.34-.67-.51-.16-.13-.29-.25-.45-.36l-35.52-21.9 38.48-17.26c.16-.07.31-.18.47-.27.27-.14.54-.29.8-.45.22-.14.4-.31.6-.47.2-.18.42-.34.6-.54.2-.18.36-.4.52-.6.16-.2.33-.4.45-.62.15-.22.27-.45.4-.69.13-.22.25-.45.34-.71.09-.24.16-.47.24-.71.09-.27.16-.53.22-.78.05-.27.07-.53.11-.8.02-.25.05-.51.05-.76 0-.31-.04-.6-.07-.91-.02-.18 0-.36-.04-.56zm-87.22 63.87-32.53-40.6 32.36-45.39 31.29-5.53 33.62-5.95 5.32 30.17-29.64 13.29-17.09 7.66H659c-.49.22-.96.49-1.39.81-.22.14-.4.34-.6.51-.2.18-.42.34-.6.54-.38.4-.71.83-1 1.29-.05.07-.07.16-.11.24-.22.38-.43.78-.58 1.2-.09.25-.14.49-.22.74-.07.27-.15.53-.2.78-.04.27-.04.54-.05.8-.02.27-.05.53-.05.8.02.27.07.54.11.81.04.25.04.51.11.74.09.45.25.87.42 1.3.04.07.05.14.07.22h.02c.22.49.49.96.8 1.41.16.22.34.38.53.58.18.22.33.43.53.62.4.36.83.71 1.29.98l.02.02 15.05 9.28 27.01 16.66-12.71 23.6-32.37-10.99-19.38-6.58z"/><path class="cls-3" d="M794.63 422.06c2.48-9.74 4.27-21.23 5.47-34.19 1.2-12.95 1.79-27.37 1.79-42.83-.02-48.75-5.83-108.14-17.37-164.82-5.78-28.34-12.99-56-21.66-81.33-8.69-25.32-18.82-48.32-30.57-67.41-.05-.07-.13-.13-.18-.22-.16-.24-.34-.45-.52-.69-.16-.2-.33-.38-.51-.56-.18-.2-.4-.36-.6-.54-.22-.16-.42-.33-.63-.47-.22-.14-.43-.27-.67-.38-.24-.13-.45-.25-.71-.36-.24-.09-.49-.16-.72-.24-.25-.09-.51-.16-.76-.22-.25-.05-.51-.07-.78-.11-.25-.02-.51-.05-.78-.05-.25 0-.51.02-.76.04-.27.02-.54.05-.81.11-.25.04-.49.11-.74.18-.27.07-.54.16-.81.27-.09.04-.18.05-.27.09-18.2 8.15-38.39 21.39-59.37 37.6-31.42 24.32-64.51 55.38-93.69 85.99-14.6 15.32-28.2 30.52-40.11 44.72-10.5 12.5-19.67 24.21-27.09 34.61-11.99-1.77-43.56-5.92-77.97-5.92-10.4 0-21.06.38-31.55 1.32-15.03 1.38-29.56 3.64-43.05 6.3-25.21-36.02-63.51-84.72-101.98-126.09-20.01-21.53-40.04-41.04-58.42-55.78-9.2-7.37-18-13.55-26.3-18.18-8.24-4.58-15.97-7.73-23.58-8.78-.04 0-.07-.02-.11-.02-.05-.02-.11-.02-.15-.04-.2-.02-.38 0-.58 0-.31-.02-.62-.05-.92-.04-.27.02-.53.07-.78.11-.27.04-.53.07-.78.14-.27.05-.51.16-.76.25s-.49.16-.72.27c-.25.13-.47.27-.71.42-.22.13-.45.25-.65.42-.25.18-.47.4-.71.62-.15.13-.29.24-.42.36-.04.05-.09.09-.13.14 0 .02-.02.02-.04.04-6.65 7.24-12.77 16.1-18.51 26.17-10.11 17.78-19.05 39.43-26.88 62.84-11.74 35.13-20.95 74.25-27.27 109.89-3.15 17.84-5.58 34.79-7.23 49.97-1.65 15.18-2.52 28.54-2.52 39.34 0 6.83.34 12.62 1.14 17.42 2.9 17.1 9.47 38.36 19.83 59.69 9.31 19.16 21.68 38.34 37.34 54.22L15.15 567.76c-.33.43-.62.89-.85 1.38-.11.24-.16.47-.25.71a5.2 5.2 0 0 0-.29.78c-.07.27-.09.54-.13.81-.05.25-.11.49-.13.74-.02.24.02.49.02.74.02.27 0 .54.04.83.04.27.13.53.18.8.05.25.09.49.18.74.16.51.38 1 .67 1.47l39.43 68.3c.04.05.09.11.13.18.16.25.34.47.53.71.14.2.29.4.47.58.18.2.38.38.6.56.18.16.38.34.6.49.2.16.43.29.65.42.24.13.45.27.69.38s.49.18.72.27c.25.09.49.18.74.24.25.07.53.09.78.13.25.04.51.09.78.11.25 0 .51-.02.78-.04.27 0 .54-.02.81-.05.24-.04.47-.11.72-.16.29-.07.56-.14.85-.24.05-.04.13-.04.2-.07l35.17-13.87-29.38 59.98c-.05.11-.07.24-.13.34-.13.25-.22.54-.31.81-.07.24-.14.49-.2.72-.05.27-.09.53-.13.8-.02.25-.05.53-.05.8 0 .25.02.51.04.76s.04.53.09.78c.05.25.11.51.18.76.07.25.15.49.24.74.09.24.22.47.33.72.13.24.25.45.4.69.13.22.27.42.43.62.18.24.36.45.56.67.09.09.15.18.24.27l63.15 60.36c.07.07.16.11.24.18.22.2.45.36.69.53.2.16.42.31.63.43.24.13.47.25.72.36.24.11.47.22.72.29.24.09.49.14.74.22.25.05.51.11.78.14.25.04.51.05.78.05.25.02.51.04.76.02a10.873 10.873 0 0 0 1.56-.23c.25-.07.49-.14.74-.24s.51-.18.76-.31c.22-.11.43-.24.65-.36.25-.14.49-.31.72-.47.09-.07.18-.11.25-.16l36.98-29.9c5.94 4.13 12.57 8.06 19.63 11.79 13.82 7.3 29.32 13.84 44.62 19.2 15.3 5.36 30.39 9.54 43.47 12.04 38.79 7.43 75.85 10.09 109.39 10.09 39.34 0 73.86-3.66 100.69-7.61 15.63-2.32 39.86-6.86 62.77-12.86 11.45-2.99 22.55-6.32 32.15-9.98 4.8-1.85 9.24-3.75 13.18-5.8 1.45-.74 2.81-1.5 4.13-2.3l42.76 43.66c.16.16.36.27.53.42.22.2.42.38.63.54.24.14.47.27.69.4.24.13.47.27.71.38.25.11.51.18.76.27.24.07.49.16.74.22.25.05.51.07.78.11.25.04.51.07.76.09.27 0 .53-.02.78-.04.27-.02.53-.04.78-.07.27-.04.51-.13.76-.18.25-.07.51-.13.76-.22.25-.11.49-.24.72-.34.24-.13.49-.22.71-.36.24-.14.45-.33.67-.51.18-.13.38-.24.54-.4l69.71-63.59V730c.42-.36.78-.78 1.1-1.21.02-.04.04-.07.05-.11.29-.4.54-.81.74-1.25.13-.27.2-.56.29-.85.07-.2.18-.42.24-.63.05-.25.07-.53.11-.78s.09-.51.11-.78c.02-.22-.02-.43-.04-.67 0-.29 0-.6-.04-.91-.07-.45-.18-.91-.34-1.36-.02-.05-.02-.11-.04-.16-.18-.51-.42-1.01-.69-1.48l-.02-.02-27.17-45.13 37.34 19.54c.22.11.45.18.67.27.27.11.53.24.78.31s.53.11.78.16c.27.05.52.13.8.14.25.02.53 0 .8 0 .25 0 .51.02.78-.02.25-.02.51-.09.76-.14.25-.05.52-.07.76-.16.25-.07.49-.18.72-.27.25-.11.49-.18.72-.31.24-.13.43-.29.65-.42.24-.16.45-.29.67-.45.2-.16.38-.36.58-.56.18-.18.38-.36.56-.56.16-.22.31-.45.47-.69.13-.2.29-.38.42-.6l36.15-65.89s0-.02.02-.02l.05-.11c.07-.14.13-.31.2-.47.15-.31.29-.62.4-.94.09-.25.13-.51.18-.76.05-.27.13-.53.16-.78.02-.27.02-.54.02-.81 0-.25.02-.51 0-.76-.02-.27-.07-.51-.11-.76-.05-.27-.09-.54-.16-.8-.05-.25-.16-.51-.27-.74-.09-.25-.16-.49-.29-.72-.15-.31-.34-.6-.54-.89-.09-.14-.16-.29-.25-.43l-.07-.09-.02-.02-63.86-83.42c12.42-15.85 24.41-29.63 35.17-45.51 11.84-17.48 22-37.53 29-64.93zM713.69 527.5c-.09.14-.16.29-.25.43-.16.25-.33.49-.47.76-.13.22-.22.45-.31.71-.11.24-.2.49-.29.74a4.9 4.9 0 0 0-.16.78c-.05.25-.11.51-.13.76-.02.25-.04.53-.04.78 0 .27 0 .53.04.78.02.25.07.51.11.76.05.27.11.53.18.78.09.25.18.51.29.76.09.24.18.47.31.69.13.27.29.51.47.76.09.14.14.29.25.43l12.06 15.75 24.64 32.18 27.84 36.36-29.83 54.35-29.83-15.61-25.02-13.09-1.15-.6c-.05-.02-.13-.04-.18-.07-.27-.13-.54-.22-.83-.33-.22-.09-.45-.18-.67-.24-.27-.07-.53-.11-.78-.14-.27-.05-.53-.11-.78-.13-.27-.02-.53.02-.8.02-.25.02-.51 0-.76.04-.27.04-.53.11-.78.16s-.52.11-.78.18c-.22.09-.43.2-.65.29-.27.11-.56.24-.82.38-.05.04-.11.05-.16.07-.16.09-.27.22-.42.33-.25.16-.51.34-.74.54-.2.16-.36.36-.54.56-.18.18-.36.38-.52.58-.2.25-.34.51-.51.76-.09.14-.2.29-.29.43-.02.05-.04.11-.05.16-.15.27-.24.56-.34.85-.09.22-.18.45-.24.67-.07.25-.11.53-.15.78-.05.27-.11.53-.13.78-.02.27.02.53.02.78.02.27 0 .53.04.78.04.27.11.53.16.78s.11.51.18.76c.09.24.2.45.29.67.11.27.24.56.38.81.04.05.05.11.07.16l2.81 4.66L699.59 688l20.76 34.48-58.97 53.79-24.46-24.97-22.84-23.31-9.49-9.69c-3.15-3.22-8.31-3.28-11.52-.13-3.22 3.15-3.28 8.31-.13 11.52l7.72 7.88c-5.63 2.88-13.28 5.85-21.88 8.62-26.19 8.49-61.25 15.36-80.9 18.24-26.28 3.88-60 7.44-98.32 7.44-32.67 0-68.69-2.59-106.33-9.8-16.06-3.06-36.38-9.13-55.76-16.9-9.69-3.89-19.16-8.2-27.76-12.75-8.62-4.55-16.37-9.35-22.58-14.09-.14-.13-.33-.2-.49-.31-.25-.16-.51-.34-.78-.49-.24-.11-.47-.2-.71-.29-.25-.09-.49-.2-.76-.27-.25-.07-.53-.11-.78-.16s-.51-.09-.76-.13c-.25-.02-.53 0-.78 0-.27 0-.53 0-.8.04-.25.02-.49.07-.74.13-.25.05-.53.11-.78.18-.25.09-.51.2-.76.31-.13.05-.26.12-.39.17-.1.04-.21.08-.3.13-.27.14-.53.33-.78.51-.14.11-.33.18-.47.31l-17.45 14.1-18.81 15.2-53.66-51.29 15.46-31.58 17.33-35.39 3.22-6.57c.04-.05.04-.13.07-.18.13-.27.22-.54.31-.83.07-.24.16-.45.22-.69.07-.25.09-.53.13-.8.04-.25.09-.51.09-.76.02-.27-.02-.53-.04-.78 0-.27-.02-.54-.05-.81-.04-.24-.11-.45-.16-.69-.07-.29-.14-.58-.25-.87-.02-.05-.02-.11-.04-.16-.07-.18-.18-.33-.25-.49-.13-.27-.25-.53-.4-.78a5.06 5.06 0 0 0-.45-.63 7.79 7.79 0 0 0-.51-.63c-.18-.2-.38-.38-.6-.56-.18-.16-.38-.33-.58-.49-.24-.18-.51-.33-.76-.47-.15-.09-.29-.2-.45-.27-.05-.04-.11-.04-.16-.07-.27-.13-.56-.22-.85-.31-.22-.07-.45-.16-.67-.22-.27-.07-.54-.09-.82-.13-.25-.04-.51-.09-.76-.09-.25-.02-.51.02-.78.02-.27.02-.53.02-.8.07-.24.04-.47.11-.71.16-.29.07-.58.14-.85.24-.07.04-.13.04-.18.05l-2.77 1.1-23.54 9.3-21.88 8.64-33.23-57.52 23.5-30.94 24.69-32.5 45.14-59.43c.09-.13.15-.25.22-.38.16-.24.33-.47.45-.72.13-.22.24-.45.33-.69.11-.25.2-.51.27-.76.09-.25.15-.51.2-.76.05-.27.09-.53.13-.78.02-.25.04-.53.04-.78 0-.27-.02-.53-.04-.78s-.05-.51-.11-.76c-.04-.27-.11-.53-.18-.78s-.14-.49-.25-.72c-.09-.25-.2-.49-.31-.72a9.05 9.05 0 0 0-.87-1.34c-.18-.22-.36-.42-.56-.63-.11-.09-.18-.22-.29-.33-8.11-7.44-15.47-16.1-21.99-25.37-6.54-9.27-12.24-19.2-17.08-29.14-9.67-19.9-15.85-40.01-18.42-55.27-.56-3.37-.91-8.46-.91-14.72 0-15.14 1.9-37.14 5.56-62.17 5.49-37.56 14.89-82.13 27.42-121.99 6.27-19.92 13.29-38.67 20.95-54.71 6.72-14.16 13.96-26.19 21.33-35.04 3.93 1.09 8.66 3.1 13.89 6.03 12.64 7.04 28.07 19.2 44.48 34.37 24.63 22.78 51.58 52.39 76.35 82.13 21.39 25.68 41.17 51.47 56.56 73.09-9.22 2.19-17.75 4.47-25.32 6.68-22.35 6.52-36.53 12.3-36.73 12.37a8.134 8.134 0 0 0-4.47 10.63c1.68 4.17 6.45 6.16 10.61 4.47l.02-.02c.67-.27 14.62-5.87 36.15-12.1 21.53-6.23 50.64-13.08 81.53-15.86 9.89-.91 20.08-1.27 30.08-1.27 21.03 0 41.2 1.63 56.05 3.26 7.43.8 13.53 1.61 17.77 2.23 2.12.31 3.77.56 4.87.72.56.09.98.16 1.25.2l.31.05.09.02c.18.04.36.02.54.04.31.04.62.07.92.05.25 0 .51-.04.78-.05.25-.04.53-.05.78-.11.27-.05.51-.14.78-.22.24-.07.49-.14.72-.25.24-.09.45-.22.69-.34s.47-.25.71-.4c.22-.14.42-.33.62-.49.2-.16.4-.33.6-.51.2-.22.4-.45.58-.71.11-.13.25-.25.36-.42 4.98-7.21 11.07-15.32 18.04-24.05 6.97-8.73 14.81-18.09 23.31-27.76 25.48-29.01 56.81-60.96 88.09-88.42 15.61-13.71 31.22-26.3 46.02-36.84 12.22-8.69 23.89-15.94 34.46-21.28 9.4 16.46 17.89 36.15 25.3 57.83 12.6 36.76 22.17 79.18 28.56 121.3 6.37 42.13 9.6 83.96 9.6 119.57 0 15.05-.58 28.99-1.72 41.35-1.12 12.33-2.84 23.07-5.03 31.64-6.57 25.63-15.67 43.5-26.71 59.84-11.01 16.32-24.18 31.08-38.43 49.64z"/></g></svg>