<?xml version="1.0" encoding="utf-8"?>
<!-- Generator: Adobe Illustrator 28.2.0, SVG Export Plug-In . SVG Version: 6.00 Build 0)  -->
<svg version="1.1" id="Layer_1" xmlns="http://www.w3.org/2000/svg" xmlns:xlink="http://www.w3.org/1999/xlink" x="0px" y="0px"
	 viewBox="0 0 838 842" style="enable-background:new 0 0 838 842;" xml:space="preserve">
<style type="text/css">
	.st0{fill:#A1C298;}
	.st1{fill:#4C7043;}
	.st2{fill:#FFE2A2;}
	.st3{fill:#80ADF1;}
	.st4{fill:#412720;}
</style>
<g id="Layer_5">
	<path class="st0" d="M783.9,386.4c1.1-12.4,1.7-26.3,1.7-41.4c0-35.6-3.2-77.4-9.6-119.6c-6.4-42.1-16-84.5-28.6-121.3
		c-7.4-21.7-15.9-41.4-25.3-57.8c-10.6,5.3-22.2,12.6-34.5,21.3c-14.8,10.5-30.4,23.1-46,36.8c-31.3,27.5-62.6,59.4-88.1,88.4
		c-8.5,9.7-16.3,19-23.3,27.8s-13.1,16.8-18,24.1c-0.1,0.2-0.2,0.3-0.4,0.4c-0.2,0.2-0.4,0.5-0.6,0.7c-0.2,0.2-0.4,0.3-0.6,0.5
		c-0.2,0.2-0.4,0.3-0.6,0.5c-0.2,0.1-0.5,0.3-0.7,0.4s-0.5,0.2-0.7,0.3c-0.2,0.1-0.5,0.2-0.7,0.2c-0.3,0.1-0.5,0.2-0.8,0.2
		c-0.2,0.1-0.5,0.1-0.8,0.1c-0.3,0-0.5,0.1-0.8,0.1c-0.3,0-0.6,0-0.9-0.1c-0.2,0-0.4,0-0.5,0l-0.1,0l-0.3-0.1
		c-0.3,0-0.7-0.1-1.2-0.2c-1.1-0.2-2.8-0.4-4.9-0.7c-4.2-0.6-10.3-1.4-17.8-2.2c-14.9-1.6-35-3.3-56-3.3c-10,0-20.2,0.4-30.1,1.3
		c-30.9,2.8-60,9.6-81.5,15.9c-21.5,6.2-35.5,11.8-36.1,12.1l0,0c-4.2,1.7-8.9-0.3-10.6-4.5c-1.7-4.2,0.3-8.9,4.5-10.6
		c0.2-0.1,14.4-5.9,36.7-12.4c7.6-2.2,16.1-4.5,25.3-6.7c-15.4-21.6-35.2-47.4-56.6-73.1c-24.8-29.7-51.7-59.3-76.4-82.1
		c-16.4-15.2-31.8-27.3-44.5-34.4c-5.2-2.9-10-4.9-13.9-6c-7.4,8.9-14.6,20.9-21.3,35c-7.7,16.1-14.7,34.8-20.9,54.7
		c-12.5,39.9-21.9,84.4-27.4,122c-3.7,25-5.6,47-5.6,62.2c0,6.3,0.3,11.4,0.9,14.7C68.9,345,75,365.1,84.7,385
		c4.8,9.9,10.5,19.9,17.1,29.1c6.5,9.3,13.9,17.9,22,25.4c0.1,0.1,0.2,0.2,0.3,0.3c0.2,0.2,0.4,0.4,0.6,0.6c0.2,0.2,0.3,0.4,0.4,0.6
		c0.2,0.2,0.3,0.5,0.4,0.7c0.1,0.2,0.2,0.5,0.3,0.7c0.1,0.2,0.2,0.5,0.2,0.7s0.2,0.5,0.2,0.8c0.1,0.2,0.1,0.5,0.1,0.8
		c0,0.2,0,0.5,0,0.8c0,0.2,0,0.5,0,0.8c0,0.2-0.1,0.5-0.1,0.8c-0.1,0.2-0.1,0.5-0.2,0.8c-0.1,0.2-0.2,0.5-0.3,0.8
		c-0.1,0.2-0.2,0.5-0.3,0.7c-0.1,0.2-0.3,0.5-0.4,0.7c-0.1,0.1-0.1,0.2-0.2,0.4l-45.1,59.4l30.5,103l2.8-1.1c0.1,0,0.1,0,0.2,0
		c0.3-0.1,0.6-0.2,0.8-0.2c0.2,0,0.5-0.1,0.7-0.2c0.3,0,0.5,0,0.8-0.1c0.3,0,0.5,0,0.8,0c0.2,0,0.5,0,0.8,0.1c0.3,0,0.5,0,0.8,0.1
		c0.2,0,0.4,0.1,0.7,0.2c0.3,0.1,0.6,0.2,0.8,0.3c0.1,0,0.1,0,0.2,0.1c0.2,0.1,0.3,0.2,0.4,0.3c0.2,0.1,0.5,0.3,0.8,0.5
		c0.2,0.2,0.4,0.3,0.6,0.5c0.2,0.2,0.4,0.4,0.6,0.6s0.3,0.4,0.5,0.6c0.2,0.2,0.3,0.4,0.4,0.6c0.2,0.2,0.3,0.5,0.4,0.8
		c0.1,0.2,0.2,0.3,0.2,0.5c0,0,0,0.1,0,0.2c0.1,0.3,0.2,0.6,0.2,0.9c0.1,0.2,0.1,0.5,0.2,0.7c0,0.3,0.1,0.5,0.1,0.8
		c0,0.2,0.1,0.5,0,0.8c0,0.2-0.1,0.5-0.1,0.8c0,0.3-0.1,0.5-0.1,0.8c-0.1,0.2-0.1,0.5-0.2,0.7c-0.1,0.3-0.2,0.6-0.3,0.8
		c0,0,0,0.1-0.1,0.2l-3.2,6.6l58.7,88c0.1-0.1,0.2-0.1,0.4-0.2c0.2-0.1,0.5-0.2,0.8-0.3c0.2-0.1,0.5-0.1,0.8-0.2s0.5-0.1,0.7-0.1
		c0.3,0,0.5,0,0.8,0c0.2,0,0.5,0,0.8,0c0.2,0,0.5,0.1,0.8,0.1c0.2,0,0.5,0.1,0.8,0.2c0.3,0.1,0.5,0.2,0.8,0.3
		c0.2,0.1,0.5,0.2,0.7,0.3c0.3,0.1,0.5,0.3,0.8,0.5c0.2,0.1,0.3,0.2,0.5,0.3c6.2,4.8,14,9.5,22.6,14.1c8.6,4.5,18.1,8.9,27.8,12.8
		c19.4,7.8,39.7,13.8,55.8,16.9c37.6,7.2,73.7,9.8,106.3,9.8c38.3,0,72-3.6,98.3-7.4c19.7-2.9,54.7-9.7,80.9-18.2
		c8.6-2.8,16.2-5.7,21.9-8.6l-7.7-7.9c-3.1-3.2-3.1-8.4,0.1-11.5c0,0,0,0,0,0c3.2-3.1,8.4-3.1,11.5,0.1c0,0,0,0,0,0l9.5,9.7
		l70.3-65.2l-2.8-4.7c0,0,0-0.1-0.1-0.2c-0.2-0.2-0.3-0.5-0.4-0.8c-0.1-0.2-0.2-0.4-0.3-0.7c-0.1-0.2-0.1-0.5-0.2-0.8
		s-0.1-0.5-0.2-0.8c0-0.2,0-0.5,0-0.8c0-0.2,0-0.5,0-0.8c0-0.2,0.1-0.5,0.1-0.8c0-0.2,0.1-0.5,0.2-0.8c0-0.2,0.1-0.5,0.2-0.7
		c0.1-0.3,0.2-0.6,0.3-0.8c0,0,0-0.1,0-0.2c0.1-0.1,0.2-0.3,0.3-0.4c0.2-0.2,0.3-0.5,0.5-0.8c0.2-0.2,0.3-0.4,0.5-0.6
		c0.2-0.2,0.3-0.4,0.5-0.6c0.2-0.2,0.5-0.4,0.7-0.5c0.1-0.1,0.2-0.2,0.4-0.3c0,0,0.1,0,0.2-0.1c0.2-0.1,0.5-0.3,0.8-0.4
		c0.2-0.1,0.4-0.2,0.7-0.3c0.2-0.1,0.5-0.1,0.8-0.2s0.5-0.1,0.8-0.2c0.2,0,0.5,0,0.8,0c0.3,0,0.5,0,0.8,0c0.2,0,0.5,0.1,0.8,0.1
		c0.2,0,0.5,0.1,0.8,0.1c0.2,0,0.5,0.1,0.7,0.2c0.3,0.1,0.6,0.2,0.8,0.3c0,0,0.1,0,0.2,0.1l1.2,0.6l32.2-94.2l-12.1-15.8
		c-0.1-0.1-0.2-0.3-0.2-0.4c-0.2-0.2-0.3-0.5-0.5-0.8c-0.1-0.2-0.2-0.5-0.3-0.7c-0.1-0.2-0.2-0.5-0.3-0.8c-0.1-0.2-0.1-0.5-0.2-0.8
		c0-0.2-0.1-0.5-0.1-0.8c0-0.2,0-0.5,0-0.8c0-0.2,0-0.5,0-0.8s0.1-0.5,0.1-0.8c0-0.3,0.1-0.5,0.2-0.8c0.1-0.2,0.2-0.5,0.3-0.7
		c0.1-0.2,0.2-0.5,0.3-0.7c0.1-0.3,0.3-0.5,0.5-0.8c0.1-0.1,0.2-0.3,0.2-0.4c14.2-18.6,27.4-33.3,38.4-49.6
		c11-16.3,20.1-34.2,26.7-59.8C781,409.5,782.7,398.7,783.9,386.4L783.9,386.4z M132.4,258.9c-0.2,0-0.3-0.1-0.4-0.2
		c-0.3-0.1-0.5-0.2-0.8-0.3c-0.2-0.1-0.4-0.3-0.7-0.4c-0.2-0.2-0.4-0.3-0.6-0.5s-0.4-0.3-0.6-0.5c-0.2-0.2-0.4-0.4-0.5-0.6
		c-0.2-0.2-0.3-0.4-0.5-0.6c-0.1-0.2-0.3-0.4-0.4-0.6c-0.1-0.2-0.2-0.5-0.3-0.7c-0.1-0.2-0.2-0.5-0.3-0.7c-0.1-0.2-0.2-0.5-0.2-0.7
		c-0.1-0.2-0.1-0.5-0.1-0.8c0-0.3,0-0.5-0.1-0.8c0-0.3,0-0.5,0-0.8s0.1-0.5,0.1-0.8c0-0.2,0-0.3,0.1-0.5l10.9-44.7
		c0-0.2,0.1-0.4,0.2-0.6c0.1-0.3,0.2-0.5,0.3-0.8c0.1-0.2,0.2-0.5,0.4-0.7c0.1-0.2,0.3-0.5,0.4-0.7c0.2-0.2,0.3-0.4,0.5-0.6
		c0.2-0.2,0.3-0.4,0.5-0.6c0.2-0.2,0.4-0.3,0.6-0.5c0.2-0.2,0.4-0.3,0.6-0.4c0.2-0.1,0.4-0.3,0.7-0.4c0.2-0.1,0.5-0.2,0.7-0.3
		s0.5-0.2,0.7-0.2c0.2-0.1,0.5-0.2,0.8-0.2c0.3-0.1,0.5-0.1,0.8-0.1c0.3,0,0.5-0.1,0.8-0.1s0.5,0,0.8,0.1c0.2,0,0.4,0,0.6,0.1
		l36.3,6.8l-32.5-49.4c-2.5-3.8-1.4-8.8,2.3-11.3c3.8-2.5,8.8-1.4,11.3,2.3L237.2,257c0.1,0.2,0.2,0.3,0.3,0.5
		c0.1,0.3,0.3,0.5,0.4,0.8c0.1,0.2,0.2,0.5,0.2,0.7c0.1,0.3,0.2,0.5,0.2,0.8c0.1,0.3,0.1,0.5,0.1,0.8c0,0.2,0.1,0.5,0.1,0.8
		c0,0.3,0,0.5,0,0.8c0,0.3,0,0.5-0.1,0.8c0,0.2-0.1,0.5-0.2,0.7c-0.1,0.3-0.1,0.5-0.2,0.8c-0.1,0.2-0.2,0.5-0.3,0.7
		c-0.1,0.2-0.2,0.5-0.4,0.7c-0.2,0.2-0.4,0.5-0.6,0.7c-0.1,0.1-0.2,0.3-0.3,0.5l-75.8,81.2c-3.1,3.3-8.2,3.5-11.5,0.4
		s-3.5-8.2-0.4-11.5l18.8-20.2l-24.9,6.8c-0.2,0-0.3,0-0.5,0.1c-0.1,0-0.3,0.1-0.4,0.1c-0.1,0-0.2,0-0.3,0c-0.3,0-0.6,0-0.9,0
		s-0.5,0-0.8,0c-0.3,0-0.5-0.1-0.8-0.1c-0.2,0-0.5-0.1-0.8-0.2c-0.2-0.1-0.5-0.2-0.7-0.2c-0.2-0.1-0.5-0.2-0.7-0.3s-0.4-0.2-0.7-0.4
		c-0.2-0.1-0.4-0.3-0.6-0.5c-0.2-0.2-0.4-0.3-0.6-0.5c-0.2-0.2-0.4-0.4-0.5-0.5c-0.2-0.2-0.3-0.4-0.5-0.6c-0.2-0.2-0.3-0.5-0.4-0.7
		c-0.1-0.2-0.2-0.5-0.3-0.7c-0.1-0.2-0.2-0.5-0.3-0.8c0-0.1-0.1-0.2-0.1-0.3c0-0.2,0-0.3-0.1-0.5c0-0.1-0.1-0.3-0.1-0.5l-5.4-35.8
		c0-0.2,0-0.3,0-0.5c0-0.3,0-0.6,0-0.9c0-0.3,0-0.5,0.1-0.8c0-0.2,0.1-0.5,0.1-0.8c0.1-0.3,0.1-0.5,0.2-0.8c0.1-0.2,0.2-0.5,0.2-0.7
		c0.1-0.2,0.2-0.5,0.4-0.7c0.1-0.2,0.3-0.5,0.4-0.7c0.1-0.2,0.3-0.4,0.4-0.6c0.2-0.2,0.3-0.4,0.5-0.6c0.2-0.2,0.4-0.4,0.6-0.5
		c0.2-0.2,0.4-0.3,0.6-0.5c0.2-0.2,0.5-0.3,0.8-0.4c0.1-0.1,0.3-0.2,0.4-0.2l18-8.2L132.4,258.9L132.4,258.9z M332.7,614.5
		c-11,11.1-24.1,19.9-38.5,26c-14.9,6.3-31,9.5-47.2,9.5c-33.4,0-63.8-13.6-85.7-35.5c-21.9-21.9-35.5-52.2-35.5-85.6v-0.1
		c0-33.4,13.6-63.8,35.5-85.7c21.9-21.9,52.2-35.5,85.7-35.5c33.5,0,63.8,13.6,85.7,35.5c11.1,11.1,19.9,24.1,26,38.5
		c6.3,14.9,9.5,31,9.5,47.2C368.2,562.3,354.6,592.6,332.7,614.5L332.7,614.5z M604.4,614.5c-11,11.1-24.1,19.9-38.5,26
		c-14.9,6.3-31,9.5-47.2,9.5c-33.4,0-63.8-13.6-85.7-35.5c-21.9-21.9-35.5-52.2-35.5-85.6v-0.1c0-33.4,13.6-63.8,35.5-85.7
		c21.9-21.9,52.2-35.5,85.7-35.5c33.5,0,63.8,13.6,85.7,35.5c11.1,11.1,19.9,24.1,26,38.5c6.3,14.9,9.5,31,9.5,47.2
		C639.9,562.3,626.3,592.6,604.4,614.5z M723,282.9c0,0.3,0,0.5-0.1,0.8c0,0.2-0.1,0.5-0.2,0.8c-0.1,0.2-0.1,0.5-0.2,0.7
		c-0.1,0.2-0.2,0.5-0.3,0.7c-0.1,0.2-0.2,0.5-0.4,0.7c-0.1,0.2-0.3,0.4-0.5,0.6c-0.2,0.2-0.3,0.4-0.5,0.6c-0.2,0.2-0.4,0.4-0.6,0.5
		c-0.2,0.2-0.4,0.3-0.6,0.5c-0.2,0.2-0.5,0.3-0.8,0.5c-0.2,0.1-0.3,0.2-0.5,0.3l-38.5,17.3l35.5,21.9c0.2,0.1,0.3,0.2,0.5,0.4
		c0.2,0.2,0.5,0.3,0.7,0.5c0.2,0.2,0.4,0.4,0.5,0.6s0.4,0.4,0.5,0.6c0.2,0.2,0.3,0.4,0.4,0.7c0.2,0.2,0.3,0.4,0.4,0.7
		c0.1,0.2,0.2,0.5,0.3,0.7c0.1,0.2,0.2,0.5,0.2,0.7s0.1,0.5,0.1,0.8c0,0.2,0.1,0.5,0.1,0.8c0,0.2,0,0.5,0,0.8c0,0.2,0,0.5,0,0.8
		c0,0.3-0.1,0.5-0.2,0.8c0,0.2-0.1,0.5-0.2,0.8c-0.1,0.3-0.2,0.5-0.3,0.8c-0.1,0.2-0.1,0.4-0.2,0.5l-19.6,36.4c0,0,0,0.1-0.1,0.1
		c-0.2,0.3-0.3,0.5-0.5,0.8c-0.1,0.2-0.2,0.4-0.4,0.6c-0.2,0.2-0.4,0.4-0.6,0.6c-0.2,0.2-0.4,0.4-0.6,0.5c-0.2,0.1-0.4,0.3-0.7,0.4
		c-0.2,0.1-0.4,0.3-0.7,0.4c-0.2,0.1-0.5,0.2-0.7,0.3c-0.2,0.1-0.5,0.2-0.7,0.3s-0.5,0.1-0.8,0.2c-0.2,0-0.5,0.1-0.7,0.1
		c-0.2,0-0.5,0-0.8,0s-0.5,0-0.8,0c-0.2,0-0.5-0.1-0.7-0.1c-0.3,0-0.6-0.1-0.9-0.2c0,0-0.1,0-0.2,0l-37.4-12.7c0,2.4-1,4.7-3,6.3
		c-3.5,2.8-8.6,2.2-11.5-1.3c0,0,0,0,0,0l-50.3-62.8c-0.1-0.1-0.2-0.2-0.2-0.4c-0.2-0.2-0.3-0.5-0.5-0.7c-0.1-0.2-0.2-0.5-0.3-0.7
		c-0.1-0.2-0.2-0.5-0.3-0.7c-0.1-0.2-0.2-0.5-0.2-0.8c0-0.2-0.1-0.5-0.1-0.7c0-0.3,0-0.5,0-0.8c0-0.2,0-0.5,0-0.8s0-0.5,0.1-0.8
		c0-0.3,0.1-0.5,0.2-0.8c0.1-0.5,0.3-1,0.5-1.5c0.1-0.3,0.3-0.5,0.4-0.8c0.1-0.1,0.2-0.3,0.2-0.4l95-133.2c2.6-3.7,7.7-4.5,11.4-1.9
		c3.7,2.6,4.5,7.6,1.9,11.3c0,0,0,0,0,0.1L649,239.7l56.6-10c0.3-0.1,0.6-0.1,0.9-0.1c0.2,0,0.5-0.1,0.8-0.1c0.3,0,0.5,0.1,0.8,0.1
		c0.3,0,0.5,0,0.8,0.1c0.3,0.1,0.6,0.2,0.8,0.3c0.2,0.1,0.4,0.1,0.6,0.2c0.3,0.1,0.5,0.3,0.8,0.4c0.2,0.1,0.4,0.2,0.6,0.3
		c0.2,0.2,0.4,0.4,0.7,0.6c0.2,0.1,0.3,0.3,0.5,0.4c0.2,0.2,0.4,0.4,0.5,0.7c0.1,0.2,0.3,0.3,0.4,0.5c0.1,0.2,0.2,0.4,0.4,0.7
		c0.1,0.2,0.3,0.5,0.4,0.7c0.1,0.2,0.2,0.5,0.2,0.8c0.1,0.3,0.2,0.5,0.2,0.8l7.8,44.5c0,0.2,0,0.4,0,0.6c0,0.3,0.1,0.6,0.1,0.9
		C723,282.4,723,282.7,723,282.9L723,282.9z"/>
	<path class="st1" d="M131.1,272.9c-0.2,0.1-0.5,0.3-0.8,0.4c-0.2,0.1-0.4,0.3-0.6,0.5c-0.2,0.2-0.4,0.3-0.6,0.5
		c-0.2,0.2-0.4,0.4-0.5,0.6c-0.2,0.2-0.3,0.4-0.4,0.6c-0.1,0.2-0.3,0.5-0.4,0.7c-0.1,0.2-0.2,0.5-0.4,0.7c-0.1,0.2-0.2,0.5-0.2,0.7
		c-0.1,0.2-0.2,0.5-0.2,0.8c-0.1,0.2-0.1,0.5-0.1,0.8s-0.1,0.5-0.1,0.8c0,0.3,0,0.6,0,0.9c0,0.2,0,0.3,0,0.5l5.4,35.8
		c0,0.2,0.1,0.3,0.1,0.5c0,0.2,0,0.3,0.1,0.5c0,0.1,0.1,0.2,0.1,0.3c0.1,0.3,0.2,0.5,0.3,0.8c0.1,0.2,0.2,0.5,0.3,0.7
		c0.1,0.2,0.3,0.5,0.4,0.7c0.1,0.2,0.3,0.4,0.5,0.6c0.2,0.2,0.3,0.4,0.5,0.5c0.2,0.2,0.4,0.4,0.6,0.5c0.2,0.2,0.4,0.3,0.6,0.5
		c0.2,0.1,0.4,0.3,0.7,0.4s0.5,0.2,0.7,0.3c0.2,0.1,0.5,0.2,0.7,0.2c0.2,0.1,0.5,0.1,0.8,0.2c0.3,0,0.5,0.1,0.8,0.1
		c0.2,0,0.5,0,0.8,0s0.6,0,0.9,0c0.1,0,0.2,0,0.3,0c0.2,0,0.3-0.1,0.4-0.1c0.2,0,0.3,0,0.5-0.1l24.9-6.8l-18.8,20.2
		c-3.1,3.3-2.9,8.4,0.4,11.5s8.4,2.9,11.5-0.4l75.8-81.2c0.1-0.1,0.2-0.3,0.3-0.5c0.2-0.2,0.4-0.5,0.6-0.7c0.1-0.2,0.2-0.4,0.4-0.7
		c0.1-0.2,0.2-0.5,0.3-0.7c0.1-0.2,0.2-0.5,0.2-0.8c0.1-0.2,0.1-0.5,0.2-0.7c0.1-0.3,0.1-0.5,0.1-0.8c0-0.2,0.1-0.5,0-0.8
		c0-0.2,0-0.5-0.1-0.8c0-0.3-0.1-0.5-0.1-0.8c-0.1-0.2-0.1-0.5-0.2-0.8c-0.1-0.2-0.2-0.5-0.2-0.7c-0.1-0.3-0.3-0.5-0.4-0.8
		c-0.1-0.2-0.2-0.3-0.3-0.5l-72.4-110.2c-2.5-3.8-7.5-4.8-11.3-2.3c-3.8,2.5-4.8,7.5-2.3,11.3l32.5,49.4l-36.3-6.8
		c-0.2,0-0.4,0-0.6-0.1c-0.3,0-0.6-0.1-0.8-0.1s-0.5,0-0.8,0.1c-0.3,0-0.5,0-0.8,0.1c-0.2,0-0.5,0.1-0.8,0.2s-0.5,0.1-0.7,0.2
		c-0.2,0.1-0.5,0.2-0.7,0.3c-0.2,0.1-0.5,0.2-0.7,0.4c-0.2,0.1-0.4,0.3-0.6,0.4s-0.4,0.3-0.6,0.5c-0.2,0.2-0.4,0.4-0.5,0.6
		c-0.2,0.2-0.3,0.4-0.5,0.6c-0.1,0.2-0.3,0.4-0.4,0.7c-0.1,0.2-0.2,0.4-0.4,0.7c-0.1,0.2-0.2,0.5-0.3,0.8c-0.1,0.2-0.2,0.4-0.2,0.6
		l-10.9,44.7c0,0.2,0,0.3-0.1,0.5c-0.1,0.3-0.1,0.6-0.1,0.8s0,0.5,0,0.8c0,0.2,0,0.5,0.1,0.8c0,0.2,0.1,0.5,0.1,0.8s0.1,0.5,0.2,0.7
		c0.1,0.2,0.2,0.5,0.3,0.7c0.1,0.2,0.2,0.5,0.3,0.7c0.1,0.2,0.3,0.4,0.4,0.6c0.1,0.2,0.3,0.4,0.5,0.6c0.2,0.2,0.3,0.4,0.5,0.6
		c0.2,0.2,0.4,0.4,0.6,0.5c0.2,0.2,0.4,0.3,0.6,0.5c0.2,0.1,0.4,0.3,0.7,0.4c0.2,0.1,0.5,0.2,0.8,0.3c0.2,0,0.3,0.1,0.4,0.2
		l17.2,5.6l-18,8.2C131.3,272.8,131.2,272.9,131.1,272.9L131.1,272.9z"/>
	<path class="st1" d="M220,260.6l-31.4,33.6l-16.6,4.6l-24.9,6.8l-3.1-20.7l24.4-11.1l7-3.2c0.1,0,0.1-0.1,0.1-0.1
		c0.3-0.1,0.5-0.3,0.8-0.5c0.2-0.1,0.4-0.2,0.6-0.4c0.2-0.2,0.4-0.4,0.6-0.5c0.2-0.2,0.4-0.3,0.6-0.5c0.2-0.2,0.3-0.4,0.4-0.6
		c0.2-0.2,0.3-0.4,0.5-0.6s0.2-0.4,0.3-0.6c0.1-0.3,0.2-0.5,0.4-0.8c0,0,0.1-0.1,0.1-0.2c0.1-0.2,0.1-0.3,0.1-0.5
		c0.1-0.3,0.1-0.6,0.2-0.9c0-0.2,0-0.5,0.1-0.8c0-0.3,0-0.5,0-0.8c0-0.3-0.1-0.5-0.1-0.8c0-0.2-0.1-0.5-0.1-0.8
		c-0.1-0.3-0.2-0.6-0.3-0.9c-0.1-0.2-0.1-0.3-0.2-0.5c0-0.1-0.1-0.1-0.1-0.1c-0.1-0.3-0.3-0.5-0.4-0.8c-0.1-0.2-0.2-0.4-0.4-0.6
		c-0.2-0.2-0.3-0.4-0.5-0.6c-0.2-0.2-0.3-0.4-0.5-0.6c-0.2-0.2-0.4-0.3-0.6-0.5c-0.2-0.2-0.4-0.3-0.7-0.5c-0.2-0.1-0.4-0.2-0.6-0.3
		c-0.1,0-0.2-0.1-0.2-0.1c-0.2-0.1-0.4-0.2-0.6-0.2c-0.1,0-0.1-0.1-0.1-0.1l-29.9-9.8l7.3-29.9l31.8,6l12.3,2.3L220,260.6L220,260.6
		z"/>
	<path class="st1" d="M722.9,280.7l-7.8-44.5c0-0.3-0.2-0.5-0.2-0.8c-0.1-0.3-0.1-0.5-0.2-0.8c-0.1-0.3-0.2-0.5-0.4-0.7
		c-0.1-0.2-0.2-0.5-0.4-0.7c-0.1-0.2-0.3-0.4-0.4-0.5c-0.2-0.2-0.3-0.5-0.5-0.7c-0.2-0.2-0.3-0.3-0.5-0.4c-0.2-0.2-0.4-0.4-0.7-0.6
		c-0.2-0.1-0.4-0.2-0.6-0.3c-0.2-0.1-0.5-0.3-0.8-0.4c-0.2-0.1-0.4-0.1-0.6-0.2c-0.3-0.1-0.6-0.2-0.8-0.3c-0.3,0-0.5-0.1-0.8-0.1
		c-0.2,0-0.5-0.1-0.8-0.1c-0.2,0-0.5,0-0.8,0.1c-0.3,0-0.6,0-0.9,0.1l-56.6,10l45.5-63.9c2.6-3.7,1.8-8.8-1.9-11.4
		c-3.7-2.6-8.8-1.8-11.4,1.9l-95,133.2c-0.1,0.1-0.1,0.3-0.2,0.4c-0.2,0.2-0.3,0.5-0.4,0.8c-0.2,0.5-0.4,1-0.5,1.5
		c-0.1,0.2-0.1,0.5-0.2,0.8c0,0.2-0.1,0.5-0.1,0.8s0,0.5,0,0.8c0,0.3,0,0.5,0,0.8c0,0.2,0.1,0.5,0.1,0.7c0,0.3,0.1,0.5,0.2,0.8
		c0.1,0.2,0.2,0.5,0.3,0.7c0.1,0.2,0.2,0.5,0.3,0.7c0.2,0.2,0.3,0.5,0.5,0.7c0.1,0.1,0.2,0.2,0.2,0.4l50.3,62.8
		c2.8,3.5,8,4.1,11.5,1.3c2-1.6,3-3.9,3-6.3l37.4,12.7c0,0,0.1,0,0.2,0c0.3,0.1,0.6,0.1,0.9,0.2c0.2,0,0.5,0.1,0.7,0.1
		c0.3,0,0.5,0,0.8,0s0.5,0,0.8,0c0.2,0,0.5-0.1,0.7-0.1c0.3,0,0.5-0.1,0.8-0.2c0.2-0.1,0.5-0.2,0.7-0.3c0.2-0.1,0.5-0.2,0.7-0.3
		c0.2-0.1,0.5-0.3,0.7-0.4c0.2-0.1,0.4-0.3,0.7-0.4c0.2-0.2,0.4-0.3,0.6-0.5c0.2-0.2,0.4-0.4,0.6-0.6c0.2-0.2,0.3-0.4,0.4-0.6
		c0.2-0.2,0.4-0.5,0.5-0.8c0,0,0-0.1,0.1-0.1l19.6-36.4c0.1-0.2,0.2-0.3,0.2-0.5c0.1-0.2,0.2-0.5,0.3-0.8c0.1-0.2,0.2-0.5,0.2-0.8
		c0.1-0.3,0.1-0.5,0.2-0.8c0-0.2,0-0.5,0-0.8c0-0.3,0-0.5,0-0.8c0-0.3,0-0.5-0.1-0.8c0-0.2-0.1-0.5-0.1-0.8s-0.2-0.5-0.2-0.7
		c-0.1-0.2-0.2-0.5-0.3-0.7c-0.1-0.2-0.2-0.5-0.4-0.7c-0.1-0.2-0.3-0.5-0.4-0.7c-0.2-0.2-0.3-0.4-0.5-0.6s-0.3-0.4-0.5-0.6
		c-0.2-0.2-0.4-0.3-0.7-0.5c-0.2-0.1-0.3-0.2-0.5-0.4l-35.5-21.9l38.5-17.3c0.2-0.1,0.3-0.2,0.5-0.3c0.3-0.1,0.5-0.3,0.8-0.5
		c0.2-0.1,0.4-0.3,0.6-0.5c0.2-0.2,0.4-0.3,0.6-0.5c0.2-0.2,0.4-0.4,0.5-0.6c0.2-0.2,0.3-0.4,0.5-0.6c0.2-0.2,0.3-0.5,0.4-0.7
		c0.1-0.2,0.2-0.5,0.3-0.7c0.1-0.2,0.2-0.5,0.2-0.7c0.1-0.3,0.2-0.5,0.2-0.8c0-0.3,0.1-0.5,0.1-0.8c0-0.2,0-0.5,0-0.8
		c0-0.3,0-0.6-0.1-0.9C722.9,281,722.9,280.9,722.9,280.7L722.9,280.7z"/>
	<path class="st1" d="M635.7,344.6L603.2,304l32.4-45.4l31.3-5.5l33.6-5.9l5.3,30.2l-29.6,13.3l-17.1,7.7h0c-0.5,0.2-1,0.5-1.4,0.8
		c-0.2,0.1-0.4,0.3-0.6,0.5c-0.2,0.2-0.4,0.3-0.6,0.5c-0.4,0.4-0.7,0.8-1,1.3c0,0.1-0.1,0.2-0.1,0.2c-0.2,0.4-0.4,0.8-0.6,1.2
		c-0.1,0.2-0.1,0.5-0.2,0.7c-0.1,0.3-0.2,0.5-0.2,0.8c0,0.3,0,0.5,0,0.8c0,0.3,0,0.5,0,0.8c0,0.3,0.1,0.5,0.1,0.8
		c0,0.2,0,0.5,0.1,0.7c0.1,0.5,0.2,0.9,0.4,1.3c0,0.1,0,0.1,0.1,0.2h0c0.2,0.5,0.5,1,0.8,1.4c0.2,0.2,0.3,0.4,0.5,0.6
		c0.2,0.2,0.3,0.4,0.5,0.6c0.4,0.4,0.8,0.7,1.3,1l0,0l15,9.3l27,16.7l-12.7,23.6l-32.4-11L635.7,344.6L635.7,344.6z"/>
	<polygon class="st2" points="54.9,542.4 86.5,622.2 110.1,612.9 79.6,509.9 	"/>
	<path class="st2" d="M102.6,664.9l57,67.7l17.4-14.1c0.1-0.1,0.3-0.2,0.5-0.3c0.2-0.2,0.5-0.4,0.8-0.5c0.1-0.1,0.2-0.1,0.3-0.1
		l-58.7-88L102.6,664.9z"/>
	<polygon class="st2" points="718.6,660.5 750.4,585.4 725.8,553.2 693.6,647.4 718.6,660.5 	"/>
	<polygon class="st2" points="636.9,751.3 699.6,688 684.4,662.8 614.1,728 636.9,751.3 	"/>
	<path class="st2" d="M673.1,321.9l-15-9.3l0,0c-0.5-0.3-0.9-0.6-1.3-1c-0.2-0.2-0.3-0.4-0.5-0.6c-0.2-0.2-0.4-0.4-0.5-0.6
		c-0.3-0.5-0.6-0.9-0.8-1.4h0c0-0.1,0-0.1-0.1-0.2c-0.2-0.4-0.3-0.9-0.4-1.3c-0.1-0.2-0.1-0.5-0.1-0.7c0-0.3-0.1-0.5-0.1-0.8
		c0-0.3,0-0.5,0-0.8c0-0.2,0-0.5,0-0.8c0-0.2,0.1-0.5,0.2-0.8c0.1-0.2,0.1-0.5,0.2-0.7c0.2-0.4,0.4-0.8,0.6-1.2c0-0.1,0-0.2,0.1-0.2
		c0.3-0.5,0.6-0.9,1-1.3c0.2-0.2,0.4-0.4,0.6-0.5c0.2-0.2,0.4-0.4,0.6-0.5c0.4-0.3,0.9-0.6,1.4-0.8h0l17.1-7.7l-9.3-37.5l-31.3,5.5
		L603.2,304l32.5,40.6l19.4,6.6L673.1,321.9L673.1,321.9z"/>
	<path class="st2" d="M175.2,255.9c0.1,0,0.2,0.1,0.2,0.1c0.2,0.1,0.4,0.2,0.6,0.3c0.2,0.1,0.4,0.3,0.7,0.5c0.2,0.1,0.4,0.3,0.6,0.5
		c0.2,0.2,0.4,0.4,0.5,0.6c0.2,0.2,0.4,0.4,0.5,0.6c0.1,0.2,0.2,0.4,0.4,0.6c0.2,0.2,0.3,0.5,0.4,0.8c0,0,0.1,0.1,0.1,0.1
		c0.1,0.2,0.1,0.3,0.2,0.5c0.1,0.3,0.2,0.6,0.3,0.9c0.1,0.2,0.1,0.5,0.1,0.8c0,0.3,0.1,0.5,0.1,0.8c0,0.3,0,0.5,0,0.8
		c0,0.3,0,0.5-0.1,0.8c-0.1,0.3-0.1,0.6-0.2,0.9c0,0.2-0.1,0.3-0.1,0.5c0,0-0.1,0.1-0.1,0.2c-0.1,0.3-0.2,0.5-0.4,0.8
		c-0.1,0.2-0.2,0.4-0.3,0.6s-0.3,0.4-0.5,0.6c-0.1,0.2-0.3,0.4-0.4,0.6c-0.2,0.2-0.4,0.4-0.6,0.5c-0.2,0.2-0.4,0.4-0.6,0.5
		c-0.2,0.1-0.4,0.2-0.6,0.4c-0.2,0.2-0.5,0.3-0.8,0.5c-0.1,0-0.1,0-0.1,0.1l-7,3.2l3.6,24.9l16.6-4.6l31.4-33.6l-24-36.5l-12.3-2.3
		L175.2,255.9L175.2,255.9z"/>
	<path class="st2" d="M287.1,433.9c-12.3-5.2-25.9-8.1-40.1-8.1c-28.5,0-54.2,11.5-72.9,30.2c-9.4,9.4-16.9,20.4-22.1,32.8
		c-5.2,12.3-8.1,25.9-8.1,40.1c0,28.5,11.5,54.2,30.2,72.9c9.3,9.3,20.4,16.9,32.8,22.1c12.3,5.2,25.9,8.1,40.1,8.1
		c28.5,0,54.2-11.5,72.9-30.2c18.7-18.7,30.2-44.4,30.2-72.9s-11.5-54.2-30.2-72.9C310.5,446.5,299.4,439,287.1,433.9L287.1,433.9z"
		/>
	<path class="st2" d="M318.5,588.9c-14.4,14.5-34.4,23.4-56.5,23.4s-42-8.9-56.4-23.4c-14.4-14.5-23.4-34.4-23.4-56.5
		c0-44.1,35.7-79.8,79.8-79.8c22.1,0,42,9,56.5,23.4c14.5,14.5,23.4,34.4,23.4,56.5C341.9,554.5,332.9,574.5,318.5,588.9
		L318.5,588.9z"/>
	<path class="st3" d="M31.4,573.3l33.2,57.5l21.9-8.6l-31.6-79.8C54.9,542.4,31.4,573.3,31.4,573.3z M748.4,676.1l29.8-54.3
		l-27.8-36.4l-31.8,75.1L748.4,676.1z M705.8,277.3l-5.3-30.2l-33.6,5.9l9.3,37.5L705.8,277.3z M661.4,776.3l59-53.8L699.6,688
		l-62.7,63.3L661.4,776.3L661.4,776.3z M87.1,696.5l53.7,51.3l18.8-15.2l-57-67.7C102.6,664.9,87.1,696.5,87.1,696.5z M687.4,362.1
		l12.7-23.6l-27-16.6l-18.1,29.3L687.4,362.1L687.4,362.1z M151.9,215.8l-7.3,29.9l29.9,9.8c0.1,0,0.1,0.1,0.1,0.1
		c0.2,0.1,0.4,0.2,0.6,0.2l8.4-34.1L151.9,215.8L151.9,215.8z M143.9,285l3.1,20.7l24.9-6.8l-3.6-24.9L143.9,285z"/>
	<path class="st4" d="M262,452.6c-44.1,0-79.8,35.8-79.8,79.8c0,22.1,8.9,42,23.4,56.5c14.4,14.5,34.4,23.4,56.4,23.4
		s42-8.9,56.5-23.4c14.5-14.5,23.4-34.4,23.4-56.5s-8.9-42-23.4-56.5C304,461.6,284.1,452.6,262,452.6L262,452.6z"/>
	<path class="st1" d="M591.6,601.7c-18.7,18.7-44.4,30.2-72.9,30.2c-14.2,0-27.8-2.9-40.1-8.1c-12.3-5.2-23.4-12.8-32.8-22.1
		c-18.7-18.7-30.2-44.4-30.2-72.9c0-14.2,2.9-27.8,8.1-40.1c5.2-12.2,12.7-23.4,22.1-32.8c18.7-18.7,44.4-30.2,72.9-30.2
		c14.2,0,27.8,2.9,40.1,8.1c12.2,5.2,23.4,12.7,32.8,22.1c18.7,18.7,30.2,44.4,30.2,72.9S610.2,583,591.6,601.7L591.6,601.7z"/>
	<path class="st4" d="M604.4,443.1c-21.9-21.9-52.2-35.5-85.7-35.5c-33.4,0-63.8,13.6-85.7,35.5c-21.9,21.9-35.5,52.3-35.5,85.7v0.1
		c0,33.4,13.6,63.8,35.5,85.6c21.9,21.9,52.2,35.5,85.7,35.5c16.7,0,32.7-3.4,47.2-9.5c14.4-6.1,27.5-14.9,38.5-26
		c21.9-21.9,35.5-52.3,35.5-85.7c0-16.7-3.4-32.7-9.5-47.2C624.3,467.3,615.4,454.2,604.4,443.1z"/>
	<path class="st2" d="M590.1,588.9c-14.4,14.5-34.4,23.4-56.5,23.4s-42-8.9-56.5-23.4c-14.5-14.5-23.4-34.4-23.4-56.5
		c0-44.1,35.7-79.8,79.8-79.8c22.1,0,42,9,56.5,23.4c14.5,14.5,23.4,34.4,23.4,56.5C613.5,554.5,604.6,574.5,590.1,588.9
		L590.1,588.9z"/>
	<path class="st2" d="M558.8,433.9c-12.3-5.2-25.9-8.1-40.1-8.1c-28.5,0-54.2,11.5-72.9,30.2c-9.4,9.4-16.9,20.4-22.1,32.8
		c-5.2,12.3-8.1,25.9-8.1,40.1c0,28.5,11.5,54.2,30.2,72.9c9.3,9.3,20.4,16.9,32.8,22.1c12.3,5.2,25.9,8.1,40.1,8.1
		c28.5,0,54.2-11.5,72.9-30.2c18.7-18.7,30.2-44.4,30.2-72.9s-11.5-54.2-30.2-72.9C582.2,446.5,571.1,439,558.8,433.9L558.8,433.9z"
		/>
	<path class="st4" d="M332.7,443.1c-21.9-21.9-52.2-35.5-85.7-35.5c-33.4,0-63.8,13.6-85.7,35.5c-21.9,21.9-35.5,52.3-35.5,85.7v0.1
		c0,33.4,13.6,63.8,35.5,85.6c21.9,21.9,52.2,35.5,85.7,35.5c16.7,0,32.7-3.4,47.2-9.5c14.4-6.1,27.5-14.9,38.5-26
		c21.9-21.9,35.5-52.3,35.5-85.7c0-16.7-3.4-32.7-9.5-47.2C352.6,467.3,343.8,454.2,332.7,443.1L332.7,443.1z M319.9,601.7
		c-18.7,18.7-44.4,30.2-72.9,30.2c-14.2,0-27.8-2.9-40.1-8.1c-12.3-5.2-23.4-12.8-32.8-22.1C155.5,583,144,557.3,144,528.8
		c0-14.2,2.9-27.8,8.1-40.1c5.2-12.2,12.7-23.4,22.1-32.8c18.7-18.7,44.4-30.2,72.9-30.2c14.2,0,27.8,2.9,40.1,8.1
		c12.2,5.2,23.4,12.7,32.8,22.1c18.7,18.7,30.2,44.4,30.2,72.9S338.6,583,319.9,601.7L319.9,601.7z M533.7,452.6
		c-44.1,0-79.8,35.8-79.8,79.8c0,22.1,8.9,42,23.4,56.5c14.4,14.5,34.4,23.4,56.5,23.4s42-8.9,56.5-23.4
		c14.5-14.5,23.4-34.4,23.4-56.5s-8.9-42-23.4-56.5C575.7,461.6,555.7,452.6,533.7,452.6L533.7,452.6z"/>
	<path class="st1" d="M794.6,422.1c2.5-9.7,4.3-21.2,5.5-34.2c1.2-13,1.8-27.4,1.8-42.8c0-48.8-5.8-108.1-17.4-164.8
		c-5.8-28.3-13-56-21.7-81.3c-8.7-25.3-18.8-48.3-30.6-67.4c0-0.1-0.1-0.1-0.2-0.2c-0.2-0.2-0.3-0.5-0.5-0.7
		c-0.2-0.2-0.3-0.4-0.5-0.6c-0.2-0.2-0.4-0.4-0.6-0.5c-0.2-0.2-0.4-0.3-0.6-0.5c-0.2-0.1-0.4-0.3-0.7-0.4c-0.2-0.1-0.5-0.2-0.7-0.4
		c-0.2-0.1-0.5-0.2-0.7-0.2c-0.2-0.1-0.5-0.2-0.8-0.2c-0.2,0-0.5-0.1-0.8-0.1c-0.2,0-0.5,0-0.8,0c-0.2,0-0.5,0-0.8,0
		c-0.3,0-0.5,0-0.8,0.1c-0.2,0-0.5,0.1-0.7,0.2c-0.3,0.1-0.5,0.2-0.8,0.3c-0.1,0-0.2,0-0.3,0.1c-18.2,8.1-38.4,21.4-59.4,37.6
		c-31.4,24.3-64.5,55.4-93.7,86c-14.6,15.3-28.2,30.5-40.1,44.7c-10.5,12.5-19.7,24.2-27.1,34.6c-12-1.8-43.6-5.9-78-5.9
		c-10.4,0-21.1,0.4-31.5,1.3c-15,1.4-29.6,3.6-43,6.3c-25.2-36-63.5-84.7-102-126.1c-20-21.5-40-41-58.4-55.8
		c-9.2-7.4-18-13.5-26.3-18.2c-8.2-4.6-16-7.7-23.6-8.8c0,0-0.1,0-0.1,0c-0.1,0-0.1,0-0.1,0c-0.2,0-0.4,0-0.6,0c-0.3,0-0.6,0-0.9,0
		c-0.3,0-0.5,0.1-0.8,0.1c-0.3,0-0.5,0.1-0.8,0.1c-0.3,0-0.5,0.2-0.8,0.2s-0.5,0.2-0.7,0.3c-0.2,0.1-0.5,0.3-0.7,0.4
		c-0.2,0.1-0.4,0.2-0.6,0.4c-0.2,0.2-0.5,0.4-0.7,0.6c-0.1,0.1-0.3,0.2-0.4,0.4c0,0-0.1,0.1-0.1,0.1c0,0,0,0,0,0
		C124.8,34,118.7,42.9,113,53c-10.1,17.8-19,39.4-26.9,62.8C74.3,150.9,65.1,190,58.8,225.7c-3.2,17.8-5.6,34.8-7.2,50
		s-2.5,28.5-2.5,39.3c0,6.8,0.3,12.6,1.1,17.4c2.9,17.1,9.5,38.4,19.8,59.7c9.3,19.2,21.7,38.3,37.3,54.2L15.1,567.8
		c-0.3,0.4-0.6,0.9-0.9,1.4c-0.1,0.2-0.2,0.5-0.2,0.7c-0.1,0.3-0.2,0.5-0.3,0.8c-0.1,0.3-0.1,0.5-0.1,0.8c-0.1,0.2-0.1,0.5-0.1,0.7
		c0,0.2,0,0.5,0,0.7c0,0.3,0,0.5,0,0.8c0,0.3,0.1,0.5,0.2,0.8c0.1,0.2,0.1,0.5,0.2,0.7c0.2,0.5,0.4,1,0.7,1.5L54,645.1
		c0,0,0.1,0.1,0.1,0.2c0.2,0.2,0.3,0.5,0.5,0.7c0.1,0.2,0.3,0.4,0.5,0.6c0.2,0.2,0.4,0.4,0.6,0.6c0.2,0.2,0.4,0.3,0.6,0.5
		c0.2,0.2,0.4,0.3,0.7,0.4c0.2,0.1,0.5,0.3,0.7,0.4s0.5,0.2,0.7,0.3c0.2,0.1,0.5,0.2,0.7,0.2c0.2,0.1,0.5,0.1,0.8,0.1
		s0.5,0.1,0.8,0.1c0.2,0,0.5,0,0.8,0c0.3,0,0.5,0,0.8,0c0.2,0,0.5-0.1,0.7-0.2c0.3-0.1,0.6-0.1,0.8-0.2c0,0,0.1,0,0.2-0.1l35.2-13.9
		l-29.4,60c-0.1,0.1-0.1,0.2-0.1,0.3c-0.1,0.2-0.2,0.5-0.3,0.8c-0.1,0.2-0.1,0.5-0.2,0.7c-0.1,0.3-0.1,0.5-0.1,0.8
		c0,0.2-0.1,0.5-0.1,0.8c0,0.2,0,0.5,0,0.8s0,0.5,0.1,0.8c0.1,0.2,0.1,0.5,0.2,0.8s0.2,0.5,0.2,0.7c0.1,0.2,0.2,0.5,0.3,0.7
		c0.1,0.2,0.2,0.5,0.4,0.7c0.1,0.2,0.3,0.4,0.4,0.6c0.2,0.2,0.4,0.5,0.6,0.7c0.1,0.1,0.2,0.2,0.2,0.3l63.2,60.4
		c0.1,0.1,0.2,0.1,0.2,0.2c0.2,0.2,0.4,0.4,0.7,0.5c0.2,0.2,0.4,0.3,0.6,0.4c0.2,0.1,0.5,0.2,0.7,0.4c0.2,0.1,0.5,0.2,0.7,0.3
		c0.2,0.1,0.5,0.1,0.7,0.2c0.2,0,0.5,0.1,0.8,0.1c0.2,0,0.5,0,0.8,0c0.2,0,0.5,0,0.8,0c0.5,0,1-0.1,1.6-0.2c0.2-0.1,0.5-0.1,0.7-0.2
		s0.5-0.2,0.8-0.3c0.2-0.1,0.4-0.2,0.6-0.4c0.2-0.1,0.5-0.3,0.7-0.5c0.1-0.1,0.2-0.1,0.2-0.2l37-29.9c5.9,4.1,12.6,8.1,19.6,11.8
		c13.8,7.3,29.3,13.8,44.6,19.2s30.4,9.5,43.5,12c38.8,7.4,75.9,10.1,109.4,10.1c39.3,0,73.9-3.7,100.7-7.6
		c15.6-2.3,39.9-6.9,62.8-12.9c11.5-3,22.5-6.3,32.2-10c4.8-1.8,9.2-3.8,13.2-5.8c1.5-0.7,2.8-1.5,4.1-2.3l42.8,43.7
		c0.2,0.2,0.4,0.3,0.5,0.4c0.2,0.2,0.4,0.4,0.6,0.5c0.2,0.1,0.5,0.3,0.7,0.4c0.2,0.1,0.5,0.3,0.7,0.4c0.2,0.1,0.5,0.2,0.8,0.3
		c0.2,0.1,0.5,0.2,0.7,0.2c0.2,0,0.5,0.1,0.8,0.1c0.2,0,0.5,0.1,0.8,0.1c0.3,0,0.5,0,0.8,0c0.3,0,0.5,0,0.8-0.1
		c0.3,0,0.5-0.1,0.8-0.2c0.2-0.1,0.5-0.1,0.8-0.2c0.2-0.1,0.5-0.2,0.7-0.3c0.2-0.1,0.5-0.2,0.7-0.4c0.2-0.1,0.5-0.3,0.7-0.5
		c0.2-0.1,0.4-0.2,0.5-0.4l69.7-63.6v0c0.4-0.4,0.8-0.8,1.1-1.2c0,0,0-0.1,0-0.1c0.3-0.4,0.5-0.8,0.7-1.2c0.1-0.3,0.2-0.6,0.3-0.8
		c0.1-0.2,0.2-0.4,0.2-0.6c0-0.2,0.1-0.5,0.1-0.8s0.1-0.5,0.1-0.8c0-0.2,0-0.4,0-0.7c0-0.3,0-0.6,0-0.9c-0.1-0.5-0.2-0.9-0.3-1.4
		c0,0,0-0.1,0-0.2c-0.2-0.5-0.4-1-0.7-1.5l0,0l-27.2-45.1l37.3,19.5c0.2,0.1,0.5,0.2,0.7,0.3c0.3,0.1,0.5,0.2,0.8,0.3
		s0.5,0.1,0.8,0.2c0.3,0,0.5,0.1,0.8,0.1c0.2,0,0.5,0,0.8,0c0.2,0,0.5,0,0.8,0c0.2,0,0.5-0.1,0.8-0.1s0.5-0.1,0.8-0.2
		c0.2-0.1,0.5-0.2,0.7-0.3c0.2-0.1,0.5-0.2,0.7-0.3c0.2-0.1,0.4-0.3,0.7-0.4c0.2-0.2,0.5-0.3,0.7-0.5c0.2-0.2,0.4-0.4,0.6-0.6
		c0.2-0.2,0.4-0.4,0.6-0.6c0.2-0.2,0.3-0.5,0.5-0.7c0.1-0.2,0.3-0.4,0.4-0.6L795,625c0,0,0,0,0,0l0-0.1c0.1-0.1,0.1-0.3,0.2-0.5
		c0.2-0.3,0.3-0.6,0.4-0.9c0.1-0.2,0.1-0.5,0.2-0.8c0-0.3,0.1-0.5,0.2-0.8c0-0.3,0-0.5,0-0.8c0-0.2,0-0.5,0-0.8
		c0-0.3-0.1-0.5-0.1-0.8c0-0.3-0.1-0.5-0.2-0.8c0-0.2-0.2-0.5-0.3-0.7c-0.1-0.2-0.2-0.5-0.3-0.7c-0.2-0.3-0.3-0.6-0.5-0.9
		c-0.1-0.1-0.2-0.3-0.2-0.4l-0.1-0.1l0,0l-63.9-83.4c12.4-15.8,24.4-29.6,35.2-45.5C777.4,469.5,787.6,449.4,794.6,422.1
		L794.6,422.1z M713.7,527.5c-0.1,0.1-0.2,0.3-0.2,0.4c-0.2,0.2-0.3,0.5-0.5,0.8c-0.1,0.2-0.2,0.5-0.3,0.7c-0.1,0.2-0.2,0.5-0.3,0.7
		c-0.1,0.3-0.1,0.5-0.2,0.8c0,0.2-0.1,0.5-0.1,0.8s0,0.5,0,0.8c0,0.3,0,0.5,0,0.8c0,0.2,0.1,0.5,0.1,0.8c0,0.3,0.1,0.5,0.2,0.8
		c0.1,0.2,0.2,0.5,0.3,0.8c0.1,0.2,0.2,0.5,0.3,0.7c0.1,0.3,0.3,0.5,0.5,0.8c0.1,0.1,0.1,0.3,0.2,0.4l12.1,15.8l24.6,32.2l27.8,36.4
		l-29.8,54.3l-29.8-15.6l-25-13.1l-1.2-0.6c0,0-0.1,0-0.2-0.1c-0.3-0.1-0.5-0.2-0.8-0.3c-0.2-0.1-0.5-0.2-0.7-0.2
		c-0.3-0.1-0.5-0.1-0.8-0.1c-0.3,0-0.5-0.1-0.8-0.1c-0.3,0-0.5,0-0.8,0c-0.2,0-0.5,0-0.8,0c-0.3,0-0.5,0.1-0.8,0.2s-0.5,0.1-0.8,0.2
		c-0.2,0.1-0.4,0.2-0.7,0.3c-0.3,0.1-0.6,0.2-0.8,0.4c0,0-0.1,0-0.2,0.1c-0.2,0.1-0.3,0.2-0.4,0.3c-0.2,0.2-0.5,0.3-0.7,0.5
		c-0.2,0.2-0.4,0.4-0.5,0.6c-0.2,0.2-0.4,0.4-0.5,0.6c-0.2,0.2-0.3,0.5-0.5,0.8c-0.1,0.1-0.2,0.3-0.3,0.4c0,0,0,0.1,0,0.2
		c-0.2,0.3-0.2,0.6-0.3,0.8c-0.1,0.2-0.2,0.5-0.2,0.7c-0.1,0.2-0.1,0.5-0.2,0.8c0,0.3-0.1,0.5-0.1,0.8c0,0.3,0,0.5,0,0.8
		c0,0.3,0,0.5,0,0.8c0,0.3,0.1,0.5,0.2,0.8s0.1,0.5,0.2,0.8c0.1,0.2,0.2,0.5,0.3,0.7c0.1,0.3,0.2,0.6,0.4,0.8c0,0,0,0.1,0.1,0.2
		l2.8,4.7l15.2,25.2l20.8,34.5l-59,53.8l-24.5-25L614.1,728l-9.5-9.7c-3.2-3.2-8.3-3.3-11.5-0.1c-3.2,3.2-3.3,8.3-0.1,11.5l7.7,7.9
		c-5.6,2.9-13.3,5.8-21.9,8.6c-26.2,8.5-61.2,15.4-80.9,18.2c-26.3,3.9-60,7.4-98.3,7.4c-32.7,0-68.7-2.6-106.3-9.8
		c-16.1-3.1-36.4-9.1-55.8-16.9c-9.7-3.9-19.2-8.2-27.8-12.8c-8.6-4.5-16.4-9.3-22.6-14.1c-0.1-0.1-0.3-0.2-0.5-0.3
		c-0.2-0.2-0.5-0.3-0.8-0.5c-0.2-0.1-0.5-0.2-0.7-0.3c-0.2-0.1-0.5-0.2-0.8-0.3c-0.2-0.1-0.5-0.1-0.8-0.2s-0.5-0.1-0.8-0.1
		c-0.2,0-0.5,0-0.8,0c-0.3,0-0.5,0-0.8,0c-0.2,0-0.5,0.1-0.7,0.1c-0.2,0-0.5,0.1-0.8,0.2c-0.2,0.1-0.5,0.2-0.8,0.3
		c-0.1,0-0.3,0.1-0.4,0.2c-0.1,0-0.2,0.1-0.3,0.1c-0.3,0.1-0.5,0.3-0.8,0.5c-0.1,0.1-0.3,0.2-0.5,0.3l-17.4,14.1l-18.8,15.2
		l-53.7-51.3l15.5-31.6l17.3-35.4l3.2-6.6c0,0,0-0.1,0.1-0.2c0.1-0.3,0.2-0.5,0.3-0.8c0.1-0.2,0.2-0.5,0.2-0.7
		c0.1-0.2,0.1-0.5,0.1-0.8c0-0.2,0.1-0.5,0.1-0.8c0-0.3,0-0.5,0-0.8c0-0.3,0-0.5-0.1-0.8c0-0.2-0.1-0.5-0.2-0.7
		c-0.1-0.3-0.1-0.6-0.2-0.9c0,0,0-0.1,0-0.2c-0.1-0.2-0.2-0.3-0.2-0.5c-0.1-0.3-0.2-0.5-0.4-0.8c-0.1-0.2-0.3-0.4-0.4-0.6
		c-0.2-0.2-0.3-0.4-0.5-0.6c-0.2-0.2-0.4-0.4-0.6-0.6c-0.2-0.2-0.4-0.3-0.6-0.5c-0.2-0.2-0.5-0.3-0.8-0.5c-0.2-0.1-0.3-0.2-0.4-0.3
		c-0.1,0-0.1,0-0.2-0.1c-0.3-0.1-0.6-0.2-0.8-0.3c-0.2-0.1-0.4-0.2-0.7-0.2c-0.3-0.1-0.5-0.1-0.8-0.1c-0.2,0-0.5-0.1-0.8-0.1
		c-0.2,0-0.5,0-0.8,0c-0.3,0-0.5,0-0.8,0.1c-0.2,0-0.5,0.1-0.7,0.2c-0.3,0.1-0.6,0.1-0.8,0.2c-0.1,0-0.1,0-0.2,0l-2.8,1.1l-23.5,9.3
		l-21.9,8.6l-33.2-57.5l23.5-30.9l24.7-32.5l45.1-59.4c0.1-0.1,0.2-0.2,0.2-0.4c0.2-0.2,0.3-0.5,0.4-0.7c0.1-0.2,0.2-0.5,0.3-0.7
		c0.1-0.2,0.2-0.5,0.3-0.8c0.1-0.2,0.2-0.5,0.2-0.8c0.1-0.3,0.1-0.5,0.1-0.8c0-0.2,0-0.5,0-0.8c0-0.3,0-0.5,0-0.8s-0.1-0.5-0.1-0.8
		c0-0.3-0.1-0.5-0.2-0.8s-0.1-0.5-0.2-0.7c-0.1-0.2-0.2-0.5-0.3-0.7c-0.2-0.5-0.5-0.9-0.9-1.3c-0.2-0.2-0.4-0.4-0.6-0.6
		c-0.1-0.1-0.2-0.2-0.3-0.3c-8.1-7.4-15.5-16.1-22-25.4c-6.5-9.3-12.2-19.2-17.1-29.1c-9.7-19.9-15.8-40-18.4-55.3
		c-0.6-3.4-0.9-8.5-0.9-14.7c0-15.1,1.9-37.1,5.6-62.2c5.5-37.6,14.9-82.1,27.4-122c6.3-19.9,13.3-38.7,21-54.7
		c6.7-14.2,14-26.2,21.3-35c3.9,1.1,8.7,3.1,13.9,6c12.6,7,28.1,19.2,44.5,34.4c24.6,22.8,51.6,52.4,76.3,82.1
		c21.4,25.7,41.2,51.5,56.6,73.1c-9.2,2.2-17.8,4.5-25.3,6.7c-22.4,6.5-36.5,12.3-36.7,12.4c-4.2,1.7-6.2,6.4-4.5,10.6c0,0,0,0,0,0
		c1.7,4.2,6.5,6.2,10.6,4.5l0,0c0.7-0.3,14.6-5.9,36.1-12.1c21.5-6.2,50.6-13.1,81.5-15.9c9.9-0.9,20.1-1.3,30.1-1.3
		c21,0,41.2,1.6,56,3.3c7.4,0.8,13.5,1.6,17.8,2.2c2.1,0.3,3.8,0.6,4.9,0.7c0.6,0.1,1,0.2,1.2,0.2l0.3,0.1l0.1,0c0.2,0,0.4,0,0.5,0
		c0.3,0,0.6,0.1,0.9,0.1c0.2,0,0.5,0,0.8-0.1c0.2,0,0.5-0.1,0.8-0.1c0.3-0.1,0.5-0.1,0.8-0.2c0.2-0.1,0.5-0.1,0.7-0.2
		c0.2-0.1,0.5-0.2,0.7-0.3s0.5-0.2,0.7-0.4c0.2-0.1,0.4-0.3,0.6-0.5c0.2-0.2,0.4-0.3,0.6-0.5c0.2-0.2,0.4-0.4,0.6-0.7
		c0.1-0.1,0.2-0.2,0.4-0.4c5-7.2,11.1-15.3,18-24.1c7-8.7,14.8-18.1,23.3-27.8c25.5-29,56.8-61,88.1-88.4
		c15.6-13.7,31.2-26.3,46-36.8c12.2-8.7,23.9-15.9,34.5-21.3c9.4,16.5,17.9,36.2,25.3,57.8c12.6,36.8,22.2,79.2,28.6,121.3
		c6.4,42.1,9.6,84,9.6,119.6c0,15-0.6,29-1.7,41.4c-1.1,12.3-2.8,23.1-5,31.6c-6.6,25.6-15.7,43.5-26.7,59.8
		C741.1,494.2,727.9,508.9,713.7,527.5L713.7,527.5z"/>
</g>
</svg>
