<?xml version="1.0" encoding="UTF-8"?>
<svg xmlns="http://www.w3.org/2000/svg" version="1.1" viewBox="0 0 2000 2000">
  <defs>
    <style>
      .cls-1 {
        fill: #000;
      }

      .cls-1, .cls-2, .cls-3 {
        stroke-width: 0px;
      }

      .cls-2 {
        fill: #fff;
      }

      .cls-4 {
        display: none;
      }

      .cls-3 {
        fill: #019875;
      }
    </style>
  </defs>
  <g id="Layer_1" data-name="Layer 1" class="cls-4">
    <g class="cls-4">
      <path class="cls-1" d="M485.71,1463.76c-3.28,1.53-6.52,2.68-9.72,3.47s-6.06,1.4-8.58,1.84c-2.95.42-5.8.67-8.58.75-3.03,0-6.29-.54-9.79-1.65-3.49-1.09-7-2.97-10.54-5.6-3.53-2.66-6.94-6.27-10.22-10.85-3.28-4.6-6.19-10.37-8.71-17.31-2.53-6.94-4.55-15.24-6.06-24.92s-2.27-20.95-2.27-33.83.9-24.11,2.71-33.7c1.81-9.6,4.17-17.81,7.08-24.67,2.9-6.86,6.18-12.5,9.84-16.91,3.67-4.41,7.39-7.9,11.18-10.48s7.46-4.33,11.05-5.31c3.58-.96,6.66-1.44,9.27-1.44,2.44.08,4.84.33,7.19.75,2.02.42,4.15,1.07,6.38,1.9,2.23.84,4.18,2.01,5.86,3.53l-2.52,25.36c-2.36-1.17-4.57-2.03-6.63-2.59-2.06-.54-4.01-.82-5.86-.82-3.53,0-6.67.94-9.41,2.84-2.74,1.9-5.09,4.39-7.07,7.51-1.98,3.12-3.66,6.65-5.05,10.6-1.39,3.97-2.51,8.01-3.35,12.13-2.1,9.68-3.28,20.7-3.53,33.08.25,12.27,1.47,23.21,3.66,32.81.93,4.14,2.08,8.15,3.47,12.06,1.39,3.91,3.09,7.4,5.11,10.48,2.02,3.07,4.4,5.54,7.13,7.38,2.74,1.86,5.92,2.78,9.53,2.78,3.95,0,8.54-1.38,13.76-4.16l4.67,24.99Z"/>
      <path class="cls-1" d="M584.41,1339.69c0,5.62-.53,11.29-1.58,16.98-1.06,5.67-2.76,11.14-5.11,16.39-2.36,5.27-5.39,10.18-9.1,14.78-3.7,4.58-8.25,8.64-13.63,12.17,4.71,12.04,9.91,23.58,15.59,34.67,5.69,11.06,12.01,21.72,19.01,31.99l-31.56,1.76-21.46-60.95c.33,10.27.76,20.45,1.26,30.53.5,10.1,1.14,20.07,1.89,29.92h-30.8c1.35-19.09,2.33-38.2,2.97-57.31.63-19.09.94-38.33.94-57.69,0-11.19-.08-22.35-.25-33.5-.17-11.17-.5-22.41-1-33.77,4.45-1.36,8.98-2.24,13.57-2.66,4.58-.42,8.47-.63,11.68-.63,2.27,0,5.02.23,8.26.69s6.63,1.4,10.16,2.84c3.53,1.42,7.05,3.45,10.55,6.06,3.48,2.59,6.6,6.02,9.34,10.29,2.74,4.24,4.97,9.41,6.69,15.51s2.59,13.4,2.59,21.91ZM536.31,1387c2.95-.84,5.53-2.07,7.77-3.72,2.23-1.63,4.18-3.51,5.86-5.6,1.68-2.11,3.09-4.35,4.23-6.69,1.13-2.36,2.08-4.73,2.83-7.07,1.68-5.48,2.66-11.46,2.91-17.94,0-.17-.02-1.19-.06-3.07-.04-1.9-.27-4.29-.69-7.15-.43-2.84-1.03-5.96-1.83-9.33-.8-3.37-1.97-6.63-3.47-9.79-1.52-3.16-3.46-5.96-5.81-8.41-2.35-2.43-5.22-4.16-8.58-5.16-1.01,13.21-1.79,26.37-2.33,39.43-.55,13.09-.83,26.28-.83,39.58v4.91Z"/>
      <path class="cls-1" d="M665.04,1467.92c-.42-5.79-.82-11.65-1.19-17.54-.39-5.9-.83-11.81-1.33-17.79-3.71-.25-7.29-.5-10.74-.75s-6.94-.38-10.48-.38h-1.64c-.42,6.04-.79,12.02-1.13,17.92-.34,5.9-.64,11.73-.89,17.54l-31.55-.5c5.22-30.05,9.92-60.01,14.13-89.89,4.2-29.86,7.78-59.99,10.73-90.37l38,.63c3.19,30.05,7.05,59.9,11.54,89.55,4.51,29.67,9.79,59.53,15.85,89.57l-31.31,2.01ZM650.28,1317.96c-1.69,15.49-3.28,30.92-4.8,46.33-1.52,15.39-2.91,30.92-4.17,46.58,1.77.17,3.58.25,5.44.25h13.88c-1.43-15.66-3.03-31.2-4.8-46.58-1.77-15.41-3.62-30.92-5.55-46.58Z"/>
      <path class="cls-1" d="M786.33,1285.66c-7.57,25.65-14.58,51.2-21.01,76.61-6.44,25.42-11.93,51-16.48,76.75,1.01.17,2.04.21,3.09.13,1.05-.08,2.16-.13,3.35-.13,4.54,0,9.02-.1,13.44-.31,4.41-.21,8.9-.52,13.44-.96l.5,29.42c-8.83-.92-17.64-1.57-26.39-1.97-8.75-.38-17.71-.56-26.89-.56h-9.02c-3.07,0-6.07.08-9.02.25,8.67-24.99,16.66-50.26,23.98-75.86,7.32-25.57,13.63-51.83,18.93-78.76-5.8.25-11.64.67-17.48,1.25-5.85.59-11.84,1.32-17.99,2.15l-.75-27.77c5.22.25,10.39.46,15.52.63s10.31.25,15.52.25c12.45,0,24.87-.38,37.24-1.13Z"/>
      <path class="cls-1" d="M894.63,1285.91c-6.73,21.37-13.03,42.92-18.87,64.69-5.85,21.74-11.38,42.76-16.6,63.04v7.84c0,4.2.06,8.18.19,11.92.13,3.74.27,7.44.45,11.1.17,3.66.4,7.42.69,11.25s.65,7.88,1.08,12.17h-30.3c.67-5.21,1.25-10.08,1.77-14.57.5-4.5.9-8.95,1.19-13.32.3-4.37.53-8.87.7-13.51.17-4.62.25-9.68.25-15.14-2.35-9.68-4.82-19.74-7.38-30.17-2.57-10.43-5.2-20.91-7.89-31.43-2.7-10.54-5.38-20.99-8.08-31.38-2.69-10.39-5.34-20.43-7.95-30.11l31.55-2.63c.33,6.9.91,14.2,1.7,21.89.8,7.69,1.75,15.56,2.84,23.54,1.09,7.99,2.31,16.08,3.66,24.23,1.35,8.18,2.73,16.16,4.16,23.98,1.6-7.99,3.18-16.12,4.74-24.42,1.56-8.28,3.01-16.48,4.36-24.55,1.34-8.09,2.58-15.95,3.72-23.61s2.12-14.84,2.97-21.58l31.05.75Z"/>
      <path class="cls-1" d="M1096.06,1290.07l-17.68,181.76h-33.32c-.25-7.4-.53-14.36-.83-20.89-.29-6.52-.69-12.75-1.19-18.73-.51-5.98-1.08-11.83-1.7-17.54-.64-5.73-1.35-11.58-2.15-17.56-.79-5.96-1.7-12.17-2.71-18.61-1.01-6.44-2.11-13.32-3.28-20.64-1.6,9.43-3.84,23.54-6.69,42.34-2.86,18.82-6.31,42.28-10.35,70.38l-34.97,1.78-12.62-181.53,31.8-.75c-.08,5.23-.13,10.89-.13,17.04-.08,5.31-.13,11.37-.13,18.23v40.58c0,6.31.02,12.52.06,18.63s.08,11.96.13,17.6c.04,5.65.15,10.77.32,15.39l17.29-109.94h29.16l13.76,104.77c.17-6.23.36-12.82.56-19.76.21-6.94.4-13.95.57-21.01.17-7.07.31-14.05.44-20.95s.27-13.51.44-19.82c.33-14.72.64-29.42.89-44.05l32.31,3.28Z"/>
      <path class="cls-1" d="M1196.26,1339.69c0,5.62-.53,11.29-1.58,16.98-1.06,5.67-2.76,11.14-5.11,16.39-2.36,5.27-5.39,10.18-9.1,14.78-3.7,4.58-8.25,8.64-13.63,12.17,4.71,12.04,9.91,23.58,15.59,34.67,5.69,11.06,12.01,21.72,19.01,31.99l-31.56,1.76-21.46-60.95c.33,10.27.76,20.45,1.26,30.53.5,10.1,1.14,20.07,1.89,29.92h-30.8c1.35-19.09,2.33-38.2,2.97-57.31.63-19.09.94-38.33.94-57.69,0-11.19-.08-22.35-.25-33.5-.17-11.17-.5-22.41-1-33.77,4.45-1.36,8.98-2.24,13.57-2.66,4.58-.42,8.47-.63,11.68-.63,2.27,0,5.02.23,8.26.69s6.63,1.4,10.16,2.84c3.53,1.42,7.05,3.45,10.55,6.06,3.48,2.59,6.6,6.02,9.34,10.29,2.74,4.24,4.97,9.41,6.69,15.51,1.72,6.11,2.59,13.4,2.59,21.91ZM1148.16,1387c2.95-.84,5.53-2.07,7.77-3.72,2.23-1.63,4.18-3.51,5.86-5.6,1.68-2.11,3.09-4.35,4.23-6.69,1.13-2.36,2.08-4.73,2.83-7.07,1.68-5.48,2.66-11.46,2.91-17.94,0-.17-.02-1.19-.06-3.07-.04-1.9-.27-4.29-.69-7.15-.43-2.84-1.03-5.96-1.83-9.33-.8-3.37-1.97-6.63-3.47-9.79-1.52-3.16-3.46-5.96-5.81-8.41-2.35-2.43-5.22-4.16-8.58-5.16-1.01,13.21-1.79,26.37-2.33,39.43-.55,13.09-.83,26.28-.83,39.58v4.91Z"/>
      <path class="cls-1" d="M1276.91,1467.92c-.42-5.79-.82-11.65-1.19-17.54-.39-5.9-.83-11.81-1.33-17.79-3.71-.25-7.29-.5-10.74-.75s-6.94-.38-10.48-.38h-1.64c-.42,6.04-.79,12.02-1.13,17.92-.34,5.9-.64,11.73-.89,17.54l-31.55-.5c5.22-30.05,9.92-60.01,14.13-89.89,4.2-29.86,7.78-59.99,10.73-90.37l38,.63c3.19,30.05,7.05,59.9,11.54,89.55,4.51,29.67,9.79,59.53,15.85,89.57l-31.31,2.01ZM1262.14,1317.96c-1.69,15.49-3.28,30.92-4.8,46.33-1.52,15.39-2.91,30.92-4.17,46.58,1.77.17,3.58.25,5.44.25h13.88c-1.43-15.66-3.03-31.2-4.8-46.58-1.77-15.41-3.62-30.92-5.55-46.58Z"/>
      <path class="cls-1" d="M1381.91,1465.14c-3.37-.17-6.73-.29-10.1-.38-3.37-.08-6.73-.13-10.09-.13-5.56,0-11.11.1-16.66.31-5.56.23-11.11.54-16.66.96l.25-27.14c1.93.25,3.87.44,5.8.56,1.94.13,3.88.27,5.81.44.5-13.05.98-26.03,1.45-38.93.46-12.92.69-25.86.69-38.83,0-8.66-.13-17.23-.38-25.68-.25-8.47-.5-16.98-.76-25.57-2.18,0-4.41.04-6.68.13-2.28.08-4.59.21-6.95.38l.26-26.39c6.47.44,12.95.75,19.43.96s13.01.31,19.57.31h7.07c2.35,0,4.75-.08,7.19-.25l-.75,25.11c-1.94,0-3.86-.04-5.75-.13-1.89-.08-3.81-.13-5.74-.13-1.18,15.16-2.02,30.19-2.53,45.12-.5,14.95-.75,29.98-.75,45.14,0,13.21.25,26.37.75,39.5,2.7,0,5.45-.04,8.27-.13,2.82-.08,5.66-.21,8.52-.38l-1.26,25.11Z"/>
      <path class="cls-1" d="M1473.15,1312.02c-2.7-.17-5.79-.29-9.27-.38-3.5-.08-7.22-.13-11.18-.13-.59,7.84-1.08,15.93-1.45,24.3-.38,8.38-.69,16.87-.94,25.51-.26,8.64-.43,17.29-.51,26.01-.08,8.7-.13,17.31-.13,25.8,0,9.68.06,19.05.19,28.08.13,9.05.4,17.79.83,26.2h-26.89c.75-14.3,1.35-29.54,1.77-45.68.42-16.16.63-32.45.63-48.86,0-10.68-.13-21.12-.38-31.3s-.5-20.11-.75-29.79c-4.05,0-7.87.04-11.49.13-3.62.08-6.86.21-9.72.38l.25-26.37c3.03.25,6.44.44,10.22.56,3.79.13,7.77.23,11.93.31,4.17.08,8.44.15,12.82.19,4.37.04,8.67.06,12.87.06h11.94c3.74,0,7.09-.08,10.03-.25l-.75,25.24Z"/>
      <path class="cls-1" d="M1532.98,1285.66c-.85,16.66-1.56,33.16-2.15,49.53-.59,16.37-1,32.81-1.25,49.3,2.1.17,4.22.25,6.37.25h6.38c2.7,0,5.45-.04,8.27-.13,2.82-.08,5.66-.21,8.52-.38.17-3.7.25-7.34.25-10.94v-11.04c0-12.8-.13-25.53-.38-38.24-.25-12.71-.68-25.51-1.26-38.37h31.05c-1.51,20.28-2.67,40.42-3.47,60.38-.79,19.99-1.19,40.12-1.19,60.4,0,9.93.13,19.82.38,29.67s.59,19.78,1.01,29.79h-28.78c.42-10.02.79-19.99,1.13-29.92s.68-19.86,1.01-29.79c-4.8-.25-9.58-.48-14.33-.69-4.75-.21-9.48-.31-14.2-.31h-1v43.43c0,5.71.07,11.48.25,17.29h-28.91c.42-12.13.69-24.09.82-35.92.13-11.81.19-23.71.19-35.65,0-36.19-.75-72.43-2.27-108.68h33.58Z"/>
    </g>
    <g>
      <path class="cls-2" d="M1107.05,1069.67c-2.25,4.65-5.01,9-8.28,13.22-19.17,24.84-54.83,41.47-95.64,41.47s-75.23-16.05-94.62-40.16c-3.34-4.14-6.25-8.5-8.57-13.07l33.84-14.31h142.92l30.36,12.85Z"/>
      <path class="cls-3" d="M1069.7,1069.67c-1.85,4.65-4.11,9-6.79,13.22-15.71,24.84-44.94,41.47-78.39,41.47s-61.67-16.05-77.56-40.16c-2.74-4.14-5.12-8.5-7.02-13.07l27.74-14.31h117.15l24.88,12.85Z"/>
      <path class="cls-1" d="M1107.05,1069.67l-30.36-12.85h-142.92l-33.84,14.31-7.77,3.27.29.51c2.18,4.28,4.86,8.5,8.13,12.64.36.65.87,1.23,1.38,1.89,21.79,27.09,59.62,43.28,101.16,43.28s80.61-16.7,102.25-44.73c.44-.58.87-1.16,1.31-1.74,3.12-4.21,5.74-8.42,7.84-12.93l.22-.36-7.7-3.27ZM1003.13,1116c-35,0-67.9-13.43-86.56-35.22-.58-.58-1.09-1.23-1.6-1.82-1.02-1.31-1.96-2.61-2.9-3.92l23.38-9.88h139.58l20.12,8.5c-.94,1.38-1.89,2.76-2.98,4.14-.44.58-.87,1.16-1.45,1.67-18.45,22.59-51.71,36.53-87.58,36.53Z"/>
      <path class="cls-1" d="M1225.13,1119.56c-4.21,3.85-8.5,7.63-12.85,11.26l-12.27-5.16-93.32-39.43-7.92-3.34-8.06-3.41-17.14-7.26h-136.67l-20.33,8.57-8.06,3.41-7.92,3.34-90.05,38.13-12.35,5.16c-4.36-3.63-8.64-7.41-12.78-11.26l11.91-5.08,94.84-40.09,7.77-3.27,33.84-14.31h142.92l30.36,12.85,7.7,3.27,98.47,41.54,11.91,5.08Z"/>
      <path class="cls-3" d="M1203.67,1060.55h-436.48l23.82-213.52c10.09-105.77,93.29-186.22,192.58-186.22h0c98.15,0,180.77,78.66,192.26,183.03l27.82,216.7Z"/>
      <circle class="cls-2" cx="997.72" cy="903.29" r="177.15"/>
      <path class="cls-1" d="M1213.69,833.53c-12.84-112.83-105.4-197.89-215.24-197.89s-204.29,86.55-215.6,201.19l-26.74,231.46h219.29c-17.63-2.55-34.4-7.85-49.83-15.47h-152.1l24.74-214.34c10.52-106.82,96.61-187.4,200.24-187.4s187.95,79.21,199.89,184.34l28.9,217.4h-152.8c-15.43,7.62-32.2,12.92-49.87,15.47h220.27l-31.14-234.76Z"/>
      <path class="cls-1" d="M1046.91,982.32c0,26.06-21.13,47.19-47.19,47.19s-47.19-21.13-47.19-47.19h94.38Z"/>
      <path class="cls-2" d="M1184.28,889.65l-6.2,1.73c-17.36,4.87-34.48,6.87-50.9,6.87-60.63,0-111.37-27.25-126.84-36.48-62.64,46.93-131.2,40.1-178.17,25.76l-6.17-1.88.75-6.4c10.64-90.44,87.38-160.38,178.45-162.74,3.26-.08,6.56-.08,9.78,0,93.07,2.55,169.89,74.22,178.72,166.7l.59,6.44Z"/>
      <path class="cls-3" d="M1139.71,890.69l-5.45,1.52c-15.26,4.28-30.31,6.04-44.74,6.04-53.3,0-97.89-23.96-111.49-32.07-55.06,41.25-115.33,35.24-156.61,22.64l-5.42-1.66.66-5.63c9.35-79.5,76.8-140.97,156.85-143.04,2.86-.07,5.76-.07,8.6,0,81.81,2.24,149.33,65.24,157.09,146.53l.52,5.66Z"/>
      <path class="cls-1" d="M1183.69,883.21c-8.84-92.48-85.65-164.15-178.72-166.7-3.22-.08-6.52-.08-9.78,0-91.07,2.36-167.8,72.3-178.45,162.74-.86,7.34-1.3,14.65-1.3,21.76,0,62.87,31.61,118.52,79.8,151.82,8.48,5.89,17.48,11.07,26.94,15.47,23.64,11.07,49.99,17.24,77.8,17.24s54.19-6.17,77.83-17.24c9.43-4.4,18.46-9.58,26.94-15.47,48.19-33.3,79.8-88.95,79.8-151.82,0-5.97-.31-11.98-.86-17.79ZM1074.44,1052.82c-15.43,7.62-32.2,12.92-49.87,15.47-8.01,1.22-16.22,1.81-24.58,1.81s-16.53-.59-24.58-1.81c-17.63-2.55-34.4-7.85-49.83-15.47-56-27.57-94.64-85.3-94.64-151.82,0-6.52.39-13.23,1.14-19.95,9.78-82.86,80.07-146.95,163.52-149.11h8.99c85.26,2.32,155.63,67.98,163.72,152.76.55,5.34.79,10.8.79,16.3,0,66.52-38.64,124.25-94.64,151.82Z"/>
      <path class="cls-1" d="M1183.71,883.21c-3.26-33.77-15.55-64.84-34.44-90.72-3.22-4.44-6.64-8.72-10.25-12.84-5.34-6.13-11.07-11.9-17.2-17.24-2.04-1.81-4.12-3.53-6.24-5.26-7.34-5.89-15.16-11.23-23.33-15.98-5.34-3.06-10.84-5.89-16.49-8.44-5.03,3.06-10.05,6.52-15,10.45,5.5,2.12,10.88,4.52,16.14,7.23,7.81,4.01,15.32,8.6,22.38,13.71,4.95,3.61,9.7,7.46,14.22,11.55,5.89,5.3,11.43,11.03,16.49,17.16,3.38,4.01,6.52,8.21,9.5,12.53,14.61,21.25,24.47,45.99,28.08,72.81-83.45,19.83-162.62-31.65-163.41-32.2l-4.67-3.1-4.4,3.5c-55.84,44.3-117.85,40.49-162.11,28.27,4.01-25.37,13.71-48.85,27.69-69.12,2.98-4.32,6.17-8.48,9.54-12.53,5.07-6.09,10.56-11.82,16.45-17.16,4.63-4.16,9.5-8.13,14.57-11.78,7.11-5.14,14.57-9.74,22.42-13.71,5.22-2.71,10.6-5.1,16.1-7.23-4.95-3.89-9.94-7.38-14.96-10.45-5.66,2.55-11.19,5.38-16.57,8.48-8.17,4.71-16.02,10.09-23.37,15.98-2.2,1.77-4.4,3.61-6.52,5.5-6.13,5.38-11.9,11.15-17.24,17.28-3.57,4.08-6.99,8.33-10.21,12.72-18.18,24.86-30.36,54.43-34.13,86.63l-.75,6.4,6.17,1.88c46.97,14.33,115.54,21.17,178.17-25.76,15.47,9.23,66.21,36.48,126.85,36.48,16.42,0,33.54-2,50.89-6.87l6.2-1.73-.59-6.44Z"/>
      <path class="cls-2" d="M1124.45,755.15l-2.12,6.32c-.63,1.18-2.04,3.69-4.95,8.48-4.12,6.79-8.91,12.17-14.26,16.02-6.64,4.83-10.45,5.22-11.43,5.22-3.61,0-9.66-2.79-16.89-8.72,16.49-15.67,32.91-24.7,49.64-27.33Z"/>
      <path class="cls-2" d="M1366.91,777.88c-22.9,37.42-50.38,59.42-81.68,65.39-5.93,1.14-11.82,1.65-17.63,1.65-33.62,0-64.52-17.4-85.77-33.34-12.68-9.46-22.66-18.97-28.79-25.21-.71,1.22-1.49,2.51-2.32,3.89-.47.75-.94,1.49-1.45,2.24-2.95,4.67-6.2,8.95-9.78,12.84-4.12,4.63-8.64,8.72-13.43,12.21-11.58,8.4-23.13,12.65-34.36,12.65-30,0-55.84-29.92-65.54-42.8l-3.65-4.83,3.77-4.67c11.19-13.86,22.7-25.45,34.48-34.72,4.95-3.93,9.97-7.38,15-10.45,37.62-22.97,77.91-23.33,120.4-.86,1.45.71,2.91,1.49,4.36,2.36,25.88,14.45,48.07,34.83,64.25,49.72,2.47,2.28,4.83,4.44,7.07,6.44,9.07,8.21,18.77,11.78,29.61,11,27.8-2.08,52.66-32.08,52.94-32.4l12.53,8.91Z"/>
      <path class="cls-2" d="M875.55,755.03c16.89,2.55,33.42,11.51,49.99,27.18-7.38,6.09-13.59,8.99-17.2,8.99-1.02,0-4.83-.39-11.43-5.18-5.34-3.89-10.13-9.27-14.29-16.1-2.75-4.44-4.2-7.11-4.91-8.44l-2.16-6.44Z"/>
      <path class="cls-2" d="M977.85,782.17l-3.61,4.83c-9.74,12.96-35.66,43.16-65.86,43.2-11.27,0-22.86-4.24-34.4-12.65-4.75-3.46-9.23-7.5-13.31-12.06-3.53-3.93-6.79-8.21-9.78-12.88-.51-.75-1.02-1.53-1.49-2.32-.86-1.37-1.65-2.67-2.4-3.93-6.09,6.24-16.06,15.75-28.75,25.21-21.28,15.94-52.19,33.34-85.81,33.34-5.81,0-11.7-.55-17.63-1.65-31.3-5.97-58.79-27.96-81.72-65.39l12.57-8.91c.24.31,25.13,30.32,52.9,32.4,10.88.79,20.58-2.79,29.65-11,2.16-1.96,4.48-4.08,6.91-6.32,16.22-14.88,38.45-35.3,64.72-49.87,1.3-.79,2.71-1.57,4.16-2.32,42.69-22.46,83.14-22.15,120.8.79,5.03,3.06,10.01,6.56,14.96,10.45,11.7,9.19,23.17,20.66,34.28,34.4l3.81,4.67Z"/>
      <path class="cls-1" d="M1175.16,908.08c15.86,2.38,26.79,17.17,24.41,33.04-2.38,15.86-17.17,26.79-33.04,24.41l8.63-57.45Z"/>
      <path class="cls-1" d="M824.84,908.08c-15.86,2.38-26.79,17.17-24.41,33.04,2.38,15.86,17.17,26.79,33.04,24.41l-8.63-57.45Z"/>
    </g>
    <g>
      <path class="cls-1" d="M1354.38,768.97c-.27.31-25.13,30.32-52.94,32.4-10.84.79-20.54-2.79-29.61-11-2.24-2-4.59-4.16-7.07-6.44-16.18-14.88-38.37-35.27-64.25-49.72-1.45-.86-2.91-1.65-4.36-2.36-42.49-22.46-82.78-22.11-120.4.86-5.03,3.06-10.05,6.52-15,10.45-11.78,9.27-23.29,20.85-34.48,34.72l-3.77,4.67,3.65,4.83c9.7,12.88,35.54,42.8,65.54,42.8,11.23,0,22.78-4.24,34.36-12.65,4.79-3.5,9.31-7.58,13.43-12.21,3.57-3.89,6.83-8.17,9.78-12.84.51-.75.98-1.49,1.45-2.24.82-1.37,1.61-2.67,2.32-3.89,6.13,6.24,16.1,15.75,28.79,25.21,21.25,15.94,52.15,33.34,85.77,33.34,5.81,0,11.7-.51,17.63-1.65,31.3-5.97,58.79-27.96,81.68-65.39l-12.53-8.91ZM1282.32,828.11c-34.75,6.6-68.8-12.06-91.27-28.9-14.22-10.64-24.82-21.25-29.85-26.67-2.51-2.67-3.93-4.28-3.97-4.32l-8.91-10.13-4.16,12.45c-.71,1.53-2.16,4.24-5.14,9.11-.43.79-.94,1.65-1.49,2.55-2.36,3.85-4.87,7.38-7.54,10.6-3.97,4.75-8.33,8.88-13,12.25-8.88,6.44-17.4,9.7-25.29,9.7-20.3,0-40.13-20.62-49.48-31.93,11.35-13.43,22.9-24.23,34.68-32.44,5.07-3.57,10.21-6.64,15.35-9.23,30.47-15.24,62.48-13.74,96.76,4.36,1.18.59,2.36,1.22,3.73,2.04,24.54,13.71,45.95,33.38,61.58,47.71,2.51,2.32,4.91,4.52,7.15,6.56,12.21,11.04,26.04,16.1,41.16,14.92,3.61-.28,7.15-.9,10.6-1.81-9.82,6.68-20.11,11.07-30.91,13.16Z"/>
      <path class="cls-1" d="M974.04,777.49c-11.11-13.74-22.58-25.21-34.28-34.4-4.95-3.89-9.94-7.38-14.96-10.45-37.66-22.93-78.11-23.25-120.8-.79-1.45.75-2.87,1.53-4.16,2.32-26.27,14.57-48.5,34.99-64.72,49.87-2.43,2.24-4.75,4.36-6.91,6.32-9.07,8.21-18.77,11.78-29.65,11-27.76-2.08-52.66-32.08-52.9-32.4l-12.57,8.91c22.93,37.42,50.42,59.42,81.72,65.39,5.93,1.1,11.82,1.65,17.63,1.65,33.62,0,64.52-17.4,85.81-33.34,12.68-9.46,22.66-18.97,28.75-25.21.75,1.26,1.53,2.55,2.4,3.93.47.79.98,1.57,1.49,2.32,2.98,4.67,6.24,8.95,9.78,12.88,4.08,4.56,8.56,8.6,13.31,12.06,11.55,8.4,23.13,12.65,34.4,12.65,30.2-.04,56.12-30.24,65.86-43.2l3.61-4.83-3.81-4.67ZM908.34,814.76c-7.89,0-16.42-3.26-25.29-9.7-4.59-3.34-8.91-7.38-12.84-12.1-2.71-3.26-5.3-6.83-7.66-10.72-.51-.82-.98-1.61-1.45-2.36-2.43-4.08-4.24-7.34-5.18-9.35l-4.2-12.57-8.88,10.25s-1.45,1.65-3.97,4.32c-5.03,5.38-15.63,16.02-29.89,26.67-22.46,16.85-56.55,35.54-91.27,28.86-10.76-2.04-21.09-6.44-30.91-13.12,3.46.9,6.99,1.53,10.6,1.81,15.12,1.18,28.94-3.89,41.12-14.92,2.24-2,4.56-4.16,7.03-6.44,15.67-14.33,37.11-34.05,61.89-47.83,1.22-.71,2.43-1.37,3.69-2.04,34.44-18.1,66.56-19.64,97.08-4.4,5.18,2.55,10.33,5.62,15.43,9.19,11.7,8.13,23.17,18.85,34.48,32.16-9.39,11.43-29.3,32.24-49.8,32.28Z"/>
      <path class="cls-1" d="M1142.8,799.65l-8.71-7.93c26.68-29.3-2.08-63.12-3.32-64.55l8.87-7.75c12.91,14.76,30.19,50.53,3.16,80.23Z"/>
      <path class="cls-1" d="M1196.78,805.97l-10.42-5.49c16.16-30.68-8.94-64.66-9.19-65l9.4-7.1c1.23,1.62,29.9,40.22,10.22,77.59Z"/>
      <path class="cls-1" d="M1242.29,832.22l-10.42-5.49c16.16-30.68-8.94-64.66-9.19-65l5.07-3.83c2.41-1.82,5.86-1.19,7.46,1.37,7.22,11.55,23.04,42.66,7.08,72.96Z"/>
      <path class="cls-1" d="M856.8,799.65l8.71-7.93c-26.68-29.3,2.08-63.12,3.32-64.55l-8.87-7.75c-12.91,14.76-30.19,50.53-3.16,80.23Z"/>
      <path class="cls-1" d="M802.82,805.97l10.42-5.49c-16.16-30.68,8.94-64.66,9.19-65l-9.4-7.1c-1.23,1.62-29.9,40.22-10.22,77.59Z"/>
      <path class="cls-1" d="M757.31,832.22l10.42-5.49c-16.16-30.68,8.94-64.66,9.19-65l-2.96-2.24c-3.6-2.72-8.76-1.69-11.04,2.2-7.63,13.07-20.56,42.15-5.62,70.53Z"/>
    </g>
    <g>
      <path class="cls-1" d="M1356.34,829.64c-5.73,5.73-11.66,10.8-17.83,15.24,1.45,12.41,2.16,25.02,2.16,37.82,0,184.97-150.45,335.45-335.41,335.45s-335.45-150.49-335.45-335.45c0-10.56.51-21.01,1.45-31.34-6.32-3.77-12.41-8.13-18.3-13.16-1.85,14.57-2.79,29.41-2.79,44.49,0,195.8,159.28,355.09,355.09,355.09s355.05-159.28,355.05-355.09c0-18.03-1.34-35.74-3.97-53.06ZM1005.26,547.29c144.83,0,268.46,92.25,315.31,221.06,6.32-4.63,11.98-10.09,15.59-14.33-51.64-132.34-180.49-226.36-330.9-226.36s-284.32,97.71-333.84,234.13c4.67,4.28,10.6,8.88,16.57,12.06,45.28-131.67,170.4-226.55,317.27-226.55Z"/>
      <path class="cls-1" d="M1327.13,852.34c-3.69,2.12-7.46,4.08-11.31,5.77.67,8.09.98,16.3.98,24.58,0,91.93-40.02,174.72-103.6,231.78-4.28,3.85-8.68,7.58-13.19,11.19-53.37,42.88-121.11,68.57-194.74,68.57s-141.38-25.68-194.74-68.57c-4.52-3.61-8.91-7.34-13.19-11.19-63.58-57.06-103.6-139.84-103.6-231.78,0-6.91.24-13.74.67-20.54-3.89-1.34-7.74-2.87-11.47-4.63-.67,8.33-.98,16.69-.98,25.17,0,93.46,39.86,177.74,103.44,236.84,4.16,3.89,8.44,7.66,12.84,11.31,56.12,46.93,128.34,75.16,207.04,75.16s150.88-28.24,207-75.16c4.4-3.65,8.68-7.42,12.88-11.31,63.58-59.1,103.44-143.38,103.44-236.84,0-10.25-.47-20.34-1.45-30.36ZM701.46,777.92c2.63,0,6.05-.63,10.92-5.03.67-.59,1.34-1.22,2.04-1.85,44.97-116.79,158.38-199.85,290.84-199.85s250.27,86.36,293.39,206.72c.35,0,.71-.04,1.06-.04,3.26-.27,6.79-1.41,10.33-3.1-44.53-125.35-164.35-215.36-304.78-215.36s-262.21,91.46-305.84,218.39c.31.04.59.04.86.08.35,0,.75.04,1.18.04Z"/>
    </g>
  </g>
  <g id="Layer_2" data-name="Layer 2" class="cls-4">
    <path class="cls-2" d="M1107.05,1186.95c-2.25,4.65-5.01,9-8.28,13.22-19.17,24.84-54.83,41.47-95.64,41.47s-75.23-16.05-94.62-40.16c-3.34-4.14-6.25-8.5-8.57-13.07l33.84-14.31h142.92l30.36,12.85Z"/>
    <path class="cls-3" d="M1069.7,1186.95c-1.85,4.65-4.11,9-6.79,13.22-15.71,24.84-44.94,41.47-78.39,41.47s-61.67-16.05-77.56-40.16c-2.74-4.14-5.12-8.5-7.02-13.07l27.74-14.31h117.15l24.88,12.85Z"/>
    <path class="cls-1" d="M1213.22,1231.76l-98.47-41.54-7.7-3.27-30.36-12.85h-142.92l-33.84,14.31-7.77,3.27-94.84,40.09-11.91,5.08c4.14,3.85,8.42,7.63,12.78,11.26l12.35-5.16,90.05-38.13c.36.65.87,1.23,1.38,1.89,21.79,27.09,59.62,43.28,101.16,43.28s80.61-16.7,102.25-44.73c.44-.58.87-1.16,1.31-1.74l93.32,39.43,12.27,5.16c4.36-3.63,8.64-7.41,12.85-11.26l-11.91-5.08ZM1003.13,1233.28c-35,0-67.9-13.43-86.56-35.22l20.33-8.57h136.67l17.14,7.26c-18.45,22.59-51.71,36.53-87.58,36.53Z"/>
    <path class="cls-3" d="M1203.67,1177.84h-436.48l23.82-213.52c10.09-105.77,93.29-186.22,192.58-186.22h0c98.15,0,180.77,78.66,192.26,183.03l27.82,216.7Z"/>
    <circle class="cls-2" cx="997.72" cy="1020.57" r="177.15"/>
    <path class="cls-1" d="M1213.69,950.81c-12.84-112.83-105.4-197.89-215.24-197.89s-204.29,86.55-215.6,201.19l-26.74,231.46h219.29c-17.63-2.55-34.4-7.85-49.83-15.47h-152.1l24.74-214.34c10.52-106.82,96.61-187.4,200.24-187.4s187.95,79.21,199.89,184.34l28.9,217.4h-152.8c-15.43,7.62-32.2,12.92-49.87,15.47h220.27l-31.14-234.76Z"/>
    <path class="cls-1" d="M1046.91,1099.61c0,26.06-21.13,47.19-47.19,47.19s-47.19-21.13-47.19-47.19h94.38Z"/>
    <path class="cls-2" d="M1184.28,1006.93l-6.2,1.73c-17.36,4.87-34.48,6.87-50.9,6.87-60.63,0-111.37-27.25-126.84-36.48-62.64,46.93-131.2,40.1-178.17,25.76l-6.17-1.88.75-6.4c10.64-90.44,87.38-160.38,178.45-162.74,3.26-.08,6.56-.08,9.78,0,93.07,2.55,169.89,74.22,178.72,166.7l.59,6.44Z"/>
    <path class="cls-3" d="M1139.71,1007.97l-5.45,1.52c-15.26,4.28-30.31,6.04-44.74,6.04-53.3,0-97.89-23.96-111.49-32.07-55.06,41.25-115.33,35.24-156.61,22.64l-5.42-1.66.66-5.63c9.35-79.5,76.8-140.97,156.85-143.04,2.86-.07,5.76-.07,8.6,0,81.81,2.24,149.33,65.24,157.09,146.53l.52,5.66Z"/>
    <path class="cls-1" d="M1183.69,1000.49c-8.84-92.48-85.65-164.15-178.72-166.7-3.22-.08-6.52-.08-9.78,0-91.07,2.36-167.8,72.3-178.45,162.74-.86,7.34-1.3,14.65-1.3,21.76,0,62.87,31.61,118.52,79.8,151.82,8.48,5.89,17.48,11.07,26.94,15.47,23.64,11.07,49.99,17.24,77.8,17.24s54.19-6.17,77.83-17.24c9.43-4.4,18.46-9.58,26.94-15.47,48.19-33.3,79.8-88.95,79.8-151.82,0-5.97-.31-11.98-.86-17.79ZM1074.44,1170.1c-15.43,7.62-32.2,12.92-49.87,15.47-8.01,1.22-16.22,1.81-24.58,1.81s-16.53-.59-24.58-1.81c-17.63-2.55-34.4-7.85-49.83-15.47-56-27.57-94.64-85.3-94.64-151.82,0-6.52.39-13.23,1.14-19.95,9.78-82.86,80.07-146.95,163.52-149.11h8.99c85.26,2.32,155.63,67.98,163.72,152.76.55,5.34.79,10.8.79,16.3,0,66.52-38.64,124.25-94.64,151.82Z"/>
    <path class="cls-1" d="M1183.71,1000.49c-3.26-33.77-15.55-64.84-34.44-90.72-3.22-4.44-6.64-8.72-10.25-12.84-5.34-6.13-11.07-11.9-17.2-17.24-2.04-1.81-4.12-3.53-6.24-5.26-7.34-5.89-15.16-11.23-23.33-15.98-5.34-3.06-10.84-5.89-16.49-8.44-5.03,3.06-10.05,6.52-15,10.45,5.5,2.12,10.88,4.52,16.14,7.23,7.81,4.01,15.32,8.6,22.38,13.71,4.95,3.61,9.7,7.46,14.22,11.55,5.89,5.3,11.43,11.03,16.49,17.16,3.38,4.01,6.52,8.21,9.5,12.53,14.61,21.25,24.47,45.99,28.08,72.81-83.45,19.83-162.62-31.65-163.41-32.2l-4.67-3.1-4.4,3.5c-55.84,44.3-117.85,40.49-162.11,28.27,4.01-25.37,13.71-48.85,27.69-69.12,2.98-4.32,6.17-8.48,9.54-12.53,5.07-6.09,10.56-11.82,16.45-17.16,4.63-4.16,9.5-8.13,14.57-11.78,7.11-5.14,14.57-9.74,22.42-13.71,5.22-2.71,10.6-5.1,16.1-7.23-4.95-3.89-9.94-7.38-14.96-10.45-5.66,2.55-11.19,5.38-16.57,8.48-8.17,4.71-16.02,10.09-23.37,15.98-2.2,1.77-4.4,3.61-6.52,5.5-6.13,5.38-11.9,11.15-17.24,17.28-3.57,4.08-6.99,8.33-10.21,12.72-18.18,24.86-30.36,54.43-34.13,86.63l-.75,6.4,6.17,1.88c46.97,14.33,115.54,21.17,178.17-25.76,15.47,9.23,66.21,36.48,126.85,36.48,16.42,0,33.54-2,50.89-6.87l6.2-1.73-.59-6.44Z"/>
    <path class="cls-2" d="M1124.45,872.43l-2.12,6.32c-.63,1.18-2.04,3.69-4.95,8.48-4.12,6.79-8.91,12.17-14.26,16.02-6.64,4.83-10.45,5.22-11.43,5.22-3.61,0-9.66-2.79-16.89-8.72,16.49-15.67,32.91-24.7,49.64-27.33Z"/>
    <path class="cls-2" d="M1366.91,895.17c-22.9,37.42-50.38,59.42-81.68,65.39-5.93,1.14-11.82,1.65-17.63,1.65-33.62,0-64.52-17.4-85.77-33.34-12.68-9.46-22.66-18.97-28.79-25.21-.71,1.22-1.49,2.51-2.32,3.89-.47.75-.94,1.49-1.45,2.24-2.95,4.67-6.2,8.95-9.78,12.84-4.12,4.63-8.64,8.72-13.43,12.21-11.58,8.4-23.13,12.65-34.36,12.65-30,0-55.84-29.92-65.54-42.8l-3.65-4.83,3.77-4.67c11.19-13.86,22.7-25.45,34.48-34.72,4.95-3.93,9.97-7.38,15-10.45,37.62-22.97,77.91-23.33,120.4-.86,1.45.71,2.91,1.49,4.36,2.36,25.88,14.45,48.07,34.83,64.25,49.72,2.47,2.28,4.83,4.44,7.07,6.44,9.07,8.21,18.77,11.78,29.61,11,27.8-2.08,52.66-32.08,52.94-32.4l12.53,8.91Z"/>
    <path class="cls-2" d="M875.55,872.31c16.89,2.55,33.42,11.51,49.99,27.18-7.38,6.09-13.59,8.99-17.2,8.99-1.02,0-4.83-.39-11.43-5.18-5.34-3.89-10.13-9.27-14.29-16.1-2.75-4.44-4.2-7.11-4.91-8.44l-2.16-6.44Z"/>
    <path class="cls-2" d="M977.85,899.45l-3.61,4.83c-9.74,12.96-35.66,43.16-65.86,43.2-11.27,0-22.86-4.24-34.4-12.65-4.75-3.46-9.23-7.5-13.31-12.06-3.53-3.93-6.79-8.21-9.78-12.88-.51-.75-1.02-1.53-1.49-2.32-.86-1.37-1.65-2.67-2.4-3.93-6.09,6.24-16.06,15.75-28.75,25.21-21.28,15.94-52.19,33.34-85.81,33.34-5.81,0-11.7-.55-17.63-1.65-31.3-5.97-58.79-27.96-81.72-65.39l12.57-8.91c.24.31,25.13,30.32,52.9,32.4,10.88.79,20.58-2.79,29.65-11,2.16-1.96,4.48-4.08,6.91-6.32,16.22-14.88,38.45-35.3,64.72-49.87,1.3-.79,2.71-1.57,4.16-2.32,42.69-22.46,83.14-22.15,120.8.79,5.03,3.06,10.01,6.56,14.96,10.45,11.7,9.19,23.17,20.66,34.28,34.4l3.81,4.67Z"/>
    <path class="cls-1" d="M1175.16,1025.36c15.86,2.38,26.79,17.17,24.41,33.04-2.38,15.86-17.17,26.79-33.04,24.41l8.63-57.45Z"/>
    <path class="cls-1" d="M824.84,1025.36c-15.86,2.38-26.79,17.17-24.41,33.04,2.38,15.86,17.17,26.79,33.04,24.41l-8.63-57.45Z"/>
    <path class="cls-1" d="M1354.38,886.25c-.28.31-25.13,30.32-52.94,32.4-10.84.79-20.54-2.79-29.61-11-2.24-2-4.59-4.16-7.07-6.44-16.18-14.88-38.37-35.27-64.25-49.72-1.45-.86-2.91-1.65-4.36-2.36-42.49-22.46-82.78-22.11-120.4.86-5.03,3.06-10.05,6.52-15,10.45-11.78,9.27-23.29,20.85-34.48,34.72l-3.77,4.67,3.65,4.83c9.7,12.88,35.54,42.8,65.54,42.8,11.23,0,22.78-4.24,34.36-12.65,4.79-3.5,9.31-7.58,13.43-12.21,3.57-3.89,6.83-8.17,9.78-12.84.51-.75.98-1.49,1.45-2.24.82-1.37,1.61-2.67,2.32-3.89,6.13,6.24,16.1,15.75,28.79,25.21,21.25,15.94,52.15,33.34,85.77,33.34,5.81,0,11.7-.51,17.63-1.65,31.3-5.97,58.79-27.96,81.68-65.39l-12.53-8.91ZM1229.46,890.6c5.76,11.85,11.95,31.1,4.15,49.69-13.28-4.84-25.51-11.84-35.85-18.98,9.3-19.29,6.09-38.73.76-53.08,11.12,6.75,21.52,14.57,30.94,22.37ZM1116.99,922.34c-8.88,6.44-17.4,9.7-25.29,9.7-20.3,0-40.13-20.62-49.48-31.93,11.35-13.43,22.9-24.23,34.68-32.44,5.07-3.57,10.21-6.64,15.35-9.23,13.45-6.72,27.19-10.18,41.3-10.4,4.6,6.44,13.06,20.66,11.69,36.58l-1.07,3.19c-.71,1.53-2.16,4.24-5.14,9.11-.43.79-.94,1.65-1.49,2.55-2.36,3.85-4.87,7.38-7.54,10.6-3.97,4.75-8.33,8.88-13,12.25ZM1161.21,889.83c-2.51-2.67-3.93-4.28-3.97-4.32l-.29-.33c1-13.47-3.31-26.31-8.82-36.22,10.75,1.5,21.72,4.82,32.94,9.95,6.09,10.63,16.23,33.43,6.97,55.29-12.7-9.85-22.17-19.34-26.84-24.37ZM1282.32,945.39c-12.74,2.42-25.38,1.44-37.39-1.6,5.25-13.12,5.02-26.16,2.58-37.45,2.37,2.15,4.65,4.24,6.81,6.22,2.51,2.32,4.91,4.52,7.15,6.56,12.21,11.04,26.04,16.1,41.16,14.92,3.61-.28,7.15-.9,10.6-1.81-9.82,6.68-20.11,11.07-30.91,13.16Z"/>
    <path class="cls-1" d="M974.04,894.77c-11.11-13.74-22.58-25.21-34.28-34.4-4.95-3.89-9.94-7.38-14.96-10.45-37.66-22.93-78.11-23.25-120.8-.79-1.45.75-2.87,1.53-4.16,2.32-26.27,14.57-48.5,34.99-64.72,49.87-2.43,2.24-4.75,4.36-6.91,6.32-9.07,8.21-18.77,11.78-29.65,11-27.77-2.08-52.67-32.09-52.9-32.4l-12.57,8.91c22.93,37.42,50.42,59.42,81.72,65.39,5.93,1.1,11.82,1.65,17.63,1.65,33.62,0,64.52-17.4,85.81-33.34,12.68-9.46,22.66-18.97,28.75-25.21.75,1.26,1.53,2.55,2.4,3.93.47.79.98,1.57,1.49,2.32,2.98,4.67,6.24,8.95,9.78,12.88,4.08,4.56,8.56,8.6,13.31,12.06,11.55,8.4,23.13,12.65,34.4,12.65,30.2-.04,56.12-30.24,65.86-43.2l3.61-4.83-3.81-4.67ZM800.91,868.69c-5.25,14.36-8.3,33.69,1.03,52.86-10.38,7.13-22.62,14.1-35.9,18.9-7.75-18.31-1.9-37.28,3.79-49.2,9.43-7.83,19.88-15.71,31.08-22.55ZM717.72,945.35c-10.76-2.04-21.09-6.44-30.91-13.12,3.46.9,6.99,1.53,10.6,1.81,15.12,1.18,28.94-3.89,41.12-14.92,2.24-2,4.56-4.16,7.03-6.44,2.04-1.87,4.19-3.84,6.43-5.87-2.35,11.22-2.49,24.1,2.73,37.08-11.9,2.95-24.41,3.88-37,1.46ZM811.67,914.46c-9.34-21.7.52-44.37,6.66-55.19,11.27-5.21,22.29-8.62,33.08-10.21-5.54,10.02-9.85,23.01-8.72,36.61-.41.46-1.72,1.93-3.82,4.16-4.71,5.04-14.3,14.69-27.2,24.63ZM908.34,932.04c-7.89,0-16.42-3.26-25.29-9.7-4.59-3.34-8.91-7.38-12.84-12.1-2.71-3.26-5.3-6.83-7.66-10.72-.51-.82-.98-1.61-1.45-2.36-2.43-4.08-4.24-7.34-5.18-9.35l-1.66-4.97c-.64-15.22,7.4-28.65,11.82-34.84,14.42.1,28.45,3.55,42.15,10.39,5.18,2.55,10.33,5.62,15.43,9.19,11.7,8.13,23.17,18.85,34.48,32.16-9.39,11.43-29.3,32.24-49.8,32.28Z"/>
    <g>
      <path class="cls-1" d="M1005.26,664.57c144.83,0,268.46,92.25,315.31,221.06,6.32-4.63,11.98-10.09,15.59-14.33-51.64-132.34-180.49-226.36-330.9-226.36s-284.32,97.71-333.84,234.13c4.67,4.28,10.6,8.88,16.57,12.06,45.28-131.67,170.4-226.55,317.27-226.55Z"/>
      <path class="cls-1" d="M1356.34,946.93c-5.73,5.73-11.66,10.8-17.83,15.24,1.45,12.41,2.16,25.02,2.16,37.82,0,184.97-150.45,335.45-335.41,335.45s-335.45-150.49-335.45-335.45c0-10.56.51-21.01,1.45-31.34-6.32-3.77-12.41-8.13-18.3-13.16-1.85,14.57-2.79,29.41-2.79,44.49,0,195.8,159.28,355.09,355.09,355.09s355.05-159.28,355.05-355.09c0-18.03-1.34-35.74-3.97-53.06Z"/>
      <path class="cls-1" d="M712.38,890.18c.67-.59,1.34-1.22,2.04-1.85,44.97-116.79,158.38-199.85,290.84-199.85s250.27,86.36,293.39,206.72c.35,0,.71-.04,1.06-.04,3.26-.27,6.79-1.41,10.33-3.1-44.53-125.35-164.35-215.36-304.78-215.36s-262.21,91.46-305.84,218.39c.31.04.59.04.86.08.35,0,.75.04,1.18.04,2.63,0,6.05-.63,10.92-5.03Z"/>
      <path class="cls-1" d="M682.93,974.81c-.67,8.33-.98,16.69-.98,25.17,0,93.46,39.86,177.74,103.44,236.84,4.16,3.89,8.44,7.66,12.84,11.31,56.12,46.93,128.34,75.16,207.04,75.16s150.88-28.24,207-75.16c4.4-3.65,8.68-7.42,12.88-11.31,63.58-59.1,103.44-143.38,103.44-236.84,0-10.25-.47-20.34-1.45-30.36-3.69,2.12-7.46,4.08-11.31,5.77.67,8.09.98,16.3.98,24.58,0,91.93-40.02,174.72-103.6,231.78-4.28,3.85-8.68,7.58-13.2,11.19-53.37,42.88-121.11,68.57-194.74,68.57s-141.38-25.68-194.74-68.57c-4.52-3.61-8.91-7.34-13.2-11.19-63.58-57.06-103.6-139.84-103.6-231.78,0-6.91.24-13.74.67-20.54-3.89-1.34-7.74-2.87-11.47-4.63Z"/>
    </g>
  </g>
  <g id="Layer_3" data-name="Layer 3" class="cls-4">
    <g>
      <path class="cls-2" d="M1107.05,1186.95c-2.25,4.65-5.01,9-8.28,13.22-19.17,24.84-54.83,41.47-95.64,41.47s-75.23-16.05-94.62-40.16c-3.34-4.14-6.25-8.5-8.57-13.07l33.84-14.31h142.92l30.36,12.85Z"/>
      <path class="cls-3" d="M1069.7,1186.95c-1.85,4.65-4.11,9-6.79,13.22-15.71,24.84-44.94,41.47-78.39,41.47s-61.67-16.05-77.56-40.16c-2.74-4.14-5.12-8.5-7.02-13.07l27.74-14.31h117.15l24.88,12.85Z"/>
      <path class="cls-2" d="M1199.01,1242.95c-26.69,21.44-56.96,38.58-89.77,50.37-32.82,11.78-68.16,18.2-104.98,18.2-73.63,0-141.37-25.69-194.74-68.57h.02s90.05-38.13,90.05-38.13c.36.65.87,1.23,1.38,1.89,21.78,27.08,59.62,43.28,101.16,43.28s80.61-16.71,102.25-44.74c.43-.58.87-1.16,1.3-1.74l93.32,39.43h.01Z"/>
      <path class="cls-1" d="M1213.22,1231.76l-98.47-41.54-7.7-3.27-30.36-12.85h-142.92l-33.84,14.31-7.77,3.27-94.84,40.09-11.91,5.08c4.14,3.85,8.42,7.63,12.78,11.26l12.35-5.16,90.05-38.13c.36.65.87,1.23,1.38,1.89,21.79,27.09,59.62,43.28,101.16,43.28s80.61-16.7,102.25-44.73c.44-.58.87-1.16,1.31-1.74l93.32,39.43,12.27,5.16c4.36-3.63,8.64-7.41,12.85-11.26l-11.91-5.08ZM1003.13,1233.28c-35,0-67.9-13.43-86.56-35.22l20.33-8.57h136.67l17.14,7.26c-18.45,22.59-51.71,36.53-87.58,36.53Z"/>
      <path class="cls-2" d="M1227.24,1170.1h-152.8s-.01.01-.02.01h-148.84s-.01,0-.02-.01h-152.09l24.74-214.34c10.52-106.82,96.6-187.4,200.24-187.4s187.95,79.21,199.89,184.34l28.9,217.4Z"/>
      <path class="cls-3" d="M1203.67,1177.84h-436.48l23.82-213.52c10.09-105.77,93.29-186.22,192.58-186.22h0c98.15,0,180.77,78.66,192.26,183.03l27.82,216.7Z"/>
      <path class="cls-1" d="M1024.57,1185.58h220.27l-31.14-234.76c-12.84-112.83-105.4-197.89-215.24-197.89s-204.29,86.55-215.6,201.19l-26.74,231.46h219.29c-17.63-2.55-34.4-7.85-49.83-15.47h-152.1l24.74-214.34c10.52-106.82,96.61-187.4,200.24-187.4s187.95,79.21,199.89,184.34l28.9,217.4h-152.8c-15.43,7.62-32.2,12.92-49.87,15.47Z"/>
      <path class="cls-2" d="M1183.33,1007.06l-.72-6.67c-8.84-92.48-84.62-162.84-177.69-165.39-3.22-.08-6.3-.13-9.56-.06-91.07,2.36-166.66,71.31-177.31,161.75l3.25,7.85c-.47,5.28-.73,10.62-.73,16.02,0,97.83,79.31,177.15,177.15,177.15s177.15-79.31,177.15-177.15c0-3.68-.13-7.33-.35-10.95,1.19-.31,2.37-.62,3.56-.96l5.26-1.6Z"/>
      <path class="cls-1" d="M1046.91,1099.61c0,26.06-21.13,47.19-47.19,47.19s-47.19-21.13-47.19-47.19h94.38Z"/>
      <path class="cls-3" d="M1139.71,1007.97l-5.45,1.52c-15.26,4.28-30.31,6.04-44.74,6.04-53.3,0-97.89-23.96-111.49-32.07-55.06,41.25-115.33,35.24-156.61,22.64l-5.42-1.66.66-5.63c9.35-79.5,76.8-140.97,156.85-143.04,2.86-.07,5.76-.07,8.6,0,81.81,2.24,149.33,65.24,157.09,146.53l.52,5.66Z"/>
      <path class="cls-1" d="M1184.27,1028.32c.18-3.33.29-6.67.29-10.04,0-3.78-.14-7.57-.37-11.32l.11-.03-.59-6.44c-.09-.94-.21-1.87-.32-2.81-.08-.69-.15-1.37-.23-2.06-.12-.96-.24-1.92-.38-2.87-.14-1.04-.3-2.08-.46-3.12-.13-.8-.25-1.61-.38-2.41-.26-1.55-.55-3.1-.85-4.64-.12-.6-.24-1.2-.37-1.8-.29-1.42-.6-2.84-.93-4.25-.08-.36-.16-.73-.25-1.09-.42-1.78-.88-3.56-1.35-5.32-.1-.37-.2-.74-.31-1.11-.43-1.57-.89-3.14-1.36-4.69-.08-.26-.16-.53-.24-.79-.56-1.81-1.15-3.6-1.76-5.38-.08-.23-.16-.45-.24-.68-.56-1.6-1.14-3.2-1.74-4.78-.1-.27-.2-.54-.31-.81-.68-1.76-1.38-3.52-2.12-5.25-.06-.14-.12-.28-.18-.43-.67-1.58-1.37-3.15-2.08-4.71-.14-.31-.28-.62-.42-.92-.79-1.7-1.6-3.38-2.43-5.05-.03-.05-.06-.11-.08-.16-.8-1.58-1.62-3.15-2.47-4.71-.18-.33-.36-.66-.54-.98-1.78-3.24-3.65-6.42-5.61-9.53-.18-.28-.35-.56-.53-.83-2.04-3.2-4.17-6.32-6.39-9.38-.03-.05-.07-.09-.1-.14-.09-.12-.18-.24-.27-.36-.58-.79-1.17-1.59-1.76-2.37-.42-.56-.85-1.12-1.28-1.67-.33-.43-.67-.86-1.01-1.29-.59-.75-1.2-1.5-1.8-2.25-.22-.27-.45-.55-.67-.82-.64-.78-1.29-1.55-1.95-2.32-.25-.29-.5-.58-.75-.87-.25-.29-.5-.59-.76-.88-.26-.3-.53-.59-.8-.88-.64-.73-1.29-1.44-1.95-2.16-2.35-2.58-4.77-5.08-7.27-7.52-.12-.11-.24-.23-.35-.34-1.48-1.44-2.98-2.85-4.51-4.23-.53-.49-1.07-.97-1.61-1.45-.24-.21-.48-.44-.72-.65-.58-.52-1.18-1.01-1.76-1.52-.12-.11-.24-.21-.37-.32-1.36-1.15-2.72-2.3-4.11-3.43-.44-.35-.89-.68-1.33-1.03-1.05-.83-2.12-1.65-3.19-2.46-.72-.54-1.44-1.07-2.16-1.6-1.25-.91-2.5-1.81-3.77-2.69-.44-.31-.89-.62-1.33-.93-1.54-1.05-3.1-2.07-4.67-3.07-.56-.36-1.13-.72-1.7-1.07-1.37-.85-2.75-1.7-4.15-2.52-.34-.2-.68-.42-1.02-.62-.84-.48-1.69-.95-2.54-1.42-.12-.07-.23-.13-.35-.2-.85-.47-1.71-.94-2.58-1.39-.57-.31-1.15-.61-1.73-.91-.61-.32-1.22-.63-1.84-.94-.76-.39-1.53-.76-2.29-1.14-.54-.26-1.07-.53-1.61-.78-.81-.39-1.63-.77-2.45-1.15-.37-.17-.73-.35-1.11-.52,0,0,0,0,0,0-21.73-9.81-45.66-15.54-70.77-16.22-3.22-.08-6.52-.08-9.78,0-33.88.88-65.77,11.11-93.01,28.27,0,0-.01,0-.02.01-.84.53-1.67,1.06-2.49,1.6-.23.15-.46.29-.68.44-.76.5-1.52,1.01-2.27,1.52-.28.19-.55.38-.83.57-.74.51-1.47,1.02-2.2,1.54-.27.19-.54.39-.81.58-.74.53-1.48,1.07-2.21,1.61-.22.16-.44.33-.66.49-.78.59-1.57,1.17-2.34,1.77-.03.02-.06.04-.09.07-18.46,14.25-34.21,31.92-46.24,52.08,0,.01-.01.02-.02.03-1.97,3.3-3.84,6.67-5.6,10.1-.02.03-.03.07-.05.1-2.61,5.07-4.98,10.28-7.12,15.62-.06.15-.12.3-.18.45-1.38,3.48-2.66,7.02-3.83,10.61-.06.19-.12.37-.18.56-1.17,3.62-2.23,7.28-3.18,11-.02.08-.04.16-.06.24-1.94,7.64-3.41,15.48-4.35,23.47-.05.44-.09.89-.14,1.33l-.59,5.07.09.03c-.43,5.17-.66,10.3-.66,15.33,0,3.37.11,6.72.29,10.04-10.69,5.57-17.19,17.48-15.3,30.07,2.06,13.75,13.45,23.78,26.77,24.67,13.35,35.48,37.32,65.81,68.04,87.04,8.48,5.89,17.48,11.07,26.94,15.47,23.64,11.07,49.99,17.24,77.8,17.24s54.19-6.17,77.84-17.24c9.43-4.4,18.46-9.58,26.94-15.47,30.72-21.23,54.69-51.56,68.04-87.04,13.32-.89,24.71-10.92,26.77-24.67,1.89-12.59-4.61-24.5-15.3-30.07ZM860.67,922.77c2.98-4.32,6.17-8.48,9.54-12.53,3.74-4.5,7.73-8.8,11.93-12.9.12-.12.24-.24.37-.36,1.31-1.27,2.64-2.52,3.99-3.74.22-.2.45-.4.68-.6,4.48-4,9.18-7.82,14.07-11.34,7.11-5.14,14.57-9.74,22.42-13.71,5.22-2.71,10.6-5.1,16.1-7.23,0,0,0,0-.01,0,17.49-6.74,36.3-10.64,55.84-11.15h8.99c19.72.54,38.64,4.47,56.18,11.23,0,0,0,0,0,0,2.75,1.06,5.46,2.19,8.15,3.39.02,0,.03.02.05.02,1.28.57,2.55,1.16,3.81,1.77.14.07.28.14.43.21,1.24.6,2.47,1.21,3.7,1.84,5.66,2.9,11.14,6.12,16.42,9.6.34.23.69.45,1.02.68,1.33.89,2.63,1.8,3.93,2.73.88.63,1.76,1.27,2.63,1.92.06.05.13.09.19.14.92.68,1.83,1.38,2.73,2.08.21.17.43.34.64.51,3.64,2.86,7.15,5.86,10.54,9.01.24.22.48.45.72.67,27.56,25.86,46.48,60.88,51.81,100.43-83.44,19.81-162.58-31.66-163.37-32.21l-4.67-3.1-4.4,3.5c-55.84,44.3-117.85,40.49-162.11,28.27,4.01-25.37,13.71-48.85,27.69-69.12ZM1074.44,1170.1c-15.43,7.62-32.2,12.92-49.87,15.47-8.01,1.22-16.22,1.81-24.58,1.81s-16.53-.59-24.58-1.81c-17.63-2.55-34.4-7.85-49.83-15.47-56-27.57-94.64-85.3-94.64-151.82,0-3.57.13-7.21.36-10.87,46.46,12.38,110.37,15.62,169.07-28.36,15.47,9.23,66.21,36.48,126.85,36.48,13.52,0,27.52-1.36,41.73-4.56.1,2.43.16,4.86.16,7.31,0,66.52-38.64,124.25-94.64,151.82Z"/>
      <g>
        <g>
          <path class="cls-2" d="M1145.23,884.63c1.38-15.92-7.09-30.15-11.69-36.58-14.11.22-27.85,3.68-41.3,10.4-5.14,2.59-10.29,5.65-15.35,9.23-11.78,8.21-23.33,19.01-34.68,32.44,9.35,11.31,29.18,31.93,49.48,31.93,7.89,0,16.42-3.26,25.29-9.7,4.67-3.38,9.03-7.5,13-12.25,2.67-3.22,5.18-6.75,7.54-10.6.55-.9,1.06-1.77,1.49-2.55,2.98-4.87,4.44-7.58,5.14-9.11l1.07-3.19Z"/>
          <path class="cls-2" d="M1181.07,858.91c-11.21-5.13-22.18-8.45-32.94-9.95,5.5,9.92,9.81,22.76,8.82,36.22l.29.33s1.45,1.65,3.97,4.32c4.66,5.03,14.14,14.52,26.84,24.37,9.26-21.86-.88-44.66-6.97-55.29Z"/>
          <path class="cls-2" d="M1302.62,934.04c-15.12,1.18-28.94-3.89-41.16-14.92-2.24-2.04-4.63-4.24-7.15-6.56-2.16-1.98-4.44-4.07-6.81-6.22,2.43,11.3,2.67,24.33-2.58,37.45,12.01,3.03,24.65,4.02,37.39,1.6,10.8-2.08,21.09-6.48,30.91-13.16-3.46.9-6.99,1.53-10.6,1.81Z"/>
          <path class="cls-2" d="M1198.52,868.23c5.33,14.35,8.54,33.79-.76,53.08,10.35,7.14,22.57,14.13,35.85,18.98,7.8-18.6,1.61-37.84-4.15-49.69-9.42-7.8-19.82-15.62-30.94-22.37Z"/>
          <path class="cls-1" d="M1354.38,886.25h0c-.05.06-.97,1.16-2.6,2.93-.55.59-1.17,1.25-1.87,1.97-.7.72-1.48,1.5-2.32,2.33s-1.76,1.7-2.74,2.61c-2.94,2.71-6.46,5.71-10.41,8.62-1.98,1.45-4.06,2.88-6.24,4.24-.73.45-1.46.9-2.21,1.33-2.98,1.74-6.11,3.32-9.36,4.64-1.62.66-3.27,1.25-4.94,1.76-3.34,1.02-6.77,1.72-10.25,1.98-.68.05-1.35.08-2.02.1-1.34.03-2.66,0-3.96-.12-.65-.05-1.3-.12-1.94-.21-3.86-.53-7.58-1.68-11.19-3.47-.6-.3-1.2-.61-1.79-.95-1.78-1-3.54-2.16-5.27-3.48-1.15-.88-2.3-1.84-3.43-2.86-1.68-1.5-3.42-3.09-5.24-4.76-.6-.55-1.21-1.12-1.83-1.69-4.04-3.72-8.47-7.79-13.23-12.01-14.28-12.69-31.61-26.86-51.02-37.7-1.45-.86-2.91-1.65-4.36-2.36-6.64-3.51-13.22-6.46-19.75-8.86-2.61-.96-5.22-1.83-7.81-2.61-2.59-.78-5.18-1.47-7.76-2.08-9.02-2.11-17.92-3.13-26.71-3.06-20.09.15-39.57,5.98-58.38,17.47-1.26.77-2.51,1.56-3.77,2.37-3.77,2.45-7.52,5.13-11.23,8.07-11.78,9.27-23.29,20.85-34.48,34.72l-3.77,4.67,3.65,4.83c3.03,4.03,7.64,9.71,13.46,15.64,2.91,2.96,6.12,5.98,9.59,8.88,2.78,2.32,5.71,4.56,8.79,6.63,1.54,1.04,3.12,2.03,4.72,2.97,5.63,3.29,11.65,5.91,17.95,7.39,1.8.42,3.62.75,5.46.97,1.84.22,3.7.34,5.57.34h0c11.23,0,22.78-4.24,34.36-12.65,1.2-.87,2.38-1.78,3.54-2.73,1.16-.95,2.3-1.93,3.43-2.95,2.24-2.04,4.4-4.22,6.46-6.53.89-.97,1.77-1.97,2.62-2.99,2.56-3.06,4.95-6.35,7.16-9.85.38-.56.74-1.12,1.1-1.68.12-.19.24-.37.36-.56.41-.69.81-1.36,1.2-2,.39-.65.76-1.28,1.11-1.88,6.13,6.24,16.1,15.75,28.79,25.21,1.33,1,2.69,2,4.09,3,2.8,2.01,5.75,4.02,8.83,6,.77.49,1.55.99,2.33,1.48,3.93,2.45,8.05,4.83,12.35,7.08,1.72.9,3.47,1.78,5.24,2.63,3.55,1.7,7.2,3.3,10.93,4.75,8.41,3.27,17.28,5.81,26.45,7.21,5.09.78,10.28,1.2,15.53,1.2h0c5.81,0,11.7-.51,17.63-1.65,12.72-2.42,24.8-7.49,36.21-15.17.88-.59,1.75-1.2,2.62-1.82,3.48-2.48,6.89-5.22,10.23-8.19,11.71-10.42,22.61-23.84,32.62-40.21l-12.53-8.91ZM1139.02,896.93c-.43.79-.94,1.65-1.49,2.55-2.36,3.85-4.87,7.38-7.54,10.6-3.97,4.75-8.33,8.88-13,12.25-8.88,6.44-17.4,9.7-25.29,9.7-20.3,0-40.13-20.62-49.48-31.93,11.35-13.43,22.9-24.23,34.68-32.44,5.07-3.57,10.21-6.64,15.35-9.23,13.45-6.72,27.19-10.18,41.3-10.4,4.6,6.44,13.06,20.66,11.69,36.58l-1.07,3.19c-.71,1.53-2.16,4.24-5.14,9.11ZM1188.05,914.2c-12.7-9.85-22.17-19.34-26.84-24.37-2.51-2.67-3.93-4.28-3.97-4.32l-.29-.33c1-13.47-3.31-26.31-8.82-36.22,10.75,1.5,21.72,4.82,32.94,9.95,6.09,10.63,16.23,33.43,6.97,55.29ZM1233.61,940.3c-13.28-4.84-25.51-11.84-35.85-18.98,9.3-19.29,6.09-38.73.76-53.08,11.12,6.75,21.52,14.57,30.94,22.37,5.76,11.85,11.95,31.1,4.15,49.69ZM1282.32,945.39c-12.74,2.42-25.38,1.44-37.39-1.6,5.25-13.12,5.02-26.16,2.58-37.45,2.37,2.15,4.65,4.24,6.81,6.22,2.51,2.32,4.91,4.52,7.15,6.56,12.21,11.04,26.04,16.1,41.16,14.92,3.61-.28,7.15-.9,10.6-1.81-9.82,6.68-20.11,11.07-30.91,13.16Z"/>
        </g>
        <g>
          <path class="cls-2" d="M811.67,914.46c12.9-9.94,22.5-19.59,27.2-24.63,2.1-2.23,3.41-3.7,3.82-4.16-1.14-13.6,3.18-26.59,8.72-36.61-10.8,1.59-21.82,5-33.08,10.21-6.13,10.82-16,33.49-6.66,55.19Z"/>
          <path class="cls-2" d="M800.91,868.69c-11.2,6.84-21.65,14.72-31.08,22.55-5.69,11.92-11.54,30.89-3.79,49.2,13.29-4.8,25.53-11.77,35.9-18.9-9.34-19.16-6.28-38.49-1.03-52.86Z"/>
          <path class="cls-2" d="M751.99,906.82c-2.24,2.03-4.38,3.99-6.43,5.87-2.47,2.28-4.79,4.44-7.03,6.44-12.17,11.04-26,16.1-41.12,14.92-3.61-.28-7.15-.9-10.6-1.81,9.82,6.68,20.15,11.07,30.91,13.12,12.59,2.42,25.1,1.49,37-1.46-5.22-12.97-5.07-25.86-2.73-37.08Z"/>
          <path class="cls-2" d="M923.66,867.6c-5.11-3.57-10.25-6.64-15.43-9.19-13.7-6.84-27.73-10.29-42.15-10.39-4.42,6.19-12.46,19.62-11.82,34.84l1.66,4.97c.94,2,2.75,5.26,5.18,9.35.47.75.94,1.53,1.45,2.36,2.36,3.89,4.95,7.46,7.66,10.72,3.93,4.71,8.25,8.76,12.84,12.1,8.88,6.44,17.4,9.7,25.29,9.7,20.5-.04,40.41-20.85,49.8-32.28-11.31-13.31-22.78-24.03-34.48-32.16Z"/>
          <path class="cls-1" d="M974.04,894.77c-11.11-13.74-22.58-25.21-34.28-34.4-4.95-3.89-9.94-7.38-14.96-10.45-37.66-22.93-78.11-23.25-120.8-.79-1.45.75-2.87,1.53-4.16,2.32-26.27,14.57-48.5,34.99-64.72,49.87-2.43,2.24-4.75,4.36-6.91,6.32-9.07,8.21-18.77,11.78-29.65,11-1.44-.11-2.88-.31-4.3-.56-.29-.05-.58-.09-.86-.14-.31-.06-.62-.14-.93-.21-.54-.12-1.08-.23-1.62-.36-1.32-.33-2.62-.73-3.92-1.17-1.19-.4-2.37-.82-3.54-1.3-.63-.26-1.26-.53-1.88-.81-.17-.08-.35-.15-.53-.23-1.27-.58-2.51-1.2-3.74-1.84-.31-.16-.63-.32-.94-.49-.22-.12-.43-.24-.65-.36-.54-.3-1.09-.6-1.62-.91-.51-.3-1.01-.61-1.51-.91-.23-.14-.47-.28-.69-.42-.24-.15-.47-.3-.71-.46-1.92-1.22-3.77-2.49-5.53-3.78-.29-.21-.56-.42-.85-.64-.37-.27-.74-.55-1.09-.82-.62-.47-1.22-.95-1.81-1.42-.02-.01-.03-.03-.05-.04-.47-.37-.92-.75-1.37-1.12-.14-.11-.28-.23-.41-.34-.37-.31-.73-.62-1.09-.92-.2-.17-.41-.35-.61-.52-.29-.25-.56-.5-.84-.74-.25-.22-.52-.45-.77-.67-.22-.19-.42-.38-.63-.57-.3-.27-.6-.54-.88-.8-.14-.13-.27-.25-.41-.38-.34-.32-.69-.64-1.01-.95-.03-.03-.07-.06-.1-.1-.87-.83-1.69-1.63-2.43-2.38-.18-.18-.34-.35-.52-.52-.2-.2-.4-.41-.59-.6-.02-.02-.03-.03-.05-.05-.52-.53-.98-1.02-1.41-1.48-.35-.38-.68-.73-.97-1.05-.06-.07-.14-.15-.2-.22-.06-.06-.1-.11-.15-.17-.17-.19-.33-.37-.48-.53-.04-.04-.07-.08-.1-.12-.68-.78-1.07-1.24-1.1-1.28l-12.57,8.91c22.93,37.42,50.42,59.42,81.72,65.39,5.93,1.1,11.82,1.65,17.63,1.65,33.62,0,64.52-17.4,85.81-33.34,12.68-9.46,22.66-18.97,28.75-25.21.75,1.26,1.53,2.55,2.4,3.93.47.79.98,1.57,1.49,2.32,2.98,4.67,6.24,8.95,9.78,12.88,4.08,4.56,8.56,8.6,13.31,12.06,11.55,8.4,23.13,12.65,34.4,12.65,30.2-.04,56.12-30.24,65.86-43.2l3.61-4.83-3.81-4.67ZM717.72,945.35c-10.76-2.04-21.09-6.44-30.91-13.12,3.46.9,6.99,1.53,10.6,1.81,15.12,1.18,28.94-3.89,41.12-14.92,2.24-2,4.56-4.16,7.03-6.44,2.04-1.87,4.19-3.84,6.43-5.87-2.35,11.22-2.49,24.1,2.73,37.08-11.9,2.95-24.41,3.88-37,1.46ZM766.05,940.44c-7.75-18.31-1.9-37.28,3.79-49.2,9.43-7.83,19.88-15.71,31.08-22.55-5.25,14.36-8.3,33.69,1.03,52.86-10.38,7.13-22.62,14.1-35.9,18.9ZM842.69,885.67c-.41.46-1.72,1.93-3.82,4.16-4.71,5.04-14.3,14.69-27.2,24.63-9.34-21.7.52-44.37,6.66-55.19,11.27-5.21,22.29-8.62,33.08-10.21-5.54,10.02-9.85,23.01-8.72,36.61ZM908.34,932.04c-7.89,0-16.42-3.26-25.29-9.7-4.59-3.34-8.91-7.38-12.84-12.1-2.71-3.26-5.3-6.83-7.66-10.72-.51-.82-.98-1.61-1.45-2.36-2.43-4.08-4.24-7.34-5.18-9.35l-1.66-4.97c-.64-15.22,7.4-28.65,11.82-34.84,14.42.1,28.45,3.55,42.15,10.39,5.18,2.55,10.33,5.62,15.43,9.19,11.7,8.13,23.17,18.85,34.48,32.16-9.39,11.43-29.3,32.24-49.8,32.28Z"/>
        </g>
      </g>
      <g>
        <path class="cls-1" d="M1005.26,664.57c144.83,0,268.46,92.25,315.31,221.06,6.32-4.63,11.98-10.09,15.59-14.33-51.64-132.34-180.49-226.36-330.9-226.36s-284.32,97.71-333.84,234.13c4.67,4.28,10.6,8.88,16.57,12.06,45.28-131.67,170.4-226.55,317.27-226.55Z"/>
        <path class="cls-1" d="M1356.34,946.93c-5.73,5.73-11.66,10.8-17.83,15.24,1.45,12.41,2.16,25.02,2.16,37.82,0,184.97-150.45,335.45-335.41,335.45s-335.45-150.49-335.45-335.45c0-10.56.51-21.01,1.45-31.34-6.32-3.77-12.41-8.13-18.3-13.16-1.85,14.57-2.79,29.41-2.79,44.49,0,195.8,159.28,355.09,355.09,355.09s355.05-159.28,355.05-355.09c0-18.03-1.34-35.74-3.97-53.06Z"/>
        <path class="cls-1" d="M682.93,974.81c-.67,8.33-.98,16.69-.98,25.17,0,93.46,39.86,177.74,103.44,236.84,4.16,3.89,8.44,7.66,12.84,11.31,56.12,46.93,128.34,75.16,207.04,75.16s150.88-28.24,207-75.16c4.4-3.65,8.68-7.42,12.88-11.31,63.58-59.1,103.44-143.38,103.44-236.84,0-10.25-.47-20.34-1.45-30.36-3.69,2.12-7.46,4.08-11.31,5.77.67,8.09.98,16.3.98,24.58,0,91.93-40.02,174.72-103.6,231.78-4.28,3.85-8.68,7.58-13.2,11.19-53.37,42.88-121.11,68.57-194.74,68.57s-141.38-25.68-194.74-68.57c-4.52-3.61-8.91-7.34-13.2-11.19-63.58-57.06-103.6-139.84-103.6-231.78,0-6.91.24-13.74.67-20.54-3.89-1.34-7.74-2.87-11.47-4.63Z"/>
        <path class="cls-1" d="M712.38,890.18c.67-.59,1.34-1.22,2.04-1.85,44.97-116.79,158.38-199.85,290.84-199.85s250.27,86.36,293.39,206.72c.35,0,.71-.04,1.06-.04,3.26-.27,6.79-1.41,10.33-3.1-44.53-125.35-164.35-215.36-304.78-215.36s-262.21,91.46-305.84,218.39c.31.04.59.04.86.08.35,0,.75.04,1.18.04,2.63,0,6.05-.63,10.92-5.03Z"/>
      </g>
    </g>
  </g>
  <g id="Layer_4" data-name="Layer 4">
    <path class="cls-2" d="M1107.05,1186.95c-2.25,4.65-5.01,9-8.28,13.22-19.17,24.84-54.83,41.47-95.64,41.47s-75.23-16.05-94.62-40.16c-3.34-4.14-6.25-8.5-8.57-13.07l33.84-14.31h142.92l30.36,12.85Z"/>
    <path class="cls-3" d="M1069.7,1186.95c-1.85,4.65-4.11,9-6.79,13.22-15.71,24.84-44.94,41.47-78.39,41.47s-61.67-16.05-77.56-40.16c-2.74-4.14-5.12-8.5-7.02-13.07l27.74-14.31h117.15l24.88,12.85Z"/>
    <path class="cls-1" d="M1213.22,1231.76l-98.47-41.54-7.7-3.27-30.36-12.85h-142.92l-33.84,14.31-7.77,3.27-94.84,40.09-11.91,5.08c4.14,3.85,8.42,7.63,12.78,11.26l12.35-5.16,90.05-38.13c.36.65.87,1.23,1.38,1.89,21.79,27.09,59.62,43.28,101.16,43.28s80.61-16.7,102.25-44.73c.44-.58.87-1.16,1.31-1.74l93.32,39.43,12.27,5.16c4.36-3.63,8.64-7.41,12.85-11.26l-11.91-5.08ZM1003.13,1233.28c-35,0-67.9-13.43-86.56-35.22l20.33-8.57h136.67l17.14,7.26c-18.45,22.59-51.71,36.53-87.58,36.53Z"/>
    <path class="cls-3" d="M1203.67,1177.84h-436.48l23.82-213.52c10.09-105.77,93.29-186.22,192.58-186.22h0c98.15,0,180.77,78.66,192.26,183.03l27.82,216.7Z"/>
    <path class="cls-1" d="M1024.57,1185.58h220.27l-31.14-234.76c-12.84-112.83-105.4-197.89-215.24-197.89s-204.29,86.55-215.6,201.19l-26.74,231.46h219.29c-17.63-2.55-34.4-7.85-49.83-15.47h-152.1l24.74-214.34c10.52-106.82,96.61-187.4,200.24-187.4s187.95,79.21,199.89,184.34l28.9,217.4h-152.8c-15.43,7.62-32.2,12.92-49.87,15.47Z"/>
    <path class="cls-2" d="M1183.33,1007.06l-.72-6.67c-8.84-92.48-84.62-162.84-177.69-165.39-3.22-.08-6.3-.13-9.56-.06-91.07,2.36-166.66,71.31-177.31,161.75l3.25,7.85c-.47,5.28-.73,10.62-.73,16.02,0,97.83,79.31,177.15,177.15,177.15s177.15-79.31,177.15-177.15c0-3.68-.13-7.33-.35-10.95,1.19-.31,2.37-.62,3.56-.96l5.26-1.6Z"/>
    <path class="cls-1" d="M1046.91,1099.61c0,26.06-21.13,47.19-47.19,47.19s-47.19-21.13-47.19-47.19h94.38Z"/>
    <path class="cls-3" d="M1139.71,1007.97l-5.45,1.52c-15.26,4.28-30.31,6.04-44.74,6.04-53.3,0-97.89-23.96-111.49-32.07-55.06,41.25-115.33,35.24-156.61,22.64l-5.42-1.66.66-5.63c9.35-79.5,76.8-140.97,156.85-143.04,2.86-.07,5.76-.07,8.6,0,81.81,2.24,149.33,65.24,157.09,146.53l.52,5.66Z"/>
    <path class="cls-1" d="M1184.27,1028.32c.18-3.33.29-6.67.29-10.04,0-3.78-.14-7.57-.37-11.32l.11-.03-.59-6.44c-.09-.94-.21-1.87-.32-2.81-.08-.69-.15-1.37-.23-2.06-.12-.96-.24-1.92-.38-2.87-.14-1.04-.3-2.08-.46-3.12-.13-.8-.25-1.61-.38-2.41-.26-1.55-.55-3.1-.85-4.64-.12-.6-.24-1.2-.37-1.8-.29-1.42-.6-2.84-.93-4.25-.08-.36-.16-.73-.25-1.09-.42-1.78-.88-3.56-1.35-5.32-.1-.37-.2-.74-.31-1.11-.43-1.57-.89-3.14-1.36-4.69-.08-.26-.16-.53-.24-.79-.56-1.81-1.15-3.6-1.76-5.38-.08-.23-.16-.45-.24-.68-.56-1.6-1.14-3.2-1.74-4.78-.1-.27-.2-.54-.31-.81-.68-1.76-1.38-3.52-2.12-5.25-.06-.14-.12-.28-.18-.43-.67-1.58-1.37-3.15-2.08-4.71-.14-.31-.28-.62-.42-.92-.79-1.7-1.6-3.38-2.43-5.05-.03-.05-.06-.11-.08-.16-.8-1.58-1.62-3.15-2.47-4.71-.18-.33-.36-.66-.54-.98-1.78-3.24-3.65-6.42-5.61-9.53-.18-.28-.35-.56-.53-.83-2.04-3.2-4.17-6.32-6.39-9.38-.03-.05-.07-.09-.1-.14-.09-.12-.18-.24-.27-.36-.58-.79-1.17-1.59-1.76-2.37-.42-.56-.85-1.12-1.28-1.67-.33-.43-.67-.86-1.01-1.29-.59-.75-1.2-1.5-1.8-2.25-.22-.27-.45-.55-.67-.82-.64-.78-1.29-1.55-1.95-2.32-.25-.29-.5-.58-.75-.87-.25-.29-.5-.59-.76-.88-.26-.3-.53-.59-.8-.88-.64-.73-1.29-1.44-1.95-2.16-2.35-2.58-4.77-5.08-7.27-7.52-.12-.11-.24-.23-.35-.34-1.48-1.44-2.98-2.85-4.51-4.23-.53-.49-1.07-.97-1.61-1.45-.24-.21-.48-.44-.72-.65-.58-.52-1.18-1.01-1.76-1.52-.12-.11-.24-.21-.37-.32-1.36-1.15-2.72-2.3-4.11-3.43-.44-.35-.89-.68-1.33-1.03-1.05-.83-2.12-1.65-3.19-2.46-.72-.54-1.44-1.07-2.16-1.6-1.25-.91-2.5-1.81-3.77-2.69-.44-.31-.89-.62-1.33-.93-1.54-1.05-3.1-2.07-4.67-3.07-.56-.36-1.13-.72-1.7-1.07-1.37-.85-2.75-1.7-4.15-2.52-.34-.2-.68-.42-1.02-.62-.84-.48-1.69-.95-2.54-1.42-.12-.07-.23-.13-.35-.2-.85-.47-1.71-.94-2.58-1.39-.57-.31-1.15-.61-1.73-.91-.61-.32-1.22-.63-1.84-.94-.76-.39-1.53-.76-2.29-1.14-.54-.26-1.07-.53-1.61-.78-.81-.39-1.63-.77-2.45-1.15-.37-.17-.73-.35-1.11-.52,0,0,0,0,0,0-21.73-9.81-45.66-15.54-70.77-16.22-3.22-.08-6.52-.08-9.78,0-33.88.88-65.77,11.11-93.01,28.27,0,0-.01,0-.02.01-.84.53-1.67,1.06-2.49,1.6-.23.15-.46.29-.68.44-.76.5-1.52,1.01-2.27,1.52-.28.19-.55.38-.83.57-.74.51-1.47,1.02-2.2,1.54-.27.19-.54.39-.81.58-.74.53-1.48,1.07-2.21,1.61-.22.16-.44.33-.66.49-.78.59-1.57,1.17-2.34,1.77-.03.02-.06.04-.09.07-18.46,14.25-34.21,31.92-46.24,52.08,0,.01-.01.02-.02.03-1.97,3.3-3.84,6.67-5.6,10.1-.02.03-.03.07-.05.1-2.61,5.07-4.98,10.28-7.12,15.62-.06.15-.12.3-.18.45-1.38,3.48-2.66,7.02-3.83,10.61-.06.19-.12.37-.18.56-1.17,3.62-2.23,7.28-3.18,11-.02.08-.04.16-.06.24-1.94,7.64-3.41,15.48-4.35,23.47-.05.44-.09.89-.14,1.33l-.59,5.07.09.03c-.43,5.17-.66,10.3-.66,15.33,0,3.37.11,6.72.29,10.04-10.69,5.57-17.19,17.48-15.3,30.07,2.06,13.75,13.45,23.78,26.77,24.67,13.35,35.48,37.32,65.81,68.04,87.04,8.48,5.89,17.48,11.07,26.94,15.47,23.64,11.07,49.99,17.24,77.8,17.24s54.19-6.17,77.84-17.24c9.43-4.4,18.46-9.58,26.94-15.47,30.72-21.23,54.69-51.56,68.04-87.04,13.32-.89,24.71-10.92,26.77-24.67,1.89-12.59-4.61-24.5-15.3-30.07ZM860.67,922.77c2.98-4.32,6.17-8.48,9.54-12.53,3.74-4.5,7.73-8.8,11.93-12.9.12-.12.24-.24.37-.36,1.31-1.27,2.64-2.52,3.99-3.74.22-.2.45-.4.68-.6,4.48-4,9.18-7.82,14.07-11.34,7.11-5.14,14.57-9.74,22.42-13.71,5.22-2.71,10.6-5.1,16.1-7.23,0,0,0,0-.01,0,17.49-6.74,36.3-10.64,55.84-11.15h8.99c19.72.54,38.64,4.47,56.18,11.23,0,0,0,0,0,0,2.75,1.06,5.46,2.19,8.15,3.39.02,0,.03.02.05.02,1.28.57,2.55,1.16,3.81,1.77.14.07.28.14.43.21,1.24.6,2.47,1.21,3.7,1.84,5.66,2.9,11.14,6.12,16.42,9.6.34.23.69.45,1.02.68,1.33.89,2.63,1.8,3.93,2.73.88.63,1.76,1.27,2.63,1.92.06.05.13.09.19.14.92.68,1.83,1.38,2.73,2.08.21.17.43.34.64.51,3.64,2.86,7.15,5.86,10.54,9.01.24.22.48.45.72.67,27.56,25.86,46.48,60.88,51.81,100.43-83.44,19.81-162.58-31.66-163.37-32.21l-4.67-3.1-4.4,3.5c-55.84,44.3-117.85,40.49-162.11,28.27,4.01-25.37,13.71-48.85,27.69-69.12ZM1074.44,1170.1c-15.43,7.62-32.2,12.92-49.87,15.47-8.01,1.22-16.22,1.81-24.58,1.81s-16.53-.59-24.58-1.81c-17.63-2.55-34.4-7.85-49.83-15.47-56-27.57-94.64-85.3-94.64-151.82,0-3.57.13-7.21.36-10.87,46.46,12.38,110.37,15.62,169.07-28.36,15.47,9.23,66.21,36.48,126.85,36.48,13.52,0,27.52-1.36,41.73-4.56.1,2.43.16,4.86.16,7.31,0,66.52-38.64,124.25-94.64,151.82Z"/>
    <g>
      <g>
        <path class="cls-2" d="M1145.23,884.63c1.38-15.92-7.09-30.15-11.69-36.58-14.11.22-27.85,3.68-41.3,10.4-5.14,2.59-10.29,5.65-15.35,9.23-11.78,8.21-23.33,19.01-34.68,32.44,9.35,11.31,29.18,31.93,49.48,31.93,7.89,0,16.42-3.26,25.29-9.7,4.67-3.38,9.03-7.5,13-12.25,2.67-3.22,5.18-6.75,7.54-10.6.55-.9,1.06-1.77,1.49-2.55,2.98-4.87,4.44-7.58,5.14-9.11l1.07-3.19Z"/>
        <path class="cls-2" d="M1181.07,858.91c-11.21-5.13-22.18-8.45-32.94-9.95,5.5,9.92,9.81,22.76,8.82,36.22l.29.33s1.45,1.65,3.97,4.32c4.66,5.03,14.14,14.52,26.84,24.37,9.26-21.86-.88-44.66-6.97-55.29Z"/>
        <path class="cls-2" d="M1302.62,934.04c-15.12,1.18-28.94-3.89-41.16-14.92-2.24-2.04-4.63-4.24-7.15-6.56-2.16-1.98-4.44-4.07-6.81-6.22,2.43,11.3,2.67,24.33-2.58,37.45,12.01,3.03,24.65,4.02,37.39,1.6,10.8-2.08,21.09-6.48,30.91-13.16-3.46.9-6.99,1.53-10.6,1.81Z"/>
        <path class="cls-2" d="M1198.52,868.23c5.33,14.35,8.54,33.79-.76,53.08,10.35,7.14,22.57,14.13,35.85,18.98,7.8-18.6,1.61-37.84-4.15-49.69-9.42-7.8-19.82-15.62-30.94-22.37Z"/>
        <path class="cls-1" d="M1354.38,886.25h0c-.05.06-.97,1.16-2.6,2.93-.55.59-1.17,1.25-1.87,1.97-.7.72-1.48,1.5-2.32,2.33s-1.76,1.7-2.74,2.61c-2.94,2.71-6.46,5.71-10.41,8.62-1.98,1.45-4.06,2.88-6.24,4.24-.73.45-1.46.9-2.21,1.33-2.98,1.74-6.11,3.32-9.36,4.64-1.62.66-3.27,1.25-4.94,1.76-3.34,1.02-6.77,1.72-10.25,1.98-.68.05-1.35.08-2.02.1-1.34.03-2.66,0-3.96-.12-.65-.05-1.3-.12-1.94-.21-3.86-.53-7.58-1.68-11.19-3.47-.6-.3-1.2-.61-1.79-.95-1.78-1-3.54-2.16-5.27-3.48-1.15-.88-2.3-1.84-3.43-2.86-1.68-1.5-3.42-3.09-5.24-4.76-.6-.55-1.21-1.12-1.83-1.69-4.04-3.72-8.47-7.79-13.23-12.01-14.28-12.69-31.61-26.86-51.02-37.7-1.45-.86-2.91-1.65-4.36-2.36-6.64-3.51-13.22-6.46-19.75-8.86-2.61-.96-5.22-1.83-7.81-2.61-2.59-.78-5.18-1.47-7.76-2.08-9.02-2.11-17.92-3.13-26.71-3.06-20.09.15-39.57,5.98-58.38,17.47-1.26.77-2.51,1.56-3.77,2.37-3.77,2.45-7.52,5.13-11.23,8.07-11.78,9.27-23.29,20.85-34.48,34.72l-3.77,4.67,3.65,4.83c3.03,4.03,7.64,9.71,13.46,15.64,2.91,2.96,6.12,5.98,9.59,8.88,2.78,2.32,5.71,4.56,8.79,6.63,1.54,1.04,3.12,2.03,4.72,2.97,5.63,3.29,11.65,5.91,17.95,7.39,1.8.42,3.62.75,5.46.97,1.84.22,3.7.34,5.57.34h0c11.23,0,22.78-4.24,34.36-12.65,1.2-.87,2.38-1.78,3.54-2.73,1.16-.95,2.3-1.93,3.43-2.95,2.24-2.04,4.4-4.22,6.46-6.53.89-.97,1.77-1.97,2.62-2.99,2.56-3.06,4.95-6.35,7.16-9.85.38-.56.74-1.12,1.1-1.68.12-.19.24-.37.36-.56.41-.69.81-1.36,1.2-2,.39-.65.76-1.28,1.11-1.88,6.13,6.24,16.1,15.75,28.79,25.21,1.33,1,2.69,2,4.09,3,2.8,2.01,5.75,4.02,8.83,6,.77.49,1.55.99,2.33,1.48,3.93,2.45,8.05,4.83,12.35,7.08,1.72.9,3.47,1.78,5.24,2.63,3.55,1.7,7.2,3.3,10.93,4.75,8.41,3.27,17.28,5.81,26.45,7.21,5.09.78,10.28,1.2,15.53,1.2h0c5.81,0,11.7-.51,17.63-1.65,12.72-2.42,24.8-7.49,36.21-15.17.88-.59,1.75-1.2,2.62-1.82,3.48-2.48,6.89-5.22,10.23-8.19,11.71-10.42,22.61-23.84,32.62-40.21l-12.53-8.91ZM1139.02,896.93c-.43.79-.94,1.65-1.49,2.55-2.36,3.85-4.87,7.38-7.54,10.6-3.97,4.75-8.33,8.88-13,12.25-8.88,6.44-17.4,9.7-25.29,9.7-20.3,0-40.13-20.62-49.48-31.93,11.35-13.43,22.9-24.23,34.68-32.44,5.07-3.57,10.21-6.64,15.35-9.23,13.45-6.72,27.19-10.18,41.3-10.4,4.6,6.44,13.06,20.66,11.69,36.58l-1.07,3.19c-.71,1.53-2.16,4.24-5.14,9.11ZM1188.05,914.2c-12.7-9.85-22.17-19.34-26.84-24.37-2.51-2.67-3.93-4.28-3.97-4.32l-.29-.33c1-13.47-3.31-26.31-8.82-36.22,10.75,1.5,21.72,4.82,32.94,9.95,6.09,10.63,16.23,33.43,6.97,55.29ZM1233.61,940.3c-13.28-4.84-25.51-11.84-35.85-18.98,9.3-19.29,6.09-38.73.76-53.08,11.12,6.75,21.52,14.57,30.94,22.37,5.76,11.85,11.95,31.1,4.15,49.69ZM1282.32,945.39c-12.74,2.42-25.38,1.44-37.39-1.6,5.25-13.12,5.02-26.16,2.58-37.45,2.37,2.15,4.65,4.24,6.81,6.22,2.51,2.32,4.91,4.52,7.15,6.56,12.21,11.04,26.04,16.1,41.16,14.92,3.61-.28,7.15-.9,10.6-1.81-9.82,6.68-20.11,11.07-30.91,13.16Z"/>
      </g>
      <g>
        <path class="cls-2" d="M811.67,914.46c12.9-9.94,22.5-19.59,27.2-24.63,2.1-2.23,3.41-3.7,3.82-4.16-1.14-13.6,3.18-26.59,8.72-36.61-10.8,1.59-21.82,5-33.08,10.21-6.13,10.82-16,33.49-6.66,55.19Z"/>
        <path class="cls-2" d="M800.91,868.69c-11.2,6.84-21.65,14.72-31.08,22.55-5.69,11.92-11.54,30.89-3.79,49.2,13.29-4.8,25.53-11.77,35.9-18.9-9.34-19.16-6.28-38.49-1.03-52.86Z"/>
        <path class="cls-2" d="M751.99,906.82c-2.24,2.03-4.38,3.99-6.43,5.87-2.47,2.28-4.79,4.44-7.03,6.44-12.17,11.04-26,16.1-41.12,14.92-3.61-.28-7.15-.9-10.6-1.81,9.82,6.68,20.15,11.07,30.91,13.12,12.59,2.42,25.1,1.49,37-1.46-5.22-12.97-5.07-25.86-2.73-37.08Z"/>
        <path class="cls-2" d="M923.66,867.6c-5.11-3.57-10.25-6.64-15.43-9.19-13.7-6.84-27.73-10.29-42.15-10.39-4.42,6.19-12.46,19.62-11.82,34.84l1.66,4.97c.94,2,2.75,5.26,5.18,9.35.47.75.94,1.53,1.45,2.36,2.36,3.89,4.95,7.46,7.66,10.72,3.93,4.71,8.25,8.76,12.84,12.1,8.88,6.44,17.4,9.7,25.29,9.7,20.5-.04,40.41-20.85,49.8-32.28-11.31-13.31-22.78-24.03-34.48-32.16Z"/>
        <path class="cls-1" d="M974.04,894.77c-11.11-13.74-22.58-25.21-34.28-34.4-4.95-3.89-9.94-7.38-14.96-10.45-37.66-22.93-78.11-23.25-120.8-.79-1.45.75-2.87,1.53-4.16,2.32-26.27,14.57-48.5,34.99-64.72,49.87-2.43,2.24-4.75,4.36-6.91,6.32-9.07,8.21-18.77,11.78-29.65,11-1.44-.11-2.88-.31-4.3-.56-.29-.05-.58-.09-.86-.14-.31-.06-.62-.14-.93-.21-.54-.12-1.08-.23-1.62-.36-1.32-.33-2.62-.73-3.92-1.17-1.19-.4-2.37-.82-3.54-1.3-.63-.26-1.26-.53-1.88-.81-.17-.08-.35-.15-.53-.23-1.27-.58-2.51-1.2-3.74-1.84-.31-.16-.63-.32-.94-.49-.22-.12-.43-.24-.65-.36-.54-.3-1.09-.6-1.62-.91-.51-.3-1.01-.61-1.51-.91-.23-.14-.47-.28-.69-.42-.24-.15-.47-.3-.71-.46-1.92-1.22-3.77-2.49-5.53-3.78-.29-.21-.56-.42-.85-.64-.37-.27-.74-.55-1.09-.82-.62-.47-1.22-.95-1.81-1.42-.02-.01-.03-.03-.05-.04-.47-.37-.92-.75-1.37-1.12-.14-.11-.28-.23-.41-.34-.37-.31-.73-.62-1.09-.92-.2-.17-.41-.35-.61-.52-.29-.25-.56-.5-.84-.74-.25-.22-.52-.45-.77-.67-.22-.19-.42-.38-.63-.57-.3-.27-.6-.54-.88-.8-.14-.13-.27-.25-.41-.38-.34-.32-.69-.64-1.01-.95-.03-.03-.07-.06-.1-.1-.87-.83-1.69-1.63-2.43-2.38-.18-.18-.34-.35-.52-.52-.2-.2-.4-.41-.59-.6-.02-.02-.03-.03-.05-.05-.52-.53-.98-1.02-1.41-1.48-.35-.38-.68-.73-.97-1.05-.06-.07-.14-.15-.2-.22-.06-.06-.1-.11-.15-.17-.17-.19-.33-.37-.48-.53-.04-.04-.07-.08-.1-.12-.68-.78-1.07-1.24-1.1-1.28l-12.57,8.91c22.93,37.42,50.42,59.42,81.72,65.39,5.93,1.1,11.82,1.65,17.63,1.65,33.62,0,64.52-17.4,85.81-33.34,12.68-9.46,22.66-18.97,28.75-25.21.75,1.26,1.53,2.55,2.4,3.93.47.79.98,1.57,1.49,2.32,2.98,4.67,6.24,8.95,9.78,12.88,4.08,4.56,8.56,8.6,13.31,12.06,11.55,8.4,23.13,12.65,34.4,12.65,30.2-.04,56.12-30.24,65.86-43.2l3.61-4.83-3.81-4.67ZM717.72,945.35c-10.76-2.04-21.09-6.44-30.91-13.12,3.46.9,6.99,1.53,10.6,1.81,15.12,1.18,28.94-3.89,41.12-14.92,2.24-2,4.56-4.16,7.03-6.44,2.04-1.87,4.19-3.84,6.43-5.87-2.35,11.22-2.49,24.1,2.73,37.08-11.9,2.95-24.41,3.88-37,1.46ZM766.05,940.44c-7.75-18.31-1.9-37.28,3.79-49.2,9.43-7.83,19.88-15.71,31.08-22.55-5.25,14.36-8.3,33.69,1.03,52.86-10.38,7.13-22.62,14.1-35.9,18.9ZM842.69,885.67c-.41.46-1.72,1.93-3.82,4.16-4.71,5.04-14.3,14.69-27.2,24.63-9.34-21.7.52-44.37,6.66-55.19,11.27-5.21,22.29-8.62,33.08-10.21-5.54,10.02-9.85,23.01-8.72,36.61ZM908.34,932.04c-7.89,0-16.42-3.26-25.29-9.7-4.59-3.34-8.91-7.38-12.84-12.1-2.71-3.26-5.3-6.83-7.66-10.72-.51-.82-.98-1.61-1.45-2.36-2.43-4.08-4.24-7.34-5.18-9.35l-1.66-4.97c-.64-15.22,7.4-28.65,11.82-34.84,14.42.1,28.45,3.55,42.15,10.39,5.18,2.55,10.33,5.62,15.43,9.19,11.7,8.13,23.17,18.85,34.48,32.16-9.39,11.43-29.3,32.24-49.8,32.28Z"/>
      </g>
    </g>
    <g>
      <path class="cls-1" d="M1005.26,664.57c144.83,0,268.46,92.25,315.31,221.06,6.32-4.63,11.98-10.09,15.59-14.33-51.64-132.34-180.49-226.36-330.9-226.36s-284.32,97.71-333.84,234.13c4.67,4.28,10.6,8.88,16.57,12.06,45.28-131.67,170.4-226.55,317.27-226.55Z"/>
      <path class="cls-1" d="M1356.34,946.93c-5.73,5.73-11.66,10.8-17.83,15.24,1.45,12.41,2.16,25.02,2.16,37.82,0,184.97-150.45,335.45-335.41,335.45s-335.45-150.49-335.45-335.45c0-10.56.51-21.01,1.45-31.34-6.32-3.77-12.41-8.13-18.3-13.16-1.85,14.57-2.79,29.41-2.79,44.49,0,195.8,159.28,355.09,355.09,355.09s355.05-159.28,355.05-355.09c0-18.03-1.34-35.74-3.97-53.06Z"/>
      <path class="cls-1" d="M682.93,974.81c-.67,8.33-.98,16.69-.98,25.17,0,93.46,39.86,177.74,103.44,236.84,4.16,3.89,8.44,7.66,12.84,11.31,56.12,46.93,128.34,75.16,207.04,75.16s150.88-28.24,207-75.16c4.4-3.65,8.68-7.42,12.88-11.31,63.58-59.1,103.44-143.38,103.44-236.84,0-10.25-.47-20.34-1.45-30.36-3.69,2.12-7.46,4.08-11.31,5.77.67,8.09.98,16.3.98,24.58,0,91.93-40.02,174.72-103.6,231.78-4.28,3.85-8.68,7.58-13.2,11.19-53.37,42.88-121.11,68.57-194.74,68.57s-141.38-25.68-194.74-68.57c-4.52-3.61-8.91-7.34-13.2-11.19-63.58-57.06-103.6-139.84-103.6-231.78,0-6.91.24-13.74.67-20.54-3.89-1.34-7.74-2.87-11.47-4.63Z"/>
      <path class="cls-1" d="M712.38,890.18c.67-.59,1.34-1.22,2.04-1.85,44.97-116.79,158.38-199.85,290.84-199.85s250.27,86.36,293.39,206.72c.35,0,.71-.04,1.06-.04,3.26-.27,6.79-1.41,10.33-3.1-44.53-125.35-164.35-215.36-304.78-215.36s-262.21,91.46-305.84,218.39c.31.04.59.04.86.08.35,0,.75.04,1.18.04,2.63,0,6.05-.63,10.92-5.03Z"/>
    </g>
  </g>
</svg>