<?xml version="1.0" encoding="UTF-8"?>
<svg id="BluSpring" xmlns="http://www.w3.org/2000/svg" xmlns:xlink="http://www.w3.org/1999/xlink" viewBox="0 0 646 620">
  <defs>
    <style>
      .cls-1 {
        fill: #24130c;
      }

      .cls-1, .cls-2, .cls-3, .cls-4, .cls-5, .cls-6, .cls-7, .cls-8, .cls-9, .cls-10, .cls-11, .cls-12, .cls-13, .cls-14, .cls-15, .cls-16 {
        stroke-width: 0px;
      }

      .cls-2 {
        fill: url(#linear-gradient);
      }

      .cls-3 {
        fill: #34241d;
      }

      .cls-4 {
        fill: #63c0b2;
      }

      .cls-5 {
        fill: #f8ece8;
      }

      .cls-6 {
        fill: #a07862;
      }

      .cls-17 {
        stroke: #77c6b6;
      }

      .cls-17, .cls-18 {
        fill: none;
        stroke-linecap: round;
        stroke-linejoin: round;
        stroke-width: 5px;
      }

      .cls-7 {
        fill: #564137;
      }

      .cls-8 {
        fill: url(#linear-gradient-2);
      }

      .cls-9 {
        fill: #45ae9f;
      }

      .cls-18 {
        stroke: #63c0b2;
      }

      .cls-10 {
        fill: #48281c;
      }

      .cls-11 {
        fill: #2b1b14;
      }

      .cls-12 {
        fill: #096153;
      }

      .cls-13 {
        fill: #8e6957;
      }

      .cls-14 {
        fill: #997361;
      }

      .cls-15 {
        fill: #24130c;
      }

      .cls-16 {
        fill: #1e8374;
      }
    </style>
    <linearGradient id="linear-gradient" x1="187.35" y1="390.23" x2="214.38" y2="390.23" gradientUnits="userSpaceOnUse">
      <stop offset=".09" stop-color="#784d3e"/>
      <stop offset=".19" stop-color="#553529"/>
      <stop offset=".29" stop-color="#3a2219"/>
      <stop offset=".39" stop-color="#29170f"/>
      <stop offset=".46" stop-color="#24130c"/>
      <stop offset=".99" stop-color="#24130c"/>
    </linearGradient>
    <linearGradient id="linear-gradient-2" x1="322.8" y1="372.82" x2="374.08" y2="372.82" gradientUnits="userSpaceOnUse">
      <stop offset="0" stop-color="#24130c"/>
      <stop offset=".18" stop-color="#24130c"/>
      <stop offset=".32" stop-color="#29170f"/>
      <stop offset=".5" stop-color="#3a2219"/>
      <stop offset=".71" stop-color="#553529"/>
      <stop offset=".91" stop-color="#784d3e"/>
    </linearGradient>
  </defs>
  <path class="cls-6" d="M499.37,360.86c-1.2-4.81-3.03-9.03-5.49-12.32-1.65-2.2-3.57-3.99-5.8-5.34-2.98-1.79-6.54-2.82-10.94-2.82-4.16,0-9.06.95-14.76,3.12-2.09,2.18-4.04,5.01-5.77,8.32-1.82,3.5-3.41,7.52-4.69,11.83-2.58,8.61-3.98,18.35-3.97,27.33-.01,8.54,1.28,16.39,3.79,21.84.02.04.03.09.05.14.03.09.07.17.09.26.02.07.03.15.05.23.01.08.02.16.03.24v.25c0,.07-.01.15-.02.23s-.02.16-.04.24-.04.15-.06.23c-.03.07-.06.15-.09.22s-.06.15-.1.22c-.04.07-.09.14-.14.21-.04.06-.09.12-.14.18-.06.07-.12.14-.19.2-.04.03-.06.07-.1.11-.02.01-.05.02-.07.04-.06.05-.14.1-.21.14-.07.05-.15.1-.22.13-.02.01-.04.03-.07.04-.04.02-.09.03-.14.05-.09.03-.17.07-.26.09-.07.02-.15.03-.23.05-.08.01-.16.02-.24.03h-.25c-.07,0-.15-.01-.23-.02-.08-.01-.16-.02-.24-.04-.08-.02-.15-.04-.23-.06-.07-.03-.15-.06-.22-.09-.07-.03-.15-.06-.22-.11-.07-.04-.14-.08-.21-.13-.06-.04-.12-.09-.18-.14-.07-.06-.14-.12-.2-.19-.03-.04-.07-.06-.11-.1-3.07-3.68-5.56-8.26-7.62-13.47-2.05-5.21-3.67-11.06-4.91-17.28-2.49-12.46-3.52-26.44-3.53-39.81,0-1.13.01-2.25.03-3.36-.61,1.49-1.23,2.98-1.89,4.46-4.34,9.67-9.78,18.94-15.25,25.46,0,.01-.02.02-.03.03-.06.07-.13.13-.2.2-.05.04-.1.1-.16.14-.06.05-.14.09-.21.13-.06.05-.13.09-.2.13-.07.03-.15.06-.22.09-.08.02-.15.06-.23.08-.07.02-.15.03-.23.04-.08.02-.16.03-.24.04-.07.01-.15,0-.22,0-.09,0-.19,0-.28-.01-.01-.01-.03,0-.04-.01-.06,0-.11-.02-.17-.04-.09-.01-.18-.03-.27-.06-.08-.03-.15-.06-.23-.1-.07-.03-.14-.06-.21-.1-.09-.05-.16-.11-.24-.16-.05-.04-.09-.06-.14-.1-.01-.01-.02-.02-.03-.03-.07-.06-.13-.13-.2-.2-.05-.05-.1-.1-.14-.16-.05-.06-.09-.14-.13-.2-.05-.07-.09-.14-.13-.21-.03-.07-.06-.15-.09-.22-.02-.08-.06-.15-.08-.23-.02-.07-.03-.15-.04-.23-.02-.08-.03-.16-.04-.24-.01-.07,0-.14,0-.22,0-.09,0-.19.01-.28.01-.02,0-.03.01-.04.51-3.58.75-7.05.75-10.41-.01-16.64-5.85-30.86-13.96-43.9-8.11-13.03-18.49-24.76-27.3-36.25-3.21-4.2-6.2-8.37-8.8-12.58.05,1.01.1,2.03.15,3.07.28,5.53.62,11.55,1.24,17.67,1.23,12.23,3.6,24.85,8.62,34.61.02.04.03.08.04.13.04.08.07.16.1.24.03.08.05.16.06.23.02.08.03.16.04.24.01.08.02.16.02.25v.23c-.01.08-.02.16-.03.24-.02.08-.04.16-.06.24-.02.08-.04.15-.07.23-.03.07-.06.14-.1.21-.04.09-.08.16-.13.24-.02.04-.04.08-.07.11-.01.03-.04.05-.05.07-.06.07-.12.14-.18.2s-.11.12-.17.17c-.06.05-.12.09-.19.14s-.15.1-.22.15c-.03.01-.05.03-.08.05-.04.02-.08.03-.13.04-.08.04-.16.07-.24.1-.08.03-.16.05-.23.06-.08.02-.16.03-.24.04s-.16.02-.25.02h-.23c-.08-.01-.16-.02-.24-.03-.08-.02-.16-.04-.24-.06-.08-.02-.15-.04-.23-.07-.07-.03-.14-.06-.21-.1-.09-.04-.16-.08-.24-.13-.04-.02-.08-.04-.11-.07-4.59-3.28-9.73-8.05-14.97-14-5.24-5.96-10.57-13.1-15.46-21.1-6.09-9.96-11.5-21.26-15.15-33.26-.05-.01-.09-.02-.15-.03-.63-.13-1.62-.26-2.94-.27-2.66.01-6.66.55-11.85,2.91-.01,0-.03,0-.04.01-.09.04-.18.07-.27.09-.07.02-.14.05-.21.06-.08.02-.16.03-.24.03-.08.01-.16.03-.24.03s-.15-.01-.23-.02-.17-.01-.25-.02c-.08-.02-.16-.04-.24-.07-.07-.02-.14-.03-.21-.06-.08-.03-.15-.07-.22-.11-.08-.04-.15-.07-.22-.11-.06-.04-.11-.09-.17-.13-.08-.06-.15-.12-.22-.18-.01-.01-.03-.02-.04-.03l-.04-.04s-.1-.1-.2-.18c-.18-.17-.47-.42-.86-.73-.78-.61-1.94-1.44-3.45-2.28-3.01-1.67-7.33-3.33-12.63-3.33-1.18,0-2.42.08-3.7.26-.04.01-.08.01-.12.01l-.59.25c-18.15,10.61-32.89,24.54-43.1,40.91-9.08,14.57-14.57,31.07-15.7,48.99.06.16.11.33.13.5.08.52,0,1.03-.23,1.47-.07,1.63-.12,3.26-.12,4.91,0,6.09.5,12.34,1.53,18.72,1.03,6.37,2.6,12.88,4.73,19.5.01.04.01.08.02.12.03.08.05.17.06.25,0,.08.02.16.03.24v.24c0,.08-.01.16-.02.24,0,.08-.02.16-.04.24s-.04.16-.07.24c-.02.07-.05.14-.08.21-.04.08-.08.16-.12.24-.02.03-.04.07-.06.1-.02.03-.04.06-.07.09-.05.07-.1.14-.16.21-.05.06-.11.11-.16.17-.06.05-.13.1-.19.16-.07.05-.13.09-.2.14-.07.04-.14.07-.21.11-.08.04-.16.07-.24.1-.04.02-.07.04-.1.05-.04.01-.08.01-.12.02-.08.03-.17.05-.25.06l-.24.03h-.24c-.08,0-.16-.01-.24-.02s-.16-.02-.24-.04-.16-.04-.24-.07c-.07-.02-.14-.05-.21-.08-.08-.04-.16-.08-.24-.12-.03-.02-.07-.04-.1-.06-5.5-3.53-11.43-8.72-16.99-14.81-5.55-6.1-10.7-13.1-14.52-20.29-.53-.99-1.03-1.99-1.5-2.98-1.25.39-2.47.79-3.63,1.2-.97,3.45-1.83,7.19-2.57,11.13-1.55,8.33-2.52,17.59-2.69,27.13,1.25-2.22,2.93-4.4,5.11-6.4,2.17-2,4.84-3.82,8.08-5.34.04-.02.09-.03.13-.05.05-.02.09-.05.14-.06.03-.01.07-.01.1-.02.08-.03.16-.05.25-.06.51-.13,1.01-.19,1.52-.19,1.5,0,3.2.37,5.29,1.09,2.09.72,4.53,1.81,7.34,3.35s5.98,3.54,9.48,6.07c3.5,2.53,7.33,5.59,11.47,9.26.03.02.04.05.07.07.06.07.12.13.18.2.05.06.1.12.14.19.05.06.09.13.13.2.04.08.08.15.11.22.03.07.05.15.08.22.02.08.05.16.07.24.01.07.02.15.03.24.01.07.02.15.02.23s0,.16-.01.24c0,.08-.01.16-.02.25-.02.07-.04.14-.06.22-.02.09-.05.17-.08.26-.01.03-.02.06-.03.09-.02.04-.04.08-.06.12-.04.07-.08.15-.13.22-.05.08-.1.15-.16.22-.02.03-.04.07-.07.1-.02.03-.05.04-.07.07-.07.06-.13.12-.2.18-.06.05-.12.1-.19.14-.06.05-.13.09-.2.13-.08.04-.15.08-.22.11-.07.03-.15.05-.22.08-.08.02-.16.05-.24.07-.07.01-.15.02-.24.03-.07.01-.15.02-.23.02s-.16,0-.24-.01c-.08,0-.16-.01-.25-.02-.07-.02-.14-.04-.22-.06-.03,0-.06,0-.09-.02,1.65,1.92,3.08,4.21,4.32,6.74,3.29,6.75,5.24,15.23,5.25,23.11,0,3.03-.3,5.97-.95,8.71-.65,2.73-1.66,5.26-3.16,7.42-.99,1.44-2.21,2.71-3.65,3.71-1.93,1.35-4.26,2.2-6.85,2.42l-.23.02-.23-.02c-3.43-.32-6.5-1.49-9.1-3.28-2.6-1.78-4.73-4.16-6.4-6.88-3.34-5.46-4.93-12.31-4.94-19.22,0-5.13.89-10.31,2.7-15.01,1.82-4.7,4.59-8.93,8.4-12.04l.31-.25.36-.14c.71-.27,1.42-.47,2.13-.6-.79-.33-1.59-.66-2.39-.97-4.94-1.91-9.9-3.29-14.12-3.28-2.81,0-5.24.57-7.35,1.88-2.1,1.32-3.97,3.43-5.49,6.89-1.01,2.31-1.84,5.21-2.4,8.8,0,.02,0,.04-.02.06-.01.09-.04.18-.07.27-.02.07-.04.14-.06.21-.04.08-.07.15-.11.22-.04.07-.07.14-.12.21-.04.07-.09.13-.14.19s-.1.13-.16.18c-.05.06-.12.11-.18.17-.06.05-.12.1-.18.15-.07.04-.13.08-.2.11-.08.05-.16.09-.24.13-.02.01-.04.02-.06.03-.02,0-.05.02-.07.02.93,7.57,2.45,15.03,4.71,22.07,2.06,6.44,4.71,12.53,8.04,18.05,3.32,5.52,7.31,10.48,12.05,14.67.04.03.07.08.1.11.07.07.13.13.19.2.05.06.09.13.13.2.05.06.09.13.13.2.04.08.07.15.1.23.03.07.06.15.08.22.02.08.04.16.06.24.01.08.03.16.03.24.01.09.01.18.01.26,0,.06.01.11,0,.16,0,.02-.01.04-.01.07-.01.09-.03.18-.05.27-.01.07-.03.14-.05.21-.02.08-.06.16-.09.23-.03.08-.06.15-.1.23-.03.06-.08.12-.12.18-.05.08-.1.15-.16.22,0,.02-.02.04-.04.06-.03.04-.08.07-.11.11-.07.06-.13.12-.2.18-.06.05-.13.09-.2.13-.06.05-.13.09-.2.13-.08.04-.15.07-.23.1-.07.03-.15.06-.22.08-.08.02-.16.04-.24.06-.08,0-.16.03-.24.03-.09.01-.17.01-.26.01-.06,0-.11.01-.16,0-5.81-.44-10.55-1.29-14.53-2.39,4.5,4.89,9.53,9.32,15.05,13.27,8.1,5.8,17.22,10.6,27.1,14.41,19.76,7.64,42.55,11.32,65.95,11.32,21.15,0,42.8-3,63.12-8.69,20.32-5.68,39.32-14.05,55.21-24.67,10.6-7.08,19.81-15.15,27.16-24.06l.11-.11c.09-.11.18-.21.27-.3l.2-.19.23-.2.26-.2.2-.15c.09-.06.19-.12.29-.18l.2-.12c.1-.05.2-.1.3-.15l.24-.1c.09-.04.18-.08.27-.11.09-.03.19-.07.28-.1l.25-.07c.11-.02.21-.05.33-.08l.22-.03c.12-.02.23-.04.35-.05l.24-.02c.11,0,.22-.02.33-.02.1,0,.2.01.3.01.09,0,.19,0,.28,0,.13.02.26.04.4.06l.15.02c.2.03.48.06.84.06,1,.01,2.58-.25,4.42-.87,1.84-.6,3.94-1.53,6.09-2.7,4.3-2.33,8.81-5.6,12.32-8.9,2.34-2.18,4.25-4.4,5.37-6.15.64-.99,1.02-1.82,1.14-2.26l.05-.13c.04-.14.09-.27.14-.4l.1-.23c.05-.1.09-.2.14-.29.05-.1.11-.19.16-.28l.13-.22c.07-.1.13-.19.2-.29l.14-.18c.07-.09.15-.17.22-.26l.17-.18.22-.22.21-.18.21-.17h0c.13-.22.27-.42.47-.6,2.15-1.95,4.27-4.76,6.19-8.2,1.91-3.44,3.64-7.49,5.07-11.9,2.87-8.82,4.58-19.08,4.58-28.77,0-5.58-.56-10.97-1.76-15.78ZM298.11,330.69c1.38-1.51,3.21-2.49,5.35-3.28,2.14-.78,4.63-1.34,7.39-1.77,5.51-.86,12.11-1.16,18.9-1.16,19,0,39.46,2.39,39.51,2.4,1.37.16,2.35,1.4,2.19,2.77-.16,1.37-1.4,2.35-2.77,2.19,0,0-.07-.01-.23-.02-.15-.02-.37-.05-.67-.08-.58-.06-1.45-.15-2.55-.26-2.19-.23-5.31-.52-9.02-.82-7.41-.59-17.16-1.18-26.46-1.18-4.98,0-9.82.17-14.09.59-4.26.42-7.94,1.11-10.49,2.04-1.7.61-2.84,1.35-3.34,1.92-.93,1.03-2.51,1.11-3.53.19-1.03-.93-1.11-2.51-.19-3.53ZM301,472.64c-7.23,3.28-15.44,5.79-24.81,5.79-5.3,0-10.95-.8-16.97-2.68-1.31-.42-2.05-1.82-1.64-3.14.42-1.31,1.82-2.05,3.14-1.64,5.55,1.74,10.68,2.46,15.47,2.46,8.47,0,15.93-2.25,22.75-5.35,1.25-.57,2.73-.01,3.31,1.25.57,1.25,0,2.73-1.25,3.31ZM372.2,433.05c-3.57,4.9-9.1,8.75-16.59,10.73l-.22.05-.22.02c-1.06.09-2.08.13-3.08.13-4.71,0-8.84-.91-12.35-2.56-3.52-1.65-6.4-4.02-8.64-6.85-4.47-5.66-6.4-13.01-6.4-20.33,0-5.42,1.06-10.85,3.07-15.68,2.01-4.82,4.96-9.07,8.88-11.99,2.6-1.94,5.65-3.27,9.01-3.69h.11s.11-.02.11-.02c.33-.01.66-.02.98-.02,4.54,0,8.77,1.11,12.5,3.02,3.73,1.9,6.96,4.6,9.62,7.78,5.32,6.36,8.37,14.64,8.38,22.83,0,5.86-1.59,11.69-5.16,16.58ZM391.43,392.75v.07c-.02.08-.05.15-.07.22-.02.08-.04.17-.07.25-.02.05-.05.09-.07.14-.05.1-.1.2-.16.3,0,.01-.01.01-.01.02-.03.04-.07.08-.11.13-.06.08-.12.16-.19.24-.08.07-.16.13-.24.19-.04.04-.08.08-.13.11,0,.01,0,.01,0,.01-.1.07-.2.12-.31.17-.04.02-.09.05-.13.07-.08.03-.17.05-.25.08-.07.02-.15.05-.22.06h-.03c-.15.03-.3.05-.45.05-.13,0-.27-.02-.4-.04h-.07c-.08-.02-.15-.05-.22-.07-.08-.02-.17-.04-.25-.07-.05-.02-.09-.05-.14-.07-.1-.05-.2-.1-.3-.16t-.02-.01c-9.1-6.07-17.11-10.15-24.26-12.7-7.15-2.56-13.42-3.59-19.15-3.59-8.21,0-15.33,2.13-22.25,5.26-3.45,1.56-6.85,3.37-10.27,5.28-3.43,1.91-6.88,3.91-10.45,5.85-.01,0-.03.01-.04.02-.05.03-.1.04-.16.06-.09.05-.18.09-.27.12-.08.02-.16.04-.24.05-.08.02-.15.04-.24.05-.08.01-.16.01-.24.01s-.16.01-.24,0-.16-.03-.25-.04c-.07-.02-.15-.03-.23-.05-.1-.02-.19-.07-.28-.11-.05-.02-.11-.03-.16-.05,0-.01-.01-.01-.01-.01-.11-.06-.21-.13-.31-.2-.03-.02-.08-.04-.11-.07-.07-.05-.12-.12-.18-.17-.06-.06-.13-.11-.18-.17-.03-.04-.05-.08-.08-.12-.07-.1-.14-.19-.2-.29t-.01-.02s-.04-.1-.06-.16c-.05-.09-.09-.18-.12-.27-.02-.08-.04-.16-.05-.24-.02-.08-.04-.15-.05-.24-.01-.08-.01-.16-.01-.24s-.01-.16,0-.24.03-.17.04-.25c.02-.07.03-.15.05-.23.02-.1.07-.19.11-.28.02-.06.03-.11.05-.16.01-.01.01-.02.02-.03h0c3.5-6.99,8.11-13.33,12.89-18.71,4.8-5.38,9.76-9.81,13.99-12.95,2.83-2.09,5.3-3.61,7.35-4.49.04-.02.09-.02.13-.04.09-.03.18-.06.26-.08.08-.02.16-.03.24-.05.08-.01.16-.02.24-.02.09,0,.18,0,.27,0,.05,0,.1,0,.15,0,12.36,1.54,23.48,5.68,33.16,11.87,9.68,6.2,17.92,14.45,24.59,24.2.01,0,.01.01.01.01.07.1.12.2.17.31.02.04.05.09.07.13.03.08.05.17.07.25.03.07.06.14.07.22v.03c.03.15.05.3.05.45,0,.13-.02.27-.04.4ZM479.38,374.83h-.08c-.06.02-.16.04-.3.07-.26.05-.66.13-1.15.25-1,.23-2.41.59-4.01,1.11-3.2,1.05-7.17,2.77-10.17,5.21-2,1.63-3.55,3.54-4.35,5.74-.47,1.3-1.91,1.97-3.2,1.5-1.3-.47-1.97-1.91-1.5-3.2,1.2-3.3,3.4-5.89,5.9-7.92,2.5-2.03,5.32-3.53,7.97-4.66,5.3-2.24,9.95-3.01,10.07-3.04,1.36-.22,2.65.7,2.88,2.06.02.14.03.27.03.4,0,1.21-.87,2.27-2.09,2.48Z"/>
  <path class="cls-13" d="M455.44,321.2s-.04-.1-.07-.14c-.02-.02-.04-.05-.07-.07h-.01s-.06-.06-.06-.06l-127.9-107.91s-.04-.05-.07-.06c-.02-.02-.05-.04-.08-.05-.06-.03-.13-.05-.21-.05-.04,0-.08,0-.12.02-.04,0-.08.02-.11.04l-.07.04-143.85,75.92s-.05.02-.08.04c-.03.02-.06.04-.09.07-.03.02-.05.04-.06.06-.03.03-.06.08-.08.13l-.02.05-20.97,52.92v.03s-.03.03-.03.05c-.01.04-.02.08-.02.12,0,.05.01.11.02.16l24.98,128.88v.03c.01,1.38.76,2.53,1.91,3.36,1.75,1.29,4.47,2.05,7.67,2.53,3.21.48,6.9.64,10.56.64,9.32,0,18.41-1.09,18.42-1.09.02,0,.04-.01.06-.02.03,0,.06-.01.09-.03,0-.01.03-.01.04-.03.03,0,.05-.02.07-.04.01,0,.01-.02.02-.03h0c.05-.05.1-.11.13-.18h0c.02-.06.03-.11.03-.17h0v-.06s-.01-.04-.02-.06c0-.03-.01-.06-.03-.09-.01-.01-.01-.03-.03-.04,0-.03-.02-.05-.04-.07-13.14-15.46-22.22-28.36-28.01-41.34-5.8-12.98-8.32-26.07-8.32-41.97,0-8.81.77-18.5,2.21-29.51,6.15,13.66,16.27,22.24,24.98,27.44,8.6,5.14,15.82,6.99,16.58,7.17.01,0,.02.01.04.01.02.01.03.01.03.01.03.01.06.01.09.01s.07,0,.1-.01t.02-.01s.08-.02.12-.04c.02,0,.03-.01.05-.03.03-.01.06-.03.08-.07.04-.02.07-.06.09-.11.02-.03.03-.06.04-.09,0-.01.01-.02.01-.03.01-.03.01-.06.01-.09s0-.07-.01-.1c-1.6-10.4-2.34-20.22-2.34-29.46,0-34.88,10.44-61.41,23.55-79.21,6.55-8.91,13.78-15.62,20.69-20.11,6.92-4.49,13.53-6.73,18.8-6.73,2.04,0,3.88.33,5.47.99.92,1.53,9.22,15.06,21.96,30.05,13.53,15.9,32.06,33.46,52.23,40.03.05.02.1.02.15.02h.03s.02,0,.03-.01c.06,0,.11-.02.15-.04.06-.03.11-.07.15-.11.04-.05.08-.1.1-.16,0-.01.02-.02.02-.03.02-.05.02-.1.02-.15v-.03l-1.92-35.49c34.06,41.17,34.92,78.51,34.92,82.21v.3h0c0,.15.05.27.14.36.05.04.1.08.16.11.06.03.13.04.2.04h.01c2.9,0,5.61-1.25,8.05-3.07,5.39-4.03,9.56-10.91,11.37-14.27-.01.72-.02,1.61-.02,2.63,0,6.99.5,20.42,3.92,32.35,1.7,5.97,4.14,11.57,7.64,15.82,3.49,4.24,8.08,7.12,13.99,7.54h.04c.06,0,.13-.01.18-.04.06-.02.12-.05.16-.09.03-.03.06-.06.08-.1.02-.03.03-.06.04-.09.02-.03.03-.06.03-.1.01-.03.01-.06.01-.08,0-.06-.01-.13-.04-.18-.02-.06-.05-.12-.09-.16-.03-.03-.06-.06-.1-.08l-.05-.03c-.14-.12-.51-.44-1.02-1.13-.6-.83-1.38-2.19-2.16-4.34-1.56-4.3-3.09-11.77-3.09-24.46,0-14.73,2.06-36.5,8.54-68.52.01-.03.01-.06.01-.09h0c0-.07-.01-.12-.03-.17Z"/>
  <path class="cls-13" d="M350.06,373.75l-51.9,14.92-4.18-14.55c-4.14-14.39,11.4-32.31,25.5-27.26l19.86,8.07c7.19,2.92,11.6,10.24,10.81,17.97l-.09.85Z"/>
  <path class="cls-2" d="M214.38,391.63c-4.21-1.42-8.51-2.45-12.7-2.45-2.33,0-4.63.32-6.82,1.11-2.82,1-5.4,2.81-7.51,5.45.22-.49.46-.97.73-1.45,1.99-3.52,5.27-6.93,10.75-9.56.06-.01.13-.01.22-.01.61-.01,1.92.2,3.66.81,2.63.91,6.28,2.65,10.76,5.51.3.19.61.4.91.59Z"/>
  <path class="cls-8" d="M378.15,382.94c-4.63-2.47-9-4.43-13.15-5.91-7.61-2.72-14.49-3.88-20.83-3.88-9.09-.01-17,2.39-24.31,5.7-4.52,2.05-8.82,4.43-13.09,6.85,3.69-5.55,8-10.56,12.2-14.68,3.05-2.98,6.03-5.51,8.65-7.45,2.26-1.68,4.27-2.92,5.71-3.63,11.37,1.52,21.52,5.34,30.42,11.03,5.25,3.36,10.05,7.39,14.4,11.97Z"/>
  <g>
    <path class="cls-9" d="M218.14,346.34c-7.79,1.29-14.66,2.88-20.68,4.58.34.7.69,1.4,1.06,2.09,2.39,4.49,5.37,8.97,8.67,13.18,4.75,6.08,10.17,11.6,15.33,15.81-2.98-11.2-4.43-22.11-4.43-32.63,0-1.01.02-2.02.05-3.03Z"/>
    <path class="cls-9" d="M281,236.72c-.91-1.57-2.21-2.85-4.05-3.66-1.22-.54-2.71-.88-4.54-.88-3.64-.01-8.69,1.39-15.14,5.32-.03,0-.05.02-.08.03-.08.05-.16.08-.24.12-.07.03-.14.06-.22.08-.07.03-.15.04-.23.06-.08.02-.16.04-.24.05-.08.01-.16.01-.24.01h-.24c-.08-.01-.16-.02-.24-.04-.08-.01-.15-.02-.23-.05-.08-.02-.15-.04-.22-.07-.08-.03-.17-.07-.25-.11-.02-.01-.05-.02-.07-.03-.05-.02-.08-.05-.12-.08-.08-.05-.15-.1-.22-.15-.07-.05-.13-.11-.18-.16-.06-.06-.12-.11-.17-.17-.06-.07-.11-.15-.16-.22-.03-.04-.06-.07-.09-.11-.01-.03-.02-.05-.03-.08-.05-.08-.08-.16-.12-.24-.03-.07-.06-.14-.08-.21-.03-.08-.05-.16-.06-.24-.02-.08-.04-.16-.05-.24s-.01-.16-.01-.24v-.24c.01-.08.02-.16.04-.24.01-.08.02-.15.05-.23.02-.08.04-.15.07-.22.03-.08.07-.17.11-.25,0-.02.02-.05.03-.07,2.12-3.86,4.11-7.96,5.55-11.9,1.45-3.94,2.33-7.73,2.32-10.86,0-1.92-.32-3.57-.94-4.94-.64-1.37-1.56-2.5-3-3.46-.96-.64-2.17-1.2-3.69-1.63-2.02-.58-4.58-.92-7.73-.92-5.41,0-12.56,1-21.7,3.33-.03.01-.05.01-.08.01-.08.02-.17.03-.26.04-.08.01-.16.02-.23.02-.09.01-.17,0-.25-.01s-.16-.01-.24-.02c-.08-.02-.15-.04-.23-.06-.08-.02-.16-.04-.23-.07-.08-.03-.15-.07-.22-.11-.07-.03-.14-.07-.21-.11s-.13-.09-.19-.14c-.07-.05-.13-.1-.19-.15-.06-.05-.11-.12-.16-.18-.05-.06-.11-.12-.16-.19-.04-.06-.08-.13-.12-.2-.05-.07-.09-.15-.13-.23,0-.03-.02-.04-.03-.07-1.47-3.56-3.33-5.8-5.42-7.21-2.1-1.41-4.53-2.05-7.38-2.06-4.62-.01-10.25,1.81-16.01,4.72-5.77,2.91-11.68,6.86-17.01,10.89-10.68,8.07-19.07,16.43-20,17.37l-.09.09c-.14.14-.29.26-.45.36-.02.02-.04.04-.06.05l-.19.15-.26.18-.24.15-.23.13c-.1.06-.2.11-.3.16l-.07.03c-.98.45-2.28,1.18-3.75,2.14-1.46.96-3.1,2.15-4.84,3.51-3.48,2.73-7.36,6.15-11.25,9.86-7.29,6.94-14.66,14.94-19.88,21.43-.41,3.75-.62,8.16-.62,12.98,0,8.73.68,18.79,1.99,28.84,1.31,10.06,3.26,20.13,5.73,28.88.82,2.92,1.71,5.69,2.64,8.26.92,2.57,1.9,4.94,2.91,7.05l.03.08c.05.11.1.22.14.33l.09.22c.04.11.07.22.1.33l.07.24c.02.11.04.21.06.31,0,.09.03.19.05.28.01.09.01.18.02.28.01.1.02.21.02.31v.6l-.03.23c-.01.12-.02.24-.04.36v.08c-.78,4.25-1.14,8.44-1.14,12.59,0,10.2,2.18,20.13,5.87,29.62,3.69,9.48,8.91,18.52,14.91,26.82,11.98,16.61,27.12,30.29,38.96,39.05l.04.03h.01s.05.05.05.05c.14.1.28.21.41.33l.2.21c1.82.92,3.89,1.8,6.36,2.57,2.3.72,4.96,1.35,8.06,1.85-7.5-8.38-12.79-18.66-16.35-29.75-4.32-13.5-6.09-28.24-6.09-42.45,0-10.92,1.05-21.53,2.82-31.04.52-2.81,1.12-5.52,1.76-8.11-12.59,4.95-18.59,9.52-18.76,9.64-.45.36-.99.53-1.53.53-.74,0-1.48-.34-1.97-.97-.85-1.08-.65-2.66.44-3.5.17-.14,7.67-5.92,23.45-11.67,1.15-3.81,2.42-7.31,3.8-10.38.02-.05.05-.1.08-.14.04-.08.08-.16.14-.24.04-.07.09-.13.14-.19s.11-.12.16-.18c.06-.06.12-.11.19-.16.06-.05.12-.1.19-.15.07-.04.14-.08.21-.12s.14-.07.22-.1c.08-.04.17-.06.25-.09.06-.01.1-.04.16-.05.02,0,.03,0,.05-.01.09-.02.19-.02.28-.03.07,0,.14-.02.22-.02s.16.02.24.02c.08.01.17.02.25.03.07.02.14.04.2.06.09.03.18.05.27.09.02,0,.04,0,.05.02.05.02.1.05.14.08.08.04.16.08.24.14.07.04.13.09.19.14.06.05.12.11.18.16.06.06.11.12.16.19.05.06.1.12.15.19.04.07.08.14.12.21.04.07.07.14.1.22.04.08.06.16.09.25.01.05.04.1.05.16.47,2.1,1.15,4.28,2.01,6.49,6.62-1.91,14.26-3.67,22.96-5.07,1.3-18.39,7.05-35.4,16.39-50.38,10.68-17.14,26.05-31.61,44.83-42.59.02-.01.03-.02.05-.03.08-.06.16-.12.24-.19.08-.06.16-.13.24-.19.21-.2.41-.41.6-.65.16-.19.3-.41.45-.64.14-.24.28-.5.4-.78.49-1.1.77-2.44.77-3.85,0-1.79-.45-3.65-1.35-5.22ZM178.64,229.37c-13.42,13.21-23.61,27.58-31.11,41.01-7.51,13.42-12.32,25.91-14.98,35.3-.38,1.33-1.76,2.1-3.09,1.72s-2.1-1.76-1.72-3.09c2.77-9.78,7.72-22.59,15.42-36.37,7.7-13.79,18.16-28.54,31.97-42.14.48-.48,1.12-.71,1.75-.71s1.3.24,1.79.74c.96.98.95,2.57-.03,3.54ZM228.66,254.2c-2.2,2.01-4.74,4.96-7.36,8.51-2.62,3.54-5.34,7.69-7.99,12.12-5.28,8.88-10.26,18.93-13.63,27.73-2.25,5.86-3.77,11.19-4.23,15.09-.16,1.37-1.4,2.35-2.77,2.19-1.37-.16-2.35-1.4-2.19-2.77.41-3.46,1.44-7.45,2.9-11.82,1.48-4.37,3.39-9.09,5.6-13.9,4.42-9.63,10-19.62,15.53-27.73,3.7-5.41,7.35-9.97,10.76-13.1.48-.44,1.09-.66,1.69-.66.68,0,1.35.27,1.84.81.94,1.02.87,2.6-.15,3.53Z"/>
  </g>
  <path class="cls-3" d="M541.57,376.79c-2.59-4.53-4.55-9.34-6.11-14.29-3.12-9.9-4.72-20.38-6.37-30.57-1.1-6.79-2.21-13.45-3.72-19.7-2.01-8.33-4.73-15.88-8.88-22.12-2.38-3.58-5.21-6.76-8.73-9.54l-.05-.04-.26-.23-.19-.17-.24-.25-.17-.19-.19-.25-.17-.23-.3-.5-.12-.25c-.04-.09-.09-.18-.13-.28l-.09-.24c-.04-.1-.08-.2-.11-.3l-.07-.26c-.02-.1-.05-.2-.07-.3-.02-.09-.03-.18-.05-.28-.01-.09-.03-.19-.04-.28-.01-.1-.02-.2-.02-.3-.01-.09-.02-.18-.02-.27,0-.11.01-.21.01-.32v-.26c.02-.1.04-.21.05-.31l.04-.27c.01-.09.04-.19.06-.29.02-.09.04-.19.07-.28l.09-.26c.03-.1.06-.2.1-.3l.11-.24c.04-.11.09-.21.14-.31l.13-.23c.06-.1.11-.2.17-.29l.04-.06.14-.19.14-.19.04-.05c.07-.09.15-.18.23-.26l.17-.19.25-.24.19-.17.25-.19.23-.17.24-.15.27-.15.23-.12c.1-.04.19-.09.29-.13l.24-.09c.1-.04.2-.08.3-.11l.26-.07c.1-.02.2-.05.3-.07.09-.02.18-.03.28-.05.09,0,.19-.03.28-.04.1-.01.2-.02.3-.02l.27-.02c.11,0,.21.01.32.01h.26c.1.02.21.04.31.05l.27.04c.09.01.19.04.29.06.09.02.19.04.28.07l.26.09c.1.03.2.06.3.1l.24.11c.11.04.21.09.31.14l.23.13c.1.06.2.11.29.17l.06.04c2.32,1.55,5.2,3.1,8.2,4.4,2.58,1.11,5.24,2.02,7.73,2.64-7.52-10.73-15.32-22.97-23.02-35.4-10.09-16.29-19.99-32.89-28.67-46.56-5.77-9.11-11.02-16.94-15.29-22.39l-.06-.08-.06-.07c-1.67-2.29-4.29-5.02-7.56-7.86-3.28-2.84-7.21-5.8-11.51-8.7-8.6-5.82-18.7-11.41-28.2-15.69-5.78-2.61-11.35-4.73-16.14-6.13-.83.19-1.75.44-2.73.74-1.49.48-3.12,1.08-4.8,1.76-3.36,1.37-6.92,3.08-10.15,4.75-6.48,3.34-11.67,6.53-11.9,6.68h-.01c-.22.14-.45.25-.67.36l-.15.06c-.32.13-.64.24-.97.32l-.11.02c-.35.07-.69.12-1.04.13h-.1c-.35.01-.69-.01-1.04-.06l-.12-.03c-.34-.06-.67-.14-.99-.26l-.14-.05c-.32-.13-.63-.28-.93-.46l-.1-.06c-.31-.2-.6-.42-.87-.67l-.04-.03-.03-.03-.12-.11c-.1-.09-.26-.24-.47-.43-.41-.38-1.03-.95-1.82-1.66-1.58-1.42-3.86-3.44-6.62-5.78-5.51-4.68-12.97-10.66-20.55-15.77-5.04-3.41-10.16-6.43-14.64-8.41-2.44-1.08-4.68-1.83-6.54-2.23-1.18-.1-2.34-.16-3.49-.16-4.19.01-8.22.64-12.4,1.73-4.17,1.1-8.48,2.66-13.1,4.46-9.22,3.6-19.66,8.17-32.64,11.25-8.65,2.05-18.43,3.42-29.68,3.41-3.61,0-7.38-.14-11.31-.44l9.85,19.04.04.09c.05.11.11.23.15.34l.1.23c.03.1.07.2.1.3.03.1.06.2.09.3l.05.24c.03.13.05.25.07.37l.02.1v.12c.02.13.03.25.04.37v.25c.01.11,0,.22,0,.32-.01.1-.01.2-.02.3,0,.09-.02.18-.03.26-.02.11-.04.22-.06.33l-.05.23c-.03.11-.05.23-.09.33l-.07.23c-.04.1-.07.21-.12.31l-.1.24c-.04.09-.09.18-.13.27l-.15.26-.14.23c-.06.09-.12.18-.18.27l-.15.19-.22.26-.16.18-.23.23-.21.18-.22.18-.27.19-.2.14c-.11.06-.22.13-.33.19l-.1.06-.09.04c-.11.05-.23.11-.34.15l-.23.1c-.1.03-.2.07-.3.1-.1.03-.2.06-.3.09l-.24.05c-.13.03-.25.05-.37.07l-.1.02c-4.81.64-9.66,2.29-14.45,4.8-4.78,2.5-9.47,5.85-13.89,9.78-8.85,7.86-16.58,18.05-22.03,28.05-2.05,3.75-3.76,7.47-5.11,11.01,1.28-1.15,2.69-2.39,4.22-3.69,7.08-6.02,16.47-13.25,26-18.16,6.36-3.26,12.79-5.54,18.86-5.56,3.61,0,7.13.86,10.17,2.91,2.55,1.71,4.69,4.22,6.34,7.5,8.47-2.05,15.34-2.99,20.92-3,3.95,0,7.26.47,10.05,1.4,2.78.93,5.04,2.34,6.7,4.17,1.11,1.22,1.95,2.62,2.52,4.1.77,1.97,1.09,4.1,1.09,6.28-.01,4.03-1.06,8.29-2.62,12.58-.69,1.89-1.5,3.77-2.36,5.64,4.01-1.68,7.57-2.44,10.74-2.44,2.45,0,4.66.46,6.56,1.3,1.91.84,3.5,2.06,4.75,3.48,2.49,2.87,3.62,6.51,3.63,9.98,0,1.05-.11,2.09-.32,3.1l31.46-13.48s.08-.02.12-.04c.08-.03.17-.05.25-.08.09-.02.17-.03.26-.05.04,0,.08-.02.13-.02h.37c.07,0,.15,0,.23.03.08.01.16.03.24.05.07.02.15.04.23.07.07.02.14.06.21.09.08.03.15.07.22.11.07.04.13.09.2.14.06.04.12.09.18.14.06.06.12.12.17.18.06.06.11.12.16.18s.09.13.13.19c.05.08.09.16.13.24.01.03.03.05.05.09.02.04.02.08.04.12.03.08.05.17.08.25.02.09.03.17.05.26,0,.04.02.08.02.13,1.28,14.42,5.93,28.61,12.18,41.34s14.1,24.01,21.66,32.6c2.2,2.51,4.38,4.77,6.49,6.8-1.82-5.54-3.08-11.41-3.99-17.31-1.46-9.48-2.03-19.04-2.45-27.38-.14-2.78-.26-5.42-.4-7.87-.14-2.46-.28-4.72-.47-6.73v-.39c.01-.07.02-.15.03-.23.01-.08.03-.16.05-.24.02-.08.04-.15.07-.23.03-.07.06-.14.09-.22.04-.07.07-.14.12-.21.04-.07.08-.13.13-.2.05-.06.1-.12.15-.18.05-.06.11-.12.17-.17.06-.06.13-.11.19-.16.06-.04.13-.09.2-.13.07-.04.15-.09.23-.13.04-.01.07-.03.1-.05.04-.01.08-.02.11-.03.08-.03.17-.06.25-.08.09-.02.17-.04.26-.05.04,0,.07-.02.11-.02h.39c.07,0,.15.02.23.03.08.01.16.03.24.05.08.02.15.04.23.07.07.03.14.06.22.09.07.04.14.07.21.12.07.04.13.08.2.13l.18.15c.06.05.12.11.17.17.06.06.11.13.16.19.04.06.09.13.13.2.04.07.09.15.13.23.01.04.03.07.05.1,2.24,5.41,5.57,10.85,9.53,16.41,3.96,5.56,8.55,11.23,13.27,17.12,9.45,11.8,19.45,24.49,26,39.22,4.36,9.81,7.17,20.56,7.17,32.45,0,.7-.02,1.42-.04,2.13,2.08-3.17,4.13-6.68,6.04-10.38,3.48-6.74,6.52-14.05,8.58-20.81,1.37-4.51,2.3-8.77,2.65-12.42,0-.02,0-.03.01-.05.01-.07.03-.15.05-.22.01-.08.02-.17.05-.25.02-.08.06-.15.1-.23.03-.07.05-.15.09-.22.04-.07.09-.14.14-.2.05-.07.09-.14.14-.2.05-.06.11-.11.17-.17.06-.05.11-.11.17-.16.06-.05.13-.09.2-.14.07-.04.13-.09.2-.13.07-.03.15-.06.22-.09.08-.03.15-.07.22-.09.08-.03.17-.04.25-.05.08-.02.16-.04.24-.05h.26c.07,0,.14-.01.22,0,.01,0,.01,0,.02,0h.03c.07.01.15.03.22.05.08,0,.17.02.25.05.08.02.15.06.22.09.08.04.16.06.23.1.07.04.13.09.2.14.07.05.14.09.2.14.06.05.11.11.17.17.05.06.11.11.16.17.05.06.09.13.14.2.04.06.09.13.13.2.03.07.06.15.09.22.03.08.07.15.09.22.02.08.04.17.05.25.02.08.04.15.05.24v.25c0,.08.01.15,0,.23,0,.01-.01.03-.01.04h0c-.92,8.03-1.46,17.24-1.46,26.77s.58,20,1.88,29.54c1.06,7.8,2.63,15.17,4.74,21.58-.1-1.66-.16-3.34-.16-5.05,0-7.12.82-14.61,2.37-21.76,1.56-7.15,3.86-13.95,6.86-19.71,2.01-3.84,4.33-7.22,7.02-9.92h.01c.09-.09.18-.16.28-.24.04-.02.07-.06.11-.08.05-.03.1-.05.14-.08.1-.05.2-.11.31-.15,0,0,0-.01.01-.01,6.36-2.48,12.02-3.65,17.08-3.65,3.89,0,7.42.7,10.54,2.02,3.12,1.32,5.82,3.25,8.08,5.63,4.53,4.76,7.33,11.22,8.87,18.41,1.03,4.8,1.5,9.94,1.5,15.2,0,7.7-1.01,15.64-2.79,23.08-1.78,7.43-4.33,14.36-7.5,20.03-1.26,2.25-2.61,4.29-4.07,6.11.09.05.17.11.26.17l.18.14c.09.07.17.15.26.22l.18.17.22.22.18.21.17.21.19.26.13.2c.06.1.12.2.18.3l.1.2c.05.1.11.21.15.31l.09.24c.04.1.08.2.12.3.03.1.05.2.08.31l.07.24c.03.14.05.28.07.42l.02.14v.03s.02.2.02.2c.13,1.06.18,2.13.18,3.23,0,2.55-.29,5.26-.76,8.02,2.9-3.28,5.49-6.75,7.8-10.35,6.05-9.42,10.08-19.67,12.31-29.27,1.49-6.4,2.19-12.51,2.18-17.82,0-2.97-.21-5.7-.6-8.06-.26-1.54-.59-2.91-.97-4.11-.31-.74-.59-1.51-.82-2.29l-.05-.16-.03-.1-.04-.18c-.03-.11-.05-.23-.07-.34l-.04-.25c-.02-.12-.03-.23-.04-.34-.01-.09-.01-.18-.01-.27-.01-.11-.01-.21-.01-.31.01-.1.01-.2.02-.3.01-.09.01-.18.02-.28.01-.1.03-.2.05-.31l.05-.25c.02-.11.05-.21.07-.31l.07-.25c.04-.1.07-.2.11-.3l.1-.25c.04-.09.08-.18.12-.26l.13-.26.14-.24.17-.26.15-.21.19-.25.18-.2.21-.23.21-.19.22-.19.25-.19.22-.15c.1-.07.19-.13.29-.18l.22-.13c.1-.05.21-.1.32-.15l.16-.08.08-.03c.09-.04.2-.07.3-.11.1-.03.19-.06.29-.09l.08-.03.18-.04c.11-.03.23-.05.34-.07l.25-.04c.12-.02.23-.03.34-.04.09,0,.18,0,.27,0,.11-.01.21-.01.31-.01.1.01.2.01.3.02.09.01.18.01.28.02.1.01.2.03.31.05l.25.05c.11.02.21.05.31.07l.25.07c.1.04.2.07.3.11l.25.1c.09.04.18.08.26.12l.26.13.24.14.26.17.21.15.25.19.2.18.23.21.19.21.19.22.19.25.16.22c.06.1.12.19.17.29l.13.22c.05.1.1.21.15.32l.08.16.04.1.06.15c.25.63.5,1.28.72,1.94.27.55.62,1.15,1.05,1.78.86,1.26,2.04,2.63,3.45,3.94,2.8,2.63,6.5,5.01,10.11,6.38,1.28.5,2.54.85,3.74,1.09-.93-1.35-1.8-2.72-2.6-4.12ZM323.81,185.92c-9.42,10.29-18.82,21.93-25.68,33.7-.7,1.19-2.23,1.6-3.42.9s-1.6-2.23-.9-3.42c7.14-12.23,16.74-24.09,26.32-34.55,4.78-5.23,9.56-10.11,14.03-14.49,4.46-4.38,8.6-8.27,12.11-11.53,1.01-.94,2.59-.88,3.53.13s.88,2.59-.13,3.53c-6.98,6.48-16.43,15.44-25.86,25.73ZM391.03,153.78c-5.65,8.21-14.22,17.77-23.39,27.2-4.59,4.71-9.33,9.38-13.92,13.82-4.59,4.43-9.03,8.62-13.04,12.38-1.01.95-2.59.9-3.53-.11-.95-1.01-.9-2.59.11-3.53,7.99-7.49,17.72-16.72,26.79-26.05,9.08-9.32,17.51-18.77,22.86-26.55.78-1.13,2.34-1.42,3.48-.64,1.13.78,1.42,2.34.64,3.48Z"/>
  <rect class="cls-13" x="456.47" y="377.86" width="31" height="31" rx="15.5" ry="15.5"/>
  <rect class="cls-14" x="243.47" y="393.86" width="57" height="57" rx="28.5" ry="28.5"/>
  <g>
    <path class="cls-10" d="M234.8,433.59c.01,4.81-.87,9.19-2.55,12.21-.85,1.51-1.87,2.69-3.07,3.53-1.16.8-2.51,1.32-4.2,1.51-2.5-.28-4.64-1.11-6.52-2.39-2.91-1.99-5.21-5.12-6.78-8.98-1.57-3.85-2.39-8.4-2.39-13,0-3.79.56-7.62,1.65-11.13,1.9,3.3,5.45,5.52,9.53,5.52,4.61,0,8.55-2.84,10.19-6.87.75,1.69,1.42,3.51,1.99,5.4,1.37,4.57,2.15,9.58,2.15,14.2Z"/>
    <path class="cls-10" d="M372.36,416.47c0,4.97-1.34,9.71-4.2,13.63-2.84,3.88-7.19,7.02-13.61,8.78-.85.06-1.67.1-2.46.1-4.07-.01-7.44-.78-10.23-2.09-4.19-1.96-7.17-5.15-9.18-9.11-2.01-3.96-2.99-8.71-2.98-13.54-.01-6.35,1.7-12.81,4.67-17.69,1.37-2.26,3.01-4.16,4.83-5.61-.46,1.22-.73,2.54-.73,3.92,0,6.08,4.92,11,11,11s11-4.92,11-11c0-.93-.13-1.82-.34-2.69,3.25,2.33,6.01,5.46,8.07,9.05,2.67,4.66,4.16,10.06,4.16,15.25Z"/>
    <g>
      <path class="cls-5" d="M226.47,409.86c0,1.66-.67,3.15-1.76,4.24s-2.58,1.76-4.24,1.76-3.15-.67-4.24-1.76-1.76-2.58-1.76-4.24.67-3.15,1.76-4.24c1.09-1.09,2.58-1.76,4.24-1.76s3.15.67,4.24,1.76c1.09,1.09,1.76,2.58,1.76,4.24Z"/>
      <path class="cls-5" d="M355.47,394.86c0,1.66-.67,3.15-1.76,4.24s-2.58,1.76-4.24,1.76-3.15-.67-4.24-1.76-1.76-2.58-1.76-4.24.67-3.15,1.76-4.24c1.09-1.09,2.58-1.76,4.24-1.76s3.15.67,4.24,1.76c1.09,1.09,1.76,2.58,1.76,4.24Z"/>
    </g>
  </g>
  <g>
    <g>
      <path class="cls-16" d="M259.14,228.09c-12.65,4.48-23.57,11.97-32.8,21.13-13.85,13.75-23.97,31.24-30.7,48.45-3.37,8.61-5.88,17.16-7.57,25.17-1.39,6.6-1.55,12.84-1.58,18.47-.01,1.96,1.57,3.55,3.53,3.56h0c1.91,0,3.45-1.5,3.55-3.4.37-7.15,1.74-15.68,4.18-24.72,4.25-15.79,11.74-33.17,22.45-48.01,5.35-7.42,11.5-14.2,18.44-19.87,6.07-4.96,12.55-10.05,19.83-13.02,1.75-.72,2.82-1.7,2.18-3.48l-1.52-4.29h0Z"/>
      <path class="cls-16" d="M223.43,196c-13.13,3.55-26.04,11.71-38.18,22.5-18.19,16.21-34.65,38.47-46.69,60.96-6.01,11.25-10.91,22.56-14.33,33.25-3.41,10.69-5.36,20.74-5.36,29.6,0,2.87.21,5.62.65,8.23l7.59,2.22c.17.05.32-.09.3-.26-.33-2.35-.54-7.84-.54-10.19,0-5.11.77-10.98,2.25-17.32,2.59-11.1,7.34-23.64,13.68-36.31,9.51-19.01,22.6-38.33,37.16-53.83,7.28-7.75,14.92-14.55,22.62-19.89,7.7-5.35,15.46-9.22,22.93-11.23l-2.08-7.72h0Z"/>
    </g>
    <path class="cls-4" d="M210.44,224.49c0-.1-.03-.19-.05-.29-.03-.09-.05-.18-.08-.27-.03-.11-.07-.2-.12-.3-.02-.06-.04-.11-.07-.17-.01-.02-.03-.04-.04-.07-.06-.09-.12-.18-.18-.27-.06-.08-.11-.15-.17-.22s-.13-.14-.2-.2c-.08-.08-.16-.15-.24-.22-.03-.02-.04-.04-.07-.06-.05-.03-.1-.05-.15-.08-.09-.06-.19-.12-.28-.17-.09-.04-.18-.07-.27-.11-.09-.03-.18-.06-.27-.09-.1-.02-.19-.04-.29-.06-.09-.01-.19-.03-.28-.03-.1,0-.19,0-.29,0s-.19,0-.29.02-.19.03-.29.05c-.09.03-.18.05-.27.08-.11.03-.2.07-.3.12-.06.02-.11.04-.17.07-4.93,2.59-9.71,5.76-14.3,9.4-4.59,3.65-8.99,7.77-13.17,12.27-12.54,13.53-23.1,30.54-30.65,48.78-7.54,18.23-12.09,37.68-12.48,56.12,0,.2.01.41.05.6.01.1.05.19.07.28.03.09.05.19.08.28.04.1.09.18.14.28.04.08.08.16.13.24.05.08.11.15.16.22.07.08.12.17.19.24s.15.13.22.2c.08.06.14.13.22.18.32.23.68.4,1.08.49.4.09.8.09,1.18.02.1-.01.19-.05.28-.07.09-.03.19-.05.28-.08.1-.04.19-.09.28-.14.08-.04.16-.08.24-.13.08-.05.15-.11.22-.17.08-.06.17-.11.24-.18s.13-.15.2-.23c.06-.07.13-.13.18-.21.12-.16.22-.34.3-.52l23.95-53.21,2.15,6c.45,1.25,1.64,2,2.9,1.98,1.17.1,2.35-.5,2.93-1.61l16-31h0c.09-.18.16-.36.21-.55.03-.1.04-.19.06-.28.01-.1.04-.2.05-.3.01-.1,0-.19,0-.29s0-.19-.01-.29-.04-.2-.06-.3c-.02-.09-.03-.18-.06-.27-.06-.19-.14-.37-.23-.54h0s-.01-.02-.02-.03c-.09-.16-.2-.32-.32-.46-.06-.08-.14-.14-.21-.21s-.13-.14-.21-.2c-.14-.12-.3-.22-.47-.31-.01,0-.01-.01-.02-.02h-.01c-.17-.09-.35-.16-.54-.21-.1-.03-.19-.04-.28-.06-.1-.01-.2-.04-.3-.05-.1-.01-.19,0-.29,0s-.19,0-.29,0c-.1.01-.2.04-.3.06-.09.02-.18.03-.27.06-.19.06-.37.14-.54.23h-.01l-8.36,4.6,33.25-46.22s.05-.1.08-.15c.06-.09.12-.19.17-.28.04-.09.07-.18.11-.27.03-.09.06-.18.09-.27.02-.1.04-.19.06-.29.01-.09.03-.19.03-.28.01-.1.01-.19.01-.29s-.01-.19-.02-.29Z"/>
    <path class="cls-17" d="M190.47,240.86c-17.5,13.5-37.5,49.5-42,68"/>
    <path class="cls-18" d="M133.88,368.54c2.18,21.99,22.12,58.03,35.42,71.65"/>
    <path class="cls-17" d="M182.97,274.36c-7.5,8.5-10,16-12,25"/>
    <path class="cls-18" d="M230.97,262.36c-5,5-14,18-21,35"/>
    <path class="cls-18" d="M138.16,246.76c-8.96,6.95-12.81,13.85-16.46,22.32"/>
  </g>
  <g>
    <path class="cls-11" d="M320.47,252.06c-.56-.04-1.15-.08-1.79-.07-3.34-.01-7.97.66-13.57,2.96-1.04-.85-2.63-2.01-4.75-3.19-2.4-1.33-5.47-2.68-9.12-3.5l26.36-11.3c.62,5.1,1.62,10.14,2.88,15.09Z"/>
    <g>
      <path class="cls-11" d="M373.25,145.11s0-.01-.01-.01c-.04-.04-.08-.07-.13-.09l-8.8-3.52c.07-.16,0-.35-.14-.45,0,0-1.69-1.04-4.38-2.61-2.7-1.57-6.4-3.66-10.45-5.75-4.06-2.09-8.46-4.18-12.55-5.75-4.09-1.57-7.86-2.63-10.72-2.64-.99.01-1.87.13-2.63.43-.73.29-1.34.76-1.76,1.4,0,0,0,0-.01,0,0,.01-.01.02-.02.03-.01.02-.01.03-.02.05,0,.02-.02.03-.02.05,0,.01,0,.02-.01.03v.02c-.16.57-.23,1.2-.23,1.9,0,2.14.65,4.83,1.62,7.69,2.69,7.97,7.86,17.24,8.57,18.5-4.5,13.9-13.94,30.07-22.28,42.75-4.18,6.37-8.08,11.87-10.94,15.77-1.43,1.95-2.6,3.5-3.4,4.57-.81,1.06-1.26,1.64-1.27,1.64-.04.06-.06.13-.07.2v.03c0,.09.03.17.09.24,0,0,0,.01.01.02h.01s.02.03.03.04c.06.04.13.06.2.07h.03c.09,0,.17-.03.24-.09,0,0,.01,0,.02-.01l79-74s.07-.08.09-.13c.01-.04.02-.08.02-.12h0c0-.11-.03-.2-.09-.27Z"/>
      <path class="cls-11" d="M519.14,401.35h.2c-.33-11-.66-22-1-33h-.47c.02-.34.05-.68.05-1.06-.01-6.07-2.88-15.97-8.4-24.42-2.77-4.23-6.2-8.08-10.28-10.89-4.08-2.8-8.81-4.56-14.15-4.56-7.5,0-16.16,3.46-25.87,12.16l.5.56c.15-.14.3-.26.46-.4l29.64.99c3.86,3.43,6.83,9.58,8.8,14.89.99,2.67,1.74,5.13,2.24,6.92.25.89.43,1.62.56,2.12.1.42.16.67.18.75l.99,28.88-10.96,24.92.34.15-.37-.06-4,25,.37.06-.07.37,11,2,.07-.37.34.16,19.8-43.55.02.06.68-.34-.67-1.34Z"/>
    </g>
    <g>
      <path class="cls-7" d="M494.44,242c-.01-.11-.03-.22-.05-.33-.02-.12-.06-.24-.09-.35-.02-.06-.03-.13-.05-.19-2.98-7.93-7.62-16.31-13.15-24.5-8.29-12.28-18.57-24.1-28.34-32.97-4.88-4.43-9.64-8.13-14.04-10.79-2.2-1.33-4.32-2.41-6.37-3.17s-4.04-1.23-6.04-1.24c-1.14,0-2.29.17-3.4.57-.01,0-.03,0-.05.01-.01,0-.02.01-.04.02-.03,0-.07.02-.11.03-.08.04-.16.09-.24.13-.11.05-.22.1-.32.16-.1.06-.19.13-.28.2s-.18.13-.27.21c-.08.08-.16.16-.23.25-.08.08-.15.16-.22.25-.06.09-.12.19-.18.29-.05.1-.11.19-.16.29-.05.1-.08.21-.12.31-.04.11-.08.21-.11.32-.02.11-.04.22-.06.33-.01.11-.03.22-.04.34-.01.11,0,.23.01.35,0,.11,0,.22.02.33.02.12.05.24.08.36.02.08.03.17.06.26.01.03.2.62.49,1.63.29,1.02.66,2.46,1.03,4.19.74,3.47,1.47,8.1,1.47,12.77,0,4.09-.57,8.18-2,11.51-.53,1.24-1.18,2.38-1.95,3.4-1.56-1.02-3.09-1.97-4.55-2.81-3.35-1.9-6.36-3.32-9.06-4.12h-.01s-.09-.03-.14-.05c-.07-.02-.15-.02-.23-.04-.12-.02-.25-.05-.37-.06-.12-.02-.22-.01-.33-.02-.12,0-.24,0-.35,0-.12.01-.23.04-.35.06-.11.02-.21.04-.32.07-.12.04-.24.09-.36.14-.07.03-.14.04-.22.08-.02.01-.04.03-.06.04-.11.06-.22.13-.33.21-.08.05-.17.11-.25.17-.09.07-.17.16-.25.24-.08.08-.16.15-.23.24-.07.08-.13.18-.19.27-.06.09-.14.19-.19.29-.05.09-.08.18-.12.28-.06.12-.11.24-.15.36,0,.02-.02.04-.03.07-.02.07-.02.15-.04.23-.02.12-.05.25-.06.37-.02.12-.01.22-.02.33,0,.12,0,.24.01.35.01.12.04.23.06.35.02.11.04.21.07.32.04.12.09.24.14.36.02.06.04.13.07.19.02.03.34.74.67,1.97.32,1.23.64,2.99.64,5.13-.01,3.31-.74,7.55-3.46,12.41-2.72,4.87-7.47,10.39-15.7,16.07-.06.04-.11.09-.16.14-.1.08-.2.16-.29.25-.08.08-.15.16-.23.24-.07.09-.14.18-.2.27-.07.1-.13.19-.18.3-.06.09-.11.19-.15.29-.05.1-.08.21-.12.31-.03.11-.07.22-.09.33-.02.12-.04.23-.05.34,0,.11-.03.22-.03.33,0,.13.01.26.02.38,0,.08,0,.15,0,.22,0,.03.02.06.02.08.02.13.06.25.1.38.03.1.05.2.09.3.04.1.09.2.14.29.06.12.12.23.19.34.01.02.02.05.04.08.04.06.09.11.14.16.08.1.16.2.25.29.08.08.16.15.24.23.09.07.18.14.27.2.1.07.19.13.3.18.09.06.19.11.29.15.1.05.21.08.31.12.11.03.22.07.34.09.11.02.22.04.33.05.11.01.22.03.33.03.13,0,.25-.01.38-.02.07,0,.15,0,.22-.01,5.03-.75,9.96-1.08,14.72-1.08,15.86-.01,29.92,3.66,39.98,7.35,5.03,1.83,9.06,3.67,11.81,5.04,1.38.69,2.43,1.25,3.14,1.64.35.2.61.35.78.45l.19.11.04.02h.01c.06.04.13.06.2.1.11.06.22.12.34.16.1.04.21.07.31.1.11.03.23.07.34.09.12.02.23.03.35.04.11,0,.21.01.33.01s.25-.02.37-.03c.08,0,.15,0,.22-.02.03-.01.06-.02.09-.03.12-.02.24-.06.36-.11.1-.03.21-.06.3-.1.11-.04.2-.1.31-.16.09-.06.19-.11.28-.17.09-.06.18-.14.26-.21.09-.08.18-.15.26-.23.07-.07.13-.16.2-.24.08-.1.16-.2.23-.31.02-.02.04-.04.05-.07.04-.06.06-.13.1-.2.06-.11.12-.22.16-.34.04-.1.07-.21.1-.31.03-.11.07-.23.09-.34.02-.12.03-.23.04-.35,0-.11.01-.21.01-.33s-.02-.25-.03-.37c-.01-.08-.01-.15-.02-.22-.01-.05-.03-.1-.04-.15,0-.02,0-.04-.01-.06-.59-2.96-1.68-5.92-3.15-8.88-1.94-3.91-4.54-7.83-7.54-11.67.04-.74.17-1.29.32-1.67.15-.36.3-.59.48-.78.26-.28.62-.52,1.24-.73.62-.21,1.5-.34,2.58-.34,1.24,0,2.73.17,4.36.51,2.85.58,6.11,1.64,9.35,2.92,4.87,1.91,9.69,4.3,13.27,6.2,1.79.95,3.28,1.78,4.31,2.37.51.3.91.53,1.18.69.14.08.24.14.31.18l.07.04.02.02c.06.03.12.05.17.08.11.06.22.11.34.16.1.04.21.07.31.1.11.04.22.06.33.09.12.02.23.03.34.04.11.01.22.02.34.02.11,0,.22-.01.34-.02.11-.01.22-.03.33-.05.12-.02.24-.06.35-.09.06-.02.13-.03.19-.05.04-.02.07-.04.11-.06.12-.05.23-.1.34-.16.09-.06.19-.11.28-.17.09-.06.18-.13.27-.21.09-.07.18-.15.26-.23.07-.07.14-.16.2-.24.09-.1.16-.2.23-.3.02-.04.05-.07.08-.1.03-.06.05-.12.08-.17.06-.11.11-.22.16-.34.04-.1.07-.21.1-.31.04-.11.07-.22.09-.33.02-.12.03-.23.04-.34.01-.11.02-.22.02-.34,0-.11-.01-.22-.02-.34Z"/>
      <path class="cls-7" d="M350.44,286.54c0-.07-.03-.13-.05-.19-.01-.07-.03-.13-.05-.19s-.05-.11-.08-.17c-.03-.06-.06-.13-.1-.19-.01-.02-.02-.04-.04-.07-3.73-5.47-6.57-9.98-8.8-13.92-2.23-3.93-3.85-7.29-5.12-10.45-2.55-6.3-3.78-11.93-5.78-19.96h-.01v-.03l-.03-.09c-.03-.09-.06-.18-.1-.27l-.09-.16-.11-.17-.13-.15-.13-.14-.14-.11-.16-.12-.18-.09-.17-.08-.27-.07-.1-.03h-.01c-.09-.02-.19-.02-.29-.02h-.11s-.09,0-.09,0c-.1,0-.21.02-.31.05h-.01l-.09.03c-.09.03-.18.06-.27.1l-.16.09-.17.11-.15.13-.14.13-.11.14-.12.16-.09.18-.08.17-.07.27-.03.1v.02s-3,17.97-3,17.97h0s-.01.09-.01.09c-.01.11-.02.21-.02.31l.03.2.02.19c.03.1.06.2.1.3l.03.07h0s9,20,9,20c.01.03.03.05.04.07.03.07.07.13.11.19.03.05.06.1.1.15s.09.1.13.15c.05.05.1.09.15.14.04.04.09.07.14.11.06.04.12.08.18.11.03.02.05.04.08.05l14,7s.05.02.07.03c.07.03.13.05.2.07.06.02.12.04.18.06.06,0,.12.02.19.03.06,0,.13.01.19.01.07.01.13,0,.19,0,.07-.01.13-.01.19-.02.07-.01.13-.03.19-.05.07-.01.13-.03.19-.05s.11-.05.17-.08c.06-.03.13-.06.19-.1.02-.01.04-.02.07-.04.02-.02.05-.04.07-.06.06-.05.12-.09.17-.14.05-.04.09-.09.13-.14s.08-.1.12-.15c.04-.06.08-.12.12-.18.01-.03.03-.06.05-.09.01-.02.02-.05.03-.07.03-.07.05-.13.07-.2.02-.06.04-.12.06-.18.01-.06.02-.12.03-.19,0-.06.01-.13.01-.19.01-.07,0-.13,0-.19-.01-.07-.01-.13-.02-.19Z"/>
      <path class="cls-7" d="M312.86,117.3s-.02-.04-.03-.06c-.08-.16-.18-.31-.3-.43-.01-.01-.01-.02-.02-.03,0-.01-.02-.01-.03-.02-.13-.12-.27-.21-.44-.28-.02-.01-.04-.02-.06-.03-.16-.05-.33-.08-.5-.08h-.21l-18.5,2.5s-.02,0-.02,0c-.06.01-.12.02-.17.04-.04.01-.09.02-.12.03-.05.02-.09.04-.14.06-.04.03-.09.04-.13.07-.04.02-.07.05-.11.08-.04.03-.08.06-.12.09-.03.03-.06.07-.1.11-.03.03-.06.07-.09.1-.03.04-.05.08-.07.11-.03.05-.06.1-.08.15-.01.01-.01.02-.02.02l-14,31s-.01.04-.01.05c-.01.03-.02.05-.03.07-.06.17-.09.34-.09.51,0,0,.01.03.01.04,0,.18.04.35.1.52.01,0,.02.03.03.04.07.17.17.32.3.45.01,0,.01.01.02.02,0,.01.02.01.03.02.11.1.24.2.39.27.02,0,.04.01.05.01.03.01.05.02.07.03.17.06.34.09.51.09.01,0,.03-.01.04-.01.18,0,.35-.04.52-.1.01-.01.03-.02.04-.03.17-.07.32-.17.45-.3,0-.01.01-.01.02-.02l32.5-33.5s.01-.02.02-.03c.12-.13.21-.27.28-.44.01-.02.02-.04.03-.06.05-.16.08-.33.08-.5v-.21c-.02-.13-.06-.24-.1-.36Z"/>
      <path class="cls-7" d="M217.91,157.43c-.06-.19-.15-.36-.28-.52-.53-.64-1.47-.73-2.11-.21-.39.32-.76.64-1.14.96-11.11,1.34-20.54,5.53-28.4,11.14-12.83,9.18-21.53,22.08-27.06,32.67-3.7,7.09-5.97,13.15-7.07,16.41l-1.16.7c-.71.43-.93,1.35-.5,2.06.2.33.5.55.85.65.14.47.51.87,1.02,1.01.8.23,1.63-.24,1.85-1.03v-.04c.05-.12.19-.6.43-1.36l30.91-18.73s0-.01.02-.02c.05-.03.1-.06.14-.1.03-.03.07-.05.1-.08.03-.04.07-.08.1-.11.03-.04.06-.08.09-.12.03-.03.05-.07.07-.11.02-.05.05-.1.07-.15.01-.01.02-.02.02-.03l.02-.05c.51-1.24,9.52-22.44,29.75-39.84.64-.07,1.29-.13,1.95-.17.82-.06,1.45-.78,1.39-1.61-.05-.63-.49-1.15-1.06-1.32Z"/>
    </g>
  </g>
  <g>
    <path class="cls-12" d="M282.11,252.59c-18.15,10.61-32.89,24.54-43.1,40.91-9.08,14.57-14.57,31.07-15.7,48.99-.4-1.09-1.52-1.78-2.71-1.6-.75.11-1.49.23-2.22.35,1.3-18.39,7.05-35.4,16.39-50.38,10.68-17.14,26.05-31.61,44.83-42.59-1,.66-1.41,1.95-.93,3.07.55,1.27,2.02,1.86,3.28,1.32l.16-.07Z"/>
    <path class="cls-12" d="M287.35,241.94c0,1.05-.11,2.09-.32,3.1l-7.04,3.02c-.12.05-.23.11-.34.18.08-.06.16-.12.24-.19.08-.06.16-.13.24-.19.21-.2.41-.41.6-.65.16-.19.3-.41.45-.64.14-.24.28-.5.4-.78.49-1.1.77-2.44.77-3.85,0-1.79-.45-3.65-1.35-5.22-.91-1.57-2.21-2.85-4.05-3.66-1.22-.54-2.71-.88-4.54-.88-3.64-.01-8.69,1.39-15.14,5.32-.03,0-.05.02-.08.03-.08.05-.16.08-.24.12-.07.03-.14.06-.22.08-.07.03-.15.04-.23.06-.08.02-.16.04-.24.05-.08.01-.16.01-.24.01h-.24c-.08-.01-.16-.02-.24-.04-.08-.01-.15-.02-.23-.05-.08-.02-.15-.04-.22-.07-.08-.03-.17-.07-.25-.11-.02-.01-.05-.02-.07-.03-.05-.02-.08-.05-.12-.08-.08-.05-.15-.1-.22-.15-.07-.05-.13-.11-.18-.16-.06-.06-.12-.11-.17-.17-.06-.07-.11-.15-.16-.22-.03-.04-.06-.07-.09-.11-.01-.03-.02-.05-.03-.08-.05-.08-.08-.16-.12-.24-.03-.07-.06-.14-.08-.21-.03-.08-.05-.16-.06-.24-.02-.08-.04-.16-.05-.24s-.01-.16-.01-.24v-.24c.01-.08.02-.16.04-.24.01-.08.02-.15.05-.23.02-.08.04-.15.07-.22.03-.08.07-.17.11-.25,0-.02.02-.05.03-.07,2.12-3.86,4.11-7.96,5.55-11.9,1.45-3.94,2.33-7.73,2.32-10.86,0-1.92-.32-3.57-.94-4.94-.64-1.37-1.56-2.5-3-3.46-.96-.64-2.17-1.2-3.69-1.63-2.02-.58-4.58-.92-7.73-.92-5.41,0-12.56,1-21.7,3.33-.03.01-.05.01-.08.01-.08.02-.17.03-.26.04-.08.01-.16.02-.23.02-.09.01-.17,0-.25-.01s-.16-.01-.24-.02c-.08-.02-.15-.04-.23-.06-.08-.02-.16-.04-.23-.07-.08-.03-.15-.07-.22-.11-.07-.03-.14-.07-.21-.11s-.13-.09-.19-.14c-.07-.05-.13-.1-.19-.15-.06-.05-.11-.12-.16-.18-.05-.06-.11-.12-.16-.19-.04-.06-.08-.13-.12-.2-.05-.07-.09-.15-.13-.23,0-.03-.02-.04-.03-.07-1.47-3.56-3.33-5.8-5.42-7.21-2.1-1.41-4.53-2.05-7.38-2.06-4.62-.01-10.25,1.81-16.01,4.72-5.77,2.91-11.68,6.86-17.01,10.89-10.68,8.07-19.07,16.43-20,17.37l-.09.09c-.14.14-.29.26-.45.36.07-.05.14-.11.2-.17l.17-.17.24-.23.19-.23.17-.22c.07-.09.13-.18.2-.28l.13-.19c.06-.1.11-.21.17-.31l.1-.21c.05-.09.09-.19.13-.29l.11-.26.08-.26c.03-.1.07-.21.09-.32l.02-.07c.59-2.44,1.43-5.07,2.48-7.81,1.28-1.15,2.69-2.39,4.22-3.69,7.08-6.02,16.47-13.25,26-18.16,6.36-3.26,12.79-5.54,18.86-5.56,3.61,0,7.13.86,10.17,2.91,2.55,1.71,4.69,4.22,6.34,7.5,8.47-2.05,15.34-2.99,20.92-3,3.95,0,7.26.47,10.05,1.4,2.78.93,5.04,2.34,6.7,4.17,1.11,1.22,1.95,2.62,2.52,4.1.77,1.97,1.09,4.1,1.09,6.28-.01,4.03-1.06,8.29-2.62,12.58-.69,1.89-1.5,3.77-2.36,5.64,4.01-1.68,7.57-2.44,10.74-2.44,2.45,0,4.66.46,6.56,1.3,1.91.84,3.5,2.06,4.75,3.48,2.49,2.87,3.62,6.51,3.63,9.98Z"/>
    <path class="cls-12" d="M210.46,470.39c0,.06.01.11,0,.16,0,.02-.01.04-.01.07-.01.09-.03.18-.05.27-.01.07-.03.14-.05.21-.02.08-.06.16-.09.23-.03.08-.06.15-.1.23-.03.06-.08.12-.12.18-.05.08-.1.15-.16.22,0,.02-.02.04-.04.06-.03.04-.08.07-.11.11-.07.06-.13.12-.2.18-.06.05-.13.09-.2.13-.06.05-.13.09-.2.13-.08.04-.15.07-.23.1-.07.03-.15.06-.22.08-.08.02-.16.04-.24.06-.08,0-.16.03-.24.03-.09.01-.17.01-.26.01-.06,0-.11.01-.16,0-5.81-.44-10.55-1.29-14.53-2.39-2.09-2.28-4.08-4.65-5.93-7.14l-.02-.02v-.02s-.06-.05-.06-.05c-.1-.14-.21-.27-.33-.4l-.21-.21c1.82.92,3.89,1.8,6.36,2.57,2.3.72,4.96,1.35,8.06,1.85-7.5-8.38-12.79-18.66-16.35-29.75-4.32-13.5-6.09-28.24-6.09-42.45,0-10.92,1.05-21.53,2.82-31.04.52-2.81,1.12-5.52,1.76-8.11,1.77-.7,3.68-1.41,5.72-2.11-.97,3.45-1.83,7.19-2.57,11.13-1.55,8.33-2.52,17.59-2.69,27.13v.02c-2.5,4.45-3.32,9.04-3.32,12.86,0,1.56.13,3,.35,4.27.23,1.27.53,2.37.9,3.3.01.02.02.04.03.06.04.08.08.16.13.24.03.07.07.13.11.2l.15.18c.06.06.11.13.17.18.05.06.12.11.18.16.06.05.12.1.19.14.07.05.14.08.21.12.07.04.14.07.22.11.07.02.14.04.21.06.09.03.18.06.27.07.02,0,.04.02.06.02.05.01.1,0,.15.01.1.01.19.01.28.01.08,0,.16-.01.24-.02.08,0,.16-.01.24-.03.09-.02.18-.05.26-.08.03-.01.05-.01.08-.02.93,7.57,2.45,15.03,4.71,22.07,2.06,6.44,4.71,12.53,8.04,18.05,3.32,5.52,7.31,10.48,12.05,14.67.04.03.07.08.1.11.07.07.13.13.19.2.05.06.09.13.13.2.05.06.09.13.13.2.04.08.07.15.1.23.03.07.06.15.08.22.02.08.04.16.06.24.01.08.03.16.03.24.01.09.01.18.01.26Z"/>
    <path class="cls-12" d="M229.46,388.2v.24c0,.08-.01.16-.02.24,0,.08-.02.16-.04.24s-.04.16-.07.24c-.02.07-.05.14-.08.21-.04.08-.08.16-.12.24-.02.03-.04.07-.06.1-.02.03-.04.06-.07.09-.05.07-.1.14-.16.21-.05.06-.11.11-.16.17-.06.05-.13.1-.19.16-.07.05-.13.09-.2.14-.07.04-.14.07-.21.11-.08.04-.16.07-.24.1-.04.02-.07.04-.1.05-.04.01-.08.01-.12.02-.08.03-.17.05-.25.06l-.24.03h-.24c-.08,0-.16-.01-.24-.02s-.16-.02-.24-.04-.16-.04-.24-.07c-.07-.02-.14-.05-.21-.08-.08-.04-.16-.08-.24-.12-.03-.02-.07-.04-.1-.06-5.5-3.53-11.43-8.72-16.99-14.81-5.55-6.1-10.7-13.1-14.52-20.29-.53-.99-1.03-1.99-1.5-2.98,1.55-.49,3.17-.98,4.85-1.46.34.7.69,1.4,1.06,2.09,2.39,4.49,5.37,8.97,8.67,13.18,4.75,6.08,10.17,11.6,15.33,15.81-2.98-11.2-4.43-22.11-4.43-32.63,0-1.01.02-2.02.05-3.03,1.05-.17,2.12-.34,3.2-.51.84-.12,1.52-.66,1.87-1.37-.07,1.63-.12,3.26-.12,4.91,0,6.09.5,12.34,1.53,18.72,1.03,6.37,2.6,12.88,4.73,19.5.01.04.01.08.02.12.03.08.05.17.06.25,0,.08.02.16.03.24Z"/>
    <path class="cls-12" d="M193.41,339.82c-.01-.05-.04-.1-.05-.16-.03-.09-.05-.17-.08-.26-.03-.07-.07-.14-.11-.21-.04-.07-.08-.14-.12-.21-.05-.07-.1-.13-.15-.19-.05-.06-.1-.13-.16-.18-.06-.06-.12-.11-.18-.16-.06-.05-.12-.1-.19-.15-.07-.05-.15-.09-.23-.13-.05-.03-.09-.06-.14-.08-.02,0-.04-.01-.05-.02-.09-.04-.18-.06-.27-.09-.07-.02-.14-.05-.21-.06-.08-.02-.16-.02-.24-.03-.08,0-.16-.02-.25-.02-.07,0-.14.01-.22.02-.09,0-.19.01-.28.03-.02,0-.04,0-.05,0-.05.01-.1.04-.15.05-.09.03-.17.05-.26.09-.07.03-.14.07-.21.11-.07.04-.14.08-.21.12-.07.05-.13.1-.19.15-.06.05-.13.1-.18.16-.06.06-.11.12-.16.18-.05.06-.1.12-.15.19-.05.08-.09.15-.14.23-.03.05-.06.09-.08.14-1.38,3.08-2.65,6.57-3.8,10.39,3.17-1.16,6.68-2.31,10.53-3.42-.86-2.21-1.54-4.38-2.01-6.49Z"/>
    <path class="cls-12" d="M178.67,225.84c-.97-.98-2.55-1-3.54-.03h0c-13.81,13.6-24.27,28.35-31.97,42.13-7.7,13.79-12.65,26.59-15.42,36.38-.38,1.33.39,2.71,1.72,3.09,1.33.38,2.71-.39,3.09-1.72,2.66-9.39,7.48-21.88,14.98-35.3,7.5-13.43,17.7-27.8,31.11-41.01.98-.97,1-2.55.03-3.54Z"/>
    <path class="cls-12" d="M192.68,319.85c1.37.16,2.61-.82,2.78-2.19.45-3.9,1.98-9.23,4.22-15.09,3.37-8.8,8.35-18.86,13.64-27.73,2.64-4.44,5.36-8.58,7.99-12.13,2.62-3.54,5.16-6.49,7.36-8.5,1.02-.93,1.09-2.51.15-3.53-.93-1.02-2.51-1.09-3.53-.15h0c-3.41,3.13-7.06,7.69-10.76,13.1-5.53,8.11-11.11,18.1-15.53,27.73-2.21,4.81-4.13,9.54-5.6,13.9-1.47,4.37-2.5,8.37-2.91,11.82-.16,1.37.82,2.61,2.19,2.78Z"/>
    <path class="cls-15" d="M371.45,329.65c-.16,1.37-1.4,2.35-2.77,2.19,0,0-.07-.01-.23-.02-.15-.02-.37-.05-.67-.08-.58-.06-1.45-.15-2.55-.26-2.19-.23-5.31-.52-9.02-.82-7.41-.59-17.16-1.18-26.46-1.18-4.98,0-9.82.17-14.09.59-4.26.42-7.94,1.11-10.49,2.04-1.7.61-2.84,1.35-3.34,1.92-.93,1.03-2.51,1.11-3.53.19-1.03-.93-1.11-2.51-.19-3.53,1.38-1.51,3.21-2.49,5.35-3.28,2.14-.78,4.63-1.34,7.39-1.77,5.51-.86,12.11-1.16,18.9-1.16,19,0,39.46,2.39,39.51,2.4,1.37.16,2.35,1.4,2.19,2.77Z"/>
    <path class="cls-1" d="M223.21,344.46c-.35.71-1.03,1.25-1.87,1.37-1.08.17-2.15.34-3.2.51-7.79,1.29-14.66,2.88-20.68,4.58-1.68.48-3.3.97-4.85,1.46-1.25.39-2.47.79-3.63,1.2-2.04.7-3.95,1.41-5.72,2.11-6.29,2.47-10.94,4.85-14.04,6.63-3.09,1.78-4.63,2.95-4.72,3.01-1.08.85-2.66.65-3.5-.44-.85-1.08-.65-2.66.44-3.5.17-.14,7.67-5.92,23.45-11.67,3.17-1.15,6.68-2.31,10.53-3.41,6.62-1.91,14.26-3.67,22.96-5.07.73-.12,1.47-.24,2.22-.35,1.19-.18,2.31.51,2.71,1.6.06.16.11.33.13.5.08.52,0,1.03-.23,1.47Z"/>
    <path class="cls-1" d="M481.47,372.35c0,1.21-.87,2.27-2.09,2.48h-.08c-.06.02-.16.04-.3.07-.26.05-.66.13-1.15.25-1,.23-2.41.59-4.01,1.11-3.2,1.05-7.17,2.77-10.17,5.21-2,1.63-3.55,3.54-4.35,5.74-.47,1.3-1.91,1.97-3.2,1.5-1.3-.47-1.97-1.91-1.5-3.2,1.2-3.3,3.4-5.89,5.9-7.92,2.5-2.03,5.32-3.53,7.97-4.66,5.3-2.24,9.95-3.01,10.07-3.04,1.36-.22,2.65.7,2.88,2.06.02.14.03.27.03.4Z"/>
    <path class="cls-1" d="M301,472.64c-7.23,3.28-15.44,5.79-24.81,5.79-5.3,0-10.95-.8-16.97-2.68-1.31-.42-2.05-1.82-1.64-3.14.42-1.31,1.82-2.05,3.14-1.64,5.55,1.74,10.68,2.46,15.47,2.46,8.47,0,15.93-2.25,22.75-5.35,1.25-.57,2.73-.01,3.31,1.25.57,1.25,0,2.73-1.25,3.31Z"/>
    <path class="cls-1" d="M234.55,410.48c-1.24-2.53-2.67-4.82-4.32-6.74.03.01.06.02.09.02.08.02.15.04.22.06.09.01.17.02.25.02.08.01.16.01.24.01s.16-.01.23-.02c.09-.01.17-.02.24-.03.08-.02.16-.05.24-.07.07-.03.15-.05.22-.08.07-.03.14-.07.22-.11.07-.04.14-.08.2-.13.07-.04.13-.09.19-.14.07-.06.13-.12.2-.18.02-.03.05-.04.07-.07.03-.03.05-.07.07-.1.06-.07.11-.14.16-.22.05-.07.09-.15.13-.22.02-.04.04-.08.06-.12.01-.03.02-.06.03-.09.03-.09.06-.17.08-.26.02-.08.04-.15.06-.22,0-.09.02-.17.02-.25.01-.08.01-.16.01-.24s-.01-.16-.02-.23c0-.09-.02-.17-.03-.24-.02-.08-.05-.16-.07-.24-.03-.07-.05-.15-.08-.22-.03-.07-.07-.14-.11-.22-.04-.07-.08-.14-.13-.2-.04-.07-.09-.13-.14-.19-.06-.07-.12-.13-.18-.2-.03-.02-.04-.05-.07-.07-4.14-3.67-7.97-6.73-11.47-9.26-3.5-2.53-6.67-4.53-9.48-6.07s-5.25-2.63-7.34-3.35c-2.09-.72-3.79-1.09-5.29-1.09-.51,0-1.01.06-1.52.19-.09.01-.17.03-.25.06-.03.01-.07.01-.1.02-.05.01-.09.04-.14.06-.04.02-.09.03-.13.05-3.24,1.52-5.91,3.34-8.08,5.34-2.18,2-3.86,4.18-5.11,6.4v.02c-2.5,4.45-3.32,9.04-3.32,12.86,0,1.56.13,3,.35,4.27.23,1.27.53,2.37.9,3.3.01.02.02.04.03.06.04.08.08.16.13.24.03.07.07.13.11.2l.15.18c.06.06.11.13.17.18.05.06.12.11.18.16.06.05.12.1.19.14.07.05.14.08.21.12.07.04.14.07.22.11.07.02.14.04.21.06.09.03.18.06.27.07.02,0,.04.02.06.02.05.01.1,0,.15.01.1.01.19.01.28.01.08,0,.16-.01.24-.02.08,0,.16-.01.24-.03.09-.02.18-.05.26-.08.03-.01.05-.01.08-.02.02,0,.05-.01.07-.02.02-.01.04-.02.06-.03.08-.04.16-.08.24-.13.07-.03.13-.07.2-.11.06-.05.12-.1.18-.15.06-.06.13-.11.18-.17.06-.05.11-.12.16-.18s.1-.12.14-.19c.05-.07.08-.14.12-.21.04-.07.07-.14.11-.22.02-.07.04-.14.06-.21.03-.09.06-.18.07-.27.01-.02.02-.04.02-.06.56-3.59,1.39-6.49,2.4-8.8,1.52-3.46,3.39-5.57,5.49-6.89,2.11-1.31,4.54-1.88,7.35-1.88,4.22-.01,9.18,1.37,14.12,3.28.8.31,1.6.64,2.39.97-.71.13-1.42.33-2.13.6l-.36.14-.31.25c-3.81,3.11-6.58,7.34-8.4,12.04-1.81,4.7-2.7,9.88-2.7,15.01.01,6.91,1.6,13.76,4.94,19.22,1.67,2.72,3.8,5.1,6.4,6.88,2.6,1.79,5.67,2.96,9.1,3.28l.23.02.23-.02c2.59-.22,4.92-1.07,6.85-2.42,1.44-1,2.66-2.27,3.65-3.71,1.5-2.16,2.51-4.69,3.16-7.42.65-2.74.95-5.68.95-8.71-.01-7.88-1.96-16.36-5.25-23.11ZM201.68,389.18c-2.33,0-4.63.32-6.82,1.11-2.82,1-5.4,2.81-7.51,5.45.22-.49.46-.97.73-1.45,1.99-3.52,5.27-6.93,10.75-9.56.06-.01.13-.01.22-.01.61-.01,1.92.2,3.66.81,2.63.91,6.28,2.65,10.76,5.51.3.19.61.4.91.59-4.21-1.42-8.51-2.45-12.7-2.45ZM216.23,405.62c1.09-1.09,2.58-1.76,4.24-1.76s3.15.67,4.24,1.76c1.09,1.09,1.76,2.58,1.76,4.24s-.67,3.15-1.76,4.24-2.58,1.76-4.24,1.76-3.15-.67-4.24-1.76-1.76-2.58-1.76-4.24.67-3.15,1.76-4.24ZM232.25,445.8c-.85,1.51-1.87,2.69-3.07,3.53-1.16.8-2.51,1.32-4.2,1.51-2.5-.28-4.64-1.11-6.52-2.39-2.91-1.99-5.21-5.12-6.78-8.98-1.57-3.85-2.39-8.4-2.39-13,0-3.79.56-7.62,1.65-11.13,1.9,3.3,5.45,5.52,9.53,5.52,4.61,0,8.55-2.84,10.19-6.87.75,1.69,1.42,3.51,1.99,5.4,1.37,4.57,2.15,9.58,2.15,14.2.01,4.81-.87,9.19-2.55,12.21Z"/>
    <path class="cls-1" d="M391.42,391.9v-.03c-.01-.08-.04-.15-.07-.22-.02-.08-.04-.17-.07-.25-.02-.04-.05-.09-.07-.13-.05-.11-.1-.21-.17-.31,0,0,0-.01-.01-.01-6.67-9.75-14.91-18-24.59-24.2-9.68-6.19-20.8-10.33-33.16-11.87-.05,0-.1,0-.15,0-.09,0-.18,0-.27,0-.08,0-.16,0-.24.02-.08.02-.16.03-.24.05-.08.02-.17.05-.26.08-.04.02-.09.02-.13.04-2.05.88-4.52,2.4-7.35,4.49-4.23,3.14-9.19,7.57-13.99,12.95-4.78,5.38-9.39,11.72-12.89,18.7h0s-.01.03-.02.04c-.02.05-.03.1-.05.16-.04.09-.09.18-.11.28-.02.08-.03.16-.05.23-.01.08-.03.17-.04.25s0,.16,0,.24,0,.16.01.24c.01.09.03.16.05.24.01.08.03.16.05.24.03.09.07.18.12.27.02.06.03.11.06.16t.01.02c.06.1.13.19.2.29.03.04.05.08.08.12.05.06.12.11.18.17.06.05.11.12.18.17.03.03.08.05.11.07.1.07.2.14.31.2,0,0,.01,0,.01.01.05.02.11.03.16.05.09.04.18.09.28.11.08.02.16.03.23.05.09,0,.17.03.25.04s.16,0,.24,0,.16,0,.24-.01c.09-.01.16-.03.24-.05.08-.01.16-.03.24-.05.09-.03.18-.07.27-.12.06-.02.11-.03.16-.06.01-.01.03-.02.04-.02,3.57-1.94,7.02-3.94,10.45-5.85,3.42-1.91,6.82-3.72,10.27-5.28,6.92-3.13,14.04-5.26,22.25-5.26,5.73,0,12,1.03,19.15,3.59,7.15,2.55,15.16,6.63,24.26,12.7t.02.01c.1.06.2.11.3.16.05.02.09.05.14.07.08.03.17.05.25.07.07.02.14.05.22.07h.07c.13.02.27.04.4.04.15,0,.3-.02.45-.05h.03c.07-.01.15-.04.22-.06.08-.03.17-.05.25-.08.04-.02.09-.05.13-.07.11-.05.21-.1.31-.17,0,0,0,0,0-.01.05-.03.09-.07.13-.11.08-.06.16-.12.24-.19.07-.08.13-.16.19-.24.04-.05.08-.09.11-.13,0-.01.01-.01.01-.02.06-.1.11-.2.16-.3.02-.05.05-.09.07-.14.03-.08.05-.17.07-.25.02-.07.05-.14.07-.22v-.07c.02-.13.04-.27.04-.4,0-.15-.02-.3-.05-.45ZM365,377.03c-7.61-2.72-14.49-3.88-20.83-3.88-9.09-.01-17,2.39-24.31,5.7-4.52,2.05-8.82,4.43-13.09,6.85,3.69-5.55,8-10.56,12.2-14.68,3.05-2.98,6.03-5.51,8.65-7.45,2.26-1.68,4.27-2.92,5.71-3.63,11.37,1.52,21.52,5.34,30.42,11.03,5.25,3.36,10.05,7.39,14.4,11.97-4.63-2.47-9-4.43-13.15-5.91Z"/>
    <path class="cls-1" d="M368.98,393.64c-2.66-3.18-5.89-5.88-9.62-7.78-3.73-1.91-7.96-3.02-12.5-3.02-.32,0-.65.01-.98.02h-.11s-.11.02-.11.02c-3.36.42-6.41,1.75-9.01,3.69-3.92,2.92-6.87,7.17-8.88,11.99-2.01,4.83-3.07,10.26-3.07,15.68,0,7.32,1.93,14.67,6.4,20.33,2.24,2.83,5.12,5.2,8.64,6.85,3.51,1.65,7.64,2.56,12.35,2.56,1,0,2.02-.04,3.08-.13l.22-.02.22-.05c7.49-1.98,13.02-5.83,16.59-10.73,3.57-4.89,5.16-10.72,5.16-16.58-.01-8.19-3.06-16.47-8.38-22.83ZM345.23,390.62c1.09-1.09,2.58-1.76,4.24-1.76s3.15.67,4.24,1.76c1.09,1.09,1.76,2.58,1.76,4.24s-.67,3.15-1.76,4.24-2.58,1.76-4.24,1.76-3.15-.67-4.24-1.76-1.76-2.58-1.76-4.24.67-3.15,1.76-4.24ZM368.16,430.1c-2.84,3.88-7.19,7.02-13.61,8.78-.85.06-1.67.1-2.46.1-4.07-.01-7.44-.78-10.23-2.09-4.19-1.96-7.17-5.15-9.18-9.11-2.01-3.96-2.99-8.71-2.98-13.54-.01-6.35,1.7-12.81,4.67-17.69,1.37-2.26,3.01-4.16,4.83-5.61-.46,1.22-.73,2.54-.73,3.92,0,6.08,4.92,11,11,11s11-4.92,11-11c0-.93-.13-1.82-.34-2.69,3.25,2.33,6.01,5.46,8.07,9.05,2.67,4.66,4.16,10.06,4.16,15.25s-1.34,9.71-4.2,13.63Z"/>
    <path class="cls-1" d="M561.32,383.54l-.03-.13c-.08-.32-.19-.65-.33-.96l-.07-.15c-.12-.26-.26-.52-.43-.77l-.08-.11-.1-.13c-.22-.29-.45-.56-.71-.8l-.03-.04c-3.08-2.85-5.57-6.11-7.65-9.78-3.64-6.43-6-14.18-7.78-22.65-1.35-6.36-2.38-13.1-3.49-19.95-1.68-10.27-3.53-20.78-7.18-30.65-.92-2.49-1.95-4.93-3.14-7.31,2.25.43,4.49.7,6.71.71,2.5,0,5.01-.33,7.45-1.3l.17-.07.2-.08.09-.04c.11-.05.21-.1.32-.15l.24-.14.24-.15c.1-.06.2-.12.29-.19l.08-.06.11-.09c.1-.07.19-.15.28-.23l.18-.17.23-.24.19-.21.18-.23.18-.26.14-.21c.06-.09.11-.19.16-.29l.11-.21c.05-.1.1-.2.14-.31l.1-.23c.03-.1.07-.2.1-.3.03-.09.05-.17.07-.26.03-.1.05-.19.07-.28.02-.1.04-.2.06-.3l.03-.26c.02-.11.03-.21.03-.32v-.25c.02-.11.02-.22.01-.33v-.26c-.02-.1-.03-.2-.04-.31-.02-.09-.03-.19-.05-.29l-.05-.27c-.03-.11-.06-.22-.09-.33l-.07-.23c-.04-.11-.08-.23-.13-.35l-.05-.12-.04-.09c-.05-.11-.1-.21-.15-.32l-.14-.24-.15-.24c-.06-.1-.12-.2-.19-.29l-.06-.08c-3.05-4.03-6.22-8.47-9.45-13.2-3.23-4.72-6.53-9.74-9.86-14.92-9.99-15.55-20.2-32.58-29.63-47.92-4.71-7.68-9.23-14.93-13.44-21.39-4.22-6.46-8.12-12.11-11.68-16.65l-.02-.03c-3.26-4.38-7.79-8.63-13.16-12.87-8.15-6.43-18.24-12.73-28.48-18.07-10.26-5.33-20.61-9.69-29.48-12.12h-.07c-.13-.05-.25-.07-.38-.1l-.22-.04c-.11-.01-.22-.03-.33-.04-.1-.01-.19-.02-.28-.02h-.27c-.11,0-.23-.01-.34,0l-.22.02c-.13.01-.26.02-.39.04h-.07c-1.87.33-3.77.82-5.69,1.43-3.36,1.07-6.82,2.49-10.17,4.03-5.03,2.32-9.81,4.89-13.37,6.89-.74.42-1.4.8-2.02,1.15-3.53-3.15-9.54-8.37-16.59-13.82-5.63-4.35-11.92-8.85-18.23-12.6-3.16-1.87-6.32-3.56-9.45-4.94s-6.22-2.47-9.31-3.09c-.1-.02-.2-.03-.29-.05-.11-.01-.22-.03-.33-.04-1.68-.16-3.33-.24-4.95-.24-7.22,0-13.89,1.48-20.3,3.55-9.64,3.12-18.83,7.5-29.45,11.01-10.61,3.53-22.64,6.29-38.07,6.3-6.36,0-13.29-.48-20.93-1.59h-.07c-.12-.02-.24-.03-.36-.04h-.24c-.11-.02-.23-.02-.35,0h-.24c-.11,0-.22.03-.32.04-.09.01-.18.02-.27.03-.1.02-.19.04-.28.06-.1.02-.2.04-.3.07l-.24.08c-.11.03-.22.07-.33.11l-.22.09c-.11.05-.22.1-.33.15l-.07.03-.15.09c-.1.05-.19.11-.29.17l-.24.16-.23.17-.25.2-.19.17-.23.24-.18.19-.19.24-.17.22-.16.24c-.06.08-.11.17-.16.26l-.13.23c-.05.1-.1.19-.14.29l-.1.24c-.04.1-.08.2-.11.3-.03.09-.06.18-.08.27-.03.1-.06.19-.08.29-.02.1-.04.22-.06.33l-.04.17v.07c-.02.12-.03.24-.04.36v.24c-.02.11-.02.23-.01.35v.24c.01.11.03.21.04.32.01.09.02.18.03.27.02.1.04.19.06.28.02.1.04.2.07.31l.08.23c.03.11.07.22.11.33l.09.22c.05.11.1.22.15.33l.03.07,11.43,22.1c-5.61,1.72-10.98,4.33-16.01,7.58-11.12,7.21-20.78,17.42-28.36,28.32-3.79,5.46-7.05,11.09-9.68,16.64-2.18,4.59-3.92,9.12-5.16,13.49-.9.51-1.81,1.07-2.73,1.67-3.2,2.1-6.61,4.76-10.14,7.78-10.57,9.06-22.2,21.38-29.74,30.95l-.05.08c-.08.1-.15.2-.22.3l-.12.2c-.06.1-.12.2-.17.3l-.13.23c-.04.09-.08.18-.12.28-.04.09-.07.18-.11.28l-.08.25c-.03.11-.07.22-.1.33l-.05.23c-.02.12-.04.24-.06.36l-.02.09c-.62,4.77-.91,10.23-.91,16.16.01,12.46,1.28,26.98,3.69,40.9,1.2,6.96,2.7,13.77,4.48,20.08,1.59,5.62,3.4,10.85,5.48,15.5-.67,4.31-1.01,8.58-1.01,12.79,0,11.92,2.54,23.33,6.69,33.97,6.22,15.96,16.01,30.22,26.56,42.27,10.31,11.77,21.36,21.42,30.73,28.43,6.52,8.6,14.32,16.03,23.09,22.31,13.53,9.68,29.32,16.66,46.32,21.23s35.22,6.74,53.71,6.74c29.71-.01,60.12-5.59,87.26-16.06,13.56-5.23,26.31-11.69,37.74-19.33,10.52-7.03,19.91-15.07,27.75-24.08,1.87-.07,3.71-.38,5.53-.86,3.6-.97,7.2-2.57,10.74-4.55,2.92-1.64,5.79-3.55,8.49-5.61-.43,1.11-.89,2.16-1.36,3.11-.65,1.33-1.32,2.46-1.91,3.29v.02c-.11.13-.19.27-.27.41l-.07.1c-.06.12-.12.23-.18.35l-.09.19-.04.09c-.27.64-.42,1.31-.45,1.98l-.02.18v.2c.01.66.12,1.32.35,1.97l.03.1.08.19c.05.13.1.25.16.37l.06.1c.07.14.15.29.24.43h.01s.06.11.06.11c.09.13.17.25.27.38l.15.17c.07.09.15.18.23.27l.25.24.17.16c.12.1.24.2.36.29l.09.07h.02c.13.11.27.19.41.27l.1.07c.11.06.23.12.34.17l.2.1.08.03c.64.27,1.31.43,1.99.46l.18.02h.2c.66-.01,1.33-.12,1.98-.35l.09-.03.2-.08c.12-.05.24-.1.36-.16l.1-.06c.14-.07.29-.15.43-.24h.01c3.99-2.52,7.68-5.31,11.08-8.3,3.4-2.99,6.51-6.18,9.34-9.52,8.49-10.02,14.48-21.31,18.37-32.41,3.52-10.09,5.32-20,5.63-28.85.96.63,1.94,1.24,2.96,1.8,2.45,1.34,5.04,2.47,7.74,3.27,2.7.81,5.5,1.29,8.36,1.29,1.97,0,3.98-.23,5.95-.78,1.97-.54,3.91-1.39,5.7-2.59l.11-.08.13-.1c.29-.21.56-.45.8-.71l.04-.03.04-.05c.25-.28.46-.57.65-.87l.07-.12c.18-.3.32-.61.44-.93l.06-.15c.11-.32.19-.64.24-.97l.03-.15c.04-.33.06-.67.05-1.01v-.13c-.02-.34-.07-.68-.14-1.01ZM540.43,379.82c-3.61-1.37-7.31-3.75-10.11-6.38-1.41-1.31-2.59-2.68-3.45-3.94-.43-.63-.78-1.23-1.05-1.78-.22-.66-.47-1.31-.72-1.94l-.06-.15-.04-.1-.08-.16c-.05-.11-.1-.22-.15-.32l-.13-.22c-.05-.1-.11-.19-.17-.29l-.16-.22-.19-.25-.19-.22-.19-.21-.23-.21-.2-.18-.25-.19-.21-.15-.26-.17-.24-.14-.26-.13c-.08-.04-.17-.08-.26-.12l-.25-.1c-.1-.04-.2-.07-.3-.11l-.25-.07c-.1-.02-.2-.05-.31-.07l-.25-.05c-.11-.02-.21-.04-.31-.05-.1-.01-.19-.01-.28-.02-.1,0-.2,0-.3-.02-.1,0-.2,0-.31.01-.09,0-.18,0-.27,0-.11.01-.22.02-.34.04l-.25.04c-.11.02-.23.04-.34.07l-.18.04-.08.03c-.1.03-.19.06-.29.09-.1.04-.21.07-.3.11l-.08.03-.16.08c-.11.05-.22.1-.32.15l-.22.13c-.1.05-.19.11-.29.18l-.22.15-.25.19-.22.19-.21.19-.21.23-.18.2-.19.25-.15.21-.17.26-.14.24-.13.26c-.04.08-.08.17-.12.26l-.1.25c-.04.1-.07.2-.11.3l-.07.25c-.02.1-.05.2-.07.31l-.05.25c-.02.11-.04.21-.05.31-.01.1-.01.19-.02.28-.01.1-.01.2-.02.3,0,.1,0,.2.01.31,0,.09,0,.18.01.27.01.11.02.22.04.34l.04.25c.02.11.04.23.07.34l.04.18.03.1.05.16c.23.78.51,1.55.82,2.29.38,1.2.71,2.57.97,4.11.39,2.36.6,5.09.6,8.06.01,5.31-.69,11.42-2.18,17.82-2.23,9.6-6.26,19.85-12.31,29.27-2.31,3.6-4.9,7.07-7.8,10.35.47-2.76.76-5.47.76-8.02,0-1.1-.05-2.17-.18-3.23v-.2s-.02-.03-.02-.03l-.02-.14c-.02-.14-.04-.28-.07-.42l-.07-.24c-.03-.11-.05-.21-.08-.31-.04-.1-.08-.2-.12-.3l-.09-.24c-.04-.1-.1-.21-.15-.31l-.1-.2c-.06-.1-.12-.2-.18-.3l-.13-.2-.19-.26-.17-.21-.18-.21-.22-.22-.18-.17c-.09-.07-.17-.15-.26-.22l-.18-.14c-.09-.06-.17-.12-.26-.17,1.46-1.82,2.81-3.86,4.07-6.11,3.17-5.67,5.72-12.6,7.5-20.03,1.78-7.44,2.79-15.38,2.79-23.08,0-5.26-.47-10.4-1.5-15.2-1.54-7.19-4.34-13.65-8.87-18.41-2.26-2.38-4.96-4.31-8.08-5.63-3.12-1.32-6.65-2.03-10.54-2.02-5.06,0-10.72,1.17-17.08,3.65-.01,0-.01.01-.01.01-.11.04-.21.1-.31.15-.04.03-.09.05-.14.08-.04.02-.07.06-.11.08-.1.08-.19.15-.28.24h-.01c-2.69,2.7-5.01,6.08-7.02,9.92-3,5.76-5.3,12.56-6.86,19.71-1.55,7.15-2.37,14.64-2.37,21.76,0,1.71.06,3.39.16,5.05-2.11-6.41-3.68-13.78-4.74-21.58-1.3-9.54-1.88-19.71-1.88-29.54s.54-18.74,1.46-26.76h0s.01-.04.01-.05c.01-.08,0-.15,0-.23v-.25c-.01-.09-.03-.16-.05-.24-.01-.08-.03-.17-.05-.25-.02-.07-.06-.14-.09-.22-.03-.07-.06-.15-.09-.22-.04-.07-.09-.14-.13-.2-.05-.07-.09-.14-.14-.2-.05-.06-.11-.11-.16-.17-.06-.06-.11-.12-.17-.17-.06-.05-.13-.09-.2-.14-.07-.05-.13-.1-.2-.14-.07-.04-.15-.06-.23-.1-.07-.03-.14-.07-.22-.09-.08-.03-.17-.04-.25-.05-.07-.02-.15-.04-.22-.05h-.03s-.01,0-.02,0c-.08-.01-.15,0-.22,0h-.26c-.08,0-.16.03-.24.05-.08.01-.17.02-.25.05-.07.02-.14.06-.22.09-.07.03-.15.06-.22.09-.07.04-.13.09-.2.13-.07.05-.14.09-.2.14-.06.05-.11.11-.17.16-.06.06-.12.11-.17.17-.05.06-.09.13-.14.2-.05.06-.1.13-.14.2-.04.07-.06.15-.09.22-.04.08-.08.15-.1.23-.03.08-.04.17-.05.25-.02.07-.04.15-.05.22-.01.02-.01.03-.01.05-.35,3.65-1.28,7.91-2.65,12.42-2.06,6.76-5.1,14.07-8.58,20.81-1.91,3.7-3.96,7.21-6.04,10.38.02-.71.04-1.43.04-2.13,0-11.89-2.81-22.64-7.17-32.45-6.55-14.73-16.55-27.42-26-39.22-4.72-5.89-9.31-11.56-13.27-17.12-3.96-5.56-7.29-11-9.53-16.41-.02-.03-.04-.06-.05-.1-.04-.08-.09-.16-.13-.23-.04-.07-.09-.14-.13-.2-.05-.06-.1-.13-.16-.19-.05-.06-.11-.12-.17-.17l-.18-.15c-.07-.05-.13-.09-.2-.13-.07-.05-.14-.08-.21-.12-.08-.03-.15-.06-.22-.09-.08-.03-.15-.05-.23-.07-.08-.02-.16-.04-.24-.05-.08-.01-.16-.02-.23-.03h-.39s-.07.02-.11.02c-.09.01-.17.03-.26.05-.08.02-.17.05-.25.08-.03.01-.07.02-.11.03-.03.02-.06.04-.1.05-.08.04-.16.09-.23.13-.07.04-.14.09-.2.13-.06.05-.13.1-.19.16-.06.05-.12.11-.17.17-.05.06-.1.12-.15.18-.05.07-.09.13-.13.2-.05.07-.08.14-.12.21-.03.08-.06.15-.09.22-.03.08-.05.15-.07.23-.02.08-.04.16-.05.24,0,.08-.02.16-.03.23v.39c.19,2.01.33,4.27.47,6.73.14,2.45.26,5.09.4,7.87.42,8.34.99,17.9,2.45,27.38.91,5.9,2.17,11.77,3.99,17.31-2.11-2.03-4.29-4.29-6.49-6.8-7.56-8.59-15.41-19.87-21.66-32.6s-10.9-26.92-12.18-41.34c0-.05-.02-.09-.02-.13-.02-.09-.03-.17-.05-.26-.03-.08-.05-.17-.08-.25-.02-.04-.02-.08-.04-.12-.02-.04-.04-.06-.05-.09-.04-.08-.08-.16-.13-.24-.04-.06-.08-.13-.13-.19s-.1-.12-.16-.18c-.05-.06-.11-.12-.17-.18-.06-.05-.12-.1-.18-.14-.07-.05-.13-.1-.2-.14-.07-.04-.14-.08-.22-.11-.07-.03-.14-.07-.21-.09-.08-.03-.16-.05-.23-.07-.08-.02-.16-.04-.24-.05-.08-.02-.16-.02-.23-.03h-.37c-.05,0-.09.02-.13.02-.09.02-.17.03-.26.05-.08.03-.17.05-.25.08-.04.02-.08.02-.12.04l-31.46,13.48-7.04,3.02c-.12.05-.23.11-.34.18-.02.01-.03.02-.05.03-1,.66-1.41,1.95-.93,3.07.55,1.27,2.02,1.86,3.28,1.32l.16-.07.59-.25s.08,0,.12-.01c1.28-.18,2.52-.26,3.7-.26,5.3,0,9.62,1.66,12.63,3.33,1.51.84,2.67,1.67,3.45,2.28.39.31.68.56.86.73.1.08.16.14.2.18l.04.04s.03.02.04.03c.07.06.14.12.22.18.06.04.11.09.17.13.07.04.14.07.22.11.07.04.14.08.22.11.07.03.14.04.21.06.08.03.16.05.24.07.08.01.17.01.25.02s.15.02.23.02.16-.02.24-.03c.08,0,.16-.01.24-.03.07-.01.14-.04.21-.06.09-.02.18-.05.27-.09.01-.01.03-.01.04-.01,5.19-2.36,9.19-2.9,11.85-2.91,1.32.01,2.31.14,2.94.27.06,0,.1.02.15.03,3.65,12,9.06,23.3,15.15,33.26,4.89,8,10.22,15.14,15.46,21.1,5.24,5.95,10.38,10.72,14.97,14,.03.03.07.05.11.07.08.05.15.09.24.13.07.04.14.07.21.1.08.03.15.05.23.07.08.02.16.04.24.06.08.01.16.02.24.03h.23c.09,0,.17-.01.25-.02s.16-.02.24-.04c.07-.01.15-.03.23-.06.08-.03.16-.06.24-.1.05,0,.09-.02.13-.04.03-.02.05-.04.08-.05.07-.05.15-.1.22-.15s.13-.09.19-.14c.06-.05.11-.11.17-.17s.12-.13.18-.2c.01-.02.04-.04.05-.07.03-.03.05-.07.07-.11.05-.08.09-.15.13-.24.04-.07.07-.14.1-.21.03-.08.05-.15.07-.23.02-.08.04-.16.06-.24,0-.08.02-.16.03-.24v-.23c0-.09-.01-.17-.02-.25,0-.08-.02-.16-.04-.24-.01-.07-.03-.15-.06-.23-.03-.08-.06-.16-.1-.24-.01-.05-.02-.09-.04-.13-5.02-9.76-7.39-22.38-8.62-34.61-.62-6.12-.96-12.14-1.24-17.67-.05-1.04-.1-2.06-.15-3.07,2.6,4.21,5.59,8.38,8.8,12.58,8.81,11.49,19.19,23.22,27.3,36.25,8.11,13.04,13.95,27.26,13.96,43.9,0,3.36-.24,6.83-.75,10.41-.01.01,0,.02-.01.04-.01.09-.01.19-.01.28,0,.08-.01.15,0,.22.01.08.02.16.04.24.01.08.02.16.04.23.02.08.06.15.08.23.03.07.06.15.09.22.04.07.08.14.13.21.04.06.08.14.13.2.04.06.09.11.14.16.07.07.13.14.2.2.01.01.02.02.03.03.05.04.09.06.14.1.08.05.15.11.24.16.07.04.14.07.21.1.08.04.15.07.23.1.09.03.18.05.27.06.06.02.11.04.17.04,0,.01.03,0,.04.01.09.01.19.01.28.01.07,0,.15.01.22,0,.08-.01.16-.02.24-.04.08-.01.16-.02.23-.04.08-.02.15-.06.23-.08.07-.03.15-.06.22-.09.07-.04.14-.08.2-.13.07-.04.15-.08.21-.13.06-.04.11-.1.16-.14.07-.07.14-.13.2-.2.01-.01.02-.02.03-.03,5.47-6.52,10.91-15.79,15.25-25.46.66-1.48,1.28-2.97,1.89-4.46-.02,1.11-.03,2.23-.03,3.36.01,13.37,1.04,27.35,3.53,39.81,1.24,6.22,2.86,12.07,4.91,17.28,2.06,5.21,4.55,9.79,7.62,13.47.04.04.08.06.11.1.06.07.13.13.2.19.06.05.12.1.18.14.07.05.14.09.21.13.07.05.15.08.22.11.07.03.15.06.22.09.08.02.15.04.23.06.08.02.16.03.24.04.08.01.16.02.23.02h.25c.08-.01.16-.02.24-.03.08-.02.16-.03.23-.05.09-.02.17-.06.26-.09.05-.02.1-.03.14-.05.03,0,.05-.03.07-.04.07-.03.15-.08.22-.13.07-.04.15-.09.21-.14.02-.02.05-.03.07-.04.04-.04.06-.08.1-.11.07-.06.13-.13.19-.2.05-.06.1-.12.14-.18.05-.07.1-.14.14-.21.04-.07.07-.15.1-.22s.06-.15.09-.22c.02-.08.04-.15.06-.23s.03-.16.04-.24.02-.16.02-.23v-.25c-.01-.08-.02-.16-.03-.24-.02-.08-.03-.16-.05-.23-.02-.09-.06-.17-.09-.26-.02-.05-.03-.1-.05-.14-2.51-5.45-3.8-13.3-3.79-21.84-.01-8.98,1.39-18.72,3.97-27.33,1.28-4.31,2.87-8.33,4.69-11.83,1.73-3.31,3.68-6.14,5.77-8.32,5.7-2.17,10.6-3.13,14.76-3.12,4.4,0,7.96,1.03,10.94,2.82,2.23,1.35,4.15,3.14,5.8,5.34,2.46,3.29,4.29,7.51,5.49,12.32,1.2,4.81,1.76,10.2,1.76,15.78,0,9.69-1.71,19.95-4.58,28.77-1.43,4.41-3.16,8.46-5.07,11.9-1.92,3.44-4.04,6.25-6.19,8.2-.2.18-.34.38-.47.59h0s-.21.18-.21.18l-.21.18-.22.22-.17.18c-.07.09-.15.17-.22.26l-.14.18c-.07.1-.13.19-.2.29l-.13.22c-.05.09-.11.18-.16.28-.05.09-.09.19-.14.29l-.1.23c-.05.13-.1.26-.14.4l-.05.13c-.12.44-.5,1.27-1.14,2.26-1.12,1.75-3.03,3.97-5.37,6.15-3.51,3.3-8.02,6.57-12.32,8.9-2.15,1.17-4.25,2.1-6.09,2.7-1.84.62-3.42.88-4.42.87-.36,0-.64-.03-.84-.06l-.15-.02c-.14-.02-.27-.04-.4-.06-.09,0-.19,0-.28,0-.1,0-.2-.01-.3-.01-.11,0-.22.01-.33.02l-.24.02c-.12.01-.23.03-.35.05l-.22.03c-.12.03-.22.06-.33.08l-.25.07c-.09.03-.19.07-.28.1-.09.03-.18.07-.27.11l-.24.1c-.1.05-.2.1-.3.15l-.2.12c-.1.06-.2.12-.29.18l-.2.15-.26.2-.23.2-.2.19c-.09.09-.18.19-.27.3l-.11.11c-7.35,8.91-16.56,16.98-27.16,24.06-15.89,10.62-34.89,18.99-55.21,24.67-20.32,5.69-41.97,8.69-63.12,8.69-23.4,0-46.19-3.68-65.95-11.32-9.88-3.81-19-8.61-27.1-14.41-5.52-3.95-10.55-8.38-15.05-13.27-2.09-2.28-4.08-4.65-5.93-7.14l-.02-.02-.06-.07c-.1-.14-.21-.27-.33-.4l-.21-.21-.2-.21c-.13-.12-.27-.23-.41-.33l-.05-.04h-.01s-.04-.04-.04-.04c-11.84-8.76-26.98-22.44-38.96-39.05-6-8.3-11.22-17.34-14.91-26.82-3.69-9.49-5.87-19.42-5.87-29.62,0-4.15.36-8.34,1.13-12.59v-.08c.03-.12.04-.24.05-.36l.03-.23v-.6c0-.1-.01-.21-.02-.31,0-.1,0-.19-.02-.28-.02-.09-.04-.19-.05-.28-.02-.1-.04-.2-.06-.31l-.07-.24c-.03-.11-.06-.22-.1-.33l-.09-.22c-.04-.11-.09-.22-.14-.33l-.03-.08c-1.01-2.11-1.99-4.48-2.91-7.05-.93-2.57-1.82-5.34-2.64-8.26-2.47-8.75-4.42-18.82-5.73-28.88-1.31-10.05-1.99-20.11-1.99-28.84,0-4.82.21-9.23.62-12.98,5.22-6.49,12.59-14.49,19.88-21.43,3.89-3.71,7.77-7.13,11.25-9.86,1.74-1.36,3.38-2.55,4.84-3.51,1.47-.96,2.77-1.69,3.75-2.14l.07-.03c.1-.05.2-.1.3-.16l.23-.13.24-.15.26-.18.19-.15s.04-.03.06-.05c.07-.05.14-.11.2-.17l.17-.17.24-.23.19-.23.17-.22c.07-.09.13-.18.2-.28l.13-.19c.06-.1.11-.21.17-.31l.1-.21c.05-.09.09-.19.13-.29l.11-.26.08-.26c.03-.1.07-.21.09-.32l.02-.07c.59-2.44,1.43-5.07,2.48-7.81,1.35-3.54,3.06-7.26,5.11-11.01,5.45-10,13.18-20.19,22.03-28.05,4.42-3.93,9.11-7.28,13.89-9.78,4.79-2.51,9.64-4.16,14.45-4.8l.1-.02c.12-.02.24-.04.37-.07l.24-.05c.1-.03.2-.06.3-.09.1-.03.2-.07.3-.1l.23-.1c.11-.04.23-.1.34-.15l.09-.04.1-.06c.11-.06.22-.13.33-.19l.2-.14.27-.19.22-.18.21-.18.23-.23.16-.18.22-.26.15-.19c.06-.09.12-.18.18-.27l.14-.23.15-.26c.04-.09.09-.18.13-.27l.1-.24c.05-.1.08-.21.12-.31l.07-.23c.04-.1.06-.22.09-.33l.05-.23c.02-.11.04-.22.06-.33.01-.08.02-.17.03-.26.01-.1.01-.2.02-.3,0-.1.01-.21.01-.32v-.25c-.02-.12-.03-.24-.04-.37v-.12s-.03-.1-.03-.1c-.02-.12-.04-.24-.07-.37l-.05-.24c-.03-.1-.06-.2-.09-.3-.03-.1-.07-.2-.1-.3l-.1-.23c-.04-.11-.1-.23-.15-.34l-.04-.09-9.85-19.04c3.93.3,7.7.45,11.31.44,11.25,0,21.03-1.36,29.68-3.41,12.98-3.08,23.42-7.65,32.64-11.25,4.62-1.8,8.93-3.36,13.1-4.46,4.18-1.09,8.21-1.72,12.4-1.73,1.15,0,2.31.06,3.49.16,1.86.4,4.1,1.15,6.54,2.23,4.48,1.98,9.6,5,14.64,8.41,7.58,5.11,15.04,11.09,20.55,15.77,2.76,2.34,5.04,4.36,6.62,5.78.79.71,1.41,1.28,1.82,1.66.21.19.37.34.47.43l.12.11.03.03.04.03c.27.25.56.47.87.67l.1.06c.3.18.61.33.93.46l.14.05c.32.12.65.2.99.26l.12.03c.35.05.69.07,1.04.06h.1c.35-.01.69-.06,1.04-.13l.11-.02c.33-.08.65-.19.97-.32l.15-.06c.22-.11.45-.22.67-.36h.01c.23-.15,5.42-3.34,11.9-6.68,3.23-1.67,6.79-3.38,10.15-4.75,1.68-.68,3.31-1.28,4.8-1.76.98-.3,1.9-.55,2.73-.74,4.79,1.4,10.36,3.52,16.14,6.13,9.5,4.28,19.6,9.87,28.2,15.69,4.3,2.9,8.23,5.86,11.51,8.7,3.27,2.84,5.89,5.57,7.56,7.86l.06.07.06.08c4.27,5.45,9.52,13.28,15.29,22.39,8.68,13.67,18.58,30.27,28.67,46.56,7.7,12.43,15.5,24.67,23.02,35.4-2.49-.62-5.15-1.53-7.73-2.64-3-1.3-5.88-2.85-8.2-4.4l-.06-.04c-.09-.06-.19-.11-.29-.17l-.23-.13c-.1-.05-.2-.1-.31-.14l-.24-.11c-.1-.04-.2-.07-.3-.1l-.26-.09c-.09-.03-.19-.05-.28-.07-.1-.02-.2-.05-.29-.06l-.27-.04c-.1-.01-.21-.03-.31-.04h-.26c-.11,0-.21-.02-.32-.02l-.27.02c-.1,0-.2.01-.3.02-.09.01-.19.03-.28.04-.1.02-.19.03-.28.05-.1.02-.2.05-.3.07l-.26.07c-.1.03-.2.07-.3.11l-.24.09c-.1.04-.19.09-.29.13l-.23.12-.27.15-.24.15-.23.17-.25.19-.19.17-.25.24-.17.19c-.08.08-.16.17-.23.26l-.04.05-.14.19-.14.19-.04.06c-.06.09-.11.19-.17.29l-.13.23c-.05.1-.1.2-.14.31l-.11.24c-.04.1-.07.2-.1.3l-.09.26c-.03.09-.05.19-.07.28-.02.1-.05.2-.06.29l-.04.27c-.01.1-.03.21-.04.31v.26c-.01.11-.02.21-.02.32,0,.09.01.18.02.27,0,.1.01.2.02.3.01.09.03.19.04.28.02.1.03.19.05.28.02.1.05.2.07.3l.07.26c.03.1.07.2.11.3l.09.24c.04.1.09.19.13.28l.12.25.3.5.17.23.19.25.17.19.24.25.19.17.26.23.05.04c3.52,2.78,6.35,5.96,8.73,9.54,4.15,6.24,6.87,13.79,8.88,22.12,1.51,6.25,2.62,12.91,3.72,19.7,1.65,10.19,3.25,20.67,6.37,30.57,1.56,4.95,3.52,9.76,6.11,14.29.8,1.4,1.67,2.77,2.6,4.12-1.2-.24-2.46-.59-3.74-1.09ZM319.99,251.3c-.51-.04-1.05-.07-1.64-.06-3.06-.01-7.29.6-12.42,2.71-.95-.78-2.41-1.84-4.35-2.92-2.2-1.22-5.01-2.45-8.35-3.2l24.12-10.34c.57,4.67,1.48,9.28,2.64,13.81Z"/>
    <path class="cls-1" d="M349.67,160.19c-6.98,6.48-16.43,15.44-25.86,25.73-9.42,10.29-18.82,21.93-25.68,33.7-.7,1.19-2.23,1.6-3.42.9s-1.6-2.23-.9-3.42c7.14-12.23,16.74-24.09,26.32-34.55,4.78-5.23,9.56-10.11,14.03-14.49,4.46-4.38,8.6-8.27,12.11-11.53,1.01-.94,2.59-.88,3.53.13s.88,2.59-.13,3.53Z"/>
    <path class="cls-1" d="M391.03,153.78c-5.65,8.21-14.22,17.77-23.39,27.2-4.59,4.71-9.33,9.38-13.92,13.82-4.59,4.43-9.03,8.62-13.04,12.38-1.01.95-2.59.9-3.53-.11-.95-1.01-.9-2.59.11-3.53,7.99-7.49,17.72-16.72,26.79-26.05,9.08-9.32,17.51-18.77,22.86-26.55.78-1.13,2.34-1.42,3.48-.64,1.13.78,1.42,2.34.64,3.48Z"/>
  </g>
</svg>