<?xml version="1.0" encoding="UTF-8"?>
<svg id="Zuite" xmlns="http://www.w3.org/2000/svg" xmlns:xlink="http://www.w3.org/1999/xlink" viewBox="0 0 646 620">
  <defs>
    <style>
      .cls-1 {
        fill: #24130c;
      }

      .cls-1, .cls-2, .cls-3, .cls-4, .cls-5, .cls-6, .cls-7, .cls-8, .cls-9, .cls-10, .cls-11, .cls-12, .cls-13, .cls-14, .cls-15 {
        stroke-width: 0px;
      }

      .cls-2 {
        fill: url(#linear-gradient);
      }

      .cls-3 {
        fill: #ff597d;
      }

      .cls-4 {
        fill: #fcc3b8;
      }

      .cls-5 {
        fill: #ffcec2;
      }

      .cls-6 {
        fill: #f39aa3;
      }

      .cls-7 {
        fill: #f1a998;
      }

      .cls-8 {
        fill: url(#linear-gradient-2);
      }

      .cls-9 {
        fill: url(#linear-gradient-3);
      }

      .cls-10 {
        fill: #ffbab6;
      }

      .cls-11 {
        fill: #8e5944;
      }

      .cls-12 {
        fill: #c89f8f;
      }

      .cls-13 {
        fill: #e9ebf4;
      }

      .cls-14 {
        fill: #aa8070;
      }

      .cls-15 {
        fill: url(#linear-gradient-4);
      }
    </style>
    <linearGradient id="linear-gradient" x1="191.63" y1="338.07" x2="191.63" y2="300.08" gradientUnits="userSpaceOnUse">
      <stop offset="0" stop-color="#484c78"/>
      <stop offset="1" stop-color="#9195c5"/>
    </linearGradient>
    <linearGradient id="linear-gradient-2" x1="310.18" y1="338" x2="310.18" y2="290.6" xlink:href="#linear-gradient"/>
    <linearGradient id="linear-gradient-3" x1="160.16" y1="289.62" x2="194.6" y2="289.62" gradientUnits="userSpaceOnUse">
      <stop offset="0" stop-color="#ffcec2"/>
      <stop offset="0" stop-color="#e9bbb0"/>
      <stop offset=".03" stop-color="#c0988e"/>
      <stop offset=".05" stop-color="#9b786e"/>
      <stop offset=".07" stop-color="#7a5c53"/>
      <stop offset=".09" stop-color="#5f453d"/>
      <stop offset=".12" stop-color="#49322b"/>
      <stop offset=".15" stop-color="#38241d"/>
      <stop offset=".19" stop-color="#2c1a13"/>
      <stop offset=".25" stop-color="#25140d"/>
      <stop offset=".4" stop-color="#24130c"/>
    </linearGradient>
    <linearGradient id="linear-gradient-4" x1="283.3" y1="274.6" x2="354.78" y2="274.6" gradientUnits="userSpaceOnUse">
      <stop offset=".21" stop-color="#24130c"/>
      <stop offset=".36" stop-color="#26150e"/>
      <stop offset=".47" stop-color="#2f1d15"/>
      <stop offset=".56" stop-color="#3f2a22"/>
      <stop offset=".65" stop-color="#553d35"/>
      <stop offset=".73" stop-color="#71554c"/>
      <stop offset=".8" stop-color="#947369"/>
      <stop offset=".87" stop-color="#be968c"/>
      <stop offset=".94" stop-color="#ecbeb2"/>
      <stop offset=".97" stop-color="#ffcec2"/>
    </linearGradient>
  </defs>
  <g>
    <path class="cls-6" d="M279.29,120.53l-13.73,5.65h-.01s-.05.04-.08.05c-.12.05-.24.11-.36.19-.11.08-.22.17-.32.26-.02.02-.04.03-.06.05h0s-.01.01-.01.02c-.85.85-1.71,1.74-2.58,2.67-1.65-1.9-4.75-5.4-8.33-9.15l-.18-.18c2.97-.11,5.9-.16,8.77-.16,5.84,0,11.47.22,16.89.6Z"/>
    <path class="cls-6" d="M201.89,127.21c-2.66,4.41-5.93,9.51-9.51,14.91-7.98,12.05-17.46,25.53-24.94,36-1.03,1.44-2.03,2.83-2.97,4.14,3.46-18.65,9.49-34.79,17.24-48.65.19-.34.38-.67.58-1.01,6.67-2.09,13.21-3.87,19.6-5.39Z"/>
    <path class="cls-6" d="M413.91,293.73c-4.65,1.18-8.86,2.89-12.37,4.58-3.37,1.62-6.09,3.24-7.92,4.41-4.14-18.33-10.43-36.46-17.84-53.93-8.25-19.45-17.88-38.09-27.47-55.26-9.59-17.17-19.14-32.88-27.21-46.46-5.02-8.45-9.47-16.08-12.99-22.69,12.47,2.47,23.21,5.7,32.01,8.93,9.1,3.34,16.13,6.68,20.87,9.17,2.37,1.25,4.16,2.28,5.36,3,.58.35,1.02.62,1.31.81,18.6,29.53,30.23,66.58,37.16,96.28,3.48,14.92,5.78,27.99,7.21,37.31.71,4.66,1.21,8.39,1.53,10.94.16,1.27.27,2.25.35,2.91Z"/>
  </g>
  <g>
    <path class="cls-5" d="M457.27,318.62c-4.44-8.46-9.56-13.78-14.87-17.03-5.33-3.25-10.91-4.47-16.42-4.47-8.19-.01-16.19,2.77-22.13,5.62-2.97,1.42-5.42,2.86-7.13,3.94-.85.53-1.52.98-1.98,1.3.08.34.14.67.21,1.01,2.84,13.72,6.58,30.26,9.61,48.19,1.04,6.13,1.99,12.43,2.79,18.83.22-.02.44-.01.67.04,1.26.27,2.77.41,4.48.41,3.15.01,6.91-.49,10.91-1.48,4.01-1,8.24-2.49,12.37-4.46,8.27-3.94,16.06-9.79,20.86-17.21,3.2-4.95,5.13-10.57,5.13-16.98,0-5.3-1.33-11.19-4.5-17.71ZM429.91,334.97c-5.59.93-10.3,2.79-13.62,4.43-3.32,1.64-5.25,3.06-5.29,3.1-1.11.83-2.67.6-3.5-.5-.83-1.1-.6-2.67.5-3.5.1-.06,2.21-1.65,5.88-3.49,3.68-1.83,8.9-3.92,15.21-4.98,1.36-.22,2.65.7,2.88,2.06.22,1.36-.7,2.65-2.06,2.88Z"/>
    <path class="cls-5" d="M347.62,294.22h-.01c-.09-.07-.19-.14-.31-.23-.48-.34-1.18-.84-2.08-1.45-1.81-1.24-4.41-2.95-7.57-4.85-6.3-3.81-14.85-8.37-23.64-11.37-5.86-2-11.82-3.3-17.24-3.3-3.97,0-7.63.69-10.83,2.23-1.6.77-3.11,1.76-4.5,3.01-1.39,1.24-2.67,2.76-3.83,4.58-.02.03-.05.06-.07.09-.05.07-.1.14-.16.21-.06.06-.11.11-.16.17-.06.05-.13.11-.19.16-.06.05-.13.09-.2.14-.07.04-.13.08-.2.11-.08.04-.15.07-.22.1-.08.03-.16.06-.23.08-.08.02-.15.04-.23.05-.08.02-.16.03-.24.03-.09.01-.17.01-.25.01s-.15-.01-.23-.01c-.09-.01-.18-.03-.27-.05-.03-.01-.07-.01-.11-.02-.04-.01-.07-.02-.11-.04-.08-.02-.16-.05-.24-.09-.08-.03-.16-.07-.23-.12-.04-.02-.07-.03-.11-.05-.03-.02-.06-.05-.09-.07-.07-.05-.14-.1-.21-.16-.06-.06-.11-.11-.17-.16-.05-.06-.11-.13-.16-.19-.05-.06-.09-.13-.14-.2-.04-.07-.08-.13-.11-.2-.04-.08-.07-.15-.1-.22-.03-.08-.06-.16-.08-.23-.02-.08-.04-.15-.05-.23-.02-.08-.03-.16-.03-.24-.01-.09-.01-.17-.01-.25s.01-.15.01-.23c.01-.09.03-.18.05-.27.01-.03.01-.07.02-.11,1.16-4.33,2.81-8,4.87-11.06,2.06-3.05,4.53-5.48,7.28-7.33,5.49-3.71,11.98-5.08,18.49-5.08,6.01.01,12.1,1.16,17.74,2.82,5.63,1.66,10.8,3.83,14.96,5.93,1.11.56,2.15,1.12,3.1,1.66-.07-.2-.15-.4-.22-.6-4.88-13.24-10.97-26.39-18.36-39.25-.03,0-.06-.01-.09-.02h-.04s-.12-.05-.12-.05c-.12-.03-.29-.07-.52-.12-.45-.12-1.12-.28-1.99-.47-1.74-.39-4.25-.91-7.33-1.43-6.15-1.04-14.56-2.08-23.5-2.08-3.36,0-6.78.15-10.19.49-3.41.34-6.81.88-10.09,1.67-1.34.32-2.69-.5-3.01-1.85-.32-1.34.5-2.69,1.85-3.01,7.07-1.7,14.44-2.3,21.44-2.3,12.59.01,23.98,1.96,30.09,3.24-8.14-13.37-17.72-26.39-28.82-38.85-.03-.03-.05-.07-.08-.11-.03-.04-.06-.07-.09-.11-1.89-2.68-3.73-5.74-5.49-9.01-.38-.08-.75-.24-1.07-.51-1.94-1.61-3.79-2.64-5.53-3.27s-3.37-.87-4.89-.87c-2.64,0-4.97.75-6.66,1.54-.84.39-1.52.79-2,1.1-.47.3-.74.51-.75.52-.01.02-.04.03-.06.04-.06.05-.14.1-.21.14-.07.05-.15.09-.23.13-.02.01-.04.03-.07.04-.04.02-.09.03-.14.04-.08.04-.17.07-.25.09-.08.02-.16.03-.23.04-.09.01-.17.02-.25.03h-.24c-.08-.01-.16-.01-.24-.02-.08-.01-.15-.03-.23-.05-.08-.02-.16-.04-.24-.06-.07-.03-.14-.06-.21-.09-.08-.04-.15-.07-.22-.11-.07-.05-.14-.09-.2-.14-.07-.04-.13-.09-.19-.14-.07-.06-.13-.13-.19-.19-.03-.04-.07-.07-.1-.11-.02-.02-.03-.04-.05-.07-.05-.06-.1-.14-.14-.21-.05-.07-.09-.15-.13-.23-.01-.02-.03-.04-.04-.07-1.6-3.65-3.48-5.71-5.31-6.91-1.84-1.19-3.71-1.58-5.52-1.59-1.75,0-3.41.4-4.64.82-1.22.42-2,.85-2.01.86h0s-.06.02-.1.04c-.08.04-.16.07-.24.11-.07.02-.15.05-.22.07-.08.02-.16.04-.24.05-.08.02-.16.03-.24.04h-.24c-.08,0-.16,0-.24-.01-.08-.01-.16-.03-.24-.05-.07-.01-.15-.03-.22-.05-.08-.03-.16-.06-.23-.09-.08-.03-.15-.07-.22-.11-.07-.03-.13-.08-.2-.12-.07-.05-.15-.1-.21-.16-.03-.03-.07-.05-.1-.07l-.03-.04-.19-.16c-.17-.14-.43-.36-.77-.62-.68-.53-1.69-1.24-2.94-1.95-2.5-1.42-5.94-2.79-9.62-2.78-1.85,0-3.77.33-5.76,1.16-2,.84-4.08,2.2-6.21,4.33-.98.97-2.56.97-3.54,0-.17-.18-.3-.38-.42-.58-.47-.26-.88-.67-1.11-1.21-.49-1.13-.98-1.65-1.32-1.9-.35-.24-.6-.3-.98-.31-.49,0-1.16.2-1.73.48-.52.26-.93.56-1.04.65l-20.57,66.15c1.54-.17,3.49-.3,5.69-.3,2.63,0,5.59.19,8.62.8,3.02.6,6.1,1.62,8.92,3.31,1.18.71,1.56,2.24.85,3.43-.71,1.18-2.24,1.56-3.43.85-2.18-1.31-4.72-2.17-7.33-2.69-2.6-.52-5.26-.7-7.63-.7s-4.33.17-5.81.34c-.61.07-1.12.14-1.52.21l-12.89,41.46c.35-.14.7-.27,1.07-.39,2.63-.89,5.66-1.37,8.84-1.37,3.81,0,7.83.69,11.6,2.34,3.75,1.65,7.25,4.28,9.79,8.09,1.69,2.53,2.95,5.57,3.63,9.1v.09c.02.09.02.18.03.27v.23c0,.08-.01.16-.03.24-.01.08-.02.16-.04.24-.02.08-.05.15-.07.23-.03.08-.06.15-.09.23-.03.07-.07.13-.11.2-.05.08-.09.15-.15.22-.02.03-.03.06-.05.08-.03.04-.06.06-.09.1-.06.06-.12.13-.19.19-.06.05-.12.1-.18.15-.07.05-.13.09-.2.13-.08.05-.15.09-.22.12-.06.03-.13.06-.2.08.13.1.26.2.39.31,2.12,1.76,3.84,3.89,5.18,6.22,2.67,4.67,3.86,10.14,3.86,15.56,0,4.78-.93,9.53-2.71,13.69-1.78,4.15-4.42,7.75-8,10.04-2.38,1.53-5.18,2.42-8.22,2.42-.53,0-1.07-.03-1.62-.08h-.01c-2.76-.29-5.22-1.4-7.24-3.04-2.02-1.65-3.62-3.79-4.87-6.21-2.5-4.85-3.66-10.84-3.67-16.83,0-4.68.72-9.35,2.22-13.48,1.5-4.12,3.78-7.74,7.11-10.09,2.21-1.56,4.91-2.48,7.86-2.48.61,0,1.25.05,1.89.13-.07-.04-.14-.08-.22-.12-3.4-1.82-7.92-3.56-12.12-3.54-2.15,0-4.21.43-6.14,1.47s-3.79,2.72-5.49,5.45c-1.12,1.81-2.16,4.1-3.04,6.94-.59,1.89-1.11,4.04-1.54,6.45-.11.59-.21,1.19-.3,1.81-.02.11-.03.23-.05.34-.12.83-.23,1.68-.34,2.56-.11,1-.21,2.05-.3,3.13,0,.06-.01.12-.01.18-.01.19-.04.37-.09.55-.04.14-.1.27-.16.4-.12.24-.27.46-.47.66s-.41.34-.64.46c-.13.07-.27.13-.42.17-.46.13-.96.13-1.42,0-.14-.04-.27-.1-.4-.16-.24-.12-.46-.27-.66-.47-.05-.05-.1-.1-.14-.15-.76-.81-1.34-1.74-1.78-2.72-.47-1.04-.8-2.15-1.05-3.3-.03-.12-.05-.24-.07-.37l-.72,2.3c0,.16-.02.36-.03.63-.04.66-.08,1.65-.13,2.93-.09,2.56-.18,6.3-.18,10.96,0,11.92.6,29.91,3.36,49.94.01.01.02.01.03.02,33.72,25.74,71.88,37.75,113.11,37.76,25.19,0,51.51-4.5,78.61-13.15.09-.03.18-.05.27-.06,3.24-15.18,4.96-31.29,4.96-47.93,0-19.48-2.35-39.66-7.35-59.91ZM180.38,366.74c-1.23-.62-1.73-2.12-1.12-3.36l5-10c.62-1.23,2.12-1.73,3.36-1.12,1.23.62,1.73,2.12,1.12,3.36l-5,10c-.62,1.23-2.12,1.73-3.36,1.12ZM186.11,368.58c-1.15-.77-1.46-2.32-.69-3.47l8-12c.77-1.15,2.32-1.46,3.47-.69,1.15.77,1.46,2.32.69,3.47l-8,12c-.77,1.15-2.32,1.46-3.47.69ZM207.5,358l-9,12c-.83,1.1-2.4,1.33-3.5.5-1.1-.83-1.33-2.4-.5-3.5l9-12c.83-1.1,2.4-1.33,3.5-.5,1.1.83,1.33,2.4.5,3.5ZM249.56,371.92c-.07.09-.66.94-1.73,2.01-1.07,1.06-2.62,2.35-4.67,3.27-1.37.6-2.97,1.03-4.73,1.03-2.04,0-4.26-.59-6.44-1.92-1.09-.67-2.18-1.52-3.27-2.57-1.08-1.04-2.16-2.29-3.24-3.76-.81-1.11-.57-2.68.54-3.5,1.11-.81,2.68-.57,3.5.54,1.86,2.55,3.59,4.11,5.08,5.02,1.49.9,2.72,1.18,3.83,1.19.93,0,1.8-.22,2.62-.57.83-.35,1.59-.85,2.24-1.37.65-.53,1.19-1.07,1.56-1.49.38-.42.59-.72.6-.73.79-1.13,2.34-1.41,3.47-.63,1.14.79,1.42,2.35.64,3.48ZM311.77,355.55l-6,13c-.58,1.25-2.06,1.8-3.32,1.22-1.25-.58-1.8-2.06-1.22-3.32l6-13c.58-1.25,2.06-1.8,3.32-1.22,1.25.58,1.8,2.06,1.22,3.32ZM314.47,368.78c-1.26-.58-1.82-2.06-1.25-3.31l5-11c.58-1.26,2.06-1.82,3.31-1.25,1.26.58,1.82,2.06,1.25,3.31l-5,11c-.58,1.26-2.06,1.82-3.31,1.25ZM334.5,357l-9,12c-.83,1.1-2.4,1.33-3.5.5-1.1-.83-1.33-2.4-.5-3.5l9-12c.83-1.1,2.4-1.33,3.5-.5,1.1.83,1.33,2.4.5,3.5ZM335.13,329.85c-2.88,4.45-7.42,8.13-13.67,10.43-4.16,1.54-9.09,2.48-14.86,2.72-.02,0-.03-.01-.05-.01-.02.01-.03.01-.05.01-4.04,0-7.72-.91-10.9-2.54-3.19-1.63-5.88-3.96-8.02-6.71-4.29-5.53-6.46-12.75-6.47-20.09,0-5.74,1.35-11.59,4.2-16.76,2.85-5.16,7.23-9.65,13.18-12.52,1.98-.96,4.13-1.73,6.45-2.3,2.31-.58,4.79-.94,7.43-1.08.02,0,.04.01.07.01.02,0,.04-.01.06-.01,3.7,0,7.24,1.21,10.41,3.18,3.18,1.98,6.03,4.73,8.43,7.94,4.8,6.44,7.89,14.79,7.91,23.04,0,5.13-1.23,10.25-4.12,14.69Z"/>
  </g>
  <ellipse class="cls-4" cx="240.5" cy="315" rx="25.5" ry="29"/>
  <g>
    <path class="cls-14" d="M522.53,484.6c0,8.92-.8,16.72-2.43,22.84-23.37,8.84-41.98,11.71-56.3,11.71s-24.48-2.86-30.93-5.6c-3.23-1.37-5.54-2.71-7-3.67-.73-.47-1.24-.86-1.55-1.09-.15-.12-.25-.21-.3-.25l-.04-.03c-.29-.25-.6-.48-.92-.67-.02-.01-.04-.02-.06-.03-.32-.19-.65-.34-.99-.46-.04-.02-.08-.02-.11-.04-.34-.11-.68-.19-1.02-.24-.03-.01-.07-.01-.1-.01-.35-.05-.71-.07-1.06-.05h-.07c-.36.02-.72.08-1.08.16-.01.01-.03.01-.05.02-.35.09-.7.21-1.04.36-.02.02-.04.03-.07.04-.15.08-.3.15-.45.24-22.25,13.07-41.79,16.51-56.53,16.53-8.84,0-15.95-1.26-20.79-2.5-2.42-.61-4.27-1.22-5.48-1.66-.61-.22-1.05-.4-1.33-.51-.14-.06-.24-.1-.29-.13h-.04c-.36-.18-.73-.31-1.12-.4-.08-.02-.16-.03-.24-.05-.11-.02-.22-.04-.34-.06l-.39-.03c-.06,0-.13,0-.19-.02-.41-.01-.81.02-1.2.08h-.01c-13.29,2.22-25.96,3.16-37.87,3.16-33.37,0-60.93-7.37-80.11-14.72-9.59-3.68-17.08-7.35-22.14-10.08-2.52-1.36-4.44-2.49-5.71-3.26-.64-.39-1.11-.69-1.41-.88-.03-.02-.05-.04-.08-.05-3.85-3-7.09-6.65-9.75-10.45-2.74-3.92-4.9-7.99-6.53-11.69-.48-1.09-.92-2.14-1.31-3.16,6.94,6.18,14.68,10.67,21.33,13.81,9.21,4.35,16.35,6.14,16.46,6.17.04.01.09.01.13.01.08.02.17.03.26.04.08.01.16.01.24.01s.16,0,.24-.01.16-.02.24-.04c.08-.01.15-.03.23-.06.08-.02.15-.05.22-.08.08-.03.15-.06.23-.1.07-.04.13-.08.2-.13.07-.04.13-.09.19-.14.07-.05.14-.11.2-.18.03-.03.06-.05.09-.08.02-.03.04-.06.06-.08.06-.07.11-.14.16-.22.04-.07.08-.13.12-.2.04-.07.07-.14.1-.22.04-.08.07-.16.09-.25.01-.03.03-.06.04-.09.01-.04.01-.09.01-.13.02-.08.03-.17.04-.26.01-.08.01-.16.01-.24s0-.16-.01-.24-.02-.16-.04-.24c-.01-.08-.03-.15-.06-.23-.02-.08-.05-.15-.08-.22-.03-.08-.06-.15-.1-.23-.04-.07-.08-.13-.13-.2-.04-.07-.09-.13-.14-.19-.05-.07-.11-.14-.18-.2-.03-.03-.05-.06-.08-.09-5.53-4.96-10.47-10.58-14.86-16.69-4.39-6.11-8.24-12.71-11.61-19.63-9.63-19.76-15.35-42.1-18.67-62.82,33.58,24.34,71.54,35.78,112.1,35.77,24.99,0,50.98-4.32,77.61-12.6-2.53,10.49-5.8,20.51-9.74,29.89-10.24,24.39-25,44.51-43,57.94-.01.01-.02.02-.04.03-.07.06-.13.12-.2.19-.05.05-.11.1-.15.15-.06.07-.1.14-.15.21-.05.06-.1.12-.13.19-.04.07-.07.14-.1.21-.04.08-.07.16-.1.24-.02.06-.03.14-.05.21-.02.09-.05.18-.06.27,0,.02-.01.03-.01.05v.44c.01.08.02.16.04.23.01.08.02.17.05.25.02.08.05.15.08.23.03.08.05.15.09.22.04.08.09.16.14.23.03.05.05.1.09.15.01.01.02.02.03.04.06.07.13.13.19.2.05.05.1.11.15.15.07.06.14.1.21.15.06.05.12.1.19.13.07.04.14.07.21.1.08.04.16.07.24.1.06.02.14.04.21.05.09.02.18.05.27.06.02,0,.03.01.05.01,2,.2,4.01.29,6.02.29,14.72-.01,29.29-4.96,40.25-9.86,4.61-2.06,8.56-4.11,11.61-5.81-1.15,2.51-2.59,5.49-4.24,8.61-2.07,3.9-4.47,8.01-7.03,11.62-2.55,3.62-5.29,6.74-7.86,8.66-.05.03-.08.08-.12.11-.07.07-.15.12-.21.19-.05.06-.1.12-.15.19-.05.06-.1.13-.14.2-.05.07-.08.14-.12.22-.03.07-.07.14-.1.21-.03.09-.05.18-.07.27-.02.06-.04.11-.05.16v.05c-.02.09-.02.19-.03.28,0,.07-.01.14-.01.21.01.09.02.17.03.25.02.08.02.16.04.23.02.08.05.15.07.23.03.08.05.16.09.23.03.07.07.13.1.19.05.08.09.16.15.24.01.01.01.03.02.04.03.05.08.08.11.12.07.08.12.15.19.21.06.05.12.1.19.15.06.05.13.1.2.14.07.05.14.08.22.12.07.03.14.07.21.1.09.03.18.05.27.07.05.02.11.04.16.05.15.03,1.76.3,4.96.3,5.59,0,16.06-.84,32.16-5.35.05-.01.08-.04.12-.05.09-.03.17-.06.26-.1.07-.03.14-.07.21-.11.07-.04.13-.08.2-.13.07-.05.14-.11.21-.17.03-.03.07-.05.1-.08,6.65-6.65,12.15-13.91,16.65-21.59,4.5-7.69,8-15.82,10.66-24.23,5.33-16.81,7.33-34.75,7.33-52.68,0-10.97-.75-21.93-1.95-32.65,1.42.24,2.94.34,4.54.34,4.88,0,10.59-.99,16.51-2.89,8.87-2.85,18.18-7.77,25.41-14.79,3.61-3.52,6.7-7.57,8.89-12.16,2.18-4.59,3.46-9.72,3.46-15.29,0-6.16-1.56-12.83-5.02-19.93-.01,0-.02-.02-.02-.03-.01-.01-.01-.02-.01-.03-4.77-9.12-10.52-15.23-16.72-19.01-6.19-3.79-12.77-5.21-19.02-5.21-2.45,0-4.84.21-7.16.59-.64-5.58-3.17-25.72-9.14-51.28-7.04-30.15-18.82-67.87-38.07-98.27,0,0,0-.01-.01-.01-.06-.09-.13-.17-.2-.26-.04-.04-.07-.09-.11-.13-.04-.04-.09-.08-.13-.11-.08-.08-.16-.15-.26-.22h-.01c-.07-.05-2.66-1.79-7.57-4.37-4.91-2.58-12.14-6.02-21.47-9.44-9.92-3.64-22.23-7.27-36.64-9.88-.9-1.85-1.71-3.59-2.41-5.22-.03-.08-.08-.14-.11-.21-.04-.07-.08-.15-.13-.22s-.1-.13-.15-.19c-.06-.06-.11-.13-.16-.19-.06-.06-.13-.1-.19-.15s-.12-.11-.19-.15c-.07-.04-.14-.08-.21-.11-.07-.04-.14-.08-.22-.11-.07-.03-.15-.05-.22-.07-.08-.03-.16-.06-.23-.07-.08-.02-.16-.02-.24-.03-.08,0-.16-.02-.25-.02-.08,0-.16.02-.24.02-.08.01-.16.01-.24.03-.09.01-.17.05-.25.07-.07.02-.15.04-.22.07l-10.28,4.23c-8.41-.93-17.37-1.49-26.87-1.49-4.39,0-8.91.12-13.52.37-1.15-1.12-2.3-2.21-3.43-3.22-1.4-1.26-2.77-2.41-4.07-3.4-1.31-.98-2.55-1.81-3.76-2.42-.04-.02-.09-.03-.13-.04-.08-.04-.16-.07-.24-.1-.08-.02-.15-.04-.23-.06-.08-.01-.16-.03-.24-.04-.08,0-.16,0-.24,0s-.16,0-.25,0c-.08,0-.16.01-.24.03-.07.01-.15.03-.23.05-.08.03-.17.06-.25.09-.04.02-.08.02-.12.04l-28,13c-.51.24-.89.62-1.14,1.07-.4.22-.75.56-.99.99-6.25,1.38-12.64,3.01-19.17,4.92,13.09-20.43,30.07-35.39,47.86-45.52,9.94-5.65,20.11-9.79,29.95-12.5,9.84-2.72,19.34-4.01,27.87-4.01s15.68,1.23,21.55,3.43c2.93,1.09,5.48,2.42,7.61,3.92s3.84,3.17,5.15,4.98c.03.05.06.09.1.13.08.1.16.21.24.31.05.05.11.11.16.17.08.08.16.17.25.25.07.06.14.12.21.18.07.06.15.13.23.19.08.07.17.13.25.19.07.04.14.09.22.14.09.06.19.11.28.17.08.04.15.08.22.11.1.05.2.1.3.14.08.04.15.07.23.1.1.04.19.07.29.1.09.03.18.06.27.09.09.02.18.04.27.06.1.02.2.05.3.07.08.01.16.02.25.03.11.02.22.03.33.04.08.01.16.01.24.01.11,0,.22.01.33.01.09-.01.17-.01.26-.02.11,0,.21-.01.32-.02.09,0,.19-.03.29-.05.09-.01.18-.03.27-.04.12-.03.23-.06.35-.09.07-.02.14-.04.22-.06.12-.04.25-.09.37-.14.05-.02.1-.03.15-.06,10.31-4.36,20.14-6.28,29.61-6.29,7.98,0,15.72,1.38,23.27,3.93,13.21,4.46,25.84,12.59,37.6,23.25,17.64,15.97,33.24,37.6,45.89,60.24,12.63,22.56,22.35,46.13,28.51,65.96,2.56,10.1,3.46,19.07,3.47,27.66,0,10.82-1.46,21.08-3,32.07-1.52,10.97-3.1,22.65-3.1,36.01-.01,13.66,1.66,29.04,6.61,47.18,2.62,9.94,5.21,20.19,7.62,30.47,2.4,10.28,4.62,20.6,6.5,30.65,3.78,20.12,6.22,39.25,6.21,54.95Z"/>
    <path class="cls-14" d="M258.75,133.14c-4.32,4.87-8.62,10.19-12.22,14.83-3.07,3.93-5.61,7.35-7.22,9.54-1.98-2.21-5.22-5.76-9.02-9.64-3.16-3.21-6.7-6.66-10.23-9.76-3.55-3.11-7.06-5.88-10.3-7.77-.01,0-.02-.01-.02-.01-.08-.04-.16-.07-.24-.11-.08-.03-.15-.07-.23-.1-.01,0-.02,0-.03-.01-.06-.02-.11-.02-.17-.03-.1-.03-.19-.05-.29-.06-.08,0-.15,0-.23,0-.09,0-.17-.01-.25,0-.09,0-.17.03-.25.04-.07.02-.15.03-.23.05-.07.02-.15.05-.22.08-.08.03-.15.05-.22.09-.07.04-.14.08-.2.12-.07.05-.15.09-.21.14-.07.05-.13.11-.19.17-.05.05-.11.1-.16.16-.07.07-.12.16-.18.24-.03.05-.07.09-.1.14,0,.01-.01.02-.01.02-.04.08-.07.16-.11.24-.03.08-.07.15-.1.23,0,.01,0,.02-.01.03l-55.93,179.83c-.04.12-.08.24-.11.37l-8.96,28.8c-.41,1.32.33,2.72,1.65,3.13,1.32.41,2.72-.33,3.13-1.65l3.75-12.05c.12,17.42,1.56,45.46,8.19,74.38,3.49,15.21,8.41,30.66,15.37,44.94,5.35,10.97,11.91,21.25,19.95,30.17-1.84-.74-3.86-1.62-6-2.64-8.71-4.15-19.18-10.69-26.7-20.1-.03-.04-.07-.07-.1-.1-.06-.07-.12-.13-.19-.19-.05-.06-.12-.11-.18-.15-.07-.05-.13-.1-.2-.14-.07-.04-.14-.08-.22-.11-.07-.04-.14-.07-.22-.1-.07-.02-.15-.04-.22-.06-.08-.02-.16-.04-.24-.05-.08-.02-.16-.02-.24-.03h-.24c-.09,0-.18,0-.27.03-.05,0-.09,0-.14.01-.03.01-.05.02-.08.03-.08.02-.17.05-.25.08-.08.02-.15.05-.22.08-.07.04-.14.08-.21.12-.08.04-.15.09-.22.14-.03.02-.05.03-.07.05-.04.03-.07.06-.1.1-.07.06-.13.12-.19.19-.06.05-.11.12-.15.18-.05.07-.1.13-.14.2-.04.07-.08.14-.11.22-.04.07-.07.14-.1.22-.02.07-.04.15-.06.22-.02.08-.04.16-.05.24-.02.08-.02.16-.03.24v.24c0,.09.01.18.03.27,0,.05,0,.09.01.14.03.12,1.31,6.27,4.79,14.13,2.82,6.37,7.09,13.9,13.4,20.19-.06.05-.11.09-.17.14-.07.07-.14.13-.21.19l-.18.18c-.08.09-.16.17-.24.26-.05.06-.09.11-.13.17-.08.1-.16.21-.24.32-.01.01-.03.03-.04.04-.02.04-.04.09-.07.13-.08.11-.15.23-.21.35-.05.08-.08.16-.12.23-.05.11-.1.21-.15.32-.04.09-.07.18-.11.28-.02.05-.04.11-.06.16s-.03.1-.04.15c-.03.08-.05.16-.07.25-.26.84-.45,1.67-.59,2.49-8.73-6.78-21.61-19.22-32.36-39.63-10.83-20.56-19.57-49.25-19.58-88.76,0-44.26,11.02-102.12,42.7-176.9,3.87-5.32,10.24-14.14,17.18-24.01,5.63-8.01,11.64-16.72,17-24.81,4.75-7.17,8.98-13.83,12.02-19.17.39-.69.77-1.36,1.12-2.01l11.82-5.48,14.88-6.91c.59.37,1.26.82,1.97,1.36,1.14.86,2.4,1.92,3.69,3.09,1.02.9,2.05,1.86,3.1,2.87.6.59,1.21,1.19,1.81,1.79,2.97,2.97,5.85,6.07,8.11,8.57,1.36,1.5,2.5,2.79,3.29,3.7.15.17.27.31.39.45Z"/>
    <path class="cls-14" d="M404.91,413.77c0,17.56-1.96,34.99-7.09,51.17-5.07,15.99-13.22,30.74-25.64,43.33-13.89,3.84-23.24,4.82-28.61,4.97,1.61-1.79,3.16-3.78,4.64-5.89,4.2-6.02,7.83-12.97,10.43-18.44,2.61-5.47,4.17-9.46,4.19-9.5.02-.05.03-.1.04-.16.03-.1.07-.19.08-.29.02-.08.02-.16.03-.24.01-.08.02-.16.02-.24,0-.09-.02-.16-.03-.25,0-.08,0-.16-.02-.24-.02-.08-.05-.15-.07-.23-.03-.08-.05-.16-.08-.23-.04-.1-.09-.18-.14-.27-.03-.05-.05-.1-.08-.15h-.01c-.07-.11-.15-.21-.24-.3-.03-.03-.05-.06-.08-.09-.06-.06-.13-.11-.19-.16-.07-.05-.12-.11-.19-.15-.04-.02-.08-.04-.11-.06-.11-.06-.22-.12-.33-.17t-.02-.01s-.1-.03-.16-.04c-.09-.03-.19-.07-.29-.08-.08-.02-.16-.02-.24-.03-.08,0-.16-.02-.24-.02-.09,0-.17.02-.25.03-.08,0-.16.01-.24.02-.08.02-.16.05-.24.08-.07.02-.15.04-.22.07-.1.04-.19.09-.28.15-.04.02-.09.04-.14.07h-.01c-.36.25-7.6,5-18.12,9.66-10.25,4.55-23.63,8.97-36.69,9.18,16.42-13.89,29.8-33.1,39.32-55.77,10.53-25.06,16.36-54.34,16.36-85.36,0-57.41-20.01-120.81-67.49-174.16-2.85-4.06-5.72-9.29-8.38-14.85-4.03-8.39-7.59-17.5-10.14-24.5-1.27-3.51-2.29-6.48-3-8.57-.33-1.01-.59-1.8-.77-2.36l19.8-8.16,9.22-3.79c.79,1.73,1.7,3.57,2.67,5.48,3.85,7.56,8.99,16.41,14.92,26.4,12.13,20.41,27.48,45.46,41.28,72.94,13.8,27.47,26.04,57.38,31.97,87.42v.02h0c2.86,13.79,6.58,30.25,9.58,48.02,3,17.76,5.28,36.82,5.28,55.75Z"/>
  </g>
  <g>
    <path class="cls-13" d="M195,299.5c0,.97-.39,1.83-1.03,2.47-.64.64-1.5,1.03-2.47,1.03s-1.83-.39-2.47-1.03c-.64-.64-1.03-1.5-1.03-2.47s.39-1.83,1.03-2.47,1.5-1.03,2.47-1.03c.42,0,.81.09,1.18.22.08.03.16.05.23.08.4.18.76.42,1.06.73.64.64,1.03,1.5,1.03,2.47Z"/>
    <path class="cls-2" d="M204.8,316.92c.01,5.51-1.47,11.01-3.99,14.93-1.26,1.97-2.75,3.53-4.41,4.59-1.66,1.05-3.46,1.62-5.53,1.63-.36,0-.73-.02-1.11-.06-1.76-.19-3.24-.85-4.61-1.95-2.04-1.64-3.76-4.38-4.92-7.78-1.16-3.38-1.77-7.38-1.77-11.37-.01-5.55,1.19-11.08,3.36-14.98.37-.67.78-1.28,1.21-1.85.14,2.11,1.05,4.03,2.46,5.43,1.53,1.53,3.67,2.49,6.01,2.49s4.48-.96,6.01-2.49c1.14-1.14,1.96-2.61,2.3-4.25,1.33,1.62,2.4,3.49,3.2,5.54,1.2,3.11,1.79,6.61,1.79,10.12Z"/>
    <path class="cls-13" d="M317,291.5c0,1.25-.5,2.36-1.32,3.18s-1.93,1.32-3.18,1.32-2.36-.5-3.18-1.32-1.32-1.93-1.32-3.18.5-2.36,1.32-3.18,1.93-1.32,3.18-1.32,2.36.5,3.18,1.32,1.32,1.93,1.32,3.18Z"/>
    <path class="cls-8" d="M334.25,315.16c0,2.9-.46,5.7-1.44,8.27-1.48,3.87-4.08,7.25-8.29,9.86-4.2,2.59-10.08,4.38-18.07,4.71-3.27-.01-6.11-.74-8.58-2-3.72-1.89-6.64-5.05-8.66-8.98-2.02-3.92-3.1-8.6-3.1-13.36,0-6.63,2.09-13.34,6.39-18.44,2.15-2.56,4.85-4.73,8.17-6.33,1-.49,2.06-.91,3.17-1.28-.53,1.19-.84,2.51-.84,3.89,0,2.62,1.07,5.01,2.78,6.72,1.71,1.71,4.1,2.78,6.72,2.78s5.01-1.07,6.72-2.78c1.71-1.71,2.78-4.1,2.78-6.72,0-.7-.08-1.38-.23-2.04,3.25,2.42,6.21,6,8.41,10.16,2.55,4.79,4.07,10.31,4.07,15.54Z"/>
  </g>
  <g>
    <ellipse class="cls-10" cx="191.5" cy="361.5" rx="21.5" ry="15.5"/>
    <ellipse class="cls-10" cx="319.5" cy="363" rx="24.5" ry="15"/>
    <path class="cls-3" d="M334.5,357l-9,12c-.83,1.1-2.4,1.33-3.5.5-1.1-.83-1.33-2.4-.5-3.5l9-12c.83-1.1,2.4-1.33,3.5-.5,1.1.83,1.33,2.4.5,3.5Z"/>
    <path class="cls-3" d="M322.78,356.53l-5,11c-.58,1.26-2.06,1.82-3.31,1.25-1.26-.58-1.82-2.06-1.25-3.31l5-11c.58-1.26,2.06-1.82,3.31-1.25,1.26.58,1.82,2.06,1.25,3.31Z"/>
    <path class="cls-3" d="M311.77,355.55l-6,13c-.58,1.25-2.06,1.8-3.32,1.22-1.25-.58-1.8-2.06-1.22-3.32l6-13c.58-1.25,2.06-1.8,3.32-1.22,1.25.58,1.8,2.06,1.22,3.32Z"/>
    <path class="cls-3" d="M207.5,358l-9,12c-.83,1.1-2.4,1.33-3.5.5-1.1-.83-1.33-2.4-.5-3.5l9-12c.83-1.1,2.4-1.33,3.5-.5,1.1.83,1.33,2.4.5,3.5Z"/>
    <path class="cls-3" d="M197.58,355.89l-8,12c-.77,1.15-2.32,1.46-3.47.69-1.15-.77-1.46-2.32-.69-3.47l8-12c.77-1.15,2.32-1.46,3.47-.69,1.15.77,1.46,2.32.69,3.47Z"/>
    <path class="cls-3" d="M188.74,355.62l-5,10c-.62,1.23-2.12,1.73-3.36,1.12-1.23-.62-1.73-2.12-1.12-3.36l5-10c.62-1.23,2.12-1.73,3.36-1.12,1.23.62,1.73,2.12,1.12,3.36Z"/>
  </g>
  <g>
    <path class="cls-7" d="M350.01,402.06c3.24-15.18,4.96-31.29,4.96-47.93,0-19.48-2.35-39.66-7.35-59.91h-.01c-.61-2.47-1.26-4.93-1.95-7.4-1.03-3.7-2.16-7.4-3.38-11.1-.87-2.65-1.78-5.29-2.75-7.93-.07-.2-.15-.4-.22-.6-4.88-13.24-10.97-26.39-18.36-39.25-1.13-1.99-2.3-3.96-3.5-5.93-8.14-13.37-17.72-26.39-28.82-38.85-.03-.03-.05-.07-.08-.11-.03-.04-.06-.07-.09-.11-1.89-2.68-3.73-5.74-5.49-9.01-.38-.08-.75-.24-1.07-.51-1.94-1.61-3.79-2.64-5.53-3.27-1.48-.53-2.88-.79-4.19-.85-.24-.01-.47-.02-.7-.02-1.4,0-2.71.21-3.89.53,29.87,40.41,48.63,73.45,59.96,103.24,11.47,30.2,15.33,57.07,15.33,85.1,0,15.07-1.12,30.47-2.79,46.89,1.37-.4,2.76-.8,4.14-1.22,1.83-.55,3.67-1.11,5.51-1.7.09-.03.18-.05.27-.06Z"/>
    <path class="cls-7" d="M182.77,263.74c9.47-30.43,21.57-63.27,32-101.65-.82.61-1.66,1.34-2.5,2.18-.66.65-1.59.87-2.42.64-.41-.1-.8-.32-1.12-.64-.17-.18-.3-.38-.42-.58-.47-.26-.88-.67-1.11-1.21-.49-1.13-.98-1.65-1.32-1.9-.35-.24-.6-.3-.98-.31-.49,0-1.16.2-1.73.48-.52.26-.93.56-1.04.65l-20.57,66.15-1.64,5.25-12.89,41.46-2.31,7.43-3.73,11.98-5.3,17.06-.72,2.3c0,.16-.02.36-.03.63-.04.66-.08,1.65-.13,2.93-.09,2.56-.18,6.3-.18,10.96,0,11.92.6,29.91,3.36,49.94.01.01.02.01.03.02,2.35,1.8,4.73,3.53,7.12,5.19,1.55,1.07,3.11,2.12,4.67,3.14-2.38-11.78-3.43-23.23-3.43-34.56,0-28.86,6.86-56.97,16.39-87.54Z"/>
    <ellipse class="cls-7" cx="424" cy="346" rx="17" ry="12" transform="translate(-76.17 123.92) rotate(-15.27)"/>
  </g>
  <g>
    <g>
      <path class="cls-1" d="M323.92,226.14c-.35,1.31-1.67,2.09-2.97,1.8-.03,0-.06-.01-.09-.02h-.04s-.12-.05-.12-.05c-.12-.03-.29-.07-.52-.12-.45-.12-1.12-.28-1.99-.47-1.74-.39-4.25-.91-7.33-1.43-6.15-1.04-14.56-2.08-23.5-2.08-3.36,0-6.78.15-10.19.49-3.41.34-6.81.88-10.09,1.67-1.34.32-2.69-.5-3.01-1.85-.32-1.34.5-2.69,1.85-3.01,7.07-1.7,14.44-2.3,21.44-2.3,12.59.01,23.98,1.96,30.09,3.24,2.94.61,4.65,1.06,4.69,1.07,1.34.36,2.13,1.73,1.78,3.06Z"/>
      <path class="cls-1" d="M205.64,234.79c-.71,1.18-2.24,1.56-3.43.85-2.18-1.31-4.72-2.17-7.33-2.69-2.6-.52-5.26-.7-7.63-.7s-4.33.17-5.81.34c-.61.07-1.12.14-1.52.21-.57.08-.89.14-.93.15-1.35.27-2.67-.61-2.94-1.96-.27-1.35.61-2.67,1.96-2.94.06-.01,1.4-.28,3.55-.5,1.54-.17,3.49-.3,5.69-.3,2.63,0,5.59.19,8.62.8,3.02.6,6.1,1.62,8.92,3.31,1.18.71,1.56,2.24.85,3.43Z"/>
    </g>
    <g>
      <g>
        <path class="cls-1" d="M248.92,368.44c-1.13-.78-2.68-.5-3.47.63-.01,0-.22.31-.6.73-.37.42-.91.96-1.56,1.49-.65.52-1.41,1.02-2.24,1.37-.82.35-1.69.57-2.62.57-1.11-.01-2.34-.29-3.83-1.19-1.49-.91-3.22-2.47-5.08-5.02-.82-1.11-2.39-1.35-3.5-.54-1.11.82-1.35,2.39-.54,3.5,1.08,1.47,2.16,2.72,3.24,3.76,1.09,1.05,2.18,1.9,3.27,2.57,2.18,1.33,4.4,1.92,6.44,1.92,1.76,0,3.36-.43,4.73-1.03,2.05-.92,3.6-2.21,4.67-3.27,1.07-1.07,1.66-1.92,1.73-2.01.78-1.13.5-2.69-.64-3.48Z"/>
        <path class="cls-1" d="M350.99,290.5s-2-1.5-5.33-3.68c-3.16-2.08-7.53-4.79-12.63-7.51-5.22-2.8-11.2-5.6-17.41-7.72-6.2-2.12-12.65-3.56-18.85-3.57-4.54,0-8.97.79-13,2.72-.16.08-.32.17-.47.25,2.34-2.91,5.11-4.93,8.23-6.31,3.67-1.6,7.83-2.3,12.2-2.3,8.73-.01,18.22,2.79,25.66,5.99,3.72,1.59,6.93,3.28,9.27,4.71,1.17.72,2.12,1.38,2.78,1.9.33.26.59.48.75.64l.09.1.08.08.02.02c.73,1.16,2.24,1.53,3.41.82,1.18-.71,1.56-2.24.85-3.43-.29-.47-.59-.8-.94-1.15-.64-.63-1.44-1.25-2.43-1.95-1.05-.72-2.3-1.5-3.74-2.32-.95-.54-1.99-1.1-3.1-1.66-4.16-2.1-9.33-4.27-14.96-5.93-5.64-1.66-11.73-2.81-17.74-2.82-6.51,0-13,1.37-18.49,5.08-2.75,1.85-5.22,4.28-7.28,7.33-2.06,3.06-3.71,6.73-4.87,11.06-.01.04-.01.08-.02.11-.02.09-.04.18-.05.27,0,.08-.01.15-.01.23s0,.16.01.25c0,.08.01.16.03.24.01.08.03.15.05.23.02.07.05.15.08.23.03.07.06.14.1.22.03.07.07.13.11.2.05.07.09.14.14.2.05.06.11.13.16.19.06.05.11.1.17.16.07.06.14.11.21.16.03.02.06.05.09.07.04.02.07.03.11.05.07.05.15.09.23.12.08.04.16.07.24.09.04.02.07.03.11.04.04.01.08.01.11.02.09.02.18.04.27.05.08,0,.15.01.23.01s.16,0,.25-.01c.08,0,.16-.01.24-.03.08-.01.15-.03.23-.05.07-.02.15-.05.23-.08.07-.03.14-.06.22-.1.07-.03.13-.07.2-.11.07-.05.14-.09.2-.14.06-.05.13-.11.19-.16.05-.06.1-.11.16-.17.06-.07.11-.14.16-.21.02-.03.05-.06.07-.09,1.16-1.82,2.44-3.34,3.83-4.58,1.39-1.25,2.9-2.24,4.5-3.01,3.2-1.54,6.86-2.23,10.83-2.23,5.42,0,11.38,1.3,17.24,3.3,8.79,3,17.34,7.56,23.64,11.37,3.16,1.9,5.76,3.61,7.57,4.85.9.61,1.6,1.11,2.08,1.45.12.09.22.16.31.23h.01c.08.06.15.12.21.16l.14.1.04.02c1.1.83,2.67.6,3.49-.51.83-1.1.6-2.67-.51-3.49Z"/>
        <path class="cls-1" d="M201.96,292.03c-.68-3.53-1.94-6.57-3.63-9.1-2.54-3.81-6.04-6.44-9.79-8.09-3.77-1.65-7.79-2.34-11.6-2.34-3.18,0-6.21.48-8.84,1.37-.37.12-.72.25-1.07.39-.92.36-1.77.78-2.57,1.26-1.09.66-2.06,1.43-2.86,2.35-.9,1.05-.78,2.63.27,3.53.82.7,1.96.78,2.85.29.25-.14.48-.33.68-.56.36-.43.91-.89,1.64-1.33,1.1-.66,2.57-1.25,4.27-1.66,1.71-.41,3.63-.64,5.63-.64,4.26-.01,8.83,1.06,12.48,3.49,1.83,1.22,3.44,2.76,4.75,4.72.15.22.28.48.43.71-3.81-2-8.91-4.07-14.4-4.09-2.51,0-5.1.46-7.59,1.6-1.86.86-3.65,2.11-5.27,3.78-2.44,2.51-4.5,5.94-6.08,10.45-.39,1.13-.76,2.32-1.1,3.59.07-1.77.22-3.43.38-4.76.11-.94.21-1.71.29-2.24.04-.27.08-.48.1-.62l.02-.15v-.05c.03-.09.04-.17.04-.26.09-1.26-.79-2.41-2.06-2.63-1.36-.24-2.65.67-2.89,2.03,0,.08-.93,5.22-.93,10.9,0,2.24.13,4.57.58,6.76.02.13.04.25.07.37.25,1.15.58,2.26,1.05,3.3.44.98,1.02,1.91,1.78,2.72.04.05.09.1.14.15.2.2.42.35.66.47.13.06.26.12.4.16.46.13.96.13,1.42,0,.15-.05.29-.1.42-.17.23-.12.45-.27.64-.46.2-.2.35-.42.47-.66.06-.13.12-.26.16-.4.05-.18.08-.36.09-.55,0-.06.01-.12.01-.18.09-1.08.19-2.13.3-3.13.11-.88.22-1.73.34-2.56.02-.11.03-.23.05-.34.09-.62.19-1.22.3-1.81.43-2.41.95-4.56,1.54-6.45.88-2.84,1.92-5.13,3.04-6.94,1.7-2.73,3.56-4.41,5.49-5.45s3.99-1.47,6.14-1.47c4.2-.02,8.72,1.72,12.12,3.54.08.04.15.08.22.12,1.61.87,2.95,1.73,3.9,2.37.49.34.88.62,1.13.81.13.1.23.17.29.22l.07.05h.01s.05.04.08.06c.07.06.14.1.22.15.07.04.13.08.2.11.08.03.15.06.23.09.08.02.15.05.23.07.08.02.16.03.24.04.08.02.16.03.24.03h.23c.09-.01.18-.01.26-.03h.1s.08-.03.13-.04c.08-.02.17-.05.25-.08t.02-.01c.07-.02.14-.05.2-.08.07-.03.14-.07.22-.12.07-.04.13-.08.2-.13.06-.05.12-.1.18-.15.07-.06.13-.13.19-.19.03-.04.06-.06.09-.1.02-.02.03-.05.05-.08.06-.07.1-.14.15-.22.04-.07.08-.13.11-.2.03-.08.06-.15.09-.23.02-.08.05-.15.07-.23.02-.08.03-.16.04-.24.02-.08.03-.16.03-.24v-.23c-.01-.09-.01-.18-.03-.27v-.09Z"/>
      </g>
      <g>
        <path class="cls-1" d="M182,339.95c2.02,1.64,4.48,2.75,7.24,3.04h.01c.55.05,1.09.08,1.62.08,3.04,0,5.84-.89,8.22-2.42,3.58-2.29,6.22-5.89,8-10.04,1.78-4.16,2.71-8.91,2.71-13.69,0-5.42-1.19-10.89-3.86-15.56-1.34-2.33-3.06-4.46-5.18-6.22-.13-.11-.26-.21-.39-.31-1.61-1.28-3.47-2.34-5.51-3.14-.31-.13-.63-.24-.95-.34-.18-.06-.35-.13-.53-.19-.02-.01-.05-.01-.07-.02-.03-.01-.05-.02-.08-.03-.07-.02-.13-.03-.19-.04-.06-.01-.12-.04-.19-.04-.03-.01-.07-.01-.1-.02h-.03c-.06-.01-.12-.02-.18-.02-.64-.08-1.28-.13-1.89-.13-2.95,0-5.65.92-7.86,2.48-3.33,2.35-5.61,5.97-7.11,10.09-1.5,4.13-2.22,8.8-2.22,13.48,0,5.99,1.17,11.98,3.67,16.83,1.25,2.42,2.85,4.56,4.87,6.21ZM189.03,297.03c.64-.64,1.5-1.03,2.47-1.03.42,0,.81.09,1.18.22.08.03.16.05.23.08.4.18.76.42,1.06.73.64.64,1.03,1.5,1.03,2.47s-.39,1.83-1.03,2.47c-.64.64-1.5,1.03-2.47,1.03s-1.83-.39-2.47-1.03c-.64-.64-1.03-1.5-1.03-2.47s.39-1.83,1.03-2.47ZM181.82,301.93c.37-.67.78-1.28,1.21-1.85.14,2.11,1.05,4.03,2.46,5.43,1.53,1.53,3.67,2.49,6.01,2.49s4.48-.96,6.01-2.49c1.14-1.14,1.96-2.61,2.3-4.25,1.33,1.62,2.4,3.49,3.2,5.54,1.2,3.11,1.79,6.61,1.79,10.12.01,5.51-1.47,11.01-3.99,14.93-1.26,1.97-2.75,3.53-4.41,4.59-1.66,1.05-3.46,1.62-5.53,1.63-.36,0-.73-.02-1.11-.06-1.76-.19-3.24-.85-4.61-1.95-2.04-1.64-3.76-4.38-4.92-7.78-1.16-3.38-1.77-7.38-1.77-11.37-.01-5.55,1.19-11.08,3.36-14.98Z"/>
        <path class="cls-1" d="M295.6,340.46c3.18,1.63,6.86,2.54,10.9,2.54.02,0,.03,0,.05-.01.02,0,.03.01.05.01,5.77-.24,10.7-1.18,14.86-2.72,6.25-2.3,10.79-5.98,13.67-10.43,2.89-4.44,4.12-9.56,4.12-14.69-.02-8.25-3.11-16.6-7.91-23.04-2.4-3.21-5.25-5.96-8.43-7.94-3.17-1.97-6.71-3.18-10.41-3.18-.02,0-.04.01-.06.01-.03,0-.05-.01-.07-.01-2.64.14-5.12.5-7.43,1.08-2.32.57-4.47,1.34-6.45,2.3-5.95,2.87-10.33,7.36-13.18,12.52-2.85,5.17-4.2,11.02-4.2,16.76.01,7.34,2.18,14.56,6.47,20.09,2.14,2.75,4.83,5.08,8.02,6.71ZM309.32,288.32c.82-.82,1.93-1.32,3.18-1.32s2.36.5,3.18,1.32,1.32,1.93,1.32,3.18-.5,2.36-1.32,3.18-1.93,1.32-3.18,1.32-2.36-.5-3.18-1.32-1.32-1.93-1.32-3.18.5-2.36,1.32-3.18ZM292.5,295.22c2.15-2.56,4.85-4.73,8.17-6.33,1-.49,2.06-.91,3.17-1.28-.53,1.19-.84,2.51-.84,3.89,0,2.62,1.07,5.01,2.78,6.72,1.71,1.71,4.1,2.78,6.72,2.78s5.01-1.07,6.72-2.78c1.71-1.71,2.78-4.1,2.78-6.72,0-.7-.08-1.38-.23-2.04,3.25,2.42,6.21,6,8.41,10.16,2.55,4.79,4.07,10.31,4.07,15.54,0,2.9-.46,5.7-1.44,8.27-1.48,3.87-4.08,7.25-8.29,9.86-4.2,2.59-10.08,4.38-18.07,4.71-3.27-.01-6.11-.74-8.58-2-3.72-1.89-6.64-5.05-8.66-8.98-2.02-3.92-3.1-8.6-3.1-13.36,0-6.63,2.09-13.34,6.39-18.44Z"/>
      </g>
    </g>
    <path class="cls-9" d="M160.95,293.98l-.02.15c-.02.14-.06.35-.1.62-.08.53-.18,1.3-.29,2.24-.16,1.33-.31,2.99-.38,4.76.34-1.27.71-2.46,1.1-3.59,1.58-4.51,3.64-7.94,6.08-10.45,1.62-1.67,3.41-2.92,5.27-3.78,2.49-1.14,5.08-1.6,7.59-1.6,5.49.02,10.59,2.09,14.4,4.09-.15-.23-.28-.49-.43-.71-1.31-1.96-2.92-3.5-4.75-4.72-3.65-2.43-8.22-3.5-12.48-3.49-2,0-3.92.23-5.63.64-1.7.41-3.17,1-4.27,1.66-.73.44-1.28.9-1.64,1.33-.2.23-.43.42-.68.56l-3.73,11.98c0,.09-.01.17-.03.26v.05Z"/>
    <path class="cls-15" d="M341.44,274.98c-.66-.52-1.61-1.18-2.78-1.9-2.34-1.43-5.55-3.12-9.27-4.71-7.44-3.2-16.93-6-25.66-5.99-4.37,0-8.53.7-12.2,2.3-3.12,1.38-5.89,3.4-8.23,6.31.15-.08.31-.17.47-.25,4.03-1.93,8.46-2.72,13-2.72,6.2.01,12.65,1.45,18.85,3.57,6.21,2.12,12.19,4.92,17.41,7.72,5.1,2.72,9.47,5.43,12.63,7.51-1.03-3.7-2.16-7.4-3.38-11.1l-.09-.1c-.16-.16-.42-.38-.75-.64Z"/>
  </g>
  <g>
    <path class="cls-12" d="M471.98,186.24s0-.06-.01-.09c0-.05-.02-.09-.03-.14-.02-.08-.03-.17-.06-.25-.03-.09-.06-.17-.09-.25-.02-.04-.03-.09-.05-.13-.08-.15-4.18-8.31-14.32-20.48-.01,0-.03-.02-.04-.04-.06-.07-.13-.13-.2-.19-.05-.05-.1-.11-.16-.15-.06-.05-.14-.09-.21-.13-.06-.05-.13-.09-.2-.13-.07-.03-.15-.06-.22-.08-.08-.03-.15-.07-.23-.09-.07-.02-.15-.03-.22-.04-.09-.02-.18-.03-.27-.04-.02,0-.04-.01-.06-.01-.05,0-.11.01-.16.01-.09,0-.18,0-.27.02-.08.01-.16.03-.23.04-.09.02-.17.04-.25.07-.08.02-.15.06-.23.09-.07.03-.14.06-.21.1-.08.05-.15.1-.23.16-.04.03-.09.05-.13.09-.01.01-.02.03-.04.04-.07.06-.13.13-.19.2-.05.05-.11.1-.15.16-.05.06-.09.14-.13.21-.05.06-.09.13-.13.2-.03.07-.06.15-.08.22-.03.08-.07.15-.09.23-.02.07-.03.15-.04.22-.02.09-.03.18-.04.27,0,.02-.01.04-.01.06l-.7,15.41c-5.94-10.53-13.49-22.5-22.81-34.81-.03-.04-.07-.08-.11-.12-.06-.07-.12-.14-.19-.2-.06-.06-.12-.1-.18-.15-.07-.05-.13-.1-.2-.14-.07-.05-.15-.08-.22-.12-.07-.03-.14-.07-.22-.1-.07-.02-.15-.04-.22-.06-.08-.03-.16-.05-.24-.06-.08-.01-.16-.02-.24-.02-.08,0-.16-.02-.24,0-.09,0-.19,0-.28.03-.05,0-.11,0-.16.01-.02.01-.03.01-.05.02-.09.02-.18.05-.26.08-.07.03-.15.05-.21.08-.07.03-.13.07-.2.11-.08.04-.16.09-.24.14-.01.01-.03.02-.04.03-.04.03-.08.07-.12.11-.07.06-.14.12-.2.19-.06.06-.1.12-.15.18-.05.07-.1.13-.14.2-.05.07-.08.15-.12.22-.03.07-.07.14-.1.22-.02.07-.04.15-.06.22-.03.08-.05.16-.06.24,0,.08-.02.16-.02.24-.01.08-.02.16-.01.24,0,.09.01.19.03.28,0,.05,0,.11.01.16l6.23,29.74s-.03-.02-.04-.04l-.18-.15c-.06-.05-.13-.1-.2-.15-.07-.04-.14-.08-.21-.12-.07-.04-.14-.07-.21-.1-.08-.03-.17-.06-.25-.08-.04-.02-.08-.03-.12-.04-.03-.01-.07-.01-.1-.02-.09-.01-.18-.02-.26-.03-.08,0-.16,0-.24,0s-.16,0-.24,0c-.08.01-.16.02-.24.04-.08.02-.16.04-.23.06-.08.03-.16.05-.23.09-.07.03-.14.06-.21.1-.08.04-.16.09-.23.14-.03.02-.06.03-.09.05-.03.02-.06.06-.09.08-.07.06-.13.12-.2.18-.05.06-.1.12-.15.18s-.1.13-.15.2c-.04.07-.08.14-.12.21-.04.07-.07.14-.1.21-.03.08-.06.17-.08.25-.02.04-.03.08-.04.12l-3.08,13.07c-5.6-9.22-12.16-19.22-19.47-28.98t-.01,0h-.01s-.05-.06-.08-.09c-.08-.1-.16-.19-.25-.28-.06-.05-.12-.09-.18-.13-.07-.05-.13-.11-.21-.15-.07-.04-.14-.08-.22-.11-.07-.03-.14-.07-.21-.1-.08-.03-.15-.04-.23-.06-.08-.02-.16-.05-.24-.06s-.16-.01-.24-.01c-.08,0-.16-.02-.24-.02-.12.01-.24.03-.36.05-.04.01-.08.01-.12.02h-.01c-.12.03-.25.08-.37.13-.03,0-.07.02-.1.04-.03.01-.06.03-.08.04-.13.07-.25.14-.35.22h-.01s-.06.05-.09.08c-.09.08-.18.16-.27.25-.05.06-.09.12-.14.18-.05.07-.1.13-.14.21-.04.07-.08.14-.11.22-.03.07-.07.14-.1.21-.03.08-.04.15-.06.23-.02.08-.05.16-.06.24-.01.08-.01.16-.02.25,0,.08-.01.15-.01.23.01.12.03.24.05.36.01.04.01.08.02.12v.02h0s11,45.98,11,45.98c.01.05.03.09.04.13.03.08.06.17.09.25.03.07.07.14.1.21.04.08.08.15.13.21.04.07.09.14.15.2.05.06.1.12.15.18.07.06.13.12.2.18.04.02.07.06.1.08l29,21s.06.03.08.05c.08.05.16.09.23.14.07.03.14.07.21.1.08.03.15.05.23.07.08.03.16.05.24.07.08,0,.15.02.23.03s.16.01.24.01.16,0,.25-.01c.08-.01.16-.02.23-.03.08-.02.15-.04.23-.06.09-.03.17-.05.25-.09.03-.01.06-.01.09-.03.04-.02.07-.04.11-.06.08-.04.16-.09.24-.14.06-.04.13-.09.19-.14s.12-.11.18-.16c.06-.07.12-.14.18-.21.03-.03.06-.06.08-.09.02-.03.03-.06.05-.08.05-.08.09-.16.14-.23.03-.07.07-.14.1-.21.03-.08.05-.15.07-.23.03-.08.05-.16.07-.24.01-.08.02-.15.03-.23.01-.08.01-.16.01-.24s0-.16-.01-.25c-.01-.08-.02-.16-.03-.23-.02-.08-.04-.15-.06-.23-.03-.09-.05-.17-.09-.25-.01-.03-.01-.06-.03-.09-.02-.05-5.06-11.07-13.73-26.43l10.82,2.89s.11.01.16.02c.09.02.19.04.28.05h.25c.08,0,.16,0,.24-.01.1-.01.19-.04.28-.06.05-.01.11-.01.17-.03.01,0,.02-.01.03-.02.09-.03.18-.07.27-.11.06-.03.13-.05.19-.09.07-.04.13-.09.2-.13.06-.05.13-.09.2-.14.06-.05.11-.12.16-.17.06-.06.12-.11.17-.18.05-.06.09-.13.13-.2.04-.07.09-.13.13-.21.03-.06.05-.12.08-.19.04-.09.07-.18.1-.27,0-.01,0-.02.02-.04.01-.05.01-.11.02-.16.02-.09.04-.19.05-.28v-.25c0-.08,0-.16-.01-.24-.01-.09-.03-.18-.05-.27l21.03,16.53s0,.01.02.01c.08.06.17.11.26.16.05.04.11.08.17.11.07.03.15.06.23.08.07.03.14.07.22.09.08.02.16.02.24.04.08.01.15.03.23.03.08.01.16,0,.24,0s.16,0,.25-.01c.06-.01.13-.03.19-.04.1-.03.2-.04.29-.07.01-.01.02-.01.03-.01.06-.02.1-.05.16-.07.09-.04.17-.08.26-.13.07-.04.13-.09.2-.14.07-.05.13-.09.2-.14.07-.07.13-.14.2-.21.04-.05.08-.08.12-.13,0,0,.01-.01.01-.02.06-.08.11-.17.16-.26.04-.05.08-.11.11-.17.03-.07.06-.15.08-.23.03-.07.07-.14.09-.22.02-.08.02-.16.04-.24,0-.08.03-.15.03-.23.01-.08,0-.16,0-.24s0-.16-.01-.25c-.01-.06-.03-.13-.04-.19-.02-.1-.04-.2-.07-.29-.01-.01-.01-.02-.01-.03-.04-.09-4.01-11.32-12.67-27.89l12.66-1.81c.05,0,.09-.02.14-.03.08-.02.17-.03.25-.06.09-.03.17-.06.25-.09.04-.02.09-.03.13-.05.03-.02.05-.04.07-.05.08-.05.16-.1.23-.15.07-.04.13-.09.19-.13.06-.06.12-.11.17-.17.06-.06.12-.12.17-.18s.09-.13.13-.2c.05-.06.09-.13.13-.2.04-.07.07-.15.1-.22.03-.08.06-.15.08-.22.02-.08.04-.16.05-.24.02-.08.03-.16.04-.24s.01-.15.01-.23c0-.09,0-.18-.01-.27Z"/>
    <path class="cls-12" d="M395.96,92.14c-.01-.08-.01-.16-.03-.24-.02-.07-.05-.14-.08-.22-.03-.07-.05-.15-.08-.23-.03-.07-.08-.13-.12-.2-.04-.07-.08-.15-.13-.22-.03-.05-.08-.09-.12-.14-.07-.08-.13-.16-.21-.23-.01,0-.01-.01-.02-.02-.05-.04-2.61-2.35-6.6-5.18-3.96-2.81-9.31-6.14-15.1-8.26h0s-.07-.04-.11-.05c-.05-.02-.1-.02-.15-.04-.09-.03-.18-.05-.27-.07-.08-.01-.16-.02-.24-.02-.08,0-.16-.02-.24,0-.1,0-.19,0-.28.02-.05.01-.11.01-.16.02-.02,0-.04.01-.05.01-.09.03-.18.06-.27.09-.07.02-.14.04-.21.07-.07.03-.14.08-.21.12-.07.04-.14.07-.21.12-.06.04-.12.1-.18.15s-.13.1-.18.16c-.06.06-.1.12-.15.19-.05.06-.11.12-.15.19-.04.06-.07.13-.11.2-.04.08-.08.16-.12.25,0,.01-.01.03-.02.05-.02.05-.02.1-.04.15-.03.09-.05.18-.07.27,0,.08-.02.16-.02.24-.01.08-.02.16-.01.24,0,.1.01.19.02.28,0,.05,0,.11.02.16v.02c.06.28.61,3.26.6,6.3,0,1.21-.08,2.43-.29,3.45-.13.66-.32,1.22-.52,1.65-.67-.22-1.38-.37-2.14-.4-.05,0-.1,0-.14-.01h-.06c-.06,0-.11.01-.17.02-.09,0-.19.01-.28.02-.07.02-.15.04-.22.06-.08.03-.16.05-.24.08-.08.03-.15.07-.22.1-.07.04-.14.07-.21.11-.07.05-.13.1-.19.15-.07.05-.13.1-.19.15-.05.06-.1.11-.16.17-.05.07-.11.13-.15.19-.05.07-.09.14-.13.21-.04.07-.08.14-.11.21-.04.09-.07.17-.1.26-.01.06-.04.11-.05.16,0,.02-.13.51-.39,1.32-.25.81-.65,1.93-1.18,3.22-.76,1.86-1.84,4.06-3.21,6.14-.41-.34-.81-.68-1.22-1-.95-.75-1.9-1.44-2.86-2.03-.92-.56-1.84-1.02-2.79-1.36-.01,0-.02-.01-.04-.01-.03-.01-.06-.03-.1-.04-.05-.02-.1-.02-.15-.04-.09-.02-.18-.04-.27-.06-.08-.01-.16-.01-.24-.02-.08,0-.16-.01-.24,0-.1,0-.19.02-.28.03-.05.01-.1.01-.15.02-.02,0-.04.01-.06.02-.09.02-.18.05-.26.08-.07.03-.14.05-.21.09-.07.03-.14.07-.21.12-.07.04-.14.08-.21.12-.06.05-.12.11-.18.16-.06.06-.12.11-.17.16-.06.06-.1.13-.15.2-.05.06-.1.12-.14.19-.04.07-.07.14-.1.2-.04.08-.08.17-.12.25,0,.02-.01.04-.02.06-.02.05-.02.1-.04.15-.02.09-.04.18-.06.27-.01.08-.01.16-.02.24,0,.08-.01.16,0,.24,0,.1.02.19.03.28.01.05.01.1.02.15.02.06.22,1.04.43,2.61.2,1.57.4,3.73.4,6.18s-.21,5.36-.83,8.13c-.01.03-.01.06-.01.09-.02.09-.03.17-.03.26-.01.08-.01.16-.01.23,0,.09.01.17.02.25,0,.08,0,.16.03.24.02.07.04.15.07.23.02.08.05.15.08.23.03.07.07.14.11.21.04.07.08.15.13.22.02.03.03.05.05.08.03.04.06.06.09.1.06.07.12.13.18.2.06.05.12.1.18.15.06.05.13.1.2.14.07.05.14.09.21.13.07.03.14.07.22.09.08.04.16.06.25.09.04.01.08.03.13.04.03.01.06.01.09.01.09.02.17.03.26.03.08.01.16.01.23.01.09,0,.17-.01.25-.02.08-.01.16-.01.24-.03.07-.02.15-.04.23-.07.08-.02.15-.05.23-.08.07-.03.14-.07.2-.11.08-.04.16-.08.23-.13.03-.02.05-.03.08-.05,2.14-1.61,4.25-2.55,6.18-3.11,1.92-.55,3.65-.71,4.99-.71.9,0,1.61.07,2.09.14.24.03.42.06.52.08l.11.03c.06.01.12.01.17.02.09.02.18.03.27.04h.24c.08,0,.17-.01.25-.02s.16-.02.24-.04c.07-.02.15-.04.23-.06.08-.03.15-.06.23-.1.07-.03.14-.06.21-.1.08-.05.15-.1.23-.15.05-.04.1-.06.14-.1.01-.01.02-.02.03-.03.07-.06.14-.14.2-.21.05-.05.1-.1.14-.15.05-.06.09-.14.14-.21.04-.07.09-.13.13-.21.03-.06.05-.13.07-.19.04-.09.08-.18.1-.27,0-.02.01-.03.02-.04.01-.06.01-.12.02-.17.02-.09.03-.18.04-.27v-.24c0-.09-.01-.17-.02-.25,0-.08-.02-.16-.04-.24-.02-.07-.04-.15-.06-.23-.03-.08-.06-.15-.1-.23-.03-.07-.06-.14-.1-.21-.05-.08-.1-.16-.15-.23-.04-.05-.06-.1-.1-.14-.03-.04-2.56-3.08-5.9-6.42-.13-.13-.28-.26-.41-.4.44-.41.95-.84,1.51-1.26,2.11-1.6,4.86-3.14,7.05-4.24,1.1-.55,2.05-1,2.73-1.31.34-.15.61-.27.79-.35.09-.04.16-.07.21-.09l.05-.02h.01s.07-.04.1-.06c.09-.04.16-.08.24-.13.07-.04.14-.08.2-.13s.12-.1.18-.15c.07-.06.13-.13.19-.19.03-.03.06-.06.08-.09.03-.03.04-.06.06-.09.05-.07.1-.15.15-.22.04-.07.07-.14.11-.21.03-.07.06-.15.08-.22.03-.08.06-.16.07-.24.02-.08.03-.15.05-.23.01-.08.02-.16.02-.24v-.24c-.01-.08-.01-.16-.03-.24-.01-.08-.02-.16-.04-.23-.03-.09-.05-.17-.08-.26-.01-.03-.02-.07-.03-.1-.02-.04-.04-.07-.06-.1-.04-.09-.08-.16-.13-.24-.04-.07-.08-.14-.13-.2l-.15-.18c-.06-.07-.13-.13-.19-.19-.03-.03-.06-.06-.09-.08-.03-.03-.65-.52-1.58-1.17.44-.09.93-.18,1.46-.24,1.2-.15,2.59-.22,4.03-.22,2.88,0,5.94.26,8.25.52,1.16.14,2.14.27,2.82.37.34.04.6.09.78.11.09.02.16.03.21.04h.06s.03.01.03.01c.1.01.2.01.3.02.07,0,.13.01.2.01.08-.01.16-.03.24-.04.08,0,.16,0,.24-.03.07-.02.15-.05.22-.08.08-.03.16-.05.23-.08.07-.03.13-.08.2-.12.07-.04.15-.08.22-.13.05-.03.09-.08.14-.12.08-.07.16-.13.23-.21,0,0,0-.01.02-.02.04-.04.06-.09.1-.13.06-.08.12-.16.17-.24.05-.07.08-.15.11-.22.04-.07.08-.14.1-.22.04-.09.06-.19.08-.28.01-.06.04-.11.05-.17v-.03c.01-.1.01-.2.02-.3,0-.06.01-.13.01-.2-.01-.08-.03-.16-.04-.24Z"/>
    <path class="cls-12" d="M304.98,140.28c-.01-.09-.01-.18-.03-.26-.01-.08-.04-.16-.07-.24-.02-.07-.04-.15-.07-.23-.06-.15-.14-.3-.23-.43h0c-.04-.08-.31-.48-.71-1.14-.4-.67-.93-1.6-1.52-2.73-1.17-2.26-2.55-5.28-3.45-8.44,0-.01-.01-.02-.01-.04-.03-.09-.07-.17-.11-.26-.03-.07-.05-.14-.08-.2-.04-.07-.09-.13-.14-.2-.04-.07-.08-.14-.13-.2s-.11-.11-.17-.17-.11-.12-.17-.17c-.06-.05-.13-.09-.2-.13-.07-.05-.13-.1-.2-.14-.06-.03-.13-.05-.2-.08-.09-.04-.17-.08-.26-.11-.02,0-.03-.01-.04-.01-.06-.02-.11-.02-.17-.03-.09-.02-.18-.04-.28-.05-.08,0-.16,0-.24,0s-.16,0-.24,0c-.1.01-.19.03-.28.05-.06,0-.11,0-.17.03-.01,0-.02.01-.04.01-.09.03-.17.07-.26.11-.07.03-.14.05-.2.08-.07.04-.13.09-.2.14-.07.04-.14.08-.2.13-.06.05-.11.11-.17.17s-.12.11-.17.17-.09.13-.13.2c-.05.07-.1.13-.14.2-.03.06-.05.13-.08.2-.04.09-.08.17-.11.26,0,.02-.01.03-.01.04,0,0-.03.09-.09.27-.2.61-.79,2.17-1.75,3.67-.47.75-1.04,1.48-1.67,2.08-.4.39-.83.71-1.28.98-.07-.16-.15-.31-.22-.47-.54-1.2-.95-2.39-1.14-3.33-.01-.04-.02-.07-.03-.1-.02-.09-.05-.18-.08-.26-.03-.07-.05-.15-.09-.22-.03-.07-.07-.14-.11-.21-.05-.07-.09-.14-.14-.2-.04-.07-.09-.13-.15-.18-.05-.06-.11-.12-.17-.18l-.18-.15c-.07-.05-.13-.09-.2-.13-.07-.05-.14-.08-.21-.12-.07-.04-.15-.07-.22-.1-.08-.02-.15-.05-.23-.07-.08-.02-.17-.04-.26-.05-.04-.01-.07-.02-.1-.02-.05,0-.08,0-.13,0h-.26c-.09,0-.17,0-.26.03-.04,0-.08,0-.12.01-.04.01-.07.02-.1.03-.09.02-.18.05-.26.08-.07.03-.15.05-.22.09-.07.03-.14.07-.21.11-.07.05-.14.09-.2.14-.07.04-.13.09-.18.15-.06.05-.12.11-.18.17-.05.05-.1.12-.15.18-.05.07-.09.13-.13.2-.05.06-.08.14-.12.21-.04.07-.07.15-.1.22-.02.08-.05.15-.07.23-.02.08-.04.17-.05.26,0,.04-.02.07-.02.1v.02c-.03.2-.29,2.39-.88,4.79-.3,1.19-.67,2.44-1.11,3.49-.42,1.04-.94,1.87-1.3,2.21-.01.02-.02.04-.04.05-.1.11-.19.21-.27.33-.04.07-.07.14-.11.21s-.08.14-.11.22c-.04.07-.06.15-.08.23-.02.08-.05.15-.07.23-.01.07-.02.15-.02.23-.01.08-.03.16-.03.25,0,.08.01.16.02.25.01.07.01.15.02.23.03.14.07.27.12.4.01.02.01.05.02.07.06.16.14.3.23.45.1.14.2.27.32.39.02.02.04.03.06.04.1.1.21.19.32.27.07.04.14.07.21.11.07.04.14.08.22.11.07.04.15.06.23.08.08.02.15.05.23.07.07,0,.15.02.23.02.08.01.16.03.25.03.08,0,.16-.01.25-.02.07-.01.15-.01.23-.02.14-.03.27-.07.4-.12.02-.01.05-.01.07-.02,1.31-.52,2.65-.71,3.88-.71s2.35.19,3.13.38c.38.09.69.18.89.25.1.03.17.05.21.07h.04s.01.02.02.02c.09.04.19.06.3.08.06.02.12.04.18.05.08.02.16.02.25.02.07.01.15.02.23.02s.16-.02.24-.03.16-.01.24-.03c.07-.02.15-.05.22-.07.08-.03.16-.05.24-.08.05-.02.11-.06.16-.09.09-.05.19-.09.27-.15.01-.01.02-.01.02-.02.05-.03.09-.07.13-.11.08-.06.15-.12.22-.19.06-.06.11-.13.16-.19.05-.07.1-.13.14-.2.06-.08.1-.17.14-.26.03-.05.06-.1.08-.15,0-.01.01-.02.01-.03.04-.09.06-.2.08-.3.02-.06.04-.12.05-.18.02-.08.02-.16.02-.25.01-.08.02-.15.02-.23s-.02-.16-.03-.23c0-.08,0-.17-.03-.25-.01-.07-.05-.14-.07-.22s-.04-.16-.08-.24c-.02-.05-.06-.11-.09-.16-.05-.09-.09-.18-.15-.27-.01-.01-.01-.02-.02-.02v-.02c-.08-.1-.55-.77-1.2-1.78,1.99.32,3.84.93,5.32,1.55,1.09.46,1.98.92,2.58,1.26.31.17.54.3.69.4l.16.1.03.02h.01c.13.09.28.17.43.23.08.03.15.05.22.07.08.02.16.06.25.07.08.02.17.02.26.03.07.01.14.02.22.02s.15-.01.22-.02c.09-.01.18-.01.26-.03.09-.01.17-.05.25-.07.07-.02.14-.04.22-.07.15-.06.29-.14.43-.23h.01l.06-.06c.11-.07.22-.16.32-.25.1-.1.18-.21.26-.32.02-.02.04-.04.05-.06h0c.09-.14.17-.29.23-.44.03-.07.05-.15.07-.22.02-.08.06-.16.07-.25.02-.08.02-.17.03-.25s.02-.15.02-.23c0-.07-.01-.15-.02-.22Z"/>
    <path class="cls-12" d="M246.95,130.07c-.01-.08-.02-.16-.04-.24-.03-.11-.08-.22-.13-.33-.02-.04-.02-.08-.04-.12h-.01v-.02c-.16-.3-3.28-6.42-10.4-13.57h-.01s-.03-.04-.05-.06c-.05-.04-.09-.07-.14-.11-.07-.06-.14-.12-.22-.18-.08-.05-.16-.09-.24-.14-.05-.03-.1-.06-.15-.08-.02-.01-.03-.01-.04-.02-.09-.04-.19-.06-.28-.09-.07-.02-.13-.04-.2-.06-.08-.01-.16-.02-.24-.03-.08,0-.16-.02-.24-.02s-.15.01-.23.02c-.08.01-.17.01-.25.02-.08.02-.16.05-.24.07-.07.02-.14.04-.22.07-.07.02-.14.07-.21.1-.07.04-.15.07-.22.12-.06.03-.11.08-.16.12-.08.06-.16.12-.23.19-.01.01-.02.01-.03.02-.04.05-.07.09-.11.14-.06.07-.12.14-.18.22-.05.08-.09.16-.14.24-.03.05-.06.1-.08.15v.02c-.1.21-1.1,2.4-2.5,4.68-.69,1.15-1.49,2.31-2.28,3.25-.05.06-.11.12-.17.18-.67-.79-1.44-1.56-2.38-2.19-.02-.01-.05-.02-.07-.03-.07-.05-.15-.09-.23-.13-.07-.03-.15-.07-.23-.1-.03-.01-.05-.02-.07-.03-.05-.02-.1-.02-.15-.04-.09-.02-.17-.04-.26-.05-.08-.02-.16-.02-.24-.03h-.24c-.08,0-.17,0-.25.02-.07.01-.15.03-.23.04-.08.02-.15.05-.23.07-.07.03-.15.06-.22.09-.07.03-.14.07-.21.11-.07.04-.14.08-.21.13s-.13.1-.19.15c-.06.06-.12.11-.17.17-.06.06-.12.13-.17.2-.03.05-.07.08-.1.12-.01.02-.02.05-.04.07-.04.07-.08.15-.12.23-.03.07-.07.15-.1.23,0,.03-.02.05-.03.07l-3,9c-.02.05-.02.11-.04.16-.02.1-.05.19-.06.29-.01.08-.01.16-.02.24,0,.09-.01.17,0,.25,0,.1.02.19.04.29.01.06.01.11.02.17.01.01.01.02.02.03.02.09.06.19.1.28.02.06.04.12.07.18.03.08.08.14.13.21.04.07.07.14.12.2.05.07.11.12.16.18.06.06.11.12.17.18.06.05.12.09.19.14.06.05.13.1.2.14.06.03.12.06.18.09.09.04.18.09.27.12.01,0,.02.01.03.01.05.02.11.02.16.04.1.02.19.05.29.06.08.01.16.01.24.02.09,0,.17.01.25,0,.1,0,.19-.02.29-.04.05-.01.11-.01.17-.02l8-2s.1-.04.16-.06c.05-.02.1-.03.16-.05.02-.01.05-.03.07-.04.08-.03.16-.08.24-.12.07-.04.13-.08.2-.12.07-.05.13-.1.19-.16.06-.05.12-.1.18-.16.05-.06.1-.12.15-.18.05-.07.1-.13.14-.2.05-.06.08-.14.12-.21.03-.07.07-.14.1-.21.03-.08.05-.15.07-.23.02-.08.05-.15.06-.23.02-.08.02-.16.03-.24.01-.08.01-.17.01-.25s-.01-.15-.01-.23c-.01-.09-.02-.18-.04-.27-.01-.02-.01-.05-.01-.08-.02-.05-.04-.1-.06-.16-.02-.05-.03-.1-.05-.16-.01-.02-.07-.18-.17-.41.66-.07,1.32-.12,1.97-.12,2.9,0,5.62.67,7.58,1.34.99.34,1.78.68,2.32.93.27.12.47.22.6.29l.14.07.03.02s.07.03.11.04c.11.06.22.11.33.15.08.02.15.03.23.05.08.02.16.04.24.05s.16.01.25.01c.08,0,.16.01.24,0s.16-.02.24-.04c.08-.01.16-.02.24-.04.11-.03.22-.08.33-.13.04-.02.08-.02.12-.04h0c.15-.08.29-.17.42-.27.07-.06.13-.12.19-.18s.12-.1.17-.16c.11-.13.2-.27.28-.41h.01s.03-.08.04-.12c.06-.11.11-.21.15-.33.02-.08.03-.15.05-.23s.04-.16.05-.24.01-.16.01-.25c0-.08.01-.16,0-.24s-.02-.16-.04-.24ZM224.31,129.97l.06-.17s.05.07.08.11c0,0,.01.01.01.02l-.15.04Z"/>
    <path class="cls-12" d="M350.65,284.98s.11.01.16,0h.16c.17-.01.38.02.65.12.5.17,1.19.59,1.94,1.28,1.33,1.19,2.81,3.13,4.19,5.35,2.07,3.32,3.94,7.26,5.27,10.34.67,1.54,1.21,2.87,1.57,3.81.18.47.32.84.42,1.09.05.13.08.22.1.29l.04.09h0c.05.13.11.24.17.36.02.03.03.07.05.1.06.09.13.18.2.26.18.23.4.41.64.56.26.15.54.26.84.32.11.02.21.04.32.05.04,0,.07-.01.11-.01.13,0,.26,0,.39-.02h.01c.08-.01.16-.04.23-.06.08-.02.16-.03.24-.06h.01c.12-.05.24-.11.35-.17.03-.02.07-.03.1-.05.09-.06.18-.13.26-.2.23-.18.41-.4.56-.64.15-.26.26-.54.32-.84.02-.11.04-.21.05-.32,0-.04-.01-.07-.01-.11,0-.13,0-.26-.02-.39h0c0-.1-1.23-7.93-4.93-20.24.02-.04.04-.07.05-.09.08.05.18.11.29.19.66.48,1.64,1.51,2.68,2.91,1.85,2.45,3.95,6.01,6.01,9.92,3.1,5.86,6.14,12.53,8.39,17.72,1.13,2.59,2.06,4.82,2.71,6.39.32.79.57,1.41.74,1.84.09.21.16.38.2.49.04.11.07.16.07.16.02.06.05.11.08.16.04.09.08.17.13.25.04.07.09.13.14.19.05.07.1.14.16.2.05.06.12.11.18.16.06.05.12.11.18.15.07.05.14.09.21.13.07.04.13.08.21.11.07.03.14.06.22.08.07.03.15.06.23.08.08.02.17.03.25.04.08.01.15.02.23.02.1.01.19,0,.29-.01.06,0,.12,0,.18-.01h.03c.08-.02.16-.05.24-.07.09-.02.17-.04.25-.07.01,0,.02,0,.03,0,.06-.02.11-.05.16-.08.09-.04.17-.08.26-.13.06-.04.12-.09.18-.14.07-.05.14-.1.2-.16.06-.05.11-.12.16-.18s.11-.12.15-.18c.05-.07.09-.14.13-.21.04-.07.08-.13.11-.21.03-.07.06-.14.08-.22.03-.07.06-.15.08-.23.02-.08.03-.17.04-.25.01-.08.02-.15.02-.23.01-.1,0-.19-.01-.29,0-.06,0-.12-.01-.18,0,0,0-.02,0-.06h0c-.33-2.11-8.59-55.28-38.29-105.82t-.01-.01h0s-.05-.07-.07-.11c-.07-.1-.14-.2-.22-.29-.05-.06-.1-.11-.16-.16-.06-.06-.12-.12-.19-.17-.07-.05-.15-.09-.22-.14-.06-.04-.12-.08-.19-.11-.07-.04-.15-.06-.23-.09-.07-.03-.15-.06-.22-.08-.08-.02-.15-.03-.23-.04-.08-.02-.16-.04-.25-.04-.09-.01-.17,0-.26,0-.08,0-.15,0-.22,0-.12.02-.24.05-.36.08-.04.01-.08.02-.12.03h-.01c-.08.03-.15.07-.23.11-.08.03-.16.06-.23.1,0,0-.01,0-.01.01-.03.02-.06.05-.1.07-.1.07-.2.13-.29.22-.06.04-.1.1-.15.16-.06.06-.13.12-.18.19s-.09.14-.14.21c-.04.07-.08.13-.11.2-.04.07-.06.15-.09.23-.03.07-.06.14-.08.22-.02.08-.03.15-.04.23-.02.08-.04.16-.04.25-.01.08,0,.17,0,.26.01.07,0,.15.01.22.02.12.05.24.08.36.01.04.01.08.03.12h0s0,.02.01.02c0,.02.04.12.1.33.58,1.74,3.18,9.74,5.62,18.79,1.22,4.52,2.41,9.31,3.28,13.68s1.43,8.35,1.42,11.1c0,.76-.04,1.42-.11,1.94-.03.19-.06.37-.1.53-2.39-6.04-5.22-12.51-8.59-19.26t-.01-.01s-.01-.02-.01-.03c-.03-.05-.07-.09-.09-.14-.06-.09-.11-.18-.17-.26-.05-.07-.1-.12-.16-.17-.05-.07-.11-.13-.17-.19-.06-.05-.13-.1-.2-.14-.07-.05-.13-.1-.19-.14-.07-.04-.15-.07-.22-.1-.07-.03-.14-.07-.22-.1-.07-.02-.15-.04-.22-.06-.09-.02-.16-.04-.25-.05-.08-.01-.17-.01-.25-.02-.08,0-.15-.01-.23,0-.1,0-.21.02-.31.04-.05.01-.11.01-.17.02,0,0-.01,0-.01,0-.08.02-.16.06-.24.09-.08.03-.17.05-.24.09h-.02s-.09.06-.14.09c-.09.06-.18.11-.26.17-.07.05-.12.1-.17.16-.07.05-.13.11-.19.17-.05.06-.1.13-.14.2-.05.07-.1.13-.14.19-.04.07-.07.15-.1.22-.03.07-.07.14-.1.22-.02.07-.04.15-.06.22-.02.09-.04.16-.05.25-.01.08-.01.16-.02.25,0,.08-.01.15,0,.23,0,.1.02.2.04.31.01.05.01.11.02.17,0,0,.01.02.01.03h0s.02.08.04.17c.25,1.01,1.39,5.72,2.46,11.28.54,2.78,1.06,5.77,1.44,8.6.38,2.83.63,5.52.62,7.62.01,1.39-.11,2.53-.29,3.16-.04.17-.09.3-.12.38-.02.01-.03.02-.05.03-.05.03-.1.08-.16.12.45,1.49.88,2.99,1.3,4.49.02,0,.04,0,.05,0,.09.01.18,0,.27-.01Z"/>
    <path class="cls-12" d="M245.86,77.74c-.08.27-.19.53-.3.77-.63-.04-1.26-.07-1.88-.07-1.71,0-3.39.17-4.97.69-.01,0-.02.01-.02.01-.1.03-.19.08-.28.12-.06.03-.12.05-.18.09-.07.04-.14.1-.21.15-.06.05-.13.09-.18.14-.06.05-.11.11-.16.16-.06.06-.12.12-.17.19-.05.06-.08.13-.12.2-.05.07-.1.13-.13.21-.04.07-.06.15-.09.23-.03.07-.06.14-.08.21-.02.08-.03.15-.04.23-.02.08-.04.17-.04.26-.01.06,0,.13,0,.19,0,.1,0,.21.01.31v.02s.14,1.03.14,2.31c0,1.02-.09,2.23-.34,3.28-.13.56-.31,1.06-.52,1.46-.62-.06-1.25-.1-1.88-.1-.76,0-1.52.07-2.28.23-.05.01-.1.02-.15.03-.03.01-.06.01-.1.01-.05.02-.1.04-.16.06-.05.02-.1.03-.16.05-.02.01-.05.03-.07.04-.08.03-.16.08-.24.12-.07.04-.13.08-.2.12-.07.05-.13.1-.19.16-.06.05-.12.1-.18.16-.05.06-.1.12-.15.18-.05.07-.1.13-.14.2-.05.06-.08.14-.12.21-.03.07-.07.14-.1.21-.03.08-.05.15-.07.23-.02.08-.05.15-.06.23-.02.08-.02.16-.03.24-.01.08-.01.17-.01.25s.01.15.01.23c.01.09.02.18.04.26.01.03.01.06.01.09.02.05.04.1.06.16.02.05.03.1.05.16.06.16.47,1.37.47,2.97v.06c0,1.41-.28,3.07-1.29,4.75-.01.01-.01.03-.02.04-.02.04-.05.09-.08.13-.02.05-.03.1-.05.15-.04.08-.07.16-.09.24-.03.08-.04.15-.06.23-.02.08-.03.16-.04.25-.01.08-.01.16-.01.24s0,.16.01.24c0,.08.02.16.03.24.02.07.03.15.06.23.02.07.05.15.08.22.03.08.06.15.09.22.04.07.08.14.13.21.04.07.08.13.13.2.05.06.11.12.17.18.05.06.11.11.17.17.07.05.14.1.21.15.04.03.08.07.12.09.03.02.06.03.09.04.03.02.05.04.08.06.05.02.1.03.15.05.08.04.16.07.24.09.08.03.15.04.23.06.08.02.16.03.25.04.08.01.16.01.24.01s.16,0,.24-.01c.08,0,.16-.02.23-.03.08-.02.16-.03.24-.06.07-.02.15-.05.22-.08.08-.03.15-.06.22-.09.07-.04.14-.08.21-.13.07-.04.13-.08.2-.13.06-.05.12-.11.18-.17.06-.05.11-.11.17-.17l.15-.21s.07-.08.09-.12c.04-.06.06-.12.1-.17.08-.17.3-.48.66-.84.63-.64,1.67-1.4,2.84-2.1,1.75-1.07,3.81-2.04,5.41-2.74.8-.34,1.48-.62,1.96-.81.24-.09.43-.16.56-.21l.14-.06h.04s.06-.04.09-.05c.08-.03.16-.07.24-.12.07-.03.13-.07.2-.11.07-.05.13-.1.19-.15.07-.05.13-.1.18-.16.06-.05.11-.12.16-.18.06-.06.11-.12.15-.19.05-.06.08-.13.12-.2.04-.08.09-.16.12-.24.01-.03.03-.05.04-.08.02-.04.02-.09.03-.13.03-.09.06-.17.07-.26.02-.08.03-.15.04-.23.01-.08.01-.16.01-.25,0-.08,0-.16-.01-.24-.01-.08-.02-.16-.03-.24-.02-.08-.04-.17-.07-.26-.01-.04-.01-.08-.03-.12,0-.03-.03-.06-.04-.09-.03-.08-.07-.16-.12-.24-.03-.07-.07-.13-.11-.2-.05-.07-.1-.13-.15-.19-.05-.07-.1-.13-.16-.18-.05-.06-.12-.11-.18-.16-.06-.06-.12-.11-.19-.15-.06-.05-.13-.08-.2-.12-.08-.04-.16-.09-.24-.12-.03-.01-.05-.03-.08-.04-.04-.01-.85-.32-2.1-.71.74-.35,1.54-.7,2.37-1.03,2.78-1.09,5.89-1.97,8.27-2.56,1.2-.3,2.22-.52,2.93-.68.36-.07.64-.13.83-.17.1-.02.17-.03.22-.04h.06s.06-.03.1-.04c.08-.02.17-.05.25-.08.08-.02.15-.05.22-.08.08-.03.14-.07.21-.11.08-.04.15-.09.21-.13.07-.05.13-.1.19-.15.06-.06.12-.11.17-.17.06-.06.11-.12.16-.18.05-.07.09-.13.14-.2.04-.06.08-.13.11-.2.04-.08.08-.16.11-.25.01-.03.03-.06.04-.09.01-.04.02-.08.03-.12.02-.09.04-.17.06-.26,0-.08.02-.16.03-.24v-.24c0-.09-.01-.18-.02-.27,0-.04,0-.08,0-.12-.01-.03-.02-.06-.03-.1-.02-.08-.05-.17-.08-.25-.02-.08-.05-.15-.08-.22-.03-.08-.07-.15-.11-.22-.04-.07-.09-.14-.13-.2-.05-.07-.1-.13-.15-.19-.06-.06-.11-.12-.17-.17-.06-.06-.12-.11-.18-.16-.07-.05-.13-.09-.2-.14-.06-.04-.13-.08-.2-.11-.08-.04-.16-.08-.25-.11-.03-.01-.06-.03-.09-.04-.04-.01-1.4-.47-3.44-1,.49-.25,1.02-.5,1.56-.74,3.05-1.35,6.73-2.48,9.62-3.25,1.44-.39,2.69-.69,3.58-.89.44-.1.79-.17,1.03-.22.12-.03.21-.05.27-.06l.08-.02s.05-.02.08-.02c.09-.02.17-.05.26-.08.07-.03.14-.05.21-.08.08-.04.15-.08.22-.12.07-.04.14-.08.2-.13.07-.05.12-.1.18-.15s.12-.1.18-.16.1-.13.15-.19c.05-.06.1-.13.14-.19.04-.07.08-.14.12-.22.03-.07.07-.14.1-.22.03-.07.05-.14.07-.22.02-.08.04-.17.06-.26,0-.03,0-.05.02-.08v-.15c.01-.08.01-.17.01-.26s-.01-.18-.02-.26c0-.05,0-.1-.02-.15,0-.03-.02-.05-.02-.08-.02-.09-.05-.17-.08-.26-.03-.07-.05-.14-.08-.21-.04-.08-.08-.15-.12-.22-.04-.07-.08-.14-.13-.2-.05-.07-.1-.12-.15-.18s-.1-.12-.16-.18-.13-.1-.19-.15-.13-.1-.19-.14c-.07-.04-.14-.08-.22-.12-.07-.03-.14-.07-.22-.1-.07-.03-.14-.05-.22-.07-.08-.02-.17-.04-.26-.06-.03,0-.05-.01-.08-.02-3.86-.51-7.22-.71-10.1-.71-.21,0-.41,0-.61,0-4.63,1.44-9.31,3.2-14,5.27.02.24.04.53.04.86,0,.69-.08,1.53-.3,2.29Z"/>
    <path class="cls-12" d="M509.9,418.81v-.02s-.04-.08-.05-.12c-.04-.12-.08-.23-.14-.34-.04-.06-.08-.12-.12-.19-.05-.07-.09-.14-.15-.21-.05-.07-.11-.12-.17-.18s-.11-.11-.16-.16c-.07-.06-.14-.1-.2-.14-.07-.05-.13-.1-.2-.14-.07-.03-.14-.06-.21-.09-.08-.03-.15-.07-.23-.1-.09-.03-.18-.04-.26-.06-.07-.01-.14-.03-.22-.04-.12-.02-.24,0-.36,0-.05,0-.09-.01-.13,0-.09,0-.17.03-.26.04-.08.02-.17.03-.25.05-.04.02-.08.04-.12.05-.12.04-.23.08-.34.14-.06.04-.12.08-.19.12-.07.05-.14.09-.21.15-.07.05-.12.11-.18.17s-.11.11-.16.16c-.06.07-.1.14-.14.2-.05.07-.1.13-.14.2-.03.07-.06.14-.09.21-.03.08-.07.15-.1.23-.03.09-.04.18-.06.26-.01.07-.03.14-.04.22-.02.12-.01.24-.01.36,0,.05-.01.09,0,.13v.02s0,.07.01.18c.07.94.35,5.19.35,10.46.01,5.51-.32,12.19-1.45,17.24-.34,1.5-.75,2.85-1.21,3.96-.47-2.47-1.06-5.05-1.8-7.73,0,0,0,0,0-.02-.03-.1-.07-.2-.12-.3-.02-.06-.04-.11-.06-.16-.04-.08-.1-.15-.14-.22-.05-.06-.08-.13-.13-.19s-.11-.12-.17-.18c-.05-.05-.1-.11-.16-.16s-.12-.09-.18-.13c-.07-.05-.14-.11-.22-.15-.05-.03-.1-.05-.16-.07-.09-.05-.19-.09-.29-.13-.01,0-.02,0-.02-.01-.06-.01-.11-.02-.16-.03-.1-.02-.2-.05-.31-.06-.08,0-.16,0-.24,0s-.16-.01-.24,0c-.11,0-.21.03-.31.05-.05.01-.11.02-.16.03-.01,0-.01.01-.02.01-.11.03-.2.07-.3.12-.06.02-.11.04-.16.06-.08.04-.15.1-.22.14-.06.04-.13.08-.19.13-.06.04-.11.11-.17.16-.06.06-.12.11-.17.17-.05.06-.09.12-.13.18-.05.08-.11.14-.15.22-.03.05-.05.1-.07.15-.05.1-.09.2-.13.3,0,.01,0,.02-.01.02-.01.06-.33,1.05-.99,2.59-.66,1.53-1.65,3.6-3.01,5.83-1.36,2.22-3.09,4.58-5.2,6.71-2.11,2.13-4.58,4.02-7.46,5.35-.05.02-.09.06-.14.09-.09.04-.17.09-.25.14-.07.05-.12.1-.19.15-.06.06-.12.11-.17.16-.06.07-.11.13-.16.2-.05.06-.1.12-.14.18-.04.07-.08.14-.12.22-.03.07-.07.14-.1.22-.03.07-.05.15-.07.23-.03.07-.05.15-.06.23-.02.09-.03.19-.03.28-.01.06-.02.11-.02.17v.04c0,.09.02.19.03.28,0,.08.02.15.03.22.02.07.04.13.07.2.02.09.05.19.09.27,0,0,0,.03.01.04.02.05.06.09.09.14.04.09.09.17.14.25.05.07.1.12.15.18.06.07.11.13.16.18.07.06.13.11.2.16.06.05.12.1.18.14.07.04.14.08.21.12.08.03.15.07.23.1.07.03.15.05.23.07.07.03.15.05.23.06.09.02.19.03.28.03.06.01.11.02.17.02,2.04,0,4.3.58,6.53,1.52,3.34,1.41,6.57,3.62,8.92,5.47,1.17.92,2.13,1.75,2.79,2.35.33.3.58.53.75.7l.19.18.04.04h.01c.49.5,1.13.74,1.77.74s1.28-.24,1.77-.73c.62-.62.84-1.49.67-2.29.01-.04.03-.08.03-.13.02-.08.35-2.44.41-6.41.22.16.45.35.7.6,1.07,1.04,2.27,2.81,3.35,4.83,1.64,3.04,3.08,6.65,4.08,9.48.51,1.41.91,2.63,1.18,3.49.13.43.24.77.31,1,.03.12.06.21.07.27l.03.08s.01.04.02.06c.03.09.07.18.1.26.04.07.06.14.1.2.04.07.09.14.13.21.05.06.09.13.15.19.05.06.1.12.16.17.06.06.11.12.18.17.06.05.13.09.2.13.06.05.13.09.2.13.07.04.14.06.22.1.08.03.15.06.23.08.07.02.14.04.22.05.09.02.18.04.27.04.02.01.04.01.07.02.05,0,.1-.01.16-.01.08,0,.17,0,.26-.01.09-.01.18-.03.26-.05.06-.01.11-.01.16-.03.02,0,.04-.02.06-.02.09-.03.17-.07.26-.1.07-.03.14-.06.2-.1.07-.04.14-.09.21-.13.06-.05.13-.09.19-.15.06-.05.12-.1.17-.16.06-.06.12-.11.17-.18.05-.06.09-.13.13-.2.05-.06.09-.13.13-.2.04-.07.06-.14.1-.22.03-.08.06-.15.08-.23.02-.07.04-.14.05-.22.02-.09.04-.18.04-.27.01-.02.01-.04.02-.07,0-.04.14-2.44.14-6.64,0-11.55-1.08-36.73-9.24-64.2Z"/>
  </g>
  <g>
    <g>
      <path class="cls-11" d="M383.35,413.51c-1.1.08-1.93,1.04-1.85,2.14h0s0,.02,0,.02c0,.15.06.96.06,2.33,0,6-.92,22.8-9.89,42.68-.45,1.01,0,2.19,1,2.65,1.01.45,2.19,0,2.65-1,9.27-20.57,10.24-37.93,10.24-44.33,0-1.67-.07-2.6-.07-2.64-.08-1.1-1.04-1.93-2.14-1.85Z"/>
      <path class="cls-11" d="M452.76,366.31c.23-.36.29-.78.2-1.17-.09-.36-.31-.69-.65-.9-.7-.45-1.63-.25-2.07.45h-.01c-.12.2-1.78,2.73-4.88,6.22h0c-5.21,3.35-10.86,5.9-16.33,7.66-5.92,1.9-11.63,2.89-16.51,2.89-1.6,0-3.12-.1-4.54-.34.42,3.79.79,7.6,1.08,11.44-.9.17-1.82.32-2.75.45-.82.12-1.39.87-1.28,1.7.12.82.87,1.39,1.7,1.28.86-.12,1.71-.26,2.55-.42,13.66-2.5,24.29-9.47,31.61-15.95,7.77-6.88,11.84-13.23,11.89-13.31Z"/>
    </g>
    <path class="cls-11" d="M159.3,410.61c-.52-2.01-1.01-4.03-1.47-6.04-6.63-28.92-8.07-56.96-8.19-74.38l-3.55,11.39v.05l-.2.61s-.01.04-.02.05c-.43,1.29-1.81,2-3.11,1.6-.33-.1-.62-.26-.86-.48-.01.01-.02,0-.02-.01-.01.1-.02.21-.04.32-.47,2.9-1.66,11.34-1.66,23.14,0,16.06,2.2,38.35,11.46,61.39.42,1.02,1.58,1.52,2.61,1.11,1.02-.42,1.52-1.58,1.11-2.61-5.14-12.75-8.05-25.31-9.6-36.65,3.07,10.62,8.11,21.41,16.23,30.72.06.07.12.13.19.18-1.05-3.44-2-6.91-2.88-10.37v-.02Z"/>
    <path class="cls-11" d="M473.82,307.08c-4.4,2.52-8.37,4.14-11.22,5.13-1.06.37-1.98.65-2.7.86.62,1.04,1.23,2.13,1.82,3.27,0,.01,0,.02.01.03,0,.01.01.02.02.03.04.09.08.17.12.26,2.18,4.51,3.58,8.85,4.31,12.99.24,1.41.41,2.8.51,4.17.85-.41,2.02-.94,3.44-1.46,3.14-1.16,7.51-2.29,12.5-2.28,4.13,0,8.66.76,13.37,2.93-.11-1.51-.2-2.99-.25-4.46-.11-2.45-.16-4.85-.16-7.2,0-11.24,1.12-21.28,2.38-30.72.24-1.79.48-3.55.72-5.29.21-1.5.42-2.99.62-4.46-7.02,13.26-17.05,21.36-25.49,26.2Z"/>
    <path class="cls-11" d="M468.56,469.84c-2.08-8.86-4.15-14.94-4.17-14.99-.35-1.04-1.49-1.6-2.54-1.24-.43.15-.78.42-1.01.77-.55.39-.89,1.05-.83,1.78.03.46.05.91.05,1.38,0,2.77-.65,5.67-1.84,8.64-2.07,5.19-5.79,10.55-10.25,15.6-6.67,7.59-14.96,14.5-21.55,19.49-3.3,2.49-6.18,4.51-8.23,5.89-.14.09-.27.19-.4.27.24-.1.48-.18.73-.24.02-.01.04-.01.05-.02.36-.08.72-.14,1.08-.16h.07c.35-.02.71,0,1.06.05.03,0,.07,0,.1.01.34.05.68.13,1.02.24.03.02.07.02.11.04.34.12.67.27.99.46.02.01.04.02.06.03.2.12.4.26.59.41.11.08.22.17.33.26l.04.03s.15.13.3.25c.31.23.82.62,1.55,1.09,1.46.96,3.77,2.3,7,3.67,6.45,2.74,16.56,5.6,30.93,5.6.8,0,1.62,0,2.45-.03,1.38-.03,2.8-.09,4.26-.17,1.61-5.36,2.21-11.32,2.22-17.39-.01-11.22-2.09-22.85-4.17-31.72Z"/>
    <path class="cls-11" d="M264.21,114.95c1.79,0,3.56.03,5.3.08,5.55.17,10.89.52,16.04,1.01,1.25.12,2.49.24,3.72.38l2.48-1.02h.01c7.18-6.3,27.03-23.09,51.83-39.22.53-.35.85-.91.9-1.5-3.65.97-7.37,2.24-11.15,3.84-.05.03-.1.04-.15.06-.12.05-.25.1-.37.14-.08.02-.15.04-.22.06-.06.01-.11.03-.17.04-.06.02-.12.03-.18.05-.09.01-.18.03-.27.04-.1.02-.2.04-.29.05-.11.01-.21.02-.32.02-.09.01-.17.01-.26.02-.11,0-.22-.01-.33-.01-.08,0-.16,0-.24-.01-.11-.01-.22-.02-.33-.04-.09-.01-.17-.02-.25-.03-.1-.02-.2-.05-.3-.07-.09-.02-.18-.04-.27-.06-.09-.03-.18-.06-.27-.09-.1-.03-.19-.06-.29-.1-.08-.03-.15-.06-.23-.1-.1-.04-.2-.09-.3-.14-.07-.03-.14-.07-.22-.11-.09-.06-.19-.11-.28-.17-.08-.05-.15-.1-.22-.14-.08-.06-.17-.12-.25-.19-.08-.06-.16-.13-.23-.19-.07-.06-.14-.12-.21-.18-.09-.08-.17-.17-.25-.25-.05-.06-.11-.12-.16-.17-.08-.1-.16-.21-.24-.31-.04-.04-.07-.08-.1-.13-1.03-1.43-2.32-2.77-3.86-4-.41-.34-.84-.66-1.29-.98-.74-.52-1.53-1.02-2.38-1.5-30.86,18.4-52.05,42.22-54.4,44.92Z"/>
    <path class="cls-11" d="M339,437.56c3.94-9.38,7.21-19.4,9.74-29.89-26.63,8.28-52.62,12.6-77.61,12.6-40.56.01-78.52-11.43-112.1-35.77,2.63,16.4,6.76,33.81,13.14,50.16.71,1.81,1.44,3.61,2.21,5.39,10.7,4.43,36.72,12.43,84.81,12.43,20.83,0,45.81-1.5,75.49-5.45.71-1.41,1.39-2.85,2.05-4.3.78-1.7,1.54-3.42,2.27-5.17Z"/>
    <path class="cls-11" d="M409.68,241.43c5.97,25.56,8.5,45.7,9.14,51.28,2.32-.38,4.71-.59,7.16-.59.38,0,.75.01,1.13.02,1.36.03,2.73.14,4.11.33-.78-4.98-3.33-20.02-8.61-38.7-6.04-21.41-15.62-47.58-30.27-68.93,2.61,6.58,4.97,13.2,7.11,19.75,4.2,12.83,7.55,25.38,10.23,36.84Z"/>
    <path class="cls-11" d="M278.88,165.76c-.27-.11-.54-.21-.8-.31-2.31-.84-4.54-1.17-6.6-1.17-3.7,0-6.8,1.06-8.98,2.11-.37.17-.7.34-1.01.52-1.68-2.96-3.69-5.09-5.86-6.5-2.76-1.81-5.69-2.42-8.25-2.41-.82,0-1.59.06-2.33.16,1.7-2.28,3.91-5.2,6.42-8.4,4.34-5.54,9.57-11.89,14.44-17.06,1.12,3.36,3.33,9.84,6.26,17.33,1.96,5.01,4.24,10.45,6.71,15.73Z"/>
    <path class="cls-11" d="M229.74,154.51c-1.7-.44-3.54-.73-5.5-.73-2.45,0-5.07.45-7.7,1.55-1.9.8-3.8,1.94-5.67,3.47-.59-.93-1.27-1.7-2.06-2.27-1.24-.91-2.67-1.27-3.91-1.26-.31,0-.6.04-.89.08l5.9-18.96c2.14,1.5,4.48,3.39,6.85,5.47,4.56,4.01,9.22,8.7,12.98,12.65Z"/>
    <path class="cls-11" d="M385.9,182.7c.15.2.3.4.44.6-.27-.67-.55-1.34-.83-2.01-.05.48.08.99.39,1.41Z"/>
  </g>
  <g>
    <path class="cls-1" d="M171.94,482.8c-2.74-3.92-4.9-7.99-6.53-11.69-.48-1.09-.92-2.14-1.31-3.16,6.94,6.18,14.68,10.67,21.33,13.81,9.21,4.35,16.35,6.14,16.46,6.17.04.01.09.01.13.01.08.02.17.03.26.04.08.01.16.01.24.01s.16,0,.24-.01.16-.02.24-.04c.08-.01.15-.03.23-.06.08-.02.15-.05.22-.08.08-.03.15-.06.23-.1.07-.04.13-.08.2-.13.07-.04.13-.09.19-.14.07-.05.14-.11.2-.18.03-.03.06-.05.09-.08.02-.03.04-.06.06-.08.06-.07.11-.14.16-.22.04-.07.08-.13.12-.2.04-.07.07-.14.1-.22.04-.08.07-.16.09-.25.01-.03.03-.06.04-.09.01-.04.01-.09.01-.13.02-.08.03-.17.04-.26.01-.08.01-.16.01-.24s0-.16-.01-.24-.02-.16-.04-.24c-.01-.08-.03-.15-.06-.23-.02-.08-.05-.15-.08-.22-.03-.08-.06-.15-.1-.23-.04-.07-.08-.13-.13-.2-.04-.07-.09-.13-.14-.19-.05-.07-.11-.14-.18-.2-.03-.03-.05-.06-.08-.09-5.53-4.96-10.47-10.58-14.86-16.69-4.39-6.11-8.24-12.71-11.61-19.63-1.17-2.39-2.27-4.81-3.32-7.27-.77-1.78-1.5-3.58-2.21-5.39-6.38-16.35-10.51-33.76-13.14-50.16,33.58,24.34,71.54,35.78,112.1,35.77,24.99,0,50.98-4.32,77.61-12.6-2.53,10.49-5.8,20.51-9.74,29.89-.73,1.75-1.49,3.47-2.27,5.17-.66,1.45-1.34,2.89-2.05,4.3-9.89,20.14-23.07,36.82-38.68,48.47-.01.01-.02.02-.04.03-.07.06-.13.12-.2.19-.05.05-.11.1-.15.15-.06.07-.1.14-.15.21-.05.06-.1.12-.13.19-.04.07-.07.14-.1.21-.04.08-.07.16-.1.24-.02.06-.03.14-.05.21-.02.09-.05.18-.06.27,0,.02-.01.03-.01.05v.44c.01.08.02.16.04.23.01.08.02.17.05.25.02.08.05.15.08.23.03.08.05.15.09.22.04.08.09.16.14.23.03.05.05.1.09.15.01.01.02.02.03.04.06.07.13.13.19.2.05.05.1.11.15.15.07.06.14.1.21.15.06.05.12.1.19.13.07.04.14.07.21.1.08.04.16.07.24.1.06.02.14.04.21.05.09.02.18.05.27.06.02,0,.03.01.05.01,2,.2,4.01.29,6.02.29,14.72-.01,29.29-4.96,40.25-9.86,4.61-2.06,8.56-4.11,11.61-5.81-1.15,2.51-2.59,5.49-4.24,8.61-2.07,3.9-4.47,8.01-7.03,11.62-2.55,3.62-5.29,6.74-7.86,8.66-.05.03-.08.08-.12.11-.07.07-.15.12-.21.19-.05.06-.1.12-.15.19-.05.06-.1.13-.14.2-.05.07-.08.14-.12.22-.03.07-.07.14-.1.21-.03.09-.05.18-.07.27-.02.06-.04.11-.05.16v.05c-.02.09-.02.19-.03.28,0,.07-.01.14-.01.21.01.09.02.17.03.25.02.08.02.16.04.23.02.08.05.15.07.23.03.08.05.16.09.23.03.07.07.13.1.19.05.08.09.16.15.24.01.01.01.03.02.04.03.05.08.08.11.12.07.08.12.15.19.21.06.05.12.1.19.15.06.05.13.1.2.14.07.05.14.08.22.12.07.03.14.07.21.1.09.03.18.05.27.07.05.02.11.04.16.05.15.03,1.76.3,4.96.3,5.59,0,16.06-.84,32.16-5.35.05-.01.08-.04.12-.05.09-.03.17-.06.26-.1.07-.03.14-.07.21-.11.07-.04.13-.08.2-.13.07-.05.14-.11.21-.17.03-.03.07-.05.1-.08,6.65-6.65,12.15-13.91,16.65-21.59,4.5-7.69,8-15.82,10.66-24.23,5.33-16.81,7.33-34.75,7.33-52.68,0-6.08-.23-12.16-.65-18.2-.06-1.01-.13-2.01-.22-3.01-.29-3.84-.66-7.65-1.08-11.44,1.42.24,2.94.34,4.54.34,4.88,0,10.59-.99,16.51-2.89,5.47-1.76,11.12-4.31,16.33-7.65h0c2.68-1.71,5.23-3.64,7.61-5.78.5-.44.98-.9,1.46-1.36,3.61-3.52,6.7-7.57,8.89-12.16,2.18-4.59,3.46-9.72,3.46-15.29,0-.83-.03-1.67-.08-2.51-.1-1.37-.27-2.76-.51-4.17-.73-4.14-2.13-8.48-4.31-12.99-.04-.09-.08-.17-.12-.26-.01,0-.02-.02-.02-.03-.01-.01-.01-.02-.01-.03-.59-1.14-1.2-2.23-1.82-3.27-4.39-7.34-9.47-12.43-14.9-15.74-4.48-2.74-9.16-4.24-13.78-4.86-1.38-.19-2.75-.3-4.11-.33-.38-.01-.75-.02-1.13-.02-2.45,0-4.84.21-7.16.59-.64-5.58-3.17-25.72-9.14-51.28-2.68-11.46-6.03-24.01-10.23-36.84-2.14-6.55-4.5-13.17-7.11-19.75-5.69-14.46-12.53-28.73-20.73-41.68,0,0,0-.01-.01-.01-.06-.09-.13-.17-.2-.26-.04-.04-.07-.09-.11-.13-.04-.04-.09-.08-.13-.11-.08-.08-.16-.15-.26-.22h-.01c-.07-.05-2.66-1.79-7.57-4.37-4.91-2.58-12.14-6.02-21.47-9.44-9.92-3.64-22.23-7.27-36.64-9.88-.9-1.85-1.71-3.59-2.41-5.22-.03-.08-.08-.14-.11-.21-.04-.07-.08-.15-.13-.22s-.1-.13-.15-.19c-.06-.06-.11-.13-.16-.19-.06-.06-.13-.1-.19-.15s-.12-.11-.19-.15c-.07-.04-.14-.08-.21-.11-.07-.04-.14-.08-.22-.11-.07-.03-.15-.05-.22-.07-.08-.03-.16-.06-.23-.07-.08-.02-.16-.02-.24-.03-.08,0-.16-.02-.25-.02-.08,0-.16.02-.24.02-.08.01-.16.01-.24.03-.09.01-.17.05-.25.07-.07.02-.15.04-.22.07l-7.79,3.2h-.01s-2.48,1.03-2.48,1.03c-1.23-.14-2.47-.26-3.72-.38-5.15-.49-10.49-.84-16.04-1.01-1.74-.05-3.51-.08-5.3-.08-.6-.02-1.2-.02-1.81-.02-4.39,0-8.91.12-13.52.37-1.15-1.12-2.3-2.21-3.43-3.22-1.4-1.26-2.77-2.41-4.07-3.4-1.31-.98-2.55-1.81-3.76-2.42-.04-.02-.09-.03-.13-.04-.08-.04-.16-.07-.24-.1-.08-.02-.15-.04-.23-.06-.08-.01-.16-.03-.24-.04-.08,0-.16,0-.24,0s-.16,0-.25,0c-.08,0-.16.01-.24.03-.07.01-.15.03-.23.05-.08.03-.17.06-.25.09-.04.02-.08.02-.12.04l-28,13c-.51.24-.89.62-1.14,1.07-.4.22-.75.56-.99.99-6.25,1.38-12.64,3.01-19.17,4.92-1.34,2.07-2.62,4.2-3.86,6.39,6.67-2.09,13.21-3.87,19.6-5.39-2.66,4.41-5.93,9.51-9.51,14.91-7.98,12.05-17.46,25.53-24.94,36-1.03,1.44-2.03,2.83-2.97,4.14-.58,3.11-1.09,6.28-1.52,9.53-.01.05-.02.1-.03.15-.02.12-.04.24-.07.36-.02.09-.04.19-.07.28-.02.09-.05.18-.08.28-.04.11-.08.23-.12.34-.02.05-.04.1-.06.14-.05.12-.1.24-.15.36,3.87-5.32,10.24-14.14,17.18-24.01,5.63-8.01,11.64-16.72,17-24.81,4.75-7.17,8.98-13.83,12.02-19.17.39-.69.77-1.36,1.12-2.01l11.82-5.48,14.88-6.91c.59.37,1.26.82,1.97,1.36,1.14.86,2.4,1.92,3.69,3.09,1.02.9,2.05,1.86,3.1,2.87.6.59,1.21,1.19,1.81,1.79,2.97,2.97,5.85,6.07,8.11,8.57,1.36,1.5,2.5,2.79,3.29,3.7.15.17.27.31.39.45-4.32,4.87-8.62,10.19-12.22,14.83-3.07,3.93-5.61,7.35-7.22,9.54-1.98-2.21-5.22-5.76-9.02-9.64-3.16-3.21-6.7-6.66-10.23-9.76-3.55-3.11-7.06-5.88-10.3-7.77-.01,0-.02-.01-.02-.01-.08-.04-.16-.07-.24-.11-.08-.03-.15-.07-.23-.1-.01,0-.02,0-.03-.01-.06-.02-.11-.02-.17-.03-.1-.03-.19-.05-.29-.06-.08,0-.15,0-.23,0-.09,0-.17-.01-.25,0-.09,0-.17.03-.25.04-.07.02-.15.03-.23.05-.07.02-.15.05-.22.08-.08.03-.15.05-.22.09-.07.04-.14.08-.2.12-.07.05-.15.09-.21.14-.07.05-.13.11-.19.17-.05.05-.11.1-.16.16-.07.07-.12.16-.18.24-.03.05-.07.09-.1.14,0,.01-.01.02-.01.02-.04.08-.07.16-.11.24-.03.08-.07.15-.1.23,0,.01,0,.02-.01.03l-55.93,179.83c-.04.12-.08.24-.11.37l-8.96,28.8c-.31.98.03,2.01.77,2.64,0,.01.01.02.02.01.24.22.53.38.86.48,1.3.4,2.68-.31,3.11-1.6.01-.01.01-.03.02-.05l.2-.61v-.05l3.55-11.39c.12,17.42,1.56,45.46,8.19,74.38.46,2.01.95,4.03,1.47,6.04v.02c.88,3.46,1.83,6.93,2.88,10.37h0c2.94,9.75,6.56,19.36,11.02,28.51,5.35,10.97,11.91,21.25,19.95,30.17-1.84-.74-3.86-1.62-6-2.64-8.71-4.15-19.18-10.69-26.7-20.1-.03-.04-.07-.07-.1-.1-.06-.07-.12-.13-.19-.19-.05-.06-.12-.11-.18-.15-.07-.05-.13-.1-.2-.14-.07-.04-.14-.08-.22-.11-.07-.04-.14-.07-.22-.1-.07-.02-.15-.04-.22-.06-.08-.02-.16-.04-.24-.05-.08-.02-.16-.02-.24-.03h-.24c-.09,0-.18,0-.27.03-.05,0-.09,0-.14.01-.03.01-.05.02-.08.03-.08.02-.17.05-.25.08-.08.02-.15.05-.22.08-.07.04-.14.08-.21.12-.08.04-.15.09-.22.14-.03.02-.05.03-.07.05-.04.03-.07.06-.1.1-.07.06-.13.12-.19.19-.06.05-.11.12-.15.18-.05.07-.1.13-.14.2-.04.07-.08.14-.11.22-.04.07-.07.14-.1.22-.02.07-.04.15-.06.22-.02.08-.04.16-.05.24-.02.08-.02.16-.03.24v.24c0,.09.01.18.03.27,0,.05,0,.09.01.14.03.12,1.31,6.27,4.79,14.13,2.82,6.37,7.09,13.9,13.4,20.19.02-.02.05-.04.07-.06.06-.05.12-.09.19-.13.09-.07.19-.14.29-.21.06-.03.12-.06.18-.1.1-.06.21-.12.32-.18.07-.03.14-.06.21-.1.1-.04.2-.09.31-.13.09-.04.18-.07.27-.1.09-.03.17-.06.26-.08.11-.04.23-.06.34-.09.07,0,.14-.03.22-.05.12-.02.24-.03.37-.05.07-.01.13-.02.2-.02.12-.02.24-.02.36-.02.07,0,.15-.01.22-.01.11,0,.21.01.32.02.09,0,.18.01.28.02.08.01.17.02.26.04.11.01.22.03.34.05.07.02.14.04.21.06.13.03.25.06.37.1.02.01.05.01.07.02.05.02.1.04.15.06.11.04.22.08.33.13.1.04.19.08.28.13.08.04.16.08.24.12.12.07.23.13.33.2.05.03.09.05.13.08h.01s.07.05.07.05c.06.04.14.09.25.17-3.85-3-7.09-6.65-9.75-10.45ZM425.98,297.12c5.51,0,11.09,1.22,16.42,4.47,5.31,3.25,10.43,8.57,14.87,17.03,3.17,6.52,4.5,12.41,4.5,17.71,0,6.41-1.93,12.03-5.13,16.98-4.8,7.42-12.59,13.27-20.86,17.21-4.13,1.97-8.36,3.46-12.37,4.46-4,.99-7.76,1.49-10.91,1.48-1.71,0-3.22-.14-4.48-.41-.23-.05-.45-.06-.67-.04-.8-6.4-1.75-12.7-2.79-18.83-3.03-17.93-6.77-34.47-9.61-48.19-.07-.34-.13-.67-.21-1.01.46-.32,1.13-.77,1.98-1.3,1.71-1.08,4.16-2.52,7.13-3.94,5.94-2.85,13.94-5.63,22.13-5.62ZM340.12,133.31c9.1,3.34,16.13,6.68,20.87,9.17,2.37,1.25,4.16,2.28,5.36,3,.58.35,1.02.62,1.31.81,6.86,10.89,12.77,22.8,17.85,34.98v.02c.28.67.56,1.34.83,2.01,8.26,20.24,14.25,41.13,18.48,59.27,3.48,14.92,5.78,27.99,7.21,37.31.71,4.66,1.21,8.39,1.53,10.94.16,1.27.27,2.25.35,2.91-4.65,1.18-8.86,2.89-12.37,4.58-3.37,1.62-6.09,3.24-7.92,4.41-4.14-18.33-10.43-36.46-17.84-53.93-8.25-19.45-17.88-38.09-27.47-55.26-9.59-17.17-19.14-32.88-27.21-46.46-5.02-8.45-9.47-16.08-12.99-22.69,12.47,2.47,23.21,5.7,32.01,8.93ZM289.99,121.53l9.22-3.79c.79,1.73,1.7,3.57,2.67,5.48,3.85,7.56,8.99,16.41,14.92,26.4,12.13,20.41,27.48,45.46,41.28,72.94,13.8,27.47,26.04,57.38,31.97,87.42v.02h0c2.86,13.79,6.58,30.25,9.58,48.02,3,17.76,5.28,36.82,5.28,55.75,0,17.56-1.96,34.99-7.09,51.17-5.07,15.99-13.22,30.74-25.64,43.33-13.89,3.84-23.24,4.82-28.61,4.97,1.61-1.79,3.16-3.78,4.64-5.89,4.2-6.02,7.83-12.97,10.43-18.44,2.61-5.47,4.17-9.46,4.19-9.5.02-.05.03-.1.04-.16.03-.1.07-.19.08-.29.02-.08.02-.16.03-.24.01-.08.02-.16.02-.24,0-.09-.02-.16-.03-.25,0-.08,0-.16-.02-.24-.02-.08-.05-.15-.07-.23-.03-.08-.05-.16-.08-.23-.04-.1-.09-.18-.14-.27-.03-.05-.05-.1-.08-.15h-.01c-.07-.11-.15-.21-.24-.3-.03-.03-.05-.06-.08-.09-.06-.06-.13-.11-.19-.16-.07-.05-.12-.11-.19-.15-.04-.02-.08-.04-.11-.06-.11-.06-.22-.12-.33-.17t-.02-.01s-.1-.03-.16-.04c-.09-.03-.19-.07-.29-.08-.08-.02-.16-.02-.24-.03-.08,0-.16-.02-.24-.02-.09,0-.17.02-.25.03-.08,0-.16.01-.24.02-.08.02-.16.05-.24.08-.07.02-.15.04-.22.07-.1.04-.19.09-.28.15-.04.02-.09.04-.14.07h-.01c-.36.25-7.6,5-18.12,9.66-10.25,4.55-23.63,8.97-36.69,9.18,16.42-13.89,29.8-33.1,39.32-55.77,10.53-25.06,16.36-54.34,16.36-85.36,0-22.45-3.08-45.82-9.64-69.15-.42-1.5-.85-2.99-1.3-4.49-10.48-34.81-28.82-69.38-56.54-100.53-2.85-4.06-5.72-9.29-8.38-14.85-4.03-8.39-7.59-17.5-10.14-24.5-1.27-3.51-2.29-6.48-3-8.57-.33-1.01-.59-1.8-.77-2.36l19.8-8.16ZM253.81,120.27l-.18-.18c2.97-.11,5.9-.16,8.77-.16,5.84,0,11.47.22,16.89.6l-13.73,5.65h-.01s-.05.04-.08.05c-.12.05-.24.11-.36.19-.11.08-.22.17-.32.26-.02.02-.04.03-.06.05h0s-.01.01-.01.02c-.85.85-1.71,1.74-2.58,2.67-1.65-1.9-4.75-5.4-8.33-9.15ZM251.47,149.76c4.34-5.54,9.57-11.89,14.44-17.06,1.12,3.36,3.33,9.84,6.26,17.33,1.96,5.01,4.24,10.45,6.71,15.73-.27-.11-.54-.21-.8-.31-2.31-.84-4.54-1.17-6.6-1.17-3.7,0-6.8,1.06-8.98,2.11-.37.17-.7.34-1.01.52-1.68-2.96-3.69-5.09-5.86-6.5-2.76-1.81-5.69-2.42-8.25-2.41-.82,0-1.59.06-2.33.16,1.7-2.28,3.91-5.2,6.42-8.4ZM209.91,136.39c2.14,1.5,4.48,3.39,6.85,5.47,4.56,4.01,9.22,8.7,12.98,12.65-1.7-.44-3.54-.73-5.5-.73-2.45,0-5.07.45-7.7,1.55-1.9.8-3.8,1.94-5.67,3.47-.59-.93-1.27-1.7-2.06-2.27-1.24-.91-2.67-1.27-3.91-1.26-.31,0-.6.04-.89.08l5.9-18.96ZM157.99,377.49c-2.76-20.03-3.36-38.02-3.36-49.94,0-4.66.09-8.4.18-10.96.05-1.28.09-2.27.13-2.93.01-.27.02-.47.03-.63l.72-2.3,5.3-17.06,3.73-11.98,2.31-7.43,12.89-41.46,1.64-5.25,20.57-66.15c.11-.09.52-.39,1.04-.65.57-.28,1.24-.49,1.73-.48.38.01.63.07.98.31.34.25.83.77,1.32,1.9.23.54.64.95,1.11,1.21.12.2.25.4.42.58.32.32.71.54,1.12.64.83.23,1.76.01,2.42-.64.84-.84,1.68-1.57,2.5-2.18,1.26-.95,2.5-1.64,3.71-2.15,1.99-.83,3.91-1.16,5.76-1.16,3.68-.01,7.12,1.36,9.62,2.78,1.25.71,2.26,1.42,2.94,1.95.34.26.6.48.77.62l.19.16.03.04s.07.04.1.07c.06.06.14.11.21.16.07.04.13.09.2.12.07.04.14.08.22.11.07.03.15.06.23.09.07.02.15.04.22.05.08.02.16.04.24.05.08.01.16.01.24.01h.24c.08-.01.16-.02.24-.04.08-.01.16-.03.24-.05.07-.02.15-.05.22-.07.08-.04.16-.07.24-.11.04-.02.07-.03.1-.05h0s.79-.43,2.01-.85c1.23-.42,2.89-.82,4.64-.82,1.81.01,3.68.4,5.52,1.59,1.83,1.2,3.71,3.26,5.31,6.91,0,.03.03.05.04.07.04.08.08.16.13.23.04.07.09.15.14.21.02.03.03.05.05.07.03.04.07.07.1.11.06.06.12.13.19.19.06.05.12.1.19.14.06.05.13.09.2.14.07.04.14.07.22.11.07.03.14.06.21.09.08.02.16.04.24.06.08.02.15.04.23.05.08.01.16.01.24.02h.24c.08-.01.16-.02.25-.03.07,0,.15-.02.23-.04.08-.02.17-.05.25-.09.05,0,.1-.02.14-.04.03-.01.05-.03.07-.04.08-.04.16-.08.23-.13.07-.04.15-.09.21-.14.02-.01.05-.02.06-.04.01-.01.28-.22.75-.52.48-.31,1.16-.71,2-1.1.79-.37,1.73-.73,2.77-1.01,1.18-.32,2.49-.53,3.89-.53.23,0,.46.01.7.02,1.31.06,2.71.32,4.19.85,1.74.63,3.59,1.66,5.53,3.27.32.27.69.43,1.07.51,1.76,3.27,3.6,6.33,5.49,9.01.03.04.06.07.09.11.03.04.05.08.08.11,11.1,12.46,20.68,25.48,28.82,38.85,1.2,1.97,2.37,3.94,3.5,5.93,7.39,12.86,13.48,26.01,18.36,39.25.07.2.15.4.22.6.97,2.64,1.88,5.28,2.75,7.93,1.22,3.7,2.35,7.4,3.38,11.1.69,2.47,1.34,4.93,1.95,7.4h.01c5,20.25,7.35,40.43,7.35,59.91,0,16.64-1.72,32.75-4.96,47.93-.09.01-.18.03-.27.06-1.84.59-3.68,1.15-5.51,1.7-1.38.42-2.77.82-4.14,1.22-23.71,6.74-46.77,10.23-68.96,10.23-36.5,0-70.59-9.42-101.32-29.43-1.56-1.02-3.12-2.07-4.67-3.14-2.39-1.66-4.77-3.39-7.12-5.19-.01-.01-.02-.01-.03-.02Z"/>
    <path class="cls-1" d="M528.12,427.44c-3.86-20.54-9.02-41.91-14.32-61.97,0-.01,0-.02-.01-.02v-.03c-2.34-8.58-3.89-16.43-4.85-23.71-.97-7.29-1.35-14.01-1.35-20.36,0-12.41,1.47-23.42,2.99-34.36,1.52-10.93,3.1-21.81,3.11-33.72,0-9.49-1.03-19.6-3.88-30.75-.01-.05-.03-.1-.04-.15s-.02-.1-.04-.15c-4.89-15.77-11.87-33.62-20.71-51.6-13.28-26.97-30.7-54.22-51.79-75.04-10.55-10.4-22.03-19.2-34.45-25.45-12.4-6.24-25.77-9.9-39.83-9.9-9.82,0-19.93,1.8-30.2,5.62-1.48-1.5-3.09-2.89-4.85-4.13-4.63-3.26-10.12-5.63-16.2-7.19-6.08-1.57-12.77-2.34-19.87-2.34-12.98,0-27.36,2.58-41.93,7.93-21.85,8.02-44.13,22.32-62.2,43.78-17.93,21.28-31.62,49.63-36.52,85.47-32.03,75.72-43.51,135.04-43.51,181.23,0,27.85,4.18,50.91,10.52,69.82,9.5,28.38,23.87,47.34,35.94,59.17,12.07,11.85,21.82,16.6,22.27,16.82.06.02.11.04.17.07.1.04.2.09.3.12.09.04.18.07.28.1.09.03.18.06.27.08.1.03.2.06.3.08.09.02.18.04.27.05.1.02.2.03.31.04.09.02.18.02.27.03.1.01.2.01.3.01.1.01.2.01.3,0,.09,0,.18,0,.27-.01.11-.01.21-.02.31-.03.09-.01.18-.03.27-.04.1-.02.2-.04.31-.06.09-.02.18-.05.27-.07.1-.03.19-.06.29-.09.1-.03.2-.07.3-.11.06-.02.12-.04.17-.07.03-.01.05-.02.08-.03.1-.05.2-.1.3-.15.08-.04.16-.08.23-.12.09-.05.18-.11.27-.17.08-.05.16-.1.23-.15.08-.05.16-.12.24-.18.07-.06.15-.12.22-.18.08-.06.15-.13.22-.2s.14-.13.21-.2c.06-.07.12-.15.18-.22.07-.08.14-.15.2-.23.05-.07.1-.15.16-.22.06-.09.12-.18.18-.27.04-.07.08-.15.13-.22.05-.1.11-.2.16-.3.01-.02.03-.05.04-.07.02-.05.04-.1.06-.15.05-.12.1-.23.15-.35.03-.08.05-.16.08-.25.04-.11.07-.22.1-.33.02-.09.04-.17.06-.26.03-.12.05-.24.07-.37l.03-.21c0-.15.02-.3.03-.45,0-.05.01-.09.01-.13.01-.79-.13-1.6-.45-2.37,5.38,2.84,12.86,6.41,22.18,9.99,20.26,7.77,49.27,15.52,84.41,15.52,12.03,0,24.79-.93,38.14-3.06,4.15,1.59,15.25,5.17,31.15,5.18,15.84.01,36.42-3.62,59.18-16.23,2,1.29,4.84,2.89,8.57,4.47,7.85,3.34,19.64,6.56,35.62,6.55,16.54,0,37.53-3.43,63.35-13.55h0s.02-.01.03-.01c.05-.02.1-.05.15-.07.13-.06.25-.11.37-.17.09-.04.17-.1.26-.14.08-.05.17-.1.25-.15.09-.06.18-.12.27-.18.07-.05.14-.1.21-.16.08-.06.16-.13.24-.2.07-.06.14-.12.2-.18.07-.07.14-.14.2-.21.07-.07.14-.14.21-.22.06-.07.11-.13.16-.2.07-.09.14-.17.2-.26.05-.07.09-.14.13-.21.06-.1.13-.19.18-.29.05-.08.09-.16.13-.24.04-.09.09-.18.13-.28.06-.11.1-.23.14-.35.02-.06.05-.12.07-.18,0,0,.01-.02.01-.02,0-.02.01-.04.01-.06,2.75-8.32,3.81-18.18,3.82-29.22,0-16.91-2.56-36.61-6.41-57.16ZM520.1,507.44c-19.88,7.52-36.31,10.72-49.59,11.51-1.46.08-2.88.14-4.26.17-.83.02-1.65.03-2.45.03-14.37,0-24.48-2.86-30.93-5.6-3.23-1.37-5.54-2.71-7-3.67-.73-.47-1.24-.86-1.55-1.09-.15-.12-.25-.21-.3-.25l-.04-.03c-.11-.09-.22-.18-.33-.26-.19-.15-.39-.29-.59-.41-.02-.01-.04-.02-.06-.03-.32-.19-.65-.34-.99-.46-.04-.02-.08-.02-.11-.04-.34-.11-.68-.19-1.02-.24-.03-.01-.07-.01-.1-.01-.35-.05-.71-.07-1.06-.05h-.07c-.36.02-.72.08-1.08.16-.01.01-.03.01-.05.02-.25.06-.49.14-.73.24-.11.03-.21.08-.31.12-.02.02-.04.03-.07.04-.15.08-.3.15-.45.24-22.25,13.07-41.79,16.51-56.53,16.53-8.84,0-15.95-1.26-20.79-2.5-2.42-.61-4.27-1.22-5.48-1.66-.61-.22-1.05-.4-1.33-.51-.14-.06-.24-.1-.29-.13h-.04c-.36-.18-.73-.31-1.12-.4-.08-.02-.16-.03-.24-.05-.11-.02-.22-.04-.34-.06l-.39-.03c-.06,0-.13,0-.19-.02-.41-.01-.81.02-1.2.08h-.01c-13.29,2.22-25.96,3.16-37.87,3.16-33.37,0-60.93-7.37-80.11-14.72-9.59-3.68-17.08-7.35-22.14-10.08-2.52-1.36-4.44-2.49-5.71-3.26-.64-.39-1.11-.69-1.41-.88-.03-.02-.05-.04-.08-.05-.11-.08-.19-.13-.25-.17l-.07-.04h-.01s-.08-.06-.13-.09c-.1-.07-.21-.13-.33-.2-.08-.04-.16-.08-.24-.12-.09-.05-.18-.09-.28-.13-.11-.05-.22-.09-.33-.13-.05-.02-.1-.04-.15-.06-.02-.01-.05-.01-.07-.02-.12-.04-.24-.07-.37-.1-.07-.02-.14-.04-.21-.06-.12-.02-.23-.04-.34-.05-.09-.02-.18-.03-.26-.04-.1-.01-.19-.02-.28-.02-.11,0-.21-.02-.32-.02-.07,0-.15.01-.22.01-.12,0-.24,0-.36.02-.07,0-.13.01-.2.02-.13.02-.25.03-.37.05-.08.02-.15.04-.22.05-.11.03-.23.05-.34.09-.09.02-.17.05-.26.08-.09.03-.18.06-.27.1-.11.04-.21.09-.31.13-.07.04-.14.07-.21.1-.11.06-.22.12-.32.18-.06.04-.12.07-.18.1-.1.07-.2.14-.29.21-.07.04-.13.08-.19.13-.02.02-.05.04-.07.06-.06.05-.11.09-.17.14-.07.07-.14.13-.21.19l-.18.18c-.08.09-.16.17-.24.26-.05.06-.09.11-.13.17-.08.1-.16.21-.24.32-.01.01-.03.03-.04.04-.02.04-.04.09-.07.13-.08.11-.15.23-.21.35-.05.08-.08.16-.12.23-.05.11-.1.21-.15.32-.04.09-.07.18-.11.28-.02.05-.04.11-.06.16s-.03.1-.04.15c-.03.08-.05.16-.07.25-.26.84-.45,1.67-.59,2.49-8.73-6.78-21.61-19.22-32.36-39.63-10.83-20.56-19.57-49.25-19.58-88.76,0-44.26,11.02-102.12,42.7-176.9.05-.12.1-.24.15-.36.02-.04.04-.09.06-.14.04-.11.08-.23.12-.34.03-.1.06-.19.08-.28.03-.09.05-.19.07-.28.03-.12.05-.24.07-.36.01-.05.02-.1.03-.15.43-3.25.94-6.42,1.52-9.53,3.46-18.65,9.49-34.79,17.24-48.65.19-.34.38-.67.58-1.01,1.24-2.19,2.52-4.32,3.86-6.39,13.09-20.43,30.07-35.39,47.86-45.52,4.01-2.28,8.06-4.3,12.11-6.1,4.68-2.07,9.37-3.84,14-5.27,1.28-.4,2.57-.78,3.84-1.13,9.84-2.72,19.34-4.01,27.87-4.01s15.68,1.23,21.55,3.43c1.91.71,3.66,1.52,5.23,2.42.85.48,1.64.98,2.38,1.5.45.32.88.64,1.29.98,1.54,1.23,2.83,2.57,3.86,4,.03.05.06.09.1.13.08.1.16.21.24.31.05.05.11.11.16.17.08.08.16.17.25.25.07.06.14.12.21.18.07.06.15.13.23.19.08.07.17.13.25.19.07.04.14.09.22.14.09.06.19.11.28.17.08.04.15.08.22.11.1.05.2.1.3.14.08.04.15.07.23.1.1.04.19.07.29.1.09.03.18.06.27.09.09.02.18.04.27.06.1.02.2.05.3.07.08.01.16.02.25.03.11.02.22.03.33.04.08.01.16.01.24.01.11,0,.22.01.33.01.09-.01.17-.01.26-.02.11,0,.21-.01.32-.02.09,0,.19-.03.29-.05.09-.01.18-.03.27-.04.06-.02.12-.03.18-.05.06-.01.11-.03.17-.04.07-.02.14-.04.22-.06.12-.04.25-.09.37-.14.05-.02.1-.03.15-.06,3.78-1.6,7.5-2.87,11.15-3.84,6.32-1.67,12.46-2.44,18.46-2.45,7.98,0,15.72,1.38,23.27,3.93,13.21,4.46,25.84,12.59,37.6,23.25,17.64,15.97,33.24,37.6,45.89,60.24,12.63,22.56,22.35,46.13,28.51,65.96,2.56,10.1,3.46,19.07,3.47,27.66,0,9.34-1.09,18.27-2.38,27.61-.2,1.47-.41,2.96-.62,4.46-.24,1.74-.48,3.5-.72,5.29-1.26,9.44-2.38,19.48-2.38,30.72,0,2.35.05,4.75.16,7.2.05,1.47.14,2.95.25,4.46.74,10.65,2.61,22.36,6.2,35.52,2.62,9.94,5.21,20.19,7.62,30.47,2.4,10.28,4.62,20.6,6.5,30.65,3.78,20.12,6.22,39.25,6.21,54.95,0,8.92-.8,16.72-2.43,22.84Z"/>
    <path class="cls-1" d="M411,342.5s1.97-1.46,5.29-3.1c3.32-1.64,8.03-3.5,13.62-4.43,1.36-.23,2.28-1.52,2.06-2.88-.23-1.36-1.52-2.28-2.88-2.06-6.31,1.06-11.53,3.15-15.21,4.98-3.67,1.84-5.78,3.43-5.88,3.49-1.1.83-1.33,2.4-.5,3.5.83,1.1,2.39,1.33,3.5.5Z"/>
  </g>
</svg>